<?xml version="1.0" standalone="no"?>
<!DOCTYPE svg PUBLIC "-//W3C//DTD SVG 1.1//EN" "http://www.w3.org/Graphics/SVG/1.1/DTD/svg11.dtd" >
<svg>
<metadata>
Created by FontForge 20090622 at Thu Jan 14 11:29:31 2016
 By deploy user
&#194;&#169; 2011 Klim Type Foundry. All rights reserved.
</metadata>
<defs>
<font id="Calibre-Bold" horiz-adv-x="1024" >
  <font-face 
    font-family="Calibre-Bold"
    font-weight="700"
    font-stretch="normal"
    units-per-em="2048"
    panose-1="2 11 8 3 3 2 2 6 2 3"
    ascent="1331"
    descent="-717"
    x-height="922"
    cap-height="1257"
    bbox="-246 -483 2001 1890"
    underline-thickness="61"
    underline-position="-82"
    unicode-range="U+0020-U+FB02"
  />
<missing-glyph horiz-adv-x="1245" 
 />
    <glyph glyph-name="f_f" unicode="ff" horiz-adv-x="1308" 
d="M1212 1081q-115 0 -114 -110v-49h178v-250h-178v-672h-318v672h-299v-672h-317v672h-137v250h137v55q0 166 95 263t263 97q82 0 150 -24v-262q-35 18 -76 18q-115 0 -115 -102v-45h299v67q0 166 96 263t263 98q81 0 149 -25v-262q-35 18 -76 18z" />
    <glyph glyph-name=".notdef" horiz-adv-x="1245" 
 />
    <glyph glyph-name=".null" horiz-adv-x="0" 
 />
    <glyph glyph-name="nonmarkingreturn" horiz-adv-x="681" 
 />
    <glyph glyph-name="space" unicode=" " horiz-adv-x="409" 
 />
    <glyph glyph-name="exclam" unicode="!" horiz-adv-x="489" 
d="M121 422l-72 835h391l-71 -835h-248zM246 -14q-80 0 -136 52t-57 129q1 77 57 129t136 52t135 -52t55 -129t-55 -129t-135 -52z" />
    <glyph glyph-name="quotedbl" unicode="&#x22;" horiz-adv-x="729" 
d="M410 727v530h247v-530h-247zM74 727v530h248v-530h-248z" />
    <glyph glyph-name="numbersign" unicode="#" horiz-adv-x="1300" 
d="M569 735l-51 -213h213l51 213h-213zM1167 522l-45 -203h-209l-75 -319h-232l76 319h-213l-76 -319h-229l76 319h-199l47 203h199l51 213h-205l45 203h209l76 319h231l-78 -319h213l78 319h230l-76 -319h199l-48 -203h-200l-51 -213h206z" />
    <glyph glyph-name="dollar" unicode="$" horiz-adv-x="1058" 
d="M408 -176v194q-152 29 -247 122t-120 237h319q41 -117 187 -117q65 0 105 30t40 77t-28 71t-95 39l-202 47q-303 74 -304 342q1 146 95 246t250 127v186h262v-192q274 -63 323 -342h-303q-47 106 -174 106q-63 1 -101 -27t-38 -75q0 -74 98 -98l223 -56q309 -76 310 -352
q0 -147 -92 -245t-246 -128v-192h-262z" />
    <glyph glyph-name="percent" unicode="%" horiz-adv-x="1392" 
d="M1046 170q46 0 76 33t31 79q0 46 -31 76q-30 30 -76 31q-46 0 -79 -31q-33 -32 -33 -76t33 -78t79 -34zM649 976q0 -126 -88 -212t-214 -86t-212 86t-86 212t86 214t211 88t214 -88t89 -214zM1046 580q126 0 213 -86t87 -212t-88 -214t-212 -88t-213 88t-89 214t87 212
q89 86 215 86zM240 975q0 -45 32 -76t76 -31q45 0 78 31t33 76t-33 79t-78 34t-77 -34q-31 -34 -31 -79zM201 0l807 1257h184l-807 -1257h-184z" />
    <glyph glyph-name="ampersand" unicode="&#x26;" horiz-adv-x="1247" 
d="M503 227q71 0 140 33l-227 252q-66 -45 -66 -123t41 -120t112 -42zM603 1026q-48 0 -79 -30t-30 -82t45 -102q14 -17 47 -54l239 -279q29 78 33 187h283q-2 -225 -129 -404l227 -262h-360l-66 72q-145 -92 -329 -92t-307 108q-122 108 -122 291q-1 100 53 187t144 139
q-68 100 -68 215q0 162 117 260t301 98t295 -99t121 -255h-309q-4 42 -31 72t-75 30z" />
    <glyph glyph-name="quotesingle" unicode="'" horiz-adv-x="409" 
d="M74 727v530h262v-530h-262z" />
    <glyph glyph-name="parenleft" unicode="(" horiz-adv-x="684" 
d="M61 580q0 288 156 490t426 261v-301q-289 -98 -289 -450t289 -451v-301q-270 59 -426 261t-156 491z" />
    <glyph glyph-name="parenright" unicode=")" horiz-adv-x="684" 
d="M623 580q0 -289 -156 -491t-426 -261v301q289 99 289 451t-289 450v301q270 -59 426 -261t156 -490z" />
    <glyph glyph-name="asterisk" unicode="*" horiz-adv-x="704" 
d="M276 1331h154v-176l150 88l77 -131l-153 -88l153 -88l-77 -131l-150 88v-176h-154v176l-151 -88l-76 131l152 88l-152 88l76 131l151 -88v176z" />
    <glyph glyph-name="plus" unicode="+" horiz-adv-x="1138" 
d="M451 1077h237v-346h346v-237h-346v-344h-237v344h-347v237h347v346z" />
    <glyph glyph-name="comma" unicode="," horiz-adv-x="456" 
d="M39 194q0 72 54 122t135 50q82 0 136 -52q54 -54 54 -147t-78 -212l-113 -170h-202l153 235q-59 12 -99 56q-40 46 -40 118z" />
    <glyph glyph-name="hyphen" unicode="-" horiz-adv-x="638" 
d="M74 401v271h493v-271h-493z" />
    <glyph glyph-name="period" unicode="." horiz-adv-x="456" 
d="M39 177q0 81 54 136t134 55t135 -54q56 -54 56 -136t-56 -137t-134 -55q-79 0 -134 55t-55 136z" />
    <glyph glyph-name="slash" unicode="/" horiz-adv-x="806" 
d="M10 -172l508 1503h279l-508 -1503h-279z" />
    <glyph glyph-name="zero" unicode="0" horiz-adv-x="1144" 
d="M571 989q-102 0 -152 -101t-50 -259t50 -259q50 -102 152 -102q103 0 153 102t50 259q0 158 -50 259q-51 101 -153 101zM571 -20q-231 0 -375 180t-145 469q1 289 145 469t375 180t377 -181t146 -468t-146 -468t-377 -181z" />
    <glyph glyph-name="one" unicode="1" horiz-adv-x="751" 
d="M639 1257v-1257h-320v901l-292 -141v311l391 186h221z" />
    <glyph glyph-name="two" unicode="2" horiz-adv-x="1005" 
d="M612 866q0 51 -31 84q-32 33 -87 33t-87 -36t-36 -89h-340q18 182 143 301t326 119q200 0 322 -108t122 -283q0 -76 -38 -152t-80 -123t-124 -125l-206 -204h452v-283h-911v211l432 430q76 78 110 126q33 48 33 99z" />
    <glyph glyph-name="three" unicode="3" horiz-adv-x="997" 
d="M395 518v236h68q72 0 116 32t44 90t-34 93t-95 35q-62 0 -100 -40t-44 -100h-315q20 178 145 296t324 118q198 0 314 -106t116 -279q0 -80 -39 -153t-98 -105q73 -35 113 -106t40 -158q0 -170 -122 -281q-122 -110 -330 -110t-339 116q-130 116 -143 307h328
q6 -67 46 -107t104 -40t104 36q39 36 39 97t-45 95t-119 34h-78z" />
    <glyph glyph-name="four" unicode="4" horiz-adv-x="1073" 
d="M584 500v213h282v-213h172v-267h-172v-233h-282v233h-547v242l381 782h313l-346 -757h199z" />
    <glyph glyph-name="five" unicode="5" horiz-adv-x="1017" 
d="M668 414q0 70 -41 114t-116 43q-75 0 -140 -65h-265v751h775v-280h-510v-189q78 45 190 46q188 0 300 -116t112 -308t-124 -311t-332 -119t-335 114t-141 309h319q8 -67 50 -107t110 -40t108 44t40 114z" />
    <glyph glyph-name="six" unicode="6" horiz-adv-x="1060" 
d="M603 829q177 -1 291 -117t114 -300t-127 -308q-127 -125 -340 -124q-121 0 -221 54t-164 154q-104 156 -104 434t133 468q134 188 368 188q184 0 299 -96q114 -97 145 -267h-309q-31 95 -125 95t-147 -80t-56 -185v-10q66 94 243 94zM373 414q0 -76 47 -123t122 -47
t124 48t49 123t-49 123t-124 48t-122 -48t-47 -124z" />
    <glyph glyph-name="seven" unicode="7" horiz-adv-x="954" 
d="M27 975v282h880v-221l-381 -1036h-331l366 975h-534z" />
    <glyph glyph-name="eight" unicode="8" horiz-adv-x="1040" 
d="M520 -20q-203 0 -338 100t-135 268q0 106 56 183t147 108q-78 37 -121 109t-43 163q0 171 126 269t308 98t308 -98t126 -269q0 -91 -43 -163t-118 -109q88 -31 145 -108t57 -183q0 -168 -136 -268t-339 -100zM521 774q60 0 101 36q40 36 40 93t-40 93t-100 36t-102 -36
q-41 -36 -41 -93t41 -93t101 -36zM520 512q-70 0 -114 -38t-44 -100t45 -102t114 -39q69 0 114 39q45 40 45 102t-45 100t-115 38z" />
    <glyph glyph-name="nine" unicode="9" horiz-adv-x="1060" 
d="M498 248q94 0 147 80t55 184v10q-66 -94 -242 -94t-291 117q-114 117 -114 301t127 308t340 124q121 0 221 -54t164 -155q105 -157 105 -435t-134 -466t-368 -188q-184 0 -299 96t-146 266h310q31 -94 125 -94zM688 844q0 76 -47 123t-122 47t-124 -48t-49 -123t49 -123
t124 -48t122 48t47 124z" />
    <glyph glyph-name="colon" unicode=":" horiz-adv-x="456" 
d="M39 721q0 82 54 136t134 54t135 -54q56 -54 56 -136t-56 -137q-56 -56 -134 -56q-79 0 -134 56t-55 137zM39 177q0 81 54 136t134 55t135 -54q56 -54 56 -136t-56 -137t-134 -55q-79 0 -134 55t-55 136z" />
    <glyph glyph-name="semicolon" unicode=";" horiz-adv-x="456" 
d="M39 721q0 82 54 136t134 54t135 -54q56 -54 56 -136t-56 -137q-56 -56 -134 -56q-79 0 -134 56t-55 137zM39 194q0 72 54 122t135 50q82 0 136 -52q54 -54 54 -147t-78 -212l-113 -170h-202l153 235q-59 12 -99 56q-40 46 -40 118z" />
    <glyph glyph-name="less" unicode="&#x3c;" horiz-adv-x="886" 
d="M86 461v295l707 313v-264l-484 -197l484 -194v-267z" />
    <glyph glyph-name="equal" unicode="=" horiz-adv-x="1175" 
d="M125 696v215h926v-215h-926zM125 324v211h926v-211h-926z" />
    <glyph glyph-name="greater" unicode="&#x3e;" horiz-adv-x="886" 
d="M803 756v-295l-707 -314v267l484 194l-484 197v264z" />
    <glyph glyph-name="question" unicode="?" horiz-adv-x="972" 
d="M932 901q0 -53 -24 -110t-40 -82t-73 -94t-64 -74q-55 -66 -59 -119h-318q2 55 26 108t94 132q69 78 82 96q42 57 42 109t-32 84t-85 32t-85 -36t-36 -89h-331q18 184 141 302t324 118q202 0 320 -102t118 -275zM315 168q-1 78 55 129t137 51t137 -51t56 -129t-56 -130
t-137 -52t-137 52t-55 130z" />
    <glyph glyph-name="at" unicode="@" horiz-adv-x="1554" 
d="M631 415q0 -130 104 -128q74 -1 115 67l31 176q-18 64 -90 64t-116 -56t-44 -123zM1155 219q90 0 144 90t55 252q0 211 -148 333t-381 122q-274 0 -444 -174t-170 -453q0 -347 281 -482q141 -69 357 -70t437 97v-153q-193 -96 -482 -96t-519 165q-113 82 -179 222
t-65 317q0 330 219 555t565 225q303 0 496 -173t193 -425t-122 -382t-294 -130t-250 103q-66 -98 -200 -98t-209 88q-75 90 -74 227q0 180 106 309t274 129q55 1 105 -21t70 -53l12 58h256l-86 -498q-14 -84 53 -84z" />
    <glyph glyph-name="A" unicode="A" horiz-adv-x="1323" 
d="M657 868l-129 -354h258zM494 1257h335l480 -1257h-334l-90 244h-457l-88 -244h-326z" />
    <glyph glyph-name="B" unicode="B" horiz-adv-x="1140" 
d="M408 514v-244h221q67 0 105 33t38 89t-38 89t-105 33h-221zM408 760h188q147 0 147 114t-147 113h-188v-227zM672 0h-578v1257h539q199 0 309 -88t111 -254q0 -99 -48 -169t-120 -97q90 -29 147 -111t58 -186q0 -170 -110 -261t-308 -91z" />
    <glyph glyph-name="C" unicode="C" horiz-adv-x="1234" 
d="M45 629q0 285 170 467t434 182q227 0 367 -121t176 -321h-328q-55 154 -215 153q-127 0 -199 -100t-73 -259q0 -159 73 -260t199 -102q162 0 215 156h328q-35 -201 -175 -323t-368 -121q-264 0 -434 182t-170 467z" />
    <glyph glyph-name="D" unicode="D" horiz-adv-x="1247" 
d="M94 0v1257h475q295 0 465 -170q170 -171 170 -459t-170 -458t-465 -170h-475zM418 285h135q156 0 241 92t85 253t-85 253t-241 92h-135v-690z" />
    <glyph glyph-name="E" unicode="E" horiz-adv-x="1062" 
d="M94 1257h899v-282h-575v-197h526v-276h-526v-217h575v-285h-899v1257z" />
    <glyph glyph-name="F" unicode="F" horiz-adv-x="1040" 
d="M420 0h-326v1257h885v-284h-559v-250h514v-279h-514v-444z" />
    <glyph glyph-name="G" unicode="G" horiz-adv-x="1275" 
d="M711 426v246h520v-125q0 -258 -156 -413q-157 -154 -419 -154t-437 181q-174 181 -174 468t174 468t445 181q233 0 376 -121t181 -321h-336q-55 154 -221 153q-133 0 -210 -100t-77 -261t79 -260t212 -100q186 0 237 158h-194z" />
    <glyph glyph-name="H" unicode="H" horiz-adv-x="1331" 
d="M909 1257h330v-1257h-330v498h-485v-498h-330v1257h330v-477h485v477z" />
    <glyph glyph-name="I" unicode="I" horiz-adv-x="518" 
d="M424 1257v-1257h-330v1257h330z" />
    <glyph glyph-name="J" unicode="J" horiz-adv-x="1107" 
d="M528 274q170 0 170 211v772h330v-774q0 -252 -136 -378q-136 -125 -362 -125t-357 126q-132 126 -142 338h334q10 -170 163 -170z" />
    <glyph glyph-name="K" unicode="K" horiz-adv-x="1245" 
d="M424 1257v-516l405 516h385l-440 -552l459 -705h-387l-318 483l-104 -133v-350h-330v1257h330z" />
    <glyph glyph-name="L" unicode="L" horiz-adv-x="1044" 
d="M94 0v1257h330v-972h563v-285h-893z" />
    <glyph glyph-name="M" unicode="M" horiz-adv-x="1540" 
d="M401 0h-307v1257h402l276 -782l275 782h399v-1257h-309v748l-260 -748h-213l-263 748v-748z" />
    <glyph glyph-name="N" unicode="N" horiz-adv-x="1298" 
d="M1204 1257v-1257h-266l-526 735v-735h-318v1257h307l486 -692v692h317z" />
    <glyph glyph-name="O" unicode="O" horiz-adv-x="1316" 
d="M942 629q0 162 -79 261t-206 99t-203 -98t-77 -262q0 -164 77 -262q78 -99 204 -99t205 100t79 261zM658 1278q272 0 444 -182t172 -466t-172 -467t-444 -183t-442 183q-171 183 -171 467t171 466t442 182z" />
    <glyph glyph-name="P" unicode="P" horiz-adv-x="1148" 
d="M782 823q0 158 -172 158h-190v-315h190q86 0 129 42t43 115zM645 391h-225v-391h-326v1257h551q209 1 333 -113t124 -320t-124 -320t-333 -113z" />
    <glyph glyph-name="Q" unicode="Q" horiz-adv-x="1316" 
d="M942 652q0 140 -79 238q-79 99 -206 99t-203 -98t-77 -262q0 -163 77 -269t203 -106q31 0 60 6l-101 125l199 156l94 -117q33 88 33 228zM657 -20q-270 0 -441 183t-171 467t171 466t442 182q272 0 444 -182t172 -456t-166 -460l92 -112l-199 -160l-100 123
q-115 -51 -244 -51z" />
    <glyph glyph-name="R" unicode="R" horiz-adv-x="1175" 
d="M420 981v-303h205q170 0 170 152t-170 151h-205zM420 416v-416h-326v1257h565q207 -1 332 -113t125 -315q0 -139 -66 -237t-184 -141l295 -451h-364l-262 416h-115z" />
    <glyph glyph-name="S" unicode="S" horiz-adv-x="1114" 
d="M569 244q78 0 124 32t46 82q-1 50 -29 74t-89 37l-242 51q-324 72 -324 350q0 182 136 295q137 113 353 113t350 -108t161 -277h-322q-47 123 -192 123q-72 0 -115 -30t-43 -81q0 -78 104 -100l246 -57q334 -80 334 -363q0 -188 -139 -297q-138 -108 -358 -108t-366 104
t-179 289h342q39 -129 202 -129z" />
    <glyph glyph-name="T" unicode="T" horiz-adv-x="1187" 
d="M41 975v282h1106v-282h-389v-975h-330v975h-387z" />
    <glyph glyph-name="U" unicode="U" horiz-adv-x="1255" 
d="M1176 512q0 -254 -148 -393t-400 -139q-253 0 -401 139q-147 139 -147 395v743h328v-714q0 -131 58 -201t162 -70t162 70t58 201v714h328v-745z" />
    <glyph glyph-name="V" unicode="V" horiz-adv-x="1288" 
d="M805 0h-322l-469 1257h353l284 -813l285 813h338z" />
    <glyph glyph-name="W" unicode="W" horiz-adv-x="1679" 
d="M719 1257h250l192 -739l174 739h332l-332 -1257h-301l-194 737l-197 -737h-301l-330 1257h336l176 -739z" />
    <glyph glyph-name="X" unicode="X" horiz-adv-x="1236" 
d="M1210 1257l-403 -614l424 -643h-367l-250 387l-249 -387h-359l424 643l-403 614h366l228 -358l233 358h356z" />
    <glyph glyph-name="Y" unicode="Y" horiz-adv-x="1253" 
d="M788 0h-329v446l-447 811h357l264 -491l264 491h346l-455 -811v-446z" />
    <glyph glyph-name="Z" unicode="Z" horiz-adv-x="1148" 
d="M1079 285v-285h-1009v244l583 731h-577v282h997v-241l-577 -731h583z" />
    <glyph glyph-name="bracketleft" unicode="[" horiz-adv-x="677" 
d="M393 1065v-971h244v-266h-543v1503h543v-266h-244z" />
    <glyph glyph-name="backslash" unicode="\" horiz-adv-x="806" 
d="M289 1331l508 -1503h-279l-508 1503h279z" />
    <glyph glyph-name="bracketright" unicode="]" horiz-adv-x="677" 
d="M285 94v971h-244v266h543v-1503h-543v266h244z" />
    <glyph glyph-name="asciicircum" unicode="^" horiz-adv-x="884" 
d="M311 1257h262l291 -487h-274l-148 256l-145 -256h-277z" />
    <glyph glyph-name="underscore" unicode="_" horiz-adv-x="780" 
d="M41 -330v244h698v-244h-698z" />
    <glyph glyph-name="grave" unicode="`" 
d="M748 1024h-295l-179 307h306z" />
    <glyph glyph-name="a" unicode="a" horiz-adv-x="978" 
d="M336 286q0 -44 37 -67t90 -22q100 0 135 61v53q-33 63 -135 64q-53 0 -90 -23q-37 -22 -37 -66zM907 0h-309v47q-25 -25 -88 -44t-133 -19q-143 0 -240 78q-96 78 -96 214t100 217q101 81 243 81t214 -52v60q0 46 -29 78t-84 32q-84 0 -108 -67h-303q20 137 134 228
t300 91t292 -99q108 -99 107 -280v-565z" />
    <glyph glyph-name="b" unicode="b" horiz-adv-x="1083" 
d="M540 254q91 0 138 58t47 150t-47 149q-47 58 -129 59q-45 0 -84 -24t-57 -62v-244q41 -86 132 -86zM408 0h-322v1331h322v-483q35 38 97 66t130 28q193 0 303 -136t109 -345q0 -209 -110 -345t-302 -136q-68 0 -130 28t-97 66v-74z" />
    <glyph glyph-name="c" unicode="c" horiz-adv-x="964" 
d="M37 461q0 213 129 347q130 134 324 134t307 -98t133 -264h-312q-6 44 -38 70t-88 26q-58 0 -98 -58t-40 -157q0 -97 40 -155t98 -58q115 0 126 94h312q-20 -164 -133 -263t-307 -99t-324 134q-129 134 -129 347z" />
    <glyph glyph-name="d" unicode="d" horiz-adv-x="1083" 
d="M535 670q-82 0 -129 -58q-48 -58 -48 -150t48 -150t138 -58q91 0 132 86v244q-18 38 -58 62t-83 24zM676 0v74q-35 -39 -97 -67t-130 -27q-193 0 -303 136t-109 345q0 209 109 345q110 136 303 136q68 0 130 -28t97 -66v483h321v-1331h-321z" />
    <glyph glyph-name="e" unicode="e" horiz-adv-x="978" 
d="M500 692q-117 0 -148 -133h279q-4 59 -39 96t-92 37zM490 -20q-194 0 -324 133q-129 133 -129 347t131 348t336 134q206 0 322 -127t116 -336v-80h-596q16 -170 160 -170q108 1 135 93h297q-26 -160 -140 -251t-308 -91z" />
    <glyph glyph-name="f" unicode="f" horiz-adv-x="692" 
d="M596 1081q-115 0 -115 -110v-49h178v-250h-178v-672h-317v672h-137v250h137v67q0 166 95 263t263 98q82 0 150 -25v-262q-35 18 -76 18z" />
    <glyph glyph-name="g" unicode="g" horiz-adv-x="1067" 
d="M532 688q-86 0 -132 -54t-46 -142t45 -142t133 -55q88 0 132 78v237q-46 78 -132 78zM664 63v66q-78 -90 -220 -90q-188 0 -298 128t-110 324q0 195 110 323t298 128q143 0 220 -90v70h317v-789q0 -235 -130 -357q-131 -122 -333 -122t-324 88t-147 246h309
q29 -98 146 -99q162 0 162 174z" />
    <glyph glyph-name="h" unicode="h" horiz-adv-x="1062" 
d="M86 0v1331h322v-489q90 100 244 100t242 -91q87 -91 87 -247v-604h-319v526q0 60 -31 96t-85 36q-113 -1 -138 -101v-557h-322z" />
    <glyph glyph-name="i" unicode="i" horiz-adv-x="495" 
d="M430 1172q0 -76 -53 -124t-129 -48t-129 48t-53 124t53 125t129 49t129 -48t53 -126zM408 922v-922h-322v922h322z" />
    <glyph glyph-name="j" unicode="j" horiz-adv-x="493" 
d="M430 1172q0 -76 -53 -124t-129 -48t-129 48t-53 124t53 125t129 49t129 -48t53 -126zM408 922v-902q0 -176 -90 -271t-261 -95q-76 0 -116 14v242q25 -4 61 -4t60 24t24 78v914h322z" />
    <glyph glyph-name="k" unicode="k" horiz-adv-x="1071" 
d="M408 0h-322v1331h322v-704l258 295h387l-351 -383l361 -539h-369l-225 342l-61 -72v-270z" />
    <glyph glyph-name="l" unicode="l" horiz-adv-x="495" 
d="M408 1331v-1331h-322v1331h322z" />
    <glyph glyph-name="m" unicode="m" horiz-adv-x="1574" 
d="M1069 659q-94 0 -119 -98v-561h-319v526q0 133 -105 133q-44 1 -76 -25t-42 -73v-561h-322v922h322v-76q80 96 238 96t253 -111q106 111 267 111t245 -91t84 -247v-604h-321v526q0 133 -105 133z" />
    <glyph glyph-name="n" unicode="n" horiz-adv-x="1062" 
d="M86 0v922h322v-80q90 100 244 100t242 -91q87 -91 87 -247v-604h-319v526q0 60 -31 96t-85 36q-113 -1 -138 -101v-557h-322z" />
    <glyph glyph-name="o" unicode="o" horiz-adv-x="1017" 
d="M664 461q0 98 -41 157q-41 60 -114 60t-114 -60t-41 -156t41 -156t114 -60t114 58t41 157zM979 461q0 -213 -130 -347t-340 -134t-341 134t-131 347t131 347t341 134t340 -134t130 -347z" />
    <glyph glyph-name="p" unicode="p" horiz-adv-x="1083" 
d="M540 254q91 0 138 58t47 150t-47 149q-47 59 -137 59t-133 -86v-244q41 -86 132 -86zM408 -326h-322v1248h322v-74q35 38 97 66t130 28q193 0 303 -137t109 -343q0 -206 -110 -344t-302 -138q-68 0 -130 28t-97 66v-400z" />
    <glyph glyph-name="q" unicode="q" horiz-adv-x="1083" 
d="M543 670q-90 0 -137 -58q-48 -58 -48 -150t48 -150t138 -58q91 0 132 86v244q-43 86 -133 86zM676 -326v400q-35 -39 -97 -67t-130 -27q-193 0 -303 138t-110 344t110 343t303 137q68 0 130 -28t97 -66v74h321v-1248h-321z" />
    <glyph glyph-name="r" unicode="r" horiz-adv-x="747" 
d="M571 645q-137 0 -163 -104v-541h-322v922h322v-82q76 102 208 102q60 0 89 -16v-310q-55 29 -134 29z" />
    <glyph glyph-name="s" unicode="s" horiz-adv-x="917" 
d="M463 205q94 0 94 63q0 41 -72 58l-180 36q-254 53 -254 269q0 143 113 227q112 84 288 84t282 -79t128 -220h-297q-18 74 -108 74t-90 -62q0 -39 63 -51l182 -43q258 -59 258 -276q0 -143 -113 -225q-114 -80 -292 -80t-295 80t-137 225h313q23 -80 117 -80z" />
    <glyph glyph-name="t" unicode="t" horiz-adv-x="733" 
d="M154 317v355h-136v250h136v254h317v-254h193v-250h-193v-307q0 -102 98 -103q55 0 103 21v-273q-66 -29 -178 -28q-340 -1 -340 335z" />
    <glyph glyph-name="u" unicode="u" horiz-adv-x="1058" 
d="M973 922v-922h-322v80q-85 -100 -241 -100t-242 91t-86 246v605h319v-529q0 -133 119 -133q45 0 82 28t49 74v560h322z" />
    <glyph glyph-name="v" unicode="v" horiz-adv-x="1017" 
d="M653 0h-288l-351 922h328l176 -529l172 529h316z" />
    <glyph glyph-name="w" unicode="w" horiz-adv-x="1429" 
d="M823 922l138 -500l147 500h307l-297 -922h-272l-131 467l-131 -467h-273l-297 922h320l145 -500l139 500h205z" />
    <glyph glyph-name="x" unicode="x" horiz-adv-x="1011" 
d="M989 922l-309 -451l324 -471h-349l-157 240l-158 -240h-332l322 469l-307 453h346l143 -222l145 222h332z" />
    <glyph glyph-name="y" unicode="y" horiz-adv-x="1028" 
d="M541 -326h-318l135 349l-344 899h334l176 -525l172 525h320z" />
    <glyph glyph-name="z" unicode="z" horiz-adv-x="933" 
d="M868 252v-252h-805v211l406 461h-393v250h786v-209l-389 -461h395z" />
    <glyph glyph-name="braceleft" unicode="{" horiz-adv-x="749" 
d="M481 410v-256q0 -59 60 -60h168v-266h-254q-117 0 -191 74t-74 192v293q0 59 -59 59h-90v267h90q59 0 59 59v293q0 119 74 193t191 73h254v-266h-168q-59 0 -60 -59v-256q0 -111 -96 -170q96 -59 96 -170z" />
    <glyph glyph-name="bar" unicode="|" horiz-adv-x="456" 
d="M94 -172v1503h268v-1503h-268z" />
    <glyph glyph-name="braceright" unicode="}" horiz-adv-x="749" 
d="M268 154v256q0 111 97 170q-96 59 -97 170v256q0 59 -59 59h-168v266h254q117 0 191 -74t73 -192v-293q0 -59 59 -59h91v-267h-91q-59 0 -59 -59v-293q0 -118 -74 -192t-190 -74h-254v266h168q59 1 59 60z" />
    <glyph glyph-name="asciitilde" unicode="~" horiz-adv-x="872" 
d="M610 727h201q0 -158 -59 -246t-166 -88q-70 -1 -145 57t-105 58q-72 0 -72 -105h-201q1 158 59 246t167 88q71 0 145 -57t105 -57q71 0 71 104z" />
    <glyph glyph-name="uni00A0" unicode="&#xa0;" horiz-adv-x="409" 
 />
    <glyph glyph-name="exclamdown" unicode="&#xa1;" horiz-adv-x="497" 
d="M49 -197l72 836h248l71 -836h-391zM246 713q-80 0 -136 52t-57 129q1 77 57 129t136 52t135 -52t55 -129t-55 -129t-135 -52z" />
    <glyph glyph-name="cent" unicode="&#xa2;" horiz-adv-x="964" 
d="M37 482q0 177 91 301t245 163v197h260v-197q127 -33 204 -126t91 -226h-310q-4 45 -35 74q-33 28 -91 28t-98 -58t-40 -156t40 -156t98 -58t91 28q32 28 35 73h310q-14 -133 -91 -227t-204 -128v-188h-260v188q-154 41 -245 166t-91 302z" />
    <glyph glyph-name="sterling" unicode="&#xa3;" horiz-adv-x="1030" 
d="M485 864v-121h232v-243h-232v-47q0 -129 -43 -187h539v-266h-932v266h90q41 72 41 187v47h-131v243h131v111q0 186 110 305t292 119t287 -100t116 -269h-287q-6 102 -100 103q-113 -1 -113 -148z" />
    <glyph glyph-name="yen" unicode="&#xa5;" horiz-adv-x="1173" 
d="M129 500v188h197l-297 569h356l209 -438l209 438h342l-301 -569h198v-188h-297v-99h297v-188h-297v-213h-321v213h-295v188h295v99h-295z" />
    <glyph glyph-name="section" unicode="&#xa7;" horiz-adv-x="978" 
d="M653 456q0 52 -75 101l-199 125q-51 -16 -51 -68t73 -98l199 -125q53 13 53 65zM858 90q0 -135 -104 -215t-278 -80t-275 83q-102 83 -121 226h278q14 -90 111 -90q37 0 63 20t25 58q0 39 -68 80l-233 129q-215 117 -215 291q0 154 141 231q-61 68 -61 160q0 135 104 215
q105 80 279 80t275 -82t120 -227h-278q-4 41 -33 65t-72 25t-69 -19t-25 -55t34 -60q11 -9 36 -24l231 -129q215 -118 215 -282t-143 -240q63 -74 63 -160z" />
    <glyph glyph-name="dieresis" unicode="&#xa8;" 
d="M535 1162q0 64 45 111q44 46 110 46t113 -46q47 -47 47 -111t-47 -110t-111 -46t-111 46q-46 46 -46 110zM172 1162q0 64 46 111q46 46 112 46t112 -46q46 -47 45 -111q0 -64 -46 -110q-45 -46 -111 -46t-112 46t-46 110z" />
    <glyph glyph-name="copyright" unicode="&#xa9;" horiz-adv-x="1441" 
d="M338 631q0 180 108 295q109 114 270 114t251 -78t110 -206h-233q-25 80 -109 80t-125 -56t-41 -148t42 -148t125 -56t108 82h233q-20 -127 -111 -207t-251 -80t-269 114q-108 114 -108 294zM1274 629q0 239 -162 397t-391 158t-391 -159t-162 -397t162 -396t391 -158
t391 158t162 397zM1370 629q0 -279 -189 -464t-459 -185t-461 185q-189 185 -189 464t189 464t459 185t460 -185t190 -464z" />
    <glyph glyph-name="ordfeminine" unicode="&#xaa;" horiz-adv-x="655" 
d="M325 885q-87 0 -85 -54q0 -53 66 -53t89 39v31q-27 37 -70 37zM621 637h-226v31q-43 -43 -145 -43t-168 53t-66 146q0 94 69 148t166 54t144 -35v39q0 68 -79 68q-45 0 -58 -45h-213q14 100 90 162q76 63 206 63t205 -68t75 -192v-381z" />
    <glyph glyph-name="guillemotleft" unicode="&#xab;" horiz-adv-x="923" 
d="M872 119h-262l-188 336l188 336h262l-188 -336zM502 119h-262l-189 336l189 336h262l-189 -336z" />
    <glyph glyph-name="registered" unicode="&#xae;" horiz-adv-x="833" 
d="M430 924q47 0 47 39t-47 38h-51v-77h51zM379 827v-118h-121v393h191q67 0 107 -37t40 -113t-74 -110l86 -133h-133l-72 118h-24zM719 903q0 135 -88 223t-215 88t-215 -88t-88 -223t88 -223t215 -88t215 88t88 223zM786 903q0 -159 -108 -267t-262 -108t-262 108
t-109 268q0 160 109 266q108 108 262 108t262 -108t108 -267z" />
    <glyph glyph-name="macron" unicode="&#xaf;" 
d="M252 1032v221h518v-221h-518z" />
    <glyph glyph-name="degree" unicode="&#xb0;" horiz-adv-x="741" 
d="M371 1278q117 0 201 -85t83 -205q0 -120 -84 -204q-85 -84 -201 -84t-200 84t-84 204t84 205t201 85zM254 988q0 -50 35 -85t82 -35t81 35t34 85t-34 85t-81 35t-82 -35t-35 -85z" />
    <glyph glyph-name="plusminus" unicode="&#xb1;" horiz-adv-x="1161" 
d="M135 98v215h893v-215h-893zM473 1149h215v-262h340v-213h-340v-262h-215v262h-338v213h338v262z" />
    <glyph glyph-name="twosuperior" unicode="&#xb2;" horiz-adv-x="636" 
d="M377 1026q0 53 -51 53q-25 0 -41 -17t-17 -40h-225q10 106 85 176q74 70 194 70t195 -64t75 -166q0 -45 -20 -87q-20 -41 -45 -65l-68 -67l-105 -96h234v-182h-541v139l264 244q46 50 56 68t10 34z" />
    <glyph glyph-name="threesuperior" unicode="&#xb3;" horiz-adv-x="616" 
d="M248 827v148h47q76 0 76 61q1 25 -15 42q-16 18 -46 18t-48 -22t-22 -50h-207q12 104 84 174q73 70 193 70t191 -62t70 -168q0 -41 -20 -81t-51 -58q78 -39 78 -140t-73 -166t-198 -65t-199 68t-81 182h219q4 -72 69 -71q29 0 45 17t17 44q0 59 -74 59h-55z" />
    <glyph glyph-name="acute" unicode="&#xb4;" 
d="M569 1024h-295l168 307h306z" />
    <glyph glyph-name="paragraph" unicode="&#xb6;" horiz-adv-x="1128" 
d="M496 -184v690q-188 0 -328 96q-139 96 -139 280t139 280q139 95 328 95h213v-1441h-213zM819 -184v1441h215v-1441h-215z" />
    <glyph glyph-name="periodcentered" unicode="&#xb7;" horiz-adv-x="477" 
d="M49 537q0 82 55 136q54 54 134 54t135 -54t55 -136q0 -81 -55 -137t-134 -56t-135 55q-55 56 -55 138z" />
    <glyph glyph-name="cedilla" unicode="&#xb8;" 
d="M561 -371h-272l141 289h275z" />
    <glyph glyph-name="onesuperior" unicode="&#xb9;" horiz-adv-x="495" 
d="M420 1257v-716h-213v477l-178 -86v215l235 110h156z" />
    <glyph glyph-name="ordmasculine" unicode="&#xba;" horiz-adv-x="686" 
d="M434 950q0 57 -23 94q-24 37 -67 37q-42 0 -66 -37t-24 -94t24 -93t66 -36t67 36q23 36 23 93zM672 950q0 -145 -91 -236t-237 -91t-236 91q-91 91 -92 236q0 144 92 236t236 92q145 0 237 -91q91 -92 91 -237z" />
    <glyph glyph-name="guillemotright" unicode="&#xbb;" horiz-adv-x="923" 
d="M313 119h-262l189 336l-189 336h262l189 -336zM684 119h-262l188 336l-188 336h262l188 -336z" />
    <glyph glyph-name="onequarter" unicode="&#xbc;" horiz-adv-x="1472" 
d="M1133 295v104h184v-104h96v-178h-96v-117h-184v117h-324v166l215 434h209l-195 -422h95zM440 1257v-716h-213v477l-176 -86v215l236 110h153zM1233 1257l-860 -1257h-189l860 1257h189z" />
    <glyph glyph-name="onehalf" unicode="&#xbd;" horiz-adv-x="1484" 
d="M1194 487q0 50 -53 52q-25 1 -41 -17t-17 -41h-225q10 106 85 176t195 70t194 -63t75 -155q0 -92 -64 -164q-23 -26 -67 -66l-105 -97h234v-182h-541v139l262 246q68 68 68 102zM440 1257v-716h-213v477l-176 -86v215l236 110h153zM1233 1257l-860 -1257h-189l860 1257
h189z" />
    <glyph glyph-name="threequarters" unicode="&#xbe;" horiz-adv-x="1533" 
d="M1192 295v104h186v-104h97v-178h-97v-117h-186v117h-324v166l217 434h207l-194 -422h94zM338 1268q122 0 192 -62t70 -168q0 -41 -20 -81t-52 -58q80 -39 80 -140t-72 -166t-198 -65q-125 0 -200 69t-81 181h217q8 -72 70 -71q29 0 46 17t18 44q0 59 -74 59h-58v148h50
q74 0 73 61q0 59 -59 60q-57 0 -70 -72h-207q12 104 83 174t192 70zM1294 1257l-860 -1257h-190l860 1257h190z" />
    <glyph glyph-name="questiondown" unicode="&#xbf;" horiz-adv-x="972" 
d="M41 160q0 87 63 192q16 26 74 94t64 74q55 66 59 119h317q-2 -55 -25 -107t-93 -132q-70 -81 -83 -98q-42 -55 -42 -107q0 -53 32 -85q33 -32 85 -32t85 36q32 36 35 89h332q-18 -184 -141 -302t-324 -118q-201 -1 -319 101t-119 276zM657 893q0 -78 -55 -129t-136 -51
t-137 51t-57 129q0 78 56 130t138 52q81 0 136 -52t55 -130z" />
    <glyph glyph-name="Agrave" unicode="&#xc0;" horiz-adv-x="1323" 
d="M657 868l-129 -354h258zM831 1364h-315l-182 266h330zM494 1257h335l480 -1257h-334l-90 244h-457l-88 -244h-326z" />
    <glyph glyph-name="Aacute" unicode="&#xc1;" horiz-adv-x="1323" 
d="M657 868l-129 -354h258zM811 1364h-315l168 266h329zM494 1257h335l480 -1257h-334l-90 244h-457l-88 -244h-326z" />
    <glyph glyph-name="Acircumflex" unicode="&#xc2;" horiz-adv-x="1323" 
d="M657 868l-129 -354h258zM784 1634l222 -270h-258l-86 92l-87 -92h-258l222 270h245zM494 1257h335l480 -1257h-334l-90 244h-457l-88 -244h-326z" />
    <glyph glyph-name="Atilde" unicode="&#xc3;" horiz-adv-x="1323" 
d="M657 868l-129 -354h258zM983 1657q0 -307 -180 -307q-53 0 -129 36t-107 35q-49 0 -53 -63h-174q0 307 180 307q53 0 129 -36t107 -36q49 1 53 64h174zM494 1257h335l480 -1257h-334l-90 244h-457l-88 -244h-326z" />
    <glyph glyph-name="Adieresis" unicode="&#xc4;" horiz-adv-x="1323" 
d="M657 868l-129 -354h258zM686 1503q0 68 47 115t113 47t114 -47t48 -115q0 -69 -48 -115t-114 -46t-113 46q-47 47 -47 115zM315 1503q0 68 46 115t113 47t115 -47t48 -115q0 -69 -48 -115t-115 -46t-113 46q-46 47 -46 115zM494 1257h335l480 -1257h-334l-90 244h-457
l-88 -244h-326z" />
    <glyph glyph-name="Aring" unicode="&#xc5;" horiz-adv-x="1323" 
d="M735 1530q0 30 -20 52t-52 22t-54 -22q-21 -22 -21 -52t22 -52t53 -22q32 0 52 22t20 52zM657 868l-129 -354h258zM883 1530q1 -90 -63 -152t-158 -63q-94 0 -158 62q-64 63 -64 153t64 152t158 62t158 -62t63 -152zM494 1257h335l480 -1257h-334l-90 244h-457l-88 -244
h-326z" />
    <glyph glyph-name="AE" unicode="&#xc6;" horiz-adv-x="1839" 
d="M911 514v477l-264 -477h264zM1769 1257v-282h-534v-197h483v-276h-483v-217h534v-285h-858v244h-413l-136 -244h-348l707 1257h1048z" />
    <glyph glyph-name="Ccedilla" unicode="&#xc7;" horiz-adv-x="1234" 
d="M651 -371h-272l141 289h275zM45 629q0 285 170 467t434 182q227 0 367 -121t176 -321h-328q-55 154 -215 153q-127 0 -199 -100t-73 -259q0 -159 73 -260t199 -102q162 0 215 156h328q-35 -201 -175 -323t-368 -121q-264 0 -434 182t-170 467z" />
    <glyph glyph-name="Egrave" unicode="&#xc8;" horiz-adv-x="1062" 
d="M94 1257h899v-282h-575v-197h526v-276h-526v-217h575v-285h-899v1257zM725 1364h-315l-183 266h330z" />
    <glyph glyph-name="Eacute" unicode="&#xc9;" horiz-adv-x="1062" 
d="M94 1257h899v-282h-575v-197h526v-276h-526v-217h575v-285h-899v1257zM705 1364h-316l168 266h330z" />
    <glyph glyph-name="Ecircumflex" unicode="&#xca;" horiz-adv-x="1062" 
d="M678 1634l221 -270h-258l-86 92l-86 -92h-258l221 270h246zM94 1257h899v-282h-575v-197h526v-276h-526v-217h575v-285h-899v1257z" />
    <glyph glyph-name="Edieresis" unicode="&#xcb;" horiz-adv-x="1062" 
d="M94 1257h899v-282h-575v-197h526v-276h-526v-217h575v-285h-899v1257zM580 1503q0 68 47 115t113 47t113 -47q48 -47 48 -115q0 -69 -48 -115t-114 -46q-67 0 -113 46q-46 47 -46 115zM209 1503q0 68 46 115t113 47q66 0 114 -47t48 -115q0 -69 -48 -115t-114 -46
t-113 46q-46 47 -46 115z" />
    <glyph glyph-name="Igrave" unicode="&#xcc;" horiz-adv-x="518" 
d="M428 1364h-315l-183 266h330zM424 1257v-1257h-330v1257h330z" />
    <glyph glyph-name="Iacute" unicode="&#xcd;" horiz-adv-x="518" 
d="M408 1364h-316l168 266h330zM424 1257v-1257h-330v1257h330z" />
    <glyph glyph-name="Icircumflex" unicode="&#xce;" horiz-adv-x="518" 
d="M381 1634l221 -270h-258l-86 92l-86 -92h-258l221 270h246zM424 1257v-1257h-330v1257h330z" />
    <glyph glyph-name="Idieresis" unicode="&#xcf;" horiz-adv-x="518" 
d="M285 1503q0 68 47 115q46 47 112 47t114 -47t48 -115q0 -69 -48 -115t-114 -46t-112 46q-46 47 -47 115zM-86 1503q0 68 46 115t113 47t115 -47t48 -115q0 -69 -48 -115t-116 -46q-66 0 -112 46q-46 47 -46 115zM424 1257v-1257h-330v1257h330z" />
    <glyph glyph-name="Eth" unicode="&#xd0;" horiz-adv-x="1282" 
d="M453 285h135q156 0 240 92t85 253q0 161 -85 253t-240 92h-135v-205h178v-254h-178v-231zM35 516v254h94v487h475q295 0 465 -170q170 -171 170 -459t-170 -458t-465 -170h-475v516h-94z" />
    <glyph glyph-name="Ntilde" unicode="&#xd1;" horiz-adv-x="1298" 
d="M1204 1257v-1257h-266l-526 735v-735h-318v1257h307l486 -692v692h317zM971 1657q0 -307 -180 -307q-53 0 -129 36t-107 35q-49 0 -53 -63h-174q0 307 180 307q53 0 129 -36t106 -36q50 1 54 64h174z" />
    <glyph glyph-name="Ograve" unicode="&#xd2;" horiz-adv-x="1316" 
d="M942 629q0 162 -79 261t-206 99t-203 -98t-77 -262q0 -164 77 -262q78 -99 204 -99t205 100t79 261zM658 1278q272 0 444 -182t172 -466t-172 -467t-444 -183t-442 183q-171 183 -171 467t171 466t442 182zM827 1364h-315l-182 266h329z" />
    <glyph glyph-name="Oacute" unicode="&#xd3;" horiz-adv-x="1316" 
d="M942 629q0 162 -79 261t-206 99t-203 -98t-77 -262q0 -164 77 -262q78 -99 204 -99t205 100t79 261zM658 1278q272 0 444 -182t172 -466t-172 -467t-444 -183t-442 183q-171 183 -171 467t171 466t442 182zM807 1364h-315l167 266h330z" />
    <glyph glyph-name="Ocircumflex" unicode="&#xd4;" horiz-adv-x="1316" 
d="M780 1634l221 -270h-258l-86 92l-86 -92h-258l222 270h245zM942 629q0 162 -79 261t-206 99t-203 -98t-77 -262q0 -164 77 -262q78 -99 204 -99t205 100t79 261zM658 1278q272 0 444 -182t172 -466t-172 -467t-444 -183t-442 183q-171 183 -171 467t171 466t442 182z" />
    <glyph glyph-name="Otilde" unicode="&#xd5;" horiz-adv-x="1316" 
d="M942 629q0 162 -79 261t-206 99t-203 -98t-77 -262q0 -164 77 -262q78 -99 204 -99t205 100t79 261zM658 1278q272 0 444 -182t172 -466t-172 -467t-444 -183t-442 183q-171 183 -171 467t171 466t442 182zM979 1657q0 -307 -180 -307q-53 0 -129 36t-107 35
q-49 0 -53 -63h-174q0 307 180 307q53 0 129 -36t107 -36q49 1 53 64h174z" />
    <glyph glyph-name="Odieresis" unicode="&#xd6;" horiz-adv-x="1316" 
d="M942 629q0 162 -79 261t-206 99t-203 -98t-77 -262q0 -164 77 -262q78 -99 204 -99t205 100t79 261zM658 1278q272 0 444 -182t172 -466t-172 -467t-444 -183t-442 183q-171 183 -171 467t171 466t442 182zM684 1503q0 68 47 115t113 47t114 -47t48 -115q0 -69 -48 -115
t-114 -46t-113 46q-47 47 -47 115zM313 1503q0 68 46 115t113 47t115 -47t48 -115q0 -69 -48 -115t-115 -46t-113 46q-46 47 -46 115z" />
    <glyph glyph-name="multiply" unicode="&#xd7;" horiz-adv-x="1011" 
d="M340 610l-248 246l168 166l246 -246l246 246l168 -166l-248 -246l248 -245l-168 -166l-246 245l-246 -245l-168 166z" />
    <glyph glyph-name="Oslash" unicode="&#xd8;" horiz-adv-x="1335" 
d="M950 629q0 92 -26 172l-426 -475q70 -58 184 -58t190 100q78 100 78 261zM385 629q0 -90 27 -174l426 475q-70 59 -184 59t-191 -99q-78 -99 -78 -261zM53 648q0 266 171 448t444 182q213 0 374 -123l111 125l115 -96l-121 -133q135 -173 135 -439t-172 -449t-442 -183
q-219 0 -375 120l-109 -123l-114 97l118 131q-135 177 -135 443z" />
    <glyph glyph-name="Ugrave" unicode="&#xd9;" horiz-adv-x="1255" 
d="M1176 512q0 -254 -148 -393t-400 -139q-253 0 -401 139q-147 139 -147 395v743h328v-714q0 -131 58 -201t162 -70t162 70t58 201v714h328v-745zM799 1364h-316l-182 266h330z" />
    <glyph glyph-name="Uacute" unicode="&#xda;" horiz-adv-x="1255" 
d="M1176 512q0 -254 -148 -393t-400 -139q-253 0 -401 139q-147 139 -147 395v743h328v-714q0 -131 58 -201t162 -70t162 70t58 201v714h328v-745zM778 1364h-315l168 266h330z" />
    <glyph glyph-name="Ucircumflex" unicode="&#xdb;" horiz-adv-x="1255" 
d="M752 1634l221 -270h-258l-86 92l-86 -92h-258l221 270h246zM1176 512q0 -254 -148 -393t-400 -139q-253 0 -401 139q-147 139 -147 395v743h328v-714q0 -131 58 -201t162 -70t162 70t58 201v714h328v-745z" />
    <glyph glyph-name="Udieresis" unicode="&#xdc;" horiz-adv-x="1255" 
d="M1176 512q0 -254 -148 -393t-400 -139q-253 0 -401 139q-147 139 -147 395v743h328v-714q0 -131 58 -201t162 -70t162 70t58 201v714h328v-745zM653 1503q0 68 47 115t113 47t114 -47t48 -115q0 -69 -48 -115t-114 -46t-113 46q-47 47 -47 115zM283 1503q0 68 46 115
q47 47 113 47t114 -47t48 -115q0 -69 -48 -115t-115 -46t-113 46q-46 47 -45 115z" />
    <glyph glyph-name="Yacute" unicode="&#xdd;" horiz-adv-x="1253" 
d="M776 1364h-315l168 266h329zM788 0h-329v446l-447 811h357l264 -491l264 491h346l-455 -811v-446z" />
    <glyph glyph-name="Thorn" unicode="&#xde;" horiz-adv-x="1148" 
d="M782 641q0 158 -172 158h-190v-316h190q86 0 129 42t43 116zM645 209h-225v-209h-326v1257h326v-182h225q209 1 333 -113t124 -320t-124 -320t-333 -113z" />
    <glyph glyph-name="germandbls" unicode="&#xdf;" horiz-adv-x="1112" 
d="M1073 385q0 -184 -112 -290q-113 -105 -293 -105q-96 0 -162 22v254q40 -14 108 -14t111 42t43 120t-52 118t-143 41h-59v250h35q61 0 96 33t35 93t-35 94t-101 34t-102 -47q-37 -47 -36 -125v-905h-320v885q0 215 124 340t334 125t324 -100t113 -259q0 -93 -38 -163
t-95 -101q98 -35 162 -125t63 -217z" />
    <glyph glyph-name="agrave" unicode="&#xe0;" horiz-adv-x="978" 
d="M668 1024h-295l-178 307h305zM336 286q0 -44 37 -67t90 -22q100 0 135 61v53q-33 63 -135 64q-53 0 -90 -23q-37 -22 -37 -66zM907 0h-309v47q-25 -25 -88 -44t-133 -19q-143 0 -240 78q-96 78 -96 214t100 217q101 81 243 81t214 -52v60q0 46 -29 78t-84 32
q-84 0 -108 -67h-303q20 137 134 228t300 91t292 -99q108 -99 107 -280v-565z" />
    <glyph glyph-name="aacute" unicode="&#xe1;" horiz-adv-x="978" 
d="M649 1024h-295l168 307h305zM336 286q0 -44 37 -67t90 -22q100 0 135 61v53q-33 63 -135 64q-53 0 -90 -23q-37 -22 -37 -66zM907 0h-309v47q-25 -25 -88 -44t-133 -19q-143 0 -240 78q-96 78 -96 214t100 217q101 81 243 81t214 -52v60q0 46 -29 78t-84 32
q-84 0 -108 -67h-303q20 137 134 228t300 91t292 -99q108 -99 107 -280v-565z" />
    <glyph glyph-name="acircumflex" unicode="&#xe2;" horiz-adv-x="978" 
d="M336 286q0 -44 37 -67t90 -22q100 0 135 61v53q-33 63 -135 64q-53 0 -90 -23q-37 -22 -37 -66zM907 0h-309v47q-25 -25 -88 -44t-133 -19q-143 0 -240 78q-96 78 -96 214t100 217q101 81 243 81t214 -52v60q0 46 -29 78t-84 32q-84 0 -108 -67h-303q20 137 134 228
t300 91t292 -99q108 -99 107 -280v-565zM629 1329l196 -309h-237l-82 113l-82 -113h-238l197 309h246z" />
    <glyph glyph-name="atilde" unicode="&#xe3;" horiz-adv-x="978" 
d="M641 1325h176q0 -307 -180 -307q-51 0 -113 37t-90 37q-51 0 -51 -68h-176q0 307 180 307q51 0 113 -37t90 -37q51 0 51 68zM336 286q0 -44 37 -67t90 -22q100 0 135 61v53q-33 63 -135 64q-53 0 -90 -23q-37 -22 -37 -66zM907 0h-309v47q-25 -25 -88 -44t-133 -19
q-143 0 -240 78q-96 78 -96 214t100 217q101 81 243 81t214 -52v60q0 46 -29 78t-84 32q-84 0 -108 -67h-303q20 137 134 228t300 91t292 -99q108 -99 107 -280v-565z" />
    <glyph glyph-name="adieresis" unicode="&#xe4;" horiz-adv-x="978" 
d="M336 286q0 -44 37 -67t90 -22q100 0 135 61v53q-33 63 -135 64q-53 0 -90 -23q-37 -22 -37 -66zM907 0h-309v47q-25 -25 -88 -44t-133 -19q-143 0 -240 78q-96 78 -96 214t100 217q101 81 243 81t214 -52v60q0 46 -29 78t-84 32q-84 0 -108 -67h-303q20 137 134 228
t300 91t292 -99q108 -99 107 -280v-565zM535 1162q0 64 45 111q44 46 110 46t113 -46q47 -47 47 -111t-47 -110t-111 -46t-111 46q-46 46 -46 110zM172 1162q0 64 46 111q46 46 112 46t112 -46q46 -47 45 -111q0 -64 -46 -110q-45 -46 -111 -46t-112 46t-46 110z" />
    <glyph glyph-name="aring" unicode="&#xe5;" horiz-adv-x="978" 
d="M582 1207q0 32 -20 54q-20 21 -53 21q-31 0 -53 -22t-22 -52t22 -52t54 -22t52 21q20 20 20 52zM729 1206q0 -90 -63 -151q-64 -61 -158 -61t-158 60q-64 62 -63 152q0 90 63 154q64 64 158 63q94 0 158 -63q63 -64 63 -154zM336 286q0 -44 37 -67t90 -22q100 0 135 61
v53q-33 63 -135 64q-53 0 -90 -23q-37 -22 -37 -66zM907 0h-309v47q-25 -25 -88 -44t-133 -19q-143 0 -240 78q-96 78 -96 214t100 217q101 81 243 81t214 -52v60q0 46 -29 78t-84 32q-84 0 -108 -67h-303q20 137 134 228t300 91t292 -99q108 -99 107 -280v-565z" />
    <glyph glyph-name="ae" unicode="&#xe6;" horiz-adv-x="1499" 
d="M1020 692q-117 0 -148 -133h279q-4 59 -39 96t-92 37zM1020 -20q-178 0 -311 114q-135 -113 -330 -112q-141 0 -241 76q-99 77 -99 212t111 212t278 77h162v27q0 49 -30 81t-89 31q-92 0 -115 -73h-282q18 139 127 228t277 89t274 -100q117 100 272 100q203 0 321 -127
t117 -336v-90h-596q14 -160 160 -160q104 0 131 84h301q-28 -157 -144 -245t-294 -88zM453 207q98 0 137 76v104h-131q-53 1 -89 -23t-36 -68t34 -66t85 -23z" />
    <glyph glyph-name="ccedilla" unicode="&#xe7;" horiz-adv-x="964" 
d="M498 -371h-273l142 289h274zM37 461q0 213 129 347q130 134 324 134t307 -98t133 -264h-312q-6 44 -38 70t-88 26q-58 0 -98 -58t-40 -157q0 -97 40 -155t98 -58q115 0 126 94h312q-20 -164 -133 -263t-307 -99t-324 134q-129 134 -129 347z" />
    <glyph glyph-name="egrave" unicode="&#xe8;" horiz-adv-x="978" 
d="M666 1024h-295l-178 307h305zM500 692q-117 0 -148 -133h279q-4 59 -39 96t-92 37zM490 -20q-194 0 -324 133q-129 133 -129 347t131 348t336 134q206 0 322 -127t116 -336v-80h-596q16 -170 160 -170q108 1 135 93h297q-26 -160 -140 -251t-308 -91z" />
    <glyph glyph-name="eacute" unicode="&#xe9;" horiz-adv-x="978" 
d="M500 692q-117 0 -148 -133h279q-4 59 -39 96t-92 37zM490 -20q-194 0 -324 133q-129 133 -129 347t131 348t336 134q206 0 322 -127t116 -336v-80h-596q16 -170 160 -170q108 1 135 93h297q-26 -160 -140 -251t-308 -91zM647 1024h-295l168 307h305z" />
    <glyph glyph-name="ecircumflex" unicode="&#xea;" horiz-adv-x="978" 
d="M500 692q-117 0 -148 -133h279q-4 59 -39 96t-92 37zM490 -20q-194 0 -324 133q-129 133 -129 347t131 348t336 134q206 0 322 -127t116 -336v-80h-596q16 -170 160 -170q108 1 135 93h297q-26 -160 -140 -251t-308 -91zM633 1329l196 -309h-237l-82 113l-82 -113h-238
l197 309h246z" />
    <glyph glyph-name="edieresis" unicode="&#xeb;" horiz-adv-x="978" 
d="M500 692q-117 0 -148 -133h279q-4 59 -39 96t-92 37zM490 -20q-194 0 -324 133q-129 133 -129 347t131 348t336 134q206 0 322 -127t116 -336v-80h-596q16 -170 160 -170q108 1 135 93h297q-26 -160 -140 -251t-308 -91zM535 1162q0 64 45 111q44 46 110 46t113 -46
q47 -47 47 -111t-47 -110t-111 -46t-111 46q-46 46 -46 110zM172 1162q0 64 46 111q46 46 112 46t112 -46q46 -47 45 -111q0 -64 -46 -110q-45 -46 -111 -46t-112 46t-46 110z" />
    <glyph glyph-name="igrave" unicode="&#xec;" horiz-adv-x="495" 
d="M401 1024h-295l-178 307h305zM408 922v-922h-322v922h322z" />
    <glyph glyph-name="iacute" unicode="&#xed;" horiz-adv-x="495" 
d="M408 922v-922h-322v922h322zM385 1024h-295l168 307h305z" />
    <glyph glyph-name="icircumflex" unicode="&#xee;" horiz-adv-x="495" 
d="M408 922v-922h-322v922h322zM371 1329l161 -309h-229l-55 123l-58 -123h-227l162 309h246z" />
    <glyph glyph-name="idieresis" unicode="&#xef;" horiz-adv-x="495" 
d="M408 922v-922h-322v922h322zM266 1162q0 64 46 111q46 46 112 46t112 -46q46 -47 46 -111t-46 -110t-112 -46t-112 46t-46 110zM-84 1162q0 64 45 111q45 46 111 46t112 -46t45 -112q0 -67 -46 -111t-110 -44t-111 46q-46 46 -46 110z" />
    <glyph glyph-name="eth" unicode="&#xf0;" horiz-adv-x="1017" 
d="M664 457q0 96 -41 154q-41 59 -114 59t-114 -58t-41 -155q0 -95 41 -153t114 -58t114 58t41 153zM121 1331h393q55 -41 115 -94l162 51l51 -135l-101 -33q238 -279 238 -624q0 -238 -129 -377t-340 -139t-342 133t-131 345t128 342t324 130q55 0 95 -29h6
q-43 63 -117 135l-201 -61l-51 135l125 39q-94 78 -225 174v8z" />
    <glyph glyph-name="ntilde" unicode="&#xf1;" horiz-adv-x="1062" 
d="M674 1325h176q0 -307 -180 -307q-50 0 -112 37t-91 37q-51 0 -51 -68h-176q0 307 180 307q51 0 112 -37t91 -37q51 0 51 68zM86 0v922h322v-80q90 100 244 100t242 -91q87 -91 87 -247v-604h-319v526q0 60 -31 96t-85 36q-113 -1 -138 -101v-557h-322z" />
    <glyph glyph-name="ograve" unicode="&#xf2;" horiz-adv-x="1017" 
d="M664 1024h-295l-179 307h306zM664 461q0 98 -41 157q-41 60 -114 60t-114 -60t-41 -156t41 -156t114 -60t114 58t41 157zM979 461q0 -213 -130 -347t-340 -134t-341 134t-131 347t131 347t341 134t340 -134t130 -347z" />
    <glyph glyph-name="oacute" unicode="&#xf3;" horiz-adv-x="1017" 
d="M664 461q0 98 -41 157q-41 60 -114 60t-114 -60t-41 -156t41 -156t114 -60t114 58t41 157zM979 461q0 -213 -130 -347t-340 -134t-341 134t-131 347t131 347t341 134t340 -134t130 -347zM647 1024h-295l168 307h305z" />
    <glyph glyph-name="ocircumflex" unicode="&#xf4;" horiz-adv-x="1017" 
d="M664 461q0 98 -41 157q-41 60 -114 60t-114 -60t-41 -156t41 -156t114 -60t114 58t41 157zM979 461q0 -213 -130 -347t-340 -134t-341 134t-131 347t131 347t341 134t340 -134t130 -347zM631 1329l196 -309h-237l-82 113l-82 -113h-238l197 309h246z" />
    <glyph glyph-name="otilde" unicode="&#xf5;" horiz-adv-x="1017" 
d="M637 1325h176q0 -307 -180 -307q-51 0 -113 37t-90 37q-51 0 -51 -68h-176q0 307 180 307q51 0 113 -37t90 -37q51 0 51 68zM664 461q0 98 -41 157q-41 60 -114 60t-114 -60t-41 -156t41 -156t114 -60t114 58t41 157zM979 461q0 -213 -130 -347t-340 -134t-341 134
t-131 347t131 347t341 134t340 -134t130 -347z" />
    <glyph glyph-name="odieresis" unicode="&#xf6;" horiz-adv-x="1017" 
d="M664 461q0 98 -41 157q-41 60 -114 60t-114 -60t-41 -156t41 -156t114 -60t114 58t41 157zM979 461q0 -213 -130 -347t-340 -134t-341 134t-131 347t131 347t341 134t340 -134t130 -347zM688 1006q-66 0 -111 46t-45 110t46 111q46 46 110 46q66 0 113 -46
q47 -47 47 -111t-47 -110t-113 -46zM170 1162q0 64 46 111q46 46 112 46t112 -46q46 -47 45 -111q0 -64 -46 -110q-45 -46 -111 -46t-112 46t-46 110z" />
    <glyph glyph-name="divide" unicode="&#xf7;" horiz-adv-x="1138" 
d="M406 244q0 68 48 114t116 48q68 0 117 -48q48 -48 48 -114q0 -68 -48 -115t-117 -47q-68 0 -116 47t-48 115zM406 981q0 68 48 115t116 47t117 -47q48 -47 48 -115t-48 -115t-117 -47q-68 0 -116 47t-48 115zM104 494v237h930v-237h-930z" />
    <glyph glyph-name="oslash" unicode="&#xf8;" horiz-adv-x="1038" 
d="M358 461q0 -47 9 -80l241 270q-38 33 -100 33t-106 -64t-44 -159zM680 461q0 39 -10 80l-242 -271q40 -32 102 -32t106 62t44 161zM518 942q158 0 277 -80l86 96l92 -75l-90 -103q106 -128 106 -330t-130 -336t-341 -134q-158 0 -276 79l-88 -98l-93 76l93 102
q-106 133 -106 334t130 335q131 134 340 134z" />
    <glyph glyph-name="ugrave" unicode="&#xf9;" horiz-adv-x="1058" 
d="M684 1024h-295l-178 307h305zM973 922v-922h-322v80q-85 -100 -241 -100t-242 91t-86 246v605h319v-529q0 -133 119 -133q45 0 82 28t49 74v560h322z" />
    <glyph glyph-name="uacute" unicode="&#xfa;" horiz-adv-x="1058" 
d="M973 922v-922h-322v80q-85 -100 -241 -100t-242 91t-86 246v605h319v-529q0 -133 119 -133q45 0 82 28t49 74v560h322zM668 1024h-295l168 307h305z" />
    <glyph glyph-name="ucircumflex" unicode="&#xfb;" horiz-adv-x="1058" 
d="M973 922v-922h-322v80q-85 -100 -241 -100t-242 91t-86 246v605h319v-529q0 -133 119 -133q45 0 82 28t49 74v560h322zM651 1329l197 -309h-238l-82 113l-82 -113h-237l197 309h245z" />
    <glyph glyph-name="udieresis" unicode="&#xfc;" horiz-adv-x="1058" 
d="M973 922v-922h-322v80q-85 -100 -241 -100t-242 91t-86 246v605h319v-529q0 -133 119 -133q45 0 82 28t49 74v560h322zM553 1162q0 64 45 111q45 46 111 46q67 0 113 -46q46 -47 46 -111t-47 -110t-113 -46t-110 46q-45 46 -45 110zM348 1006q-66 0 -112 46t-46 110
t46 111q46 46 112 46t112 -46q46 -47 46 -111t-46 -110t-112 -46z" />
    <glyph glyph-name="yacute" unicode="&#xfd;" horiz-adv-x="1028" 
d="M664 1024h-295l168 307h305zM541 -326h-318l135 349l-344 899h334l176 -525l172 525h320z" />
    <glyph glyph-name="thorn" unicode="&#xfe;" horiz-adv-x="1083" 
d="M540 254q91 0 138 58t47 150t-47 149q-47 59 -137 59t-133 -86v-244q41 -86 132 -86zM408 -326h-322v1657h322v-483q35 38 97 66t130 28q193 0 303 -137t109 -343q0 -206 -110 -344t-302 -138q-68 0 -130 28t-97 66v-400z" />
    <glyph glyph-name="ydieresis" unicode="&#xff;" horiz-adv-x="1028" 
d="M549 1162q0 64 45 111q45 46 111 46q67 0 113 -46q46 -47 46 -111t-47 -110t-113 -46t-110 46q-45 46 -45 110zM186 1162q0 64 46 111q46 46 112 46t112 -46q46 -47 46 -111t-46 -110t-112 -46t-112 46t-46 110zM541 -326h-318l135 349l-344 899h334l176 -525l172 525
h320z" />
    <glyph glyph-name="Amacron" unicode="&#x100;" horiz-adv-x="1323" 
d="M657 868l-129 -354h258zM391 1364v221h543v-221h-543zM494 1257h335l480 -1257h-334l-90 244h-457l-88 -244h-326z" />
    <glyph glyph-name="amacron" unicode="&#x101;" horiz-adv-x="978" 
d="M252 1032v221h518v-221h-518zM336 286q0 -44 37 -67t90 -22q100 0 135 61v53q-33 63 -135 64q-53 0 -90 -23q-37 -22 -37 -66zM907 0h-309v47q-25 -25 -88 -44t-133 -19q-143 0 -240 78q-96 78 -96 214t100 217q101 81 243 81t214 -52v60q0 46 -29 78t-84 32
q-84 0 -108 -67h-303q20 137 134 228t300 91t292 -99q108 -99 107 -280v-565z" />
    <glyph glyph-name="Abreve" unicode="&#x102;" horiz-adv-x="1323" 
d="M657 868l-129 -354h258zM662 1348q-133 0 -215 77q-81 78 -80 222h221q0 -86 74 -86t73 86h221q0 -143 -80 -222q-81 -77 -214 -77zM494 1257h335l480 -1257h-334l-90 244h-457l-88 -244h-326z" />
    <glyph glyph-name="abreve" unicode="&#x103;" horiz-adv-x="978" 
d="M508 999q-131 0 -212 80t-81 228h221q0 -96 72 -97q74 0 74 97h219q0 -147 -81 -227t-212 -81zM336 286q0 -44 37 -67t90 -22q100 0 135 61v53q-33 63 -135 64q-53 0 -90 -23q-37 -22 -37 -66zM907 0h-309v47q-25 -25 -88 -44t-133 -19q-143 0 -240 78q-96 78 -96 214
t100 217q101 81 243 81t214 -52v60q0 46 -29 78t-84 32q-84 0 -108 -67h-303q20 137 134 228t300 91t292 -99q108 -99 107 -280v-565z" />
    <glyph glyph-name="Aogonek" unicode="&#x104;" horiz-adv-x="1323" 
d="M657 868l-129 -354h258zM1202 -154q0 -39 41 -39q23 0 72 31v-178q-63 -39 -140 -39t-129 42t-52 124t112 213h-131l-90 244h-457l-88 -244h-326l480 1257h335l480 -1257l-31 -38t-36 -41q-40 -42 -40 -75z" />
    <glyph glyph-name="aogonek" unicode="&#x105;" horiz-adv-x="978" 
d="M598 0v47q-25 -25 -88 -44t-133 -19q-143 0 -240 78q-96 78 -96 214t100 217q101 81 243 81t214 -52v60q0 46 -29 78t-84 32q-86 0 -110 -67h-301q20 137 134 228t300 91t292 -99q108 -99 107 -280v-565l-25 -30q-72 -81 -75 -99q-4 -18 -4 -25q0 -39 39 -39q23 0 71 31
v-178q-59 -39 -138 -39t-131 42t-52 117t54 146q20 27 59 74h-107zM336 286q0 -44 37 -67t90 -22q100 0 135 61v53q-33 63 -135 64q-53 0 -90 -23q-37 -22 -37 -66z" />
    <glyph glyph-name="Cacute" unicode="&#x106;" horiz-adv-x="1234" 
d="M815 1364h-315l168 266h329zM45 629q0 285 170 467t434 182q227 0 367 -121t176 -321h-328q-55 154 -215 153q-127 0 -199 -100t-73 -259q0 -159 73 -260t199 -102q162 0 215 156h328q-35 -201 -175 -323t-368 -121q-264 0 -434 182t-170 467z" />
    <glyph glyph-name="cacute" unicode="&#x107;" horiz-adv-x="964" 
d="M37 461q0 213 129 347q130 134 324 134t307 -98t133 -264h-312q-6 44 -38 70t-88 26q-58 0 -98 -58t-40 -157q0 -97 40 -155t98 -58q115 0 126 94h312q-20 -164 -133 -263t-307 -99t-324 134q-129 134 -129 347zM643 1024h-295l168 307h305z" />
    <glyph glyph-name="Ccircumflex" unicode="&#x108;" horiz-adv-x="1234" 
d="M784 1634l222 -270h-258l-86 92l-87 -92h-258l222 270h245zM45 629q0 285 170 467t434 182q227 0 367 -121t176 -321h-328q-55 154 -215 153q-127 0 -199 -100t-73 -259q0 -159 73 -260t199 -102q162 0 215 156h328q-35 -201 -175 -323t-368 -121q-264 0 -434 182
t-170 467z" />
    <glyph glyph-name="ccircumflex" unicode="&#x109;" horiz-adv-x="964" 
d="M37 461q0 213 129 347q130 134 324 134t307 -98t133 -264h-312q-6 44 -38 70t-88 26q-58 0 -98 -58t-40 -157q0 -97 40 -155t98 -58q115 0 126 94h312q-20 -164 -133 -263t-307 -99t-324 134q-129 134 -129 347zM629 1329l196 -309h-237l-82 113l-82 -113h-238l197 309
h246z" />
    <glyph glyph-name="Cdotaccent" unicode="&#x10a;" horiz-adv-x="1234" 
d="M45 629q0 285 170 467t434 182q227 0 367 -121t176 -321h-328q-55 154 -215 153q-127 0 -199 -100t-73 -259q0 -159 73 -260t199 -102q162 0 215 156h328q-35 -201 -175 -323t-368 -121q-264 0 -434 182t-170 467zM657 1694q75 0 129 -48t54 -125t-54 -125t-129 -48
q-76 0 -129 48t-53 125t53 125t129 48z" />
    <glyph glyph-name="cdotaccent" unicode="&#x10b;" horiz-adv-x="964" 
d="M688 1187q0 -77 -53 -125t-129 -48t-129 48t-53 125t53 125t129 48t129 -48t53 -125zM37 461q0 213 129 347q130 134 324 134t307 -98t133 -264h-312q-6 44 -38 70t-88 26q-58 0 -98 -58t-40 -157q0 -97 40 -155t98 -58q115 0 126 94h312q-20 -164 -133 -263t-307 -99
t-324 134q-129 134 -129 347z" />
    <glyph glyph-name="Ccaron" unicode="&#x10c;" horiz-adv-x="1234" 
d="M45 629q0 285 170 467t434 182q227 0 367 -121t176 -321h-328q-55 154 -215 153q-127 0 -199 -100t-73 -259q0 -159 73 -260t199 -102q162 0 215 156h328q-35 -201 -175 -323t-368 -121q-264 0 -434 182t-170 467zM537 1358l-222 272h258l86 -94l86 94h259l-222 -272
h-245z" />
    <glyph glyph-name="ccaron" unicode="&#x10d;" horiz-adv-x="964" 
d="M37 461q0 213 129 347q130 134 324 134t307 -98t133 -264h-312q-6 44 -38 70t-88 26q-58 0 -98 -58t-40 -157q0 -97 40 -155t98 -58q115 0 126 94h312q-20 -164 -133 -263t-307 -99t-324 134q-129 134 -129 347zM825 1329l-196 -309h-246l-197 309h238l82 -115l82 115
h237z" />
    <glyph glyph-name="Dcaron" unicode="&#x10e;" horiz-adv-x="1247" 
d="M94 0v1257h475q295 0 465 -170q170 -171 170 -459t-170 -458t-465 -170h-475zM418 285h135q156 0 241 92t85 253t-85 253t-241 92h-135v-690zM434 1358l-221 272h258l86 -94l86 94h258l-221 -272h-246z" />
    <glyph glyph-name="dcaron" unicode="&#x10f;" horiz-adv-x="1083" 
d="M535 670q-82 0 -129 -58q-48 -58 -48 -150t48 -150t138 -58q91 0 132 86v244q-18 38 -58 62t-83 24zM676 0v74q-35 -39 -97 -67t-130 -27q-193 0 -303 136t-109 345q0 209 109 345q110 136 303 136q68 0 130 -28t97 -66v483h321v-1331h-321zM1307 989h-248l88 342h250z
" />
    <glyph glyph-name="Dcroat" unicode="&#x110;" horiz-adv-x="1282" 
d="M453 285h135q156 0 240 92t85 253q0 161 -85 253t-240 92h-135v-207h178v-254h-178v-229zM35 514v254h94v489h475q295 0 465 -170q170 -171 170 -459t-170 -458t-465 -170h-475v514h-94z" />
    <glyph glyph-name="dcroat" unicode="&#x111;" horiz-adv-x="1083" 
d="M535 670q-82 0 -129 -58q-48 -58 -48 -150t48 -150t138 -58q91 0 132 86v244q-18 38 -58 62t-83 24zM508 1004v208h168v119h321v-119h97v-208h-97v-1004h-321v74q-35 -39 -97 -67t-130 -27q-193 0 -303 136t-109 345q0 209 109 345q110 136 303 136q68 0 130 -28t97 -66
v156h-168z" />
    <glyph glyph-name="Emacron" unicode="&#x112;" horiz-adv-x="1062" 
d="M94 1257h899v-282h-575v-197h526v-276h-526v-217h575v-285h-899v1257zM285 1364v221h542v-221h-542z" />
    <glyph glyph-name="emacron" unicode="&#x113;" horiz-adv-x="978" 
d="M500 692q-117 0 -148 -133h279q-4 59 -39 96t-92 37zM490 -20q-194 0 -324 133q-129 133 -129 347t131 348t336 134q206 0 322 -127t116 -336v-80h-596q16 -170 160 -170q108 1 135 93h297q-26 -160 -140 -251t-308 -91zM252 1032v221h518v-221h-518z" />
    <glyph glyph-name="Ebreve" unicode="&#x114;" horiz-adv-x="1062" 
d="M94 1257h899v-282h-575v-197h526v-276h-526v-217h575v-285h-899v1257zM555 1348q-133 0 -214 78t-81 221h221q0 -86 74 -86t74 86h221q0 -143 -81 -221t-214 -78z" />
    <glyph glyph-name="ebreve" unicode="&#x115;" horiz-adv-x="978" 
d="M510 999q-131 0 -212 80t-81 228h221q0 -96 72 -97q74 0 74 97h219q0 -147 -81 -227t-212 -81zM500 692q-117 0 -148 -133h279q-4 59 -39 96t-92 37zM490 -20q-194 0 -324 133q-129 133 -129 347t131 348t336 134q206 0 322 -127t116 -336v-80h-596q16 -170 160 -170
q108 1 135 93h297q-26 -160 -140 -251t-308 -91z" />
    <glyph glyph-name="Edotaccent" unicode="&#x116;" horiz-adv-x="1062" 
d="M94 1257h899v-282h-575v-197h526v-276h-526v-217h575v-285h-899v1257zM737 1521q0 -77 -53 -125t-129 -48t-129 48t-53 125t53 125t129 48t129 -48t53 -125z" />
    <glyph glyph-name="edotaccent" unicode="&#x117;" horiz-adv-x="978" 
d="M692 1187q0 -77 -53 -125t-129 -48t-129 48t-53 125t53 125t129 48t129 -48t53 -125zM500 692q-117 0 -148 -133h279q-4 59 -39 96t-92 37zM490 -20q-194 0 -324 133q-129 133 -129 347t131 348t336 134q206 0 322 -127t116 -336v-80h-596q16 -170 160 -170q108 1 135 93
h297q-26 -160 -140 -251t-308 -91z" />
    <glyph glyph-name="Eogonek" unicode="&#x118;" horiz-adv-x="1062" 
d="M94 1257h899v-282h-575v-197h526v-276h-526v-217h575v-285h-71q-92 -113 -98 -128t-5 -26q0 -39 39 -39q23 0 72 31v-178q-63 -39 -140 -39t-130 42q-52 42 -52 125t115 212h-629v1257z" />
    <glyph glyph-name="eogonek" unicode="&#x119;" horiz-adv-x="978" 
d="M506 -20q-211 0 -340 133t-129 347t131 348t336 134q206 0 322 -127t116 -336v-80h-596q16 -170 160 -170q109 0 135 93h297q-16 -145 -135 -254q-152 -137 -152 -220q0 -41 41 -41q23 0 72 31v-178q-63 -39 -140 -39t-130 43t-53 126t98 192q-8 -2 -33 -2zM500 692
q-117 0 -148 -133h279q-4 59 -39 96t-92 37z" />
    <glyph glyph-name="Ecaron" unicode="&#x11a;" horiz-adv-x="1062" 
d="M94 1257h899v-282h-575v-197h526v-276h-526v-217h575v-285h-899v1257zM436 1358l-221 272h258l86 -94l86 94h258l-221 -272h-246z" />
    <glyph glyph-name="ecaron" unicode="&#x11b;" horiz-adv-x="978" 
d="M500 692q-117 0 -148 -133h279q-4 59 -39 96t-92 37zM490 -20q-194 0 -324 133q-129 133 -129 347t131 348t336 134q206 0 322 -127t116 -336v-80h-596q16 -170 160 -170q108 1 135 93h297q-26 -160 -140 -251t-308 -91zM829 1329l-196 -309h-246l-197 309h238l82 -115
l82 115h237z" />
    <glyph glyph-name="Gcircumflex" unicode="&#x11c;" horiz-adv-x="1275" 
d="M711 426v246h520v-125q0 -258 -156 -413q-157 -154 -419 -154t-437 181q-174 181 -174 468t174 468t445 181q233 0 376 -121t181 -321h-336q-55 154 -221 153q-133 0 -210 -100t-77 -261t79 -260t212 -100q186 0 237 158h-194zM791 1634l221 -270h-258l-86 92l-86 -92
h-258l221 270h246z" />
    <glyph glyph-name="gcircumflex" unicode="&#x11d;" horiz-adv-x="1067" 
d="M532 688q-86 0 -132 -54t-46 -142t45 -142t133 -55q88 0 132 78v237q-46 78 -132 78zM664 63v66q-78 -90 -220 -90q-188 0 -298 128t-110 324q0 195 110 323t298 128q143 0 220 -90v70h317v-789q0 -235 -130 -357q-131 -122 -333 -122t-324 88t-147 246h309
q29 -98 146 -99q162 0 162 174zM694 1329l197 -309h-238l-82 113l-82 -113h-237l197 309h245z" />
    <glyph glyph-name="Gbreve" unicode="&#x11e;" horiz-adv-x="1275" 
d="M711 426v246h520v-125q0 -258 -156 -413q-157 -154 -419 -154t-437 181q-174 181 -174 468t174 468t445 181q233 0 376 -121t181 -321h-336q-55 154 -221 153q-133 0 -210 -100t-77 -261t79 -260t212 -100q186 0 237 158h-194zM670 1348q-133 0 -214 78t-81 221h221
q0 -86 74 -86t73 86h222q0 -143 -81 -221t-214 -78z" />
    <glyph glyph-name="gbreve" unicode="&#x11f;" horiz-adv-x="1067" 
d="M571 999q-131 0 -212 80t-80 228h221q0 -96 71 -97q74 0 74 97h219q0 -147 -81 -227t-212 -81zM532 688q-86 0 -132 -54t-46 -142t45 -142t133 -55q88 0 132 78v237q-46 78 -132 78zM664 63v66q-78 -90 -220 -90q-188 0 -298 128t-110 324q0 195 110 323t298 128
q143 0 220 -90v70h317v-789q0 -235 -130 -357q-131 -122 -333 -122t-324 88t-147 246h309q29 -98 146 -99q162 0 162 174z" />
    <glyph glyph-name="Gdotaccent" unicode="&#x120;" horiz-adv-x="1275" 
d="M711 426v246h520v-125q0 -258 -156 -413q-157 -154 -419 -154t-437 181q-174 181 -174 468t174 468t445 181q233 0 376 -121t181 -321h-336q-55 154 -221 153q-133 0 -210 -100t-77 -261t79 -260t212 -100q186 0 237 158h-194zM852 1521q0 -77 -53 -125t-129 -48t-129 48
t-53 125t52 125q54 48 130 48t129 -48t53 -125z" />
    <glyph glyph-name="gdotaccent" unicode="&#x121;" horiz-adv-x="1067" 
d="M532 688q-86 0 -132 -54t-46 -142t45 -142t133 -55q88 0 132 78v237q-46 78 -132 78zM664 63v66q-78 -90 -220 -90q-188 0 -298 128t-110 324q0 195 110 323t298 128q143 0 220 -90v70h317v-789q0 -235 -130 -357q-131 -122 -333 -122t-324 88t-147 246h309
q29 -98 146 -99q162 0 162 174zM571 1360q75 0 129 -48t54 -125t-54 -125t-129 -48q-76 0 -129 48t-53 125t53 125t129 48z" />
    <glyph glyph-name="Gcommaaccent" unicode="&#x122;" horiz-adv-x="1275" 
d="M711 426v246h520v-125q0 -258 -156 -413q-157 -154 -419 -154t-437 181q-174 181 -174 468t174 468t445 181q233 0 376 -121t181 -321h-336q-55 154 -221 153q-133 0 -210 -100t-77 -261t79 -260t212 -100q186 0 237 158h-194zM663 -68q71 0 119 -44t47 -120
q0 -76 -79 -174l-60 -77h-194l100 131q-43 12 -71 49q-27 37 -27 94t47 99t118 42z" />
    <glyph glyph-name="gcommaaccent" unicode="&#x123;" horiz-adv-x="1067" 
d="M532 688q-86 0 -132 -54t-46 -142t45 -142t133 -55q88 0 132 78v237q-46 78 -132 78zM664 63v66q-78 -90 -220 -90q-188 0 -298 128t-110 324q0 195 110 323t298 128q143 0 220 -90v70h317v-789q0 -235 -130 -357q-131 -122 -333 -122t-324 88t-147 246h309
q29 -98 146 -99q162 0 162 174zM731 1149q0 -63 -48 -107t-119 -43q-71 0 -119 44t-48 121t80 179l64 82h196l-106 -137q100 -31 100 -139z" />
    <glyph glyph-name="Hcircumflex" unicode="&#x124;" horiz-adv-x="1331" 
d="M788 1634l222 -270h-258l-86 92l-86 -92h-258l221 270h245zM909 1257h330v-1257h-330v498h-485v-498h-330v1257h330v-477h485v477z" />
    <glyph glyph-name="hcircumflex" unicode="&#x125;" horiz-adv-x="1062" 
d="M649 1663l221 -270h-258l-86 92l-86 -92h-258l221 270h246zM86 0v1331h322v-489q90 100 244 100t242 -91q87 -91 87 -247v-604h-319v526q0 60 -31 96t-85 36q-113 -1 -138 -101v-557h-322z" />
    <glyph glyph-name="Hbar" unicode="&#x126;" horiz-adv-x="1398" 
d="M457 657h485v185h-485v-185zM35 842v252h92v163h330v-163h485v163h330v-163h92v-252h-92v-842h-330v406h-485v-406h-330v842h-92z" />
    <glyph glyph-name="hbar" unicode="&#x127;" horiz-adv-x="1062" 
d="M-10 1004v208h96v119h322v-119h167v-208h-167v-162q90 100 244 100t242 -91q87 -91 87 -247v-604h-319v526q0 60 -31 96t-85 36q-113 -1 -138 -101v-557h-322v1004h-96z" />
    <glyph glyph-name="Itilde" unicode="&#x128;" horiz-adv-x="518" 
d="M580 1657q0 -307 -181 -307q-53 0 -129 36t-106 35q-49 0 -53 -63h-174q0 307 180 307q53 0 129 -36t106 -36q50 1 54 64h174zM424 1257v-1257h-330v1257h330z" />
    <glyph glyph-name="itilde" unicode="&#x129;" horiz-adv-x="495" 
d="M408 922v-922h-322v922h322zM512 1325q0 -307 -158 -307q-45 0 -93 36t-71 36q-41 0 -45 -66h-163q0 307 157 307q45 0 92 -36t72 -35q41 -1 45 65h164z" />
    <glyph glyph-name="Imacron" unicode="&#x12a;" horiz-adv-x="518" 
d="M-12 1364v221h542v-221h-542zM424 1257v-1257h-330v1257h330z" />
    <glyph glyph-name="imacron" unicode="&#x12b;" horiz-adv-x="495" 
d="M18 1032v221h455v-221h-455zM408 922v-922h-322v922h322z" />
    <glyph glyph-name="Ibreve" unicode="&#x12c;" horiz-adv-x="518" 
d="M260 1348q-133 0 -214 78t-81 221h221q0 -86 74 -86t74 86h221q0 -143 -81 -221t-214 -78zM424 1257v-1257h-330v1257h330z" />
    <glyph glyph-name="ibreve" unicode="&#x12d;" horiz-adv-x="495" 
d="M408 922v-922h-322v922h322zM510 1307q0 -147 -72 -227t-191 -81q-118 0 -190 80t-71 228h200q0 -96 62 -97q59 0 59 97h203z" />
    <glyph glyph-name="Iogonek" unicode="&#x12e;" horiz-adv-x="518" 
d="M424 1257v-1257q-14 -16 -33 -40t-37 -44q-37 -41 -37 -70q0 -39 41 -39q23 0 72 31v-178q-63 -39 -140 -39t-129 42t-52 124t112 213h-127v1257h330z" />
    <glyph glyph-name="iogonek" unicode="&#x12f;" horiz-adv-x="495" 
d="M430 1172q0 -76 -53 -124t-129 -48t-129 48t-53 124t53 125t129 49t129 -48t53 -126zM408 922v-922l-34 -40q-22 -24 -31 -36t-13 -18t-10 -14q-16 -22 -17 -46q0 -39 39 -39q25 0 74 31v-178q-63 -39 -141 -39t-131 42q-52 42 -52 116t54 147q19 27 59 74h-119v922h322z
" />
    <glyph glyph-name="Idotaccent" unicode="&#x130;" horiz-adv-x="518" 
d="M440 1521q0 -77 -53 -125t-129 -48t-129 48t-53 125t53 125t129 48t129 -48t53 -125zM424 1257v-1257h-330v1257h330z" />
    <glyph glyph-name="dotlessi" unicode="&#x131;" horiz-adv-x="495" 
d="M408 922v-922h-322v922h322z" />
    <glyph glyph-name="IJ" unicode="&#x132;" horiz-adv-x="1554" 
d="M424 1257v-1257h-330v1257h330zM977 274q170 0 170 211v772h330v-774q-1 -252 -137 -378q-136 -125 -361 -125t-357 126t-143 338h334q10 -170 164 -170z" />
    <glyph glyph-name="ij" unicode="&#x133;" horiz-adv-x="989" 
d="M926 1172q0 -76 -54 -124t-129 -48q-76 0 -129 48t-53 124t53 125t129 49q75 0 129 -48t54 -126zM903 922v-902q0 -176 -90 -271t-260 -95q-76 0 -117 14v242q26 -4 62 -4t60 24t24 78v914h321zM430 1172q0 -76 -53 -124t-129 -48t-129 48t-53 124t53 125t129 49t129 -48
t53 -126zM408 922v-922h-322v922h322z" />
    <glyph glyph-name="Jcircumflex" unicode="&#x134;" horiz-adv-x="1107" 
d="M987 1634l221 -270h-258l-86 92l-86 -92h-258l221 270h246zM528 274q170 0 170 211v772h330v-774q0 -252 -136 -378q-136 -125 -362 -125t-357 126q-132 126 -142 338h334q10 -170 163 -170z" />
    <glyph glyph-name="jcircumflex" unicode="&#x135;" horiz-adv-x="493" 
d="M408 922v-902q0 -176 -90 -271t-261 -95q-76 0 -116 14v242q25 -4 61 -4t60 24t24 78v914h322zM371 1329l161 -309h-229l-55 123l-58 -123h-227l162 309h246z" />
    <glyph glyph-name="Kcommaaccent" unicode="&#x136;" horiz-adv-x="1245" 
d="M424 1257v-516l405 516h385l-440 -552l459 -705h-387l-318 483l-104 -133v-350h-330v1257h330zM438 -209q0 57 47 99t118 42t119 -44t48 -120t-80 -174l-59 -77h-195l101 131q-43 12 -71 49t-28 94z" />
    <glyph glyph-name="kcommaaccent" unicode="&#x137;" horiz-adv-x="1071" 
d="M408 0h-322v1331h322v-704l258 295h387l-351 -383l361 -539h-369l-225 342l-61 -72v-270zM352 -209q0 57 47 99t118 42t119 -44t48 -120t-80 -174l-59 -77h-195l101 131q-43 12 -71 49t-28 94z" />
    <glyph glyph-name="kgreenlandic" unicode="&#x138;" horiz-adv-x="1071" 
d="M408 0h-322v922h322v-295l258 295h387l-351 -383l361 -539h-369l-225 342l-61 -72v-270z" />
    <glyph glyph-name="Lacute" unicode="&#x139;" horiz-adv-x="1044" 
d="M94 0v1257h330v-972h563v-285h-893zM430 1364h-315l168 266h329z" />
    <glyph glyph-name="lacute" unicode="&#x13a;" horiz-adv-x="495" 
d="M408 1331v-1331h-322v1331h322zM401 1403h-315l168 266h330z" />
    <glyph glyph-name="Lcommaaccent" unicode="&#x13b;" horiz-adv-x="1044" 
d="M94 0v1257h330v-972h563v-285h-893zM381 -209q0 57 47 99t118 42t119 -44t48 -120t-80 -174l-60 -77h-194l100 131q-43 12 -71 49t-27 94z" />
    <glyph glyph-name="lcommaaccent" unicode="&#x13c;" horiz-adv-x="495" 
d="M408 1331v-1331h-322v1331h322zM80 -209q0 57 47 99t118 42t119 -44t48 -120t-80 -174l-60 -77h-194l100 131q-42 12 -70 49t-28 94z" />
    <glyph glyph-name="Lcaron" unicode="&#x13d;" horiz-adv-x="1044" 
d="M94 0v1257h330v-972h563v-285h-893zM793 915h-248l88 342h250z" />
    <glyph glyph-name="lcaron" unicode="&#x13e;" horiz-adv-x="495" 
d="M408 1331v-1331h-322v1331h322zM719 989h-248l88 342h250z" />
    <glyph glyph-name="Ldot" unicode="&#x13f;" horiz-adv-x="1044" 
d="M948 710q0 -77 -53 -125t-129 -48t-129 48t-53 125t53 125t129 48t129 -48t53 -125zM94 0v1257h330v-972h563v-285h-893z" />
    <glyph glyph-name="ldot" unicode="&#x140;" horiz-adv-x="872" 
d="M864 681q0 -77 -53 -125t-129 -48t-129 48t-53 125t53 125t129 48t129 -48t53 -125zM408 1331v-1331h-322v1331h322z" />
    <glyph glyph-name="Lslash" unicode="&#x141;" horiz-adv-x="1073" 
d="M123 1257h330v-444l247 100v-256l-247 -98v-274h563v-285h-893v436l-100 -39v254l100 41v565z" />
    <glyph glyph-name="lslash" unicode="&#x142;" horiz-adv-x="598" 
d="M459 1331v-454l106 63v-235l-106 -64v-641h-322v481l-102 -59v235l102 60v614h322z" />
    <glyph glyph-name="Nacute" unicode="&#x143;" horiz-adv-x="1298" 
d="M1204 1257v-1257h-266l-526 735v-735h-318v1257h307l486 -692v692h317zM799 1364h-316l168 266h330z" />
    <glyph glyph-name="nacute" unicode="&#x144;" horiz-adv-x="1062" 
d="M86 0v922h322v-80q90 100 244 100t242 -91q87 -91 87 -247v-604h-319v526q0 60 -31 96t-85 36q-113 -1 -138 -101v-557h-322zM686 1024h-295l168 307h305z" />
    <glyph glyph-name="Ncommaaccent" unicode="&#x145;" horiz-adv-x="1298" 
d="M1204 1257v-1257h-266l-526 735v-735h-318v1257h307l486 -692v692h317zM481 -209q0 57 47 99t118 42t119 -44t48 -120t-80 -174l-59 -77h-195l101 131q-43 12 -71 49t-28 94z" />
    <glyph glyph-name="ncommaaccent" unicode="&#x146;" horiz-adv-x="1062" 
d="M86 0v922h322v-80q90 100 244 100t242 -91q87 -91 87 -247v-604h-319v526q0 60 -31 96t-85 36q-113 -1 -138 -101v-557h-322zM538 -68q70 0 118 -44t48 -120t-79 -174l-60 -77h-194l100 131q-43 12 -71 49t-28 94t48 99q47 42 118 42z" />
    <glyph glyph-name="Ncaron" unicode="&#x147;" horiz-adv-x="1298" 
d="M1204 1257v-1257h-266l-526 735v-735h-318v1257h307l486 -692v692h317zM526 1358l-221 272h258l86 -94l86 94h258l-221 -272h-246z" />
    <glyph glyph-name="ncaron" unicode="&#x148;" horiz-adv-x="1062" 
d="M86 0v922h322v-80q90 100 244 100t242 -91q87 -91 87 -247v-604h-319v526q0 60 -31 96t-85 36q-113 -1 -138 -101v-557h-322zM868 1329l-196 -309h-246l-197 309h238l82 -115l82 115h237z" />
    <glyph glyph-name="Eng" unicode="&#x14a;" horiz-adv-x="1298" 
d="M717 -70q75 0 111 38t44 122l-460 645v-735h-318v1257h307l486 -692v692h317v-1148q0 -236 -116 -350t-326 -113q-85 -1 -189 30v287q70 -33 144 -33z" />
    <glyph glyph-name="eng" unicode="&#x14b;" horiz-adv-x="1062" 
d="M662 8v518q0 60 -31 96t-85 36q-113 -1 -138 -101v-557h-322v922h322v-80q90 100 244 100t242 -91q87 -91 87 -247v-584q0 -176 -90 -271t-260 -95q-76 0 -117 14v242q25 -4 47 -4q101 0 101 102z" />
    <glyph glyph-name="Omacron" unicode="&#x14c;" horiz-adv-x="1316" 
d="M942 629q0 162 -79 261t-206 99t-203 -98t-77 -262q0 -164 77 -262q78 -99 204 -99t205 100t79 261zM658 1278q272 0 444 -182t172 -466t-172 -467t-444 -183t-442 183q-171 183 -171 467t171 466t442 182zM387 1364v221h543v-221h-543z" />
    <glyph glyph-name="omacron" unicode="&#x14d;" horiz-adv-x="1017" 
d="M664 461q0 98 -41 157q-41 60 -114 60t-114 -60t-41 -156t41 -156t114 -60t114 58t41 157zM979 461q0 -213 -130 -347t-340 -134t-341 134t-131 347t131 347t341 134t340 -134t130 -347zM250 1032v221h518v-221h-518z" />
    <glyph glyph-name="Obreve" unicode="&#x14e;" horiz-adv-x="1316" 
d="M942 629q0 162 -79 261t-206 99t-203 -98t-77 -262q0 -164 77 -262q78 -99 204 -99t205 100t79 261zM658 1278q272 0 444 -182t172 -466t-172 -467t-444 -183t-442 183q-171 183 -171 467t171 466t442 182zM659 1348q-133 0 -214 78t-80 221h221q0 -86 74 -86t73 86h221
q0 -143 -81 -221t-214 -78z" />
    <glyph glyph-name="obreve" unicode="&#x14f;" horiz-adv-x="1017" 
d="M508 999q-131 0 -212 80t-81 228h221q0 -96 72 -97q74 0 74 97h219q0 -147 -81 -227t-212 -81zM664 461q0 98 -41 157q-41 60 -114 60t-114 -60t-41 -156t41 -156t114 -60t114 58t41 157zM979 461q0 -213 -130 -347t-340 -134t-341 134t-131 347t131 347t341 134
t340 -134t130 -347z" />
    <glyph glyph-name="Ohungarumlaut" unicode="&#x150;" horiz-adv-x="1316" 
d="M963 1364h-265l156 266h266zM623 1364h-265l154 266h266zM942 629q0 162 -79 261t-206 99t-203 -98t-77 -262q0 -164 77 -262q78 -99 204 -99t205 100t79 261zM658 1278q272 0 444 -182t172 -466t-172 -467t-444 -183t-442 183q-171 183 -171 467t171 466t442 182z" />
    <glyph glyph-name="ohungarumlaut" unicode="&#x151;" horiz-adv-x="1017" 
d="M664 461q0 98 -41 157q-41 60 -114 60t-114 -60t-41 -156t41 -156t114 -60t114 58t41 157zM979 461q0 -213 -130 -347t-340 -134t-341 134t-131 347t131 347t341 134t340 -134t130 -347zM788 1024h-247l155 307h250zM465 1024h-250l156 307h252z" />
    <glyph glyph-name="OE" unicode="&#x152;" horiz-adv-x="1732" 
d="M694 285h111v690h-111q-156 0 -240 -92t-83 -253q-1 -161 83 -253t240 -92zM1665 1257v-282h-537v-197h486v-276h-486v-217h537v-285h-987q-293 0 -463 170t-170 459t170 459t463 169h987z" />
    <glyph glyph-name="oe" unicode="&#x153;" horiz-adv-x="1585" 
d="M1106 692q-117 0 -148 -133h279q-4 59 -39 96t-92 37zM664 461q0 98 -41 157q-41 60 -114 60t-114 -60t-41 -156t41 -156t114 -60t114 58t41 157zM1111 -20q-179 0 -302 112q-125 -113 -301 -112q-209 0 -340 134t-131 347t131 347q132 134 326 134t317 -113
q119 113 311 113t310 -127q117 -127 116 -336v-80h-596q16 -170 160 -170q109 0 135 93h297q-26 -160 -140 -251t-293 -91z" />
    <glyph glyph-name="Racute" unicode="&#x154;" horiz-adv-x="1175" 
d="M729 1364h-315l168 266h329zM420 981v-303h205q170 0 170 152t-170 151h-205zM420 416v-416h-326v1257h565q207 -1 332 -113t125 -315q0 -139 -66 -237t-184 -141l295 -451h-364l-262 416h-115z" />
    <glyph glyph-name="racute" unicode="&#x155;" horiz-adv-x="747" 
d="M571 645q-137 0 -163 -104v-541h-322v922h322v-82q76 102 208 102q60 0 89 -16v-310q-55 29 -134 29zM541 1024h-295l168 307h305z" />
    <glyph glyph-name="Rcommaaccent" unicode="&#x156;" horiz-adv-x="1175" 
d="M577 -68q71 0 119 -44t47 -120q0 -76 -79 -174l-60 -77h-194l100 131q-43 12 -71 49q-27 37 -27 94t47 99t118 42zM420 981v-303h205q170 0 170 152t-170 151h-205zM420 416v-416h-326v1257h565q207 -1 332 -113t125 -315q0 -139 -66 -237t-184 -141l295 -451h-364
l-262 416h-115z" />
    <glyph glyph-name="rcommaaccent" unicode="&#x157;" horiz-adv-x="747" 
d="M571 645q-137 0 -163 -104v-541h-322v922h322v-82q76 102 208 102q60 0 89 -16v-310q-55 29 -134 29zM241 -68q71 0 119 -44t48 -120t-80 -174l-60 -77h-194l100 131q-43 12 -71 49q-27 37 -27 94t47 99t118 42z" />
    <glyph glyph-name="Rcaron" unicode="&#x158;" horiz-adv-x="1175" 
d="M420 981v-303h205q170 0 170 152t-170 151h-205zM457 1358l-221 272h258l86 -94l86 94h258l-222 -272h-245zM420 416v-416h-326v1257h565q207 -1 332 -113t125 -315q0 -139 -66 -237t-184 -141l295 -451h-364l-262 416h-115z" />
    <glyph glyph-name="rcaron" unicode="&#x159;" horiz-adv-x="747" 
d="M571 645q-137 0 -163 -104v-541h-322v922h322v-82q76 102 208 102q60 0 89 -16v-310q-55 29 -134 29zM723 1329l-197 -309h-245l-197 309h238l81 -115l82 115h238z" />
    <glyph glyph-name="Sacute" unicode="&#x15a;" horiz-adv-x="1114" 
d="M702 1364h-315l168 266h330zM569 244q78 0 124 32t46 82q-1 50 -29 74t-89 37l-242 51q-324 72 -324 350q0 182 136 295q137 113 353 113t350 -108t161 -277h-322q-47 123 -192 123q-72 0 -115 -30t-43 -81q0 -78 104 -100l246 -57q334 -80 334 -363q0 -188 -139 -297
q-138 -108 -358 -108t-366 104t-179 289h342q39 -129 202 -129z" />
    <glyph glyph-name="sacute" unicode="&#x15b;" horiz-adv-x="917" 
d="M463 205q94 0 94 63q0 41 -72 58l-180 36q-254 53 -254 269q0 143 113 227q112 84 288 84t282 -79t128 -220h-297q-18 74 -108 74t-90 -62q0 -39 63 -51l182 -43q258 -59 258 -276q0 -143 -113 -225q-114 -80 -292 -80t-295 80t-137 225h313q23 -80 117 -80zM596 1024
h-295l168 307h305z" />
    <glyph glyph-name="Scircumflex" unicode="&#x15c;" horiz-adv-x="1114" 
d="M684 1634l221 -270h-258l-86 92l-86 -92h-258l221 270h246zM569 244q78 0 124 32t46 82q-1 50 -29 74t-89 37l-242 51q-324 72 -324 350q0 182 136 295q137 113 353 113t350 -108t161 -277h-322q-47 123 -192 123q-72 0 -115 -30t-43 -81q0 -78 104 -100l246 -57
q334 -80 334 -363q0 -188 -139 -297q-138 -108 -358 -108t-366 104t-179 289h342q39 -129 202 -129z" />
    <glyph glyph-name="scircumflex" unicode="&#x15d;" horiz-adv-x="917" 
d="M463 205q94 0 94 63q0 41 -72 58l-180 36q-254 53 -254 269q0 143 113 227q112 84 288 84t282 -79t128 -220h-297q-18 74 -108 74t-90 -62q0 -39 63 -51l182 -43q258 -59 258 -276q0 -143 -113 -225q-114 -80 -292 -80t-295 80t-137 225h313q23 -80 117 -80zM582 1329
l196 -309h-237l-82 113l-82 -113h-238l197 309h246z" />
    <glyph glyph-name="Scedilla" unicode="&#x15e;" horiz-adv-x="1114" 
d="M553 -371h-272l141 289h274zM569 244q78 0 124 32t46 82q-1 50 -29 74t-89 37l-242 51q-324 72 -324 350q0 182 136 295q137 113 353 113t350 -108t161 -277h-322q-47 123 -192 123q-72 0 -115 -30t-43 -81q0 -78 104 -100l246 -57q334 -80 334 -363q0 -188 -139 -297
q-138 -108 -358 -108t-366 104t-179 289h342q39 -129 202 -129z" />
    <glyph glyph-name="scedilla" unicode="&#x15f;" horiz-adv-x="917" 
d="M451 -371h-273l141 289h275zM463 205q94 0 94 63q0 41 -72 58l-180 36q-254 53 -254 269q0 143 113 227q112 84 288 84t282 -79t128 -220h-297q-18 74 -108 74t-90 -62q0 -39 63 -51l182 -43q258 -59 258 -276q0 -143 -113 -225q-114 -80 -292 -80t-295 80t-137 225h313
q23 -80 117 -80z" />
    <glyph glyph-name="Scaron" unicode="&#x160;" horiz-adv-x="1114" 
d="M569 244q78 0 124 32t46 82q-1 50 -29 74t-89 37l-242 51q-324 72 -324 350q0 182 136 295q137 113 353 113t350 -108t161 -277h-322q-47 123 -192 123q-72 0 -115 -30t-43 -81q0 -78 104 -100l246 -57q334 -80 334 -363q0 -188 -139 -297q-138 -108 -358 -108t-366 104
t-179 289h342q39 -129 202 -129zM434 1358l-221 272h258l86 -94l86 94h258l-221 -272h-246z" />
    <glyph glyph-name="scaron" unicode="&#x161;" horiz-adv-x="917" 
d="M463 205q94 0 94 63q0 41 -72 58l-180 36q-254 53 -254 269q0 143 113 227q112 84 288 84t282 -79t128 -220h-297q-18 74 -108 74t-90 -62q0 -39 63 -51l182 -43q258 -59 258 -276q0 -143 -113 -225q-114 -80 -292 -80t-295 80t-137 225h313q23 -80 117 -80zM778 1329
l-196 -309h-246l-197 309h238l82 -115l82 115h237z" />
    <glyph glyph-name="Tcedilla" unicode="&#x162;" horiz-adv-x="1187" 
d="M41 975v282h1106v-282h-389v-975h-330v975h-387zM426 -209q0 57 47 99t118 42t119 -44t48 -120t-80 -174l-60 -77h-194l100 131q-42 12 -70 49t-28 94z" />
    <glyph glyph-name="tcedilla" unicode="&#x163;" horiz-adv-x="733" 
d="M254 -209q0 57 47 99t118 42t119 -44t48 -120t-80 -174l-60 -77h-194l100 131q-42 12 -70 49t-28 94zM152 317v355h-134v250h134v254h319v-254h193v-250h-193v-301q0 -102 98 -103q55 0 103 21v-279q-66 -29 -178 -28q-342 -1 -342 335z" />
    <glyph glyph-name="Tcaron" unicode="&#x164;" horiz-adv-x="1187" 
d="M41 975v282h1106v-282h-389v-975h-330v975h-387zM471 1358l-221 272h258l86 -94l86 94h258l-221 -272h-246z" />
    <glyph glyph-name="tcaron" unicode="&#x165;" horiz-adv-x="733" 
d="M784 997h-247l88 342h249zM152 317v355h-134v250h134v254h319v-254h193v-250h-193v-301q0 -102 98 -103q55 0 103 21v-279q-66 -29 -178 -28q-342 -1 -342 335z" />
    <glyph glyph-name="Tbar" unicode="&#x166;" horiz-adv-x="1187" 
d="M41 975v282h1106v-282h-389v-232h186v-266h-186v-477h-330v477h-186v266h186v232h-387z" />
    <glyph glyph-name="tbar" unicode="&#x167;" horiz-adv-x="737" 
d="M55 406v196h101v107h-131v213h131v254h319v-254h193v-213h-193v-107h135v-196h-135v-35q0 -102 98 -103q55 0 103 21v-279q-66 -29 -176 -28q-344 0 -344 335v89h-101z" />
    <glyph glyph-name="Utilde" unicode="&#x168;" horiz-adv-x="1255" 
d="M1176 512q0 -254 -148 -393t-400 -139q-253 0 -401 139q-147 139 -147 395v743h328v-714q0 -131 58 -201t162 -70t162 70t58 201v714h328v-745zM950 1657q0 -307 -180 -307q-53 0 -129 36t-106 35q-49 0 -54 -63h-174q0 307 180 307q53 0 129 -36t107 -36q49 1 53 64h174
z" />
    <glyph glyph-name="utilde" unicode="&#x169;" horiz-adv-x="1058" 
d="M657 1325h177q0 -307 -181 -307q-51 0 -112 37t-90 37q-51 0 -52 -68h-176q0 307 180 307q51 0 113 -37t90 -37q51 0 51 68zM973 922v-922h-322v80q-85 -100 -241 -100t-242 91t-86 246v605h319v-529q0 -133 119 -133q45 0 82 28t49 74v560h322z" />
    <glyph glyph-name="Umacron" unicode="&#x16a;" horiz-adv-x="1255" 
d="M1176 512q0 -254 -148 -393t-400 -139q-253 0 -401 139q-147 139 -147 395v743h328v-714q0 -131 58 -201t162 -70t162 70t58 201v714h328v-745zM358 1364v221h543v-221h-543z" />
    <glyph glyph-name="umacron" unicode="&#x16b;" horiz-adv-x="1058" 
d="M270 1032v221h518v-221h-518zM973 922v-922h-322v80q-85 -100 -241 -100t-242 91t-86 246v605h319v-529q0 -133 119 -133q45 0 82 28t49 74v560h322z" />
    <glyph glyph-name="Ubreve" unicode="&#x16c;" horiz-adv-x="1255" 
d="M1176 512q0 -254 -148 -393t-400 -139q-253 0 -401 139q-147 139 -147 395v743h328v-714q0 -131 58 -201t162 -70t162 70t58 201v714h328v-745zM629 1348q-133 0 -214 78t-81 221h221q0 -86 74 -86t73 86h222q0 -143 -81 -221t-214 -78z" />
    <glyph glyph-name="ubreve" unicode="&#x16d;" horiz-adv-x="1058" 
d="M528 999q-131 0 -212 80t-80 228h221q0 -96 71 -97q74 0 74 97h219q0 -147 -81 -227t-212 -81zM973 922v-922h-322v80q-85 -100 -241 -100t-242 91t-86 246v605h319v-529q0 -133 119 -133q45 0 82 28t49 74v560h322z" />
    <glyph glyph-name="Uring" unicode="&#x16e;" horiz-adv-x="1255" 
d="M702 1530q0 30 -20 52t-52 22t-54 -22t-21 -52q0 -30 22 -52q21 -22 53 -22t52 22t20 52zM850 1530q0 -90 -64 -152t-157 -63q-94 0 -158 62q-63 63 -63 153t63 152t157 62t158 -62t64 -152zM1176 512q0 -254 -148 -393t-400 -139q-253 0 -401 139q-147 139 -147 395v743
h328v-714q0 -131 58 -201t162 -70t162 70t58 201v714h328v-745z" />
    <glyph glyph-name="uring" unicode="&#x16f;" horiz-adv-x="1058" 
d="M973 922v-922h-322v80q-85 -100 -241 -100t-242 91t-86 246v605h319v-529q0 -133 119 -133q45 0 82 28t49 74v560h322zM602 1207q0 32 -20 54q-20 21 -52 21t-54 -22t-22 -52t22 -52t54 -22t52 21q20 20 20 52zM750 1206q0 -90 -64 -151t-158 -61t-157 60q-63 62 -64 152
t63 154t158 63q94 1 158 -63t64 -154z" />
    <glyph glyph-name="Uhungarumlaut" unicode="&#x170;" horiz-adv-x="1255" 
d="M932 1364h-264l155 266h267zM592 1364h-264l153 266h267zM1176 512q0 -254 -148 -393t-400 -139q-253 0 -401 139q-147 139 -147 395v743h328v-714q0 -131 58 -201t162 -70t162 70t58 201v714h328v-745z" />
    <glyph glyph-name="uhungarumlaut" unicode="&#x171;" horiz-adv-x="1058" 
d="M809 1024h-248l156 307h250zM485 1024h-249l155 307h252zM973 922v-922h-322v80q-85 -100 -241 -100t-242 91t-86 246v605h319v-529q0 -133 119 -133q45 0 82 28t49 74v560h322z" />
    <glyph glyph-name="Uogonek" unicode="&#x172;" horiz-adv-x="1255" 
d="M629 -20q-254 0 -402 139q-147 139 -147 395v743h328v-714q0 -131 58 -201t162 -70t162 70t58 201v714h328v-745q0 -303 -236 -461q-182 -119 -182 -205q0 -39 41 -39q23 0 71 31v-178q-63 -39 -140 -39t-129 42t-52 128t98 189h-18z" />
    <glyph glyph-name="uogonek" unicode="&#x173;" horiz-adv-x="1058" 
d="M973 922v-922q-12 -15 -32 -37q-19 -21 -29 -33t-14 -18l-11 -13t-8 -13q-1 -6 -5 -10q-4 -5 -5 -10t-2 -9t-1 -11q0 -39 41 -39q23 0 72 31v-178q-63 -39 -140 -39t-129 42t-52 124t112 213h-119v80q-85 -100 -241 -100t-242 91t-86 246v605h319v-529q0 -133 119 -133
q45 0 82 28t49 74v560h322z" />
    <glyph glyph-name="Wcircumflex" unicode="&#x174;" horiz-adv-x="1679" 
d="M963 1634l221 -270h-258l-86 92l-86 -92h-258l221 270h246zM719 1257h250l192 -739l174 739h332l-332 -1257h-301l-194 737l-197 -737h-301l-330 1257h336l176 -739z" />
    <glyph glyph-name="wcircumflex" unicode="&#x175;" horiz-adv-x="1429" 
d="M823 922l138 -500l147 500h307l-297 -922h-272l-131 467l-131 -467h-273l-297 922h320l145 -500l139 500h205zM838 1329l196 -309h-237l-82 113l-82 -113h-238l197 309h246z" />
    <glyph glyph-name="Ycircumflex" unicode="&#x176;" horiz-adv-x="1253" 
d="M750 1634l221 -270h-258l-86 92l-86 -92h-258l221 270h246zM788 0h-329v446l-447 811h357l264 -491l264 491h346l-455 -811v-446z" />
    <glyph glyph-name="ycircumflex" unicode="&#x177;" horiz-adv-x="1028" 
d="M647 1329l197 -309h-238l-82 113l-82 -113h-237l196 309h246zM541 -326h-318l135 349l-344 899h334l176 -525l172 525h320z" />
    <glyph glyph-name="Ydieresis" unicode="&#x178;" horiz-adv-x="1253" 
d="M651 1503q0 68 47 115t113 47t114 -47t48 -115q0 -69 -48 -115t-114 -46t-113 46q-47 47 -47 115zM281 1503q0 68 46 115q47 47 113 47t114 -47t48 -115q0 -69 -48 -115t-115 -46t-113 46q-46 47 -45 115zM788 0h-329v446l-447 811h357l264 -491l264 491h346l-455 -811
v-446z" />
    <glyph glyph-name="Zacute" unicode="&#x179;" horiz-adv-x="1148" 
d="M750 1364h-316l168 266h330zM1079 285v-285h-1009v244l583 731h-577v282h997v-241l-577 -731h583z" />
    <glyph glyph-name="zacute" unicode="&#x17a;" horiz-adv-x="933" 
d="M868 252v-252h-805v211l406 461h-393v250h786v-209l-389 -461h395zM627 1024h-295l168 307h305z" />
    <glyph glyph-name="Zdotaccent" unicode="&#x17b;" horiz-adv-x="1148" 
d="M1079 285v-285h-1009v244l583 731h-577v282h997v-241l-577 -731h583zM782 1521q0 -77 -53 -125t-129 -48t-129 48t-53 125t53 125t129 48t129 -48t53 -125z" />
    <glyph glyph-name="zdotaccent" unicode="&#x17c;" horiz-adv-x="933" 
d="M489 1360q75 0 129 -48t54 -125t-54 -125t-129 -48q-76 0 -129 48t-53 125t53 125t129 48zM868 252v-252h-805v211l406 461h-393v250h786v-209l-389 -461h395z" />
    <glyph glyph-name="Zcaron" unicode="&#x17d;" horiz-adv-x="1148" 
d="M1079 285v-285h-1009v244l583 731h-577v282h997v-241l-577 -731h583zM477 1358l-221 272h258l86 -94l86 94h258l-221 -272h-246z" />
    <glyph glyph-name="zcaron" unicode="&#x17e;" horiz-adv-x="933" 
d="M868 252v-252h-805v211l406 461h-393v250h786v-209l-389 -461h395zM809 1329l-197 -309h-245l-197 309h238l81 -115l82 115h238z" />
    <glyph glyph-name="florin" unicode="&#x192;" horiz-adv-x="860" 
d="M96 479v250h164l33 191q61 358 385 358q82 0 149 -25v-262q-37 18 -88 19q-100 0 -123 -109l-30 -172h162v-250h-205l-80 -454q-31 -179 -114 -269t-251 -90q-88 0 -155 25v233q37 -18 86 -18t73 26t33 82l80 465h-119z" />
    <glyph glyph-name="Aringacute" unicode="&#x1fa;" horiz-adv-x="1323" 
d="M731 1469q0 26 -20 42q-19 17 -53 17t-56 -16t-20 -43q0 -26 22 -43t54 -17t53 17q20 17 20 43zM657 868l-129 -354h258zM821 1681h-313l129 209h328zM874 1468q0 -74 -62 -125t-154 -51t-155 51q-62 51 -63 125q0 74 62 125t155 51t155 -50q62 -52 62 -126zM494 1257
h335l480 -1257h-334l-90 244h-457l-88 -244h-326z" />
    <glyph glyph-name="aringacute" unicode="&#x1fb;" horiz-adv-x="978" 
d="M336 286q0 -44 37 -67t90 -22q100 0 135 61v53q-33 63 -135 64q-53 0 -90 -23q-37 -22 -37 -66zM907 0h-309v47q-25 -25 -88 -44t-133 -19q-143 0 -240 78q-96 78 -96 214t100 217q101 81 243 81t214 -52v60q0 46 -29 78t-84 32q-84 0 -108 -67h-303q20 137 134 228
t300 91t292 -99q108 -99 107 -280v-565zM666 1366h-314l129 209h328zM575 1154q0 26 -20 43t-53 17t-55 -17q-21 -17 -21 -43t22 -43t54 -17q33 0 53 17t20 43zM719 1153q-1 -74 -63 -125t-154 -51t-156 52q-63 52 -63 125t63 125q64 52 156 52t154 -52t63 -126z" />
    <glyph glyph-name="AEacute" unicode="&#x1fc;" horiz-adv-x="1839" 
d="M911 514v477l-264 -477h264zM1374 1364h-315l168 266h329zM1769 1257v-282h-534v-197h483v-276h-483v-217h534v-285h-858v244h-413l-136 -244h-348l707 1257h1048z" />
    <glyph glyph-name="aeacute" unicode="&#x1fd;" horiz-adv-x="1499" 
d="M1020 692q-117 0 -148 -133h279q-4 59 -39 96t-92 37zM1020 -20q-178 0 -311 114q-135 -113 -330 -112q-141 0 -241 76q-99 77 -99 212t111 212t278 77h162v27q0 49 -30 81t-89 31q-92 0 -115 -73h-282q18 139 127 228t277 89t274 -100q117 100 272 100q203 0 321 -127
t117 -336v-90h-596q14 -160 160 -160q104 0 131 84h301q-28 -157 -144 -245t-294 -88zM453 207q98 0 137 76v104h-131q-53 1 -89 -23t-36 -68t34 -66t85 -23zM911 1024h-295l168 307h306z" />
    <glyph glyph-name="Oslashacute" unicode="&#x1fe;" horiz-adv-x="1335" 
d="M817 1364h-315l168 266h329zM950 629q0 92 -26 172l-426 -475q70 -58 184 -58t190 100q78 100 78 261zM385 629q0 -90 27 -174l426 475q-70 59 -184 59t-191 -99q-78 -99 -78 -261zM53 648q0 266 171 448t444 182q213 0 374 -123l111 125l115 -96l-121 -133
q135 -173 135 -439t-172 -449t-442 -183q-219 0 -375 120l-109 -123l-114 97l118 131q-135 177 -135 443z" />
    <glyph glyph-name="oslashacute" unicode="&#x1ff;" horiz-adv-x="1038" 
d="M358 461q0 -47 9 -80l241 270q-38 33 -100 33t-106 -64t-44 -159zM680 461q0 39 -10 80l-242 -271q40 -32 102 -32t106 62t44 161zM655 1024h-295l168 307h306zM518 942q158 0 277 -80l86 96l92 -75l-90 -103q106 -128 106 -330t-130 -336t-341 -134q-158 0 -276 79
l-88 -98l-93 76l93 102q-106 133 -106 334t130 335q131 134 340 134z" />
    <glyph glyph-name="Scommaaccent" unicode="&#x218;" horiz-adv-x="1114" 
d="M569 244q78 0 124 32t46 82q-1 50 -29 74t-89 37l-242 51q-324 72 -324 350q0 182 136 295q137 113 353 113t350 -108t161 -277h-322q-47 123 -192 123q-72 0 -115 -30t-43 -81q0 -78 104 -100l246 -57q334 -80 334 -363q0 -188 -139 -297q-138 -108 -358 -108t-366 104
t-179 289h342q39 -129 202 -129zM385 -209q0 57 47 99t118 42t119 -44t48 -120t-80 -174l-59 -77h-195l100 131q-43 12 -71 49t-27 94z" />
    <glyph glyph-name="scommaaccent" unicode="&#x219;" horiz-adv-x="917" 
d="M463 205q94 0 94 63q0 41 -72 58l-180 36q-254 53 -254 269q0 143 113 227q112 84 288 84t282 -79t128 -220h-297q-18 74 -108 74t-90 -62q0 -39 63 -51l182 -43q258 -59 258 -276q0 -143 -113 -225q-114 -80 -292 -80t-295 80t-137 225h313q23 -80 117 -80zM454 -68
q70 0 118 -44t48 -120t-79 -174l-60 -77h-194l100 131q-43 12 -71 49t-28 94t48 99q47 42 118 42z" />
    <glyph glyph-name="uni0237" unicode="&#x237;" horiz-adv-x="493" 
d="M408 922v-902q0 -176 -90 -271t-261 -95q-76 0 -116 14v242q25 -4 61 -4t60 24t24 78v914h322z" />
    <glyph glyph-name="circumflex" unicode="&#x2c6;" 
d="M635 1329l196 -309h-237l-82 113l-82 -113h-237l196 309h246z" />
    <glyph glyph-name="caron" unicode="&#x2c7;" 
d="M831 1329l-196 -309h-246l-196 309h237l82 -115l82 115h237z" />
    <glyph glyph-name="breve" unicode="&#x2d8;" 
d="M512 999q-131 0 -212 80t-81 228h221q0 -96 72 -97q74 0 74 97h219q0 -147 -81 -227t-212 -81z" />
    <glyph glyph-name="dotaccent" unicode="&#x2d9;" 
d="M694 1187q0 -77 -53 -125t-129 -48t-129 48t-53 125t53 125t129 48t129 -48t53 -125z" />
    <glyph glyph-name="ring" unicode="&#x2da;" 
d="M586 1207q0 32 -20 54q-20 21 -53 21q-31 0 -53 -22t-22 -52t22 -52t54 -22t52 21q20 20 20 52zM733 1206q0 -90 -63 -151q-64 -61 -158 -61t-158 60q-64 62 -63 152q0 90 63 154q64 64 158 63q94 0 158 -63q63 -64 63 -154z" />
    <glyph glyph-name="ogonek" unicode="&#x2db;" 
d="M551 -154q0 -39 39 -39q23 0 72 31v-178q-62 -39 -140 -39t-130 42t-52 120t62 154l67 79h199q-104 -125 -110 -141t-7 -29z" />
    <glyph glyph-name="tilde" unicode="&#x2dc;" 
d="M641 1325h176q0 -307 -180 -307q-51 0 -113 37t-90 37q-51 0 -51 -68h-176q0 307 180 307q51 0 113 -37t90 -37q51 0 51 68z" />
    <glyph glyph-name="hungarumlaut" unicode="&#x2dd;" 
d="M719 1024h-248l156 307h250zM395 1024h-250l156 307h252z" />
    <glyph glyph-name="Wgrave" unicode="&#x1e80;" horiz-adv-x="1679" 
d="M719 1257h250l192 -739l174 739h332l-332 -1257h-301l-194 737l-197 -737h-301l-330 1257h336l176 -739zM1006 1364h-316l-182 266h330z" />
    <glyph glyph-name="wgrave" unicode="&#x1e81;" horiz-adv-x="1429" 
d="M868 1024h-295l-178 307h305zM823 922l138 -500l147 500h307l-297 -922h-272l-131 467l-131 -467h-273l-297 922h320l145 -500l139 500h205z" />
    <glyph glyph-name="Wacute" unicode="&#x1e82;" horiz-adv-x="1679" 
d="M719 1257h250l192 -739l174 739h332l-332 -1257h-301l-194 737l-197 -737h-301l-330 1257h336l176 -739zM993 1364h-315l168 266h330z" />
    <glyph glyph-name="wacute" unicode="&#x1e83;" horiz-adv-x="1429" 
d="M823 922l138 -500l147 500h307l-297 -922h-272l-131 467l-131 -467h-273l-297 922h320l145 -500l139 500h205zM852 1024h-295l168 307h305z" />
    <glyph glyph-name="Wdieresis" unicode="&#x1e84;" horiz-adv-x="1679" 
d="M719 1257h250l192 -739l174 739h332l-332 -1257h-301l-194 737l-197 -737h-301l-330 1257h336l176 -739zM864 1503q0 68 47 115t113 47t114 -47t48 -115q0 -69 -48 -115t-114 -46t-113 46q-47 47 -47 115zM494 1503q0 68 46 115t112 47t115 -47q48 -47 48 -115
q0 -69 -48 -115t-115 -46q-66 0 -112 46q-46 47 -46 115z" />
    <glyph glyph-name="wdieresis" unicode="&#x1e85;" horiz-adv-x="1429" 
d="M823 922l138 -500l147 500h307l-297 -922h-272l-131 467l-131 -467h-273l-297 922h320l145 -500l139 500h205zM739 1162q0 64 45 111q45 46 111 46t113 -46q47 -47 47 -111t-47 -110q-48 -46 -112 -46t-111 46q-46 46 -46 110zM377 1162q0 64 46 111q46 46 112 46
q65 0 111 -46q46 -47 46 -111t-46 -110t-112 -46t-111 46q-46 46 -46 110z" />
    <glyph glyph-name="Ygrave" unicode="&#x1ef2;" horiz-adv-x="1253" 
d="M797 1364h-316l-182 266h330zM788 0h-329v446l-447 811h357l264 -491l264 491h346l-455 -811v-446z" />
    <glyph glyph-name="ygrave" unicode="&#x1ef3;" horiz-adv-x="1028" 
d="M680 1024h-295l-178 307h305zM541 -326h-318l135 349l-344 899h334l176 -525l172 525h320z" />
    <glyph glyph-name="endash" unicode="&#x2013;" horiz-adv-x="954" 
d="M74 426v219h809v-219h-809z" />
    <glyph glyph-name="emdash" unicode="&#x2014;" horiz-adv-x="1714" 
d="M74 426v219h1568v-219h-1568z" />
    <glyph glyph-name="quoteleft" unicode="&#x2018;" horiz-adv-x="454" 
d="M412 853q0 -73 -54 -124t-135 -51q-80 0 -134 53t-54 147t78 212l108 167h203l-150 -233q58 -12 98 -55t40 -116z" />
    <glyph glyph-name="quoteright" unicode="&#x2019;" horiz-adv-x="454" 
d="M43 1103q0 73 54 124t134 51q81 0 135 -53t54 -147t-78 -212l-109 -168h-202l149 234q-59 12 -98 55t-39 116z" />
    <glyph glyph-name="quotesinglbase" unicode="&#x201a;" horiz-adv-x="454" 
d="M43 173q0 73 54 124t134 51q81 0 135 -53t54 -147t-78 -211l-109 -168h-202l149 233q-59 12 -98 55t-39 116z" />
    <glyph glyph-name="quotedblleft" unicode="&#x201c;" horiz-adv-x="890" 
d="M848 853q0 -73 -54 -124t-134 -51t-135 53q-54 53 -54 147t78 212l108 167h203l-149 -233q59 -12 98 -55t39 -116zM412 853q0 -73 -54 -124t-135 -51q-80 0 -134 53t-54 147t78 212l108 167h203l-150 -233q58 -12 98 -55t40 -116z" />
    <glyph glyph-name="quotedblright" unicode="&#x201d;" horiz-adv-x="890" 
d="M479 1103q1 73 55 124t134 51t134 -53t54 -147t-78 -212l-108 -168h-203l149 234q-59 12 -98 55t-39 116zM43 1103q0 73 54 124t134 51q81 0 135 -53t54 -147t-78 -212l-109 -168h-202l149 234q-59 12 -98 55t-39 116z" />
    <glyph glyph-name="quotedblbase" unicode="&#x201e;" horiz-adv-x="890" 
d="M479 173q1 73 55 124t134 51t134 -53t54 -147t-78 -211l-108 -168h-203l149 233q-59 12 -98 55t-39 116zM43 173q0 73 54 124t134 51q81 0 135 -53t54 -147t-78 -211l-109 -168h-202l149 233q-59 12 -98 55t-39 116z" />
    <glyph glyph-name="dagger" unicode="&#x2020;" horiz-adv-x="706" 
d="M49 944v199h203v188h203v-188h202v-199h-202v-379h-203v379h-203z" />
    <glyph glyph-name="daggerdbl" unicode="&#x2021;" horiz-adv-x="714" 
d="M53 1016v178h207v137h195v-137h209v-178h-209v-137h209v-177h-209v-137h-195v137h-207v177h207v137h-207z" />
    <glyph glyph-name="bullet" unicode="&#x2022;" horiz-adv-x="780" 
d="M49 537q0 147 99 243q98 96 242 96t242 -95t99 -243q0 -148 -99 -244q-100 -96 -242 -95q-142 0 -242 95q-99 95 -99 243z" />
    <glyph glyph-name="ellipsis" unicode="&#x2026;" horiz-adv-x="1454" 
d="M1226 -14q-78 0 -134 55t-56 136t56 136t134 55q79 0 134 -54t55 -136t-55 -137t-134 -55zM539 178q0 82 54 136t134 54t134 -54t54 -136t-54 -137t-134 -55t-134 55t-54 137zM39 177q0 81 54 136t134 55t135 -54q56 -54 56 -136t-56 -137t-134 -55q-79 0 -134 55
t-55 136z" />
    <glyph glyph-name="perthousand" unicode="&#x2030;" horiz-adv-x="2050" 
d="M240 975q0 -45 32 -76t76 -31q45 0 78 31t33 76t-33 79t-78 34t-77 -34q-31 -34 -31 -79zM1810 283q0 45 -32 75t-76 31q-45 0 -78 -31q-33 -32 -33 -76t34 -78t78 -34t76 34q31 34 31 79zM2001 282q0 -126 -86 -214t-212 -88t-214 88t-88 214t88 212t214 86t212 -86
t86 -212zM1046 170q46 0 76 33t31 79q0 46 -31 76q-30 30 -76 31q-46 0 -79 -31q-33 -32 -33 -76t33 -78t79 -34zM1046 580q126 0 213 -86t87 -212t-88 -214t-212 -88t-213 88t-89 214t87 212q89 86 215 86zM49 976q0 126 86 214t211 88t214 -88t89 -214t-88 -212t-214 -86
t-212 86t-86 212zM201 0l807 1257h184l-807 -1257h-184z" />
    <glyph glyph-name="guilsinglleft" unicode="&#x2039;" horiz-adv-x="569" 
d="M518 119h-278l-189 336l189 336h278l-188 -336z" />
    <glyph glyph-name="guilsinglright" unicode="&#x203a;" horiz-adv-x="569" 
d="M330 119h-279l189 336l-189 336h279l188 -336z" />
    <glyph glyph-name="fraction" unicode="&#x2044;" horiz-adv-x="442" 
d="M688 1257l-756 -1257h-178l756 1257h178z" />
    <glyph glyph-name="Euro" unicode="&#x20ac;" horiz-adv-x="1163" 
d="M47 676v158h113q47 204 182 324q134 120 324 120t307 -113t149 -303h-288q-37 131 -171 131t-188 -159h275l-31 -158h-270v-90h253l-30 -158h-197q49 -164 185 -164t174 131h288q-34 -190 -150 -303q-116 -112 -305 -112t-325 121q-135 122 -182 327h-113v158h90v90h-90z
" />
    <glyph glyph-name="uni2117" unicode="&#x2117;" horiz-adv-x="1441" 
d="M776 655q92 0 92 85t-92 85h-106v-170h106zM801 471h-131v-217h-217v756h348q127 0 204 -71t77 -199t-78 -198q-76 -70 -203 -71zM1274 629q0 239 -162 397t-391 158t-391 -159t-162 -397t162 -396t391 -158t391 158t162 397zM1370 629q0 -279 -189 -464t-459 -185
t-461 185q-189 185 -189 464t189 464t459 185t460 -185t190 -464z" />
    <glyph glyph-name="trademark" unicode="&#x2122;" horiz-adv-x="1249" 
d="M737 737h-147v520h196l99 -294l98 294h197v-520h-150v289l-96 -289h-100l-97 289v-289zM41 1108v149h481v-149h-157v-371h-168v371h-156z" />
    <glyph glyph-name="uni2153" unicode="&#x2153;" horiz-adv-x="1497" 
d="M440 1257v-716h-213v477l-176 -86v215l236 110h153zM1098 285v151h47q74 0 74 60q0 53 -58 53q-27 1 -45 -19t-22 -47h-209q12 104 83 174q72 70 192 70t191 -62t70 -167q1 -39 -21 -80t-50 -60q78 -39 78 -140t-74 -166q-72 -64 -196 -64t-199 68t-80 182h221
q6 -64 64 -64t59 53q0 57 -70 58h-55zM1233 1257l-860 -1257h-189l860 1257h189z" />
    <glyph glyph-name="uni2154" unicode="&#x2154;" horiz-adv-x="1638" 
d="M1237 287v147h49q76 0 76 60t-62 61q-29 1 -47 -21t-22 -51h-207q12 104 83 174t191 70t192 -62q71 -62 71 -167q0 -39 -22 -80t-50 -60q80 -39 80 -140t-74 -166q-74 -64 -198 -64q-125 0 -199 68t-80 182h217q6 -72 70 -72q29 0 46 17t17 44q0 59 -74 60h-57zM408 1023
q0 60 -54 60q-23 0 -39 -17t-18 -40h-225q10 106 86 176t196 70t193 -64q74 -64 74 -166q-1 -45 -21 -87q-20 -43 -43 -67t-68 -67l-104 -94h233v-182h-540v139l264 244q66 65 66 95zM1374 1257l-860 -1257h-190l860 1257h190z" />
    <glyph glyph-name="uni215B" unicode="&#x215b;" horiz-adv-x="1515" 
d="M440 1257v-716h-213v477l-176 -86v215l236 110h153zM1151 -10q-121 0 -202 56t-81 164t107 150q-82 46 -82 150t75 162t182 57q107 0 183 -58q76 -57 76 -161t-84 -150q107 -43 107 -150q0 -108 -80 -164t-201 -56zM1151 446q31 0 50 18t20 44q1 27 -19 44t-51 17
t-50 -17t-19 -44q0 -26 18 -44q20 -18 51 -18zM1151 154q33 0 53 17t21 46q-1 29 -21 47t-53 18t-55 -18t-21 -46q-1 -28 21 -46t55 -18zM1233 1257l-860 -1257h-189l860 1257h189z" />
    <glyph glyph-name="uni215C" unicode="&#x215c;" horiz-adv-x="1576" 
d="M338 1268q122 0 192 -62t70 -168q0 -41 -20 -81t-52 -58q80 -39 80 -140t-72 -166t-198 -65q-125 0 -200 69t-81 181h217q8 -72 70 -71q29 0 46 17t18 44q0 59 -74 59h-58v148h50q74 0 73 61q0 59 -59 60q-57 0 -70 -72h-207q12 104 83 174t192 70zM1294 1257l-860 -1257
h-190l860 1257h190zM1212 -10q-120 0 -202 56t-82 164t108 150q-84 46 -84 150t75 162t183 57q108 0 184 -58q76 -57 76 -161t-86 -150q109 -43 109 -150q0 -108 -80 -164t-201 -56zM1141 508q0 -26 20 -44t50 -18q29 0 49 18t20 44q0 27 -19 44t-49 17t-51 -17
q-20 -17 -20 -44zM1211 154q34 0 55 17q20 17 20 46t-20 47t-54 18t-56 -18t-22 -46t22 -46q21 -18 55 -18z" />
    <glyph glyph-name="uni215D" unicode="&#x215d;" horiz-adv-x="1593" 
d="M344 850q-33 0 -68 -27h-180v434h467v-174h-293v-92q33 23 103 23q113 0 179 -65t66 -175t-74 -178t-198 -68q-125 0 -201 62t-84 176h215q4 -25 24 -42t48 -17q29 0 48 19q20 19 20 51q0 33 -20 53t-52 20zM1311 1257l-860 -1257h-191l860 1257h191zM1228 -10
q-120 0 -202 56t-82 164t109 150q-84 46 -84 150t74 162q75 57 183 57t184 -57q75 -58 75 -162t-84 -150q109 -43 108 -161q-1 -97 -81 -153t-200 -56zM1229 569q-70 0 -72 -61q-1 -26 19 -44t51 -18t50 18t19 44q0 27 -19 44t-48 17zM1227 154q33 0 55 18t21 46
q0 28 -22 46q-23 18 -55 18t-54 -18t-22 -46t22 -46t55 -18z" />
    <glyph glyph-name="uni215E" unicode="&#x215e;" horiz-adv-x="1466" 
d="M59 1073v184h519v-143l-228 -573h-223l215 532h-283zM1182 1257l-860 -1257h-189l860 1257h189zM1100 -10q-121 0 -202 56t-81 164t109 150q-84 46 -84 150t74 162q75 57 184 57q110 0 184 -57q74 -58 74 -162t-84 -150q109 -43 108 -161q0 -96 -80 -153
q-81 -56 -202 -56zM1100 446q31 0 50 18t19 44q0 27 -19 44t-50 17t-50 -17q-20 -17 -20 -44q0 -26 20 -44t50 -18zM1100 154q32 0 54 18t22 46t-22 46t-54 18t-54 -18t-22 -46t22 -46t54 -18z" />
    <glyph glyph-name="minus" unicode="&#x2212;" horiz-adv-x="1138" 
d="M104 494v237h930v-237h-930z" />
    <glyph glyph-name="approxequal" unicode="&#x2248;" horiz-adv-x="1175" 
d="M373 590q78 0 211 -42t211 -42q127 0 256 86v-223q-127 -82 -256 -82q-78 0 -211 40t-211 40q-123 0 -248 -82v219q123 86 248 86zM373 942q78 0 211 -40t211 -40q131 0 256 84v-223q-131 -84 -256 -84q-78 0 -211 41t-211 41q-123 0 -248 -84v223q125 82 248 82z" />
    <glyph glyph-name="notequal" unicode="&#x2260;" horiz-adv-x="1175" 
d="M125 696v213h551l123 191h196l-123 -191h179v-213h-314l-104 -161h418v-211h-553l-121 -191h-197l121 191h-176v211h311l105 161h-416z" />
    <glyph glyph-name="lessequal" unicode="&#x2264;" horiz-adv-x="905" 
d="M98 86v229h709v-229h-709zM98 610v285l709 250v-252l-477 -139l477 -142v-250z" />
    <glyph glyph-name="greaterequal" unicode="&#x2265;" horiz-adv-x="905" 
d="M807 315v-229h-709v229h709zM807 895v-285l-709 -248v250l477 142l-477 139v252z" />
    <glyph glyph-name="fi" unicode="&#xfb01;" horiz-adv-x="1187" 
d="M596 1081q-115 0 -115 -110v-49h178v-250h-178v-672h-317v672h-137v250h137v67q0 166 95 263t263 98q82 0 150 -25v-262q-35 18 -76 18zM1122 1172q0 -76 -53 -124t-129 -48t-129 48t-53 124t53 125t129 49t129 -48t53 -126zM1100 922v-922h-322v922h322z" />
    <glyph glyph-name="fl" unicode="&#xfb02;" horiz-adv-x="1187" 
d="M596 1081q-115 0 -115 -110v-49h178v-250h-178v-672h-317v672h-137v250h137v67q0 166 95 263t263 98q82 0 150 -25v-262q-35 18 -76 18zM1100 1331v-1331h-322v1331h322z" />
    <glyph glyph-name="i.dot" horiz-adv-x="495" 
d="M430 1187q0 -77 -53 -125t-129 -48t-129 48t-53 125t53 125t129 48t129 -48t53 -125zM408 922v-922h-322v922h322z" />
    <glyph glyph-name="space_uni0326" 
d="M350 -209q0 57 47 99t118 42t119 -44t48 -120t-80 -174l-59 -77h-195l101 131q-43 12 -71 49t-28 94z" />
    <glyph glyph-name="space_uni0326.alt" 
d="M505 999q-71 0 -119 44t-48 121t80 179l63 82h197l-107 -137q100 -31 101 -139q0 -63 -48 -107t-119 -43z" />
    <glyph glyph-name="space_dotbelowcomb" 
d="M512 -68q74 0 126 -46t52 -120q0 -75 -52 -122t-126 -47t-126 47t-52 122q0 74 52 120t126 46z" />
    <glyph glyph-name="caron.Slovak" 
d="M578 989h-248l88 342h250z" />
    <glyph glyph-name="cedilla.alt" 
d="M561 -371h-272l141 289h275z" />
    <glyph glyph-name="grave.cap" 
d="M760 1364h-316l-182 266h330z" />
    <glyph glyph-name="acute.cap" 
d="M578 1364h-316l168 266h330z" />
    <glyph glyph-name="circumflex.cap" 
d="M635 1634l221 -270h-258l-86 92l-86 -92h-258l221 270h246z" />
    <glyph glyph-name="caron.cap" 
d="M389 1358l-221 272h258l86 -94l86 94h258l-221 -272h-246z" />
    <glyph glyph-name="tilde.cap" 
d="M834 1657q0 -307 -181 -307q-53 0 -129 36t-106 35q-49 0 -53 -63h-175q0 307 181 307q53 0 129 -36t106 -36q49 1 53 64h175z" />
    <glyph glyph-name="macron.cap" 
d="M240 1364v221h542v-221h-542z" />
    <glyph glyph-name="breve.cap" 
d="M512 1348q-133 0 -214 78t-81 221h221q0 -86 74 -86t74 86h221q0 -143 -81 -221t-214 -78z" />
    <glyph glyph-name="dotaccent.cap" 
d="M694 1521q0 -77 -53 -125t-129 -48t-129 48t-53 125t53 125t129 48t129 -48t53 -125z" />
    <glyph glyph-name="dieresis.cap" 
d="M537 1503q0 68 47 115q46 47 112 47t114 -47t48 -115q0 -69 -48 -115t-114 -46t-112 46q-46 47 -47 115zM166 1503q0 68 46 115t113 47t115 -47t47 -115q0 -69 -48 -115q-49 -46 -115 -46t-112 46q-46 47 -46 115z" />
    <glyph glyph-name="ring.cap" 
d="M586 1530q0 30 -20 52t-53 22q-31 0 -53 -22t-22 -52t22 -52t54 -22t52 22t20 52zM733 1530q0 -90 -63 -152q-64 -62 -158 -63q-94 0 -158 62q-63 63 -63 153t63 152q64 62 158 62t158 -62t63 -152z" />
    <glyph glyph-name="hungarumlaut.cap" 
d="M735 1364h-264l156 266h266zM395 1364h-264l154 266h266z" />
    <glyph glyph-name="exclamdown.cap" horiz-adv-x="489" 
d="M49 0l72 836h248l71 -836h-391zM53 1091q1 77 57 129t136 52t135 -52t55 -129t-55 -129t-135 -52t-136 52t-57 129z" />
    <glyph glyph-name="questiondown.cap" horiz-adv-x="972" 
d="M41 356q0 52 24 110t39 83q16 25 74 93l64 75q55 66 59 119h317q-4 -98 -78 -191l-73 -87t-50 -59q-42 -55 -42 -108t32 -85q33 -32 85 -32t85 36q32 36 35 89h332q-18 -184 -141 -302q-123 -117 -324 -117t-319 101t-119 275zM657 1090q0 -78 -55 -129t-136 -51t-137 50
q-56 52 -57 130q0 78 56 130t138 52q81 0 136 -52t55 -130z" />
    <glyph glyph-name="guilsinglleft.cap" horiz-adv-x="569" 
d="M518 283h-278l-189 335l189 336h278l-188 -336z" />
    <glyph glyph-name="guilsinglright.cap" horiz-adv-x="569" 
d="M330 283h-279l189 335l-189 336h279l188 -336z" />
    <glyph glyph-name="guillemotleft.cap" horiz-adv-x="923" 
d="M872 283h-262l-188 335l188 336h262l-188 -336zM502 283h-262l-189 335l189 336h262l-189 -336z" />
    <glyph glyph-name="guillemotright.cap" horiz-adv-x="923" 
d="M313 283h-262l189 335l-189 336h262l189 -336zM684 283h-262l188 335l-188 336h262l188 -336z" />
    <glyph glyph-name="slash.cap" horiz-adv-x="806" 
d="M10 -131l508 1503h279l-508 -1503h-279z" />
    <glyph glyph-name="backslash.cap" horiz-adv-x="806" 
d="M289 1372l508 -1503h-279l-508 1503h279z" />
    <glyph glyph-name="bar.cap" horiz-adv-x="456" 
d="M94 -131v1503h268v-1503h-268z" />
    <glyph glyph-name="periodcentered.cap" horiz-adv-x="477" 
d="M49 603q0 81 55 136q54 55 134 55t135 -54t55 -136t-55 -137t-134 -55t-135 55q-55 55 -55 136z" />
    <glyph glyph-name="bullet.cap" horiz-adv-x="780" 
d="M390 946q144 0 242 -96t99 -244q0 -148 -98 -244q-97 -94 -241 -94t-244 94q-99 94 -99 243t99 245q98 96 242 96z" />
    <glyph glyph-name="hyphen.cap" horiz-adv-x="638" 
d="M74 471v268h493v-268h-493z" />
    <glyph glyph-name="endash.cap" horiz-adv-x="954" 
d="M74 496v217h809v-217h-809z" />
    <glyph glyph-name="emdash.cap" horiz-adv-x="1714" 
d="M74 496v217h1568v-217h-1568z" />
    <glyph glyph-name="parenleft.cap" horiz-adv-x="684" 
d="M61 621q0 289 156 491t426 260v-301q-289 -98 -289 -450t289 -451v-301q-270 59 -426 261t-156 491z" />
    <glyph glyph-name="parenright.cap" horiz-adv-x="684" 
d="M623 621q0 -289 -156 -491t-426 -261v301q289 98 289 450t-289 451v301q270 -58 426 -260t156 -491z" />
    <glyph glyph-name="bracketleft.cap" horiz-adv-x="677" 
d="M393 1106v-971h244v-266h-543v1503h543v-266h-244z" />
    <glyph glyph-name="bracketright.cap" horiz-adv-x="677" 
d="M285 135v971h-244v266h543v-1503h-543v266h244z" />
    <glyph glyph-name="braceleft.cap" horiz-adv-x="749" 
d="M481 451v-256q0 -59 60 -60h168v-266h-254q-117 0 -191 74t-74 192v293q0 59 -59 59h-90v267h90q59 0 59 59v293q0 118 74 192t191 74h254v-266h-168q-59 0 -60 -59v-256q0 -111 -96 -170q96 -59 96 -170z" />
    <glyph glyph-name="braceright.cap" horiz-adv-x="749" 
d="M268 195v256q0 111 97 170q-96 59 -97 170v256q0 59 -59 59h-168v266h254q117 0 191 -74t73 -192v-293q0 -59 59 -59h91v-267h-91q-59 0 -59 -59v-293q0 -119 -74 -193t-190 -73h-254v266h168q59 1 59 60z" />
    <glyph glyph-name="at.cap" horiz-adv-x="1554" 
d="M791 782q-72 0 -116 -56t-44 -122q0 -128 104 -129q74 0 115 68l31 176q-18 63 -90 63zM1155 408q90 0 144 90t55 252q0 210 -148 332t-381 122q-274 0 -444 -174t-170 -452q0 -344 281 -483q144 -70 358 -70q215 0 436 98v-154q-193 -96 -459 -96q-313 0 -542 166
q-113 82 -179 221t-65 318q0 330 219 555t565 225q303 0 496 -173t193 -425t-122 -382t-294 -130t-250 102q-66 -98 -200 -98t-209 89t-74 226q0 179 106 309t274 130q55 0 105 -22t70 -52l12 57h256l-86 -497q-14 -84 53 -84z" />
    <glyph glyph-name="Euro.lt" horiz-adv-x="1064" 
d="M49 676v158h92q45 204 170 324t300 120t285 -113t140 -303h-276q-29 131 -145 131t-162 -159h239l-28 -158h-234v-90h217l-29 -158h-165q43 -166 161 -166t146 131l276 2q-30 -190 -140 -303q-110 -112 -285 -112t-301 122t-169 326h-92v158h72v90h-72z" />
    <glyph glyph-name="dollar.lt" horiz-adv-x="1064" 
d="M416 -176v194q-152 29 -247 122t-120 237h320q39 -117 186 -117q65 0 105 30t40 78t-28 72t-94 37l-203 47q-303 74 -303 342q0 144 94 244t250 129v186h262v-192q274 -63 323 -342h-303q-43 106 -172 106q-63 1 -102 -27t-39 -75q0 -74 98 -98l224 -56q309 -76 309 -352
q0 -147 -92 -245t-246 -128v-192h-262z" />
    <glyph glyph-name="cent.lt" horiz-adv-x="1064" 
d="M88 481q0 178 90 302t244 163v197h262v-197q127 -33 203 -126t90 -226h-309q-4 45 -36 74q-32 28 -90 28t-99 -58q-40 -58 -40 -156t40 -156q41 -58 99 -58t90 28t36 73h309q-14 -133 -90 -227t-203 -126v-190h-262v188q-154 41 -244 165t-90 302z" />
    <glyph glyph-name="sterling.lt" horiz-adv-x="1064" 
d="M500 864v-121h231v-243h-231v-47q0 -129 -43 -187h540v-266h-934v266h91q41 72 41 187v47h-132v243h132v111q0 186 110 305q111 119 293 119t288 -101t113 -268h-286q-6 102 -101 103q-112 -1 -112 -148z" />
    <glyph glyph-name="yen.lt" horiz-adv-x="1064" 
d="M86 500v188h195l-261 569h345l174 -415l174 415h331l-266 -569h197v-188h-285v-99h285v-188h-285v-213h-321v213h-283v188h283v99h-283z" />
    <glyph glyph-name="florin.lt" horiz-adv-x="1064" 
d="M242 479v250h164l34 191q61 358 385 358q84 0 148 -25v-262q-37 18 -86 19q-104 0 -123 -109l-31 -172h160v-250h-203l-80 -454q-31 -178 -114 -269q-84 -90 -250 -90q-92 0 -156 25v233q37 -18 85 -18t72 26t34 82l81 465h-120z" />
    <glyph glyph-name="zero.lt" horiz-adv-x="1064" 
d="M532 989q-172 0 -172 -360t172 -361q172 0 172 360t-172 361zM532 -20q-229 0 -360 178t-131 471t131 471t360 178q228 0 360 -178t132 -471t-132 -471t-360 -178z" />
    <glyph glyph-name="one.lt" horiz-adv-x="1064" 
d="M123 0v283h305v618l-295 -145v313l393 188h222v-974h256v-283h-881z" />
    <glyph glyph-name="two.lt" horiz-adv-x="1064" 
d="M645 874q0 43 -33 76t-87 33t-87 -36t-37 -89h-338q17 182 143 301t326 119t323 -108q122 -108 122 -283q1 -109 -61 -198t-181 -202l-207 -204h453v-283h-911v211l432 430l78 85t44 66t21 82z" />
    <glyph glyph-name="three.lt" horiz-adv-x="1064" 
d="M436 518v236h72q72 0 116 32t44 90t-36 93t-97 35t-101 -40t-45 -100h-313q20 178 146 296t325 118t315 -106t117 -279q0 -80 -39 -153t-98 -105q74 -35 114 -107t39 -157q0 -172 -123 -282q-124 -109 -334 -109t-338 114t-143 309h330q4 -67 43 -107q40 -40 106 -40
t106 37t40 97t-45 94t-119 34h-82z" />
    <glyph glyph-name="four.lt" horiz-adv-x="1064" 
d="M573 500v213h289v-213h164v-267h-164v-233h-282v233h-547v242l381 782h307l-346 -757h198z" />
    <glyph glyph-name="five.lt" horiz-adv-x="1064" 
d="M547 258q69 0 109 43t40 112t-40 113t-121 43q-80 0 -140 -63h-274v751h786v-280h-518v-189q86 45 186 46q197 0 312 -116t115 -308t-126 -312q-124 -118 -335 -118t-340 114t-142 309h326q6 -63 50 -104t112 -41z" />
    <glyph glyph-name="six.lt" horiz-adv-x="1064" 
d="M379 414q0 -76 48 -123t123 -47t123 47t48 123t-48 124t-123 48t-123 -48t-48 -124zM612 829q174 -1 289 -117t115 -300t-128 -308q-128 -125 -339 -124q-254 0 -385 208q-104 156 -104 434t134 468q134 188 367 188q182 0 298 -96t147 -267h-312q-31 95 -125 95
t-146 -79t-56 -186v-10q71 94 245 94z" />
    <glyph glyph-name="seven.lt" horiz-adv-x="1064" 
d="M70 975v282h923v-221l-391 -1036h-330l373 975h-575z" />
    <glyph glyph-name="eight.lt" horiz-adv-x="1064" 
d="M535 -20q-205 0 -341 100t-137 268q-1 106 57 183t148 108q-78 37 -121 109t-43 163q0 171 127 269t309 98t310 -98q127 -98 127 -269q0 -91 -44 -163t-120 -109q88 -31 145 -108t58 -183q0 -170 -135 -269t-340 -99zM535 774q61 0 102 36t41 93t-41 93t-102 36t-103 -36
t-41 -93q-1 -57 41 -93t103 -36zM535 233q69 0 115 39q46 40 46 102t-46 100t-116 38t-115 -38q-46 -38 -46 -100t46 -102t116 -39z" />
    <glyph glyph-name="nine.lt" horiz-adv-x="1064" 
d="M686 844q0 76 -48 123t-123 47t-123 -47t-48 -123t48 -124t123 -48t123 48t48 124zM496 248q94 0 146 79t56 185v10q-70 -94 -244 -94t-290 117q-115 117 -115 301t128 308t339 124q254 0 385 -209q105 -157 105 -435t-134 -466t-368 -188q-182 0 -298 96t-147 266h312
q31 -94 125 -94z" />
    <glyph glyph-name="period.tab" horiz-adv-x="532" 
d="M76 177q0 81 54 136t134 55t135 -54t55 -136t-54 -137q-56 -55 -135 -55t-134 55t-55 136z" />
    <glyph glyph-name="comma.tab" horiz-adv-x="532" 
d="M76 194q0 72 54 122t135 50t135 -52q54 -54 54 -147t-77 -212l-113 -170h-203l154 235q-59 12 -99 56q-40 46 -40 118z" />
    <glyph glyph-name="colon.tab" horiz-adv-x="532" 
d="M76 721q0 82 54 136t134 54t135 -54t55 -136t-54 -137q-56 -56 -135 -56t-134 56t-55 137zM76 177q0 81 54 136t134 55t135 -54t55 -136t-54 -137q-56 -55 -135 -55t-134 55t-55 136z" />
    <glyph glyph-name="semicolon.tab" horiz-adv-x="532" 
d="M76 721q0 82 54 136t134 54t135 -54t55 -136t-54 -137q-56 -56 -135 -56t-134 56t-55 137zM76 194q0 72 54 122t135 50t135 -52q54 -54 54 -147t-77 -212l-113 -170h-203l154 235q-59 12 -99 56q-40 46 -40 118z" />
    <glyph glyph-name="space.tab" horiz-adv-x="532" 
 />
    <glyph glyph-name="percent.lt" horiz-adv-x="1064" 
d="M51 0l783 1257h180l-783 -1257h-180zM866 233q0 39 -26 65q-27 26 -66 26q-38 0 -66 -26t-28 -65t28 -67t66 -27q38 -1 66 27q26 28 26 67zM520 232q0 104 75 178t179 74t178 -74q74 -73 74 -178t-74 -179q-74 -73 -178 -73t-179 74t-75 178zM199 1024q1 -39 27 -65
q26 -25 65 -25t67 26t27 64q0 39 -28 67q-29 27 -67 27t-65 -27q-26 -28 -26 -67zM39 1025q0 105 74 179t178 74t179 -74t75 -179t-75 -178t-179 -73t-178 73t-74 178z" />
    <glyph glyph-name="perthousand.lt" horiz-adv-x="1638" 
d="M1436 233q0 39 -27 65t-65 26t-65 -26q-28 -26 -28 -65t28 -67t66 -27q39 -1 65 27t26 67zM1595 232q-1 -105 -73 -179q-72 -73 -177 -73t-180 73q-73 74 -73 179t73 179q73 73 179 73t179 -73q72 -74 72 -179zM68 1025q0 105 73 179q74 74 178 74q105 0 179 -74t74 -179
t-74 -178t-178 -73t-179 73q-73 73 -73 178zM893 233q0 39 -26 65q-27 26 -65 26t-66 -26t-28 -65t28 -67t67 -27q39 -1 65 27t25 67zM549 232q0 104 74 178t179 74t178 -74q73 -73 73 -178t-73 -179q-73 -73 -178 -73t-179 74t-74 178zM227 1024q0 -39 27 -65
q28 -25 66 -25t65 26t27 64q0 39 -28 67q-28 27 -66 27t-64 -28t-27 -66zM53 0l834 1257h180l-834 -1257h-180z" />
    <glyph glyph-name="plus.lt" horiz-adv-x="1064" 
d="M414 1077h237v-346h344v-237h-344v-344h-237v344h-346v237h346v346z" />
    <glyph glyph-name="minus.lt" horiz-adv-x="1064" 
d="M68 494v237h927v-237h-927z" />
    <glyph glyph-name="multiply.lt" horiz-adv-x="1064" 
d="M367 610l-248 246l166 166l247 -246l246 246l166 -166l-246 -246l246 -245l-166 -166l-246 245l-247 -245l-166 166z" />
    <glyph glyph-name="divide.lt" horiz-adv-x="1064" 
d="M367 244q0 68 49 114q48 46 116 48q68 0 117 -48t49 -114q0 -68 -49 -115t-117 -47t-116 47t-49 115zM367 981q0 68 49 115q48 47 116 47t117 -47t49 -115t-49 -115t-117 -47t-116 47t-49 115zM68 494v237h927v-237h-927z" />
    <glyph glyph-name="equal.lt" horiz-adv-x="1064" 
d="M68 696v215h927v-215h-927zM68 324v211h927v-211h-927z" />
    <glyph glyph-name="less.lt" horiz-adv-x="1064" 
d="M178 461v295l709 313v-264l-486 -197l486 -194v-267z" />
    <glyph glyph-name="greater.lt" horiz-adv-x="1064" 
d="M887 756v-295l-709 -314v267l484 194l-484 197v264z" />
    <glyph glyph-name="plusminus.lt" horiz-adv-x="1064" 
d="M86 98v215h893v-215h-893zM424 1149h215v-262h340v-213h-340v-262h-215v262h-338v213h338v262z" />
    <glyph glyph-name="lessequal.lt" horiz-adv-x="1064" 
d="M178 86v229h709v-229h-709zM178 610v285l709 250v-252l-479 -139l479 -142v-250z" />
    <glyph glyph-name="greaterequal.lt" horiz-adv-x="1064" 
d="M887 315v-229h-709v229h709zM887 895v-285l-709 -248v250l477 142l-477 139v252z" />
    <glyph glyph-name="notequal.lt" horiz-adv-x="1064" 
d="M68 696v213h550l123 191h197l-123 -191h180v-213h-315l-105 -161h420v-211h-555l-121 -191h-196l121 191h-176v211h311l104 161h-415z" />
    <glyph glyph-name="approxequal.lt" horiz-adv-x="1064" 
d="M317 590q78 0 210 -42t212 -42q125 0 256 86v-223q-129 -82 -256 -82q-80 0 -212 40t-210 40q-120 0 -249 -82v219q127 86 249 86zM317 942q78 0 210 -40t212 -40q127 0 256 84v-223q-133 -84 -256 -84q-80 0 -212 41t-210 41q-122 0 -249 -84v223q129 82 249 82z" />
    </font>
</defs>
</svg>
