<svg xmlns="http://www.w3.org/2000/svg">
<defs>
<font id="Calibre-Black" horiz-adv-x="500" >
  <font-face 
    font-family="
Klim Type Foundry Webfont License Agreement
1. This non-exclusive, revocable license grants limited rights to use the Webfonts on the domain specified on your sales receipt. All other rights, title, interest and design of the Webfonts belong to Klim. You agree that the Webfont is the exclusive property of Klim and to exercise reasonable care to avoid unauthorised distribution.
2. These uses are prohibited and/or require additional licenses: incorporating or embedding the Klim Webfonts in devices or software that is used on desktops, laptops, workstation, or other electronic devices; storing, archiving, re-serving, transmitting, or making the Klim Webfonts available or accessible for use by 3rd parties; altering, editing, or translating in any way, sublicensing, selling, or redistribution to 3rd parties; downloading, reverse engineering extracting or modifying the Klim Webfonts.
3. You are not permitted to embed the Webfonts in programs or devices, convert into other formats or create derivative works of the Webfonts or the designs in the Webfonts.
4. Klim will not support and is not responsible for unauthorised versions of the Klim Webfonts.
5. The Klim Webfonts may not be used in entertainment or gaming products without the purchase of an additional license.
6. The Klim Webfonts are without express or implied warranties of any kind and each are expressly revoked. Klim is not liable to any user for any direct, indirect, consequential, or incidental damages, including damages from loss of business profits, business interruption, loss of data or loss of any information even if notified in advance. You agree that Klim's sole liability will be the refunding of the license fee paid or replacement of the Webfonts in Klim's sole discretion. If you have questions you may contact Klim at kris@klim.co.nz
"
    font-weight="900"
    font-stretch="normal"
    units-per-em="1000"

<glyph glyph-name="f_f" unicode="ff" horiz-adv-x="662" 
d="M652 495q-7 3 -14 4.5t-17 1.5q-23 0 -36.5 -11t-13.5 -34v-2h81v-146h-81v-308h-189v308h-122v-308h-189v308h-61v146h61v6q0 43 12.5 78.5t36.5 60.5t60 39t83 14q23 0 43 -3.5t35 -8.5v-151q-7 3 -14 4.5t-17 1.5q-21 0 -35.5 -9.5t-14.5 -29.5v-2h122v12
q0 43 12.5 78.5t36.5 60.5t60 39t83 14q23 0 43 -3.5t35 -8.5v-151z" />
    <glyph glyph-name=".notdef" horiz-adv-x="187" 
 />
    <glyph glyph-name=".null" horiz-adv-x="0" 
 />
    <glyph glyph-name="nonmarkingreturn" unicode="&#xd;" horiz-adv-x="187" 
 />
    <glyph glyph-name="NULL" horiz-adv-x="0" 
 />
    <glyph glyph-name="NULL" horiz-adv-x="0" 
 />
    <glyph glyph-name="space" unicode=" " horiz-adv-x="187" 
 />
    <glyph glyph-name="exclam" unicode="!" horiz-adv-x="262" 
d="M23 93q0 21 8.5 39.5t23 32t34 21t42.5 7.5q22 0 42 -7.5t34.5 -21t23 -32t8.5 -39.5t-8.5 -39.5t-23 -32t-34.5 -21t-42 -7.5q-23 0 -42.5 7.5t-34 21t-23 32t-8.5 39.5zM15 614h232l-41 -401h-150z" />
    <glyph glyph-name="quotedbl" unicode="&#x22;" horiz-adv-x="386" 
d="M33 614h142v-270h-142v270zM211 614h142v-270h-142v270z" />
    <glyph glyph-name="numbersign" unicode="#" horiz-adv-x="655" 
d="M563 152h-100l-36 -152h-128l36 152h-90l-36 -152h-127l36 152h-98l27 113h98l20 84h-99l26 113h100l36 152h128l-37 -152h90l37 152h127l-36 -152h98l-27 -113h-98l-20 -84h99zM272 265h90l20 84h-90z" />
    <glyph glyph-name="dollar" unicode="$" horiz-adv-x="533" 
d="M324 428q-8 17 -23.5 26.5t-38.5 9.5q-11 0 -20.5 -2.5t-16 -6.5t-10 -10t-3.5 -13t2.5 -12t6.5 -8.5t10 -5.5t13 -4l114 -29q78 -20 115.5 -62.5t37.5 -114.5q0 -46 -18.5 -82t-50.5 -60.5t-76 -37.5q-11 -4 -23 -7v-91h-150v92q-54 12 -94 41q-68 49 -83 137h189
q7 -19 24.5 -29t43.5 -10q10 0 19 2.5t15.5 7t10.5 10.5t4 14q0 19 -12 25.5t-35 11.5l-99 23q-32 7 -59.5 20t-48 33t-32 49t-11.5 69q0 45 18 81t49.5 61.5t74.5 39.5q13 4 26 7v91h150v-93q7 -2 15 -5q42 -13 72 -37t48 -57.5t25 -73.5h-179z" />
    <glyph glyph-name="percent" unicode="%" horiz-adv-x="691" 
d="M502 614h96l-409 -614h-96zM124 471q0 -9 3.5 -17.5t10 -15t15 -10t17.5 -3.5q10 0 19 3.5t15.5 10t10.5 15t4 17.5q0 20 -14.5 34.5t-34.5 14.5q-9 0 -17.5 -4t-15 -10.5t-10 -15.5t-3.5 -19zM671 143q0 -32 -12 -60t-32 -48.5t-47.5 -32.5t-58.5 -12q-32 0 -60 12
t-48.5 32.5t-32.5 48.5t-12 60q0 31 12 58.5t32.5 47.5t48.5 32t60 12q31 0 58.5 -12t47.5 -32t32 -47.5t12 -58.5zM323 471q0 -31 -12 -58.5t-32.5 -47.5t-48.5 -32t-60 -12q-31 0 -58.5 12t-47.5 32t-32 47.5t-12 58.5q0 32 12 60t32 48.5t47.5 32.5t58.5 12q32 0 60 -12
t48.5 -32.5t32.5 -48.5t12 -60zM567 143q0 9 -3.5 17.5t-10 15t-15 10t-17.5 3.5q-10 0 -19 -3.5t-15.5 -10t-10.5 -15t-4 -17.5q0 -20 14.5 -34.5t34.5 -14.5q9 0 17.5 4t15 10.5t10 15.5t3.5 19z" />
    <glyph glyph-name="ampersand" unicode="&#x26;" horiz-adv-x="610" 
d="M346 437q-2 15 -11 26.5t-29 11.5t-29 -11t-9 -26q0 -17 11 -32.5t25 -32.5l97 -119q13 35 13 78h164q0 -75 -30 -138q-17 -38 -41 -69l103 -125h-203l-22 25l-21 -10q-59 -25 -119 -25q-51 0 -92.5 13t-71 38.5t-45.5 62t-16 84.5q0 27 7.5 52.5t21.5 47.5t33 40
q12 11 26 20q-5 9 -9 18q-8 18 -11.5 36t-3.5 37q0 42 16 76t45.5 58.5t70 37.5t90.5 13q49 0 88.5 -14t67.5 -39t45 -59.5t21 -74.5h-182zM204 226q-5 -7 -8.5 -16.5t-3.5 -21.5q0 -11 3.5 -20.5t10.5 -17t18 -12t25 -4.5q17 0 36 5l-79 89z" />
    <glyph glyph-name="quotesingle" unicode="'" horiz-adv-x="218" 
d="M33 614h152v-270h-152v270z" />
    <glyph glyph-name="parenleft" unicode="(" horiz-adv-x="343" 
d="M30 283q0 72 20.5 133.5t58.5 108.5t92 79t122 46v-170q-28 -11 -50.5 -27.5t-39 -40t-25.5 -55.5t-9 -74t9 -74t25.5 -55.5t39 -40t50.5 -27.5v-170q-68 14 -122 46t-92 79t-58.5 108.5t-20.5 133.5z" />
    <glyph glyph-name="parenright" unicode=")" horiz-adv-x="343" 
d="M313 283q0 -72 -20.5 -133.5t-58.5 -108.5t-92 -79t-122 -46v170q28 11 50.5 27.5t39 40t25.5 55.5t9 74t-9 74t-25.5 55.5t-39 40t-50.5 27.5v170q68 -14 122 -46t92 -79t58.5 -108.5t20.5 -133.5z" />
    <glyph glyph-name="asterisk" unicode="*" horiz-adv-x="342" 
d="M20 538l43 74l65 -38v76h86v-76l65 38l43 -74l-66 -38l66 -38l-43 -74l-65 38v-76h-86v76l-65 -38l-43 74l66 38z" />
    <glyph glyph-name="plus" unicode="+" horiz-adv-x="551" 
d="M38 368h169v169h137v-169h169v-137h-169v-169h-137v169h-169v137z" />
    <glyph glyph-name="comma" unicode="," horiz-adv-x="237" 
d="M86 17q-29 6 -51.5 29.5t-22.5 62.5q0 44 30.5 72t76.5 28q42 0 74 -28.5t32 -82.5q0 -32 -12.5 -61t-30.5 -56l-53 -81h-119z" />
    <glyph glyph-name="hyphen" unicode="-" horiz-adv-x="307" 
d="M33 339h241v-155h-241v155z" />
    <glyph glyph-name="period" unicode="." horiz-adv-x="237" 
d="M12 101q0 47 30.5 77.5t75.5 30.5q22 0 42 -8t34 -22.5t22.5 -34.5t8.5 -43t-8.5 -42.5t-22.5 -34t-34 -23t-42 -8.5t-41.5 8.5t-33.5 23t-22.5 34t-8.5 42.5z" />
    <glyph glyph-name="slash" unicode="/" horiz-adv-x="415" 
d="M253 650h157l-248 -734h-157z" />
    <glyph glyph-name="zero" unicode="0" horiz-adv-x="570" 
d="M285 -10q-59 0 -108.5 23t-85 65t-55 100.5t-19.5 128.5t19.5 128.5t55 100.5t85 65t108.5 23t108.5 -23t85 -65t55 -100.5t19.5 -128.5t-19.5 -128.5t-55 -100.5t-85 -65t-108.5 -23zM285 456q-23 0 -38 -12.5t-25 -33.5t-14 -48t-4 -55t4 -55t14 -48t25 -33.5t38 -12.5
q22 0 37.5 12.5t25 33.5t13.5 48t4 55t-4 55t-13.5 48t-25 33.5t-37.5 12.5z" />
    <glyph glyph-name="one" unicode="1" horiz-adv-x="390" 
d="M340 0h-188v412l-142 -68v180l195 90h135v-614z" />
    <glyph glyph-name="two" unicode="2" horiz-adv-x="503" 
d="M282 410q0 17 -10 28.5t-27 11.5q-19 0 -28.5 -11.5t-10.5 -25.5h-200q4 43 22.5 81t48.5 67t72 46t95 17t96.5 -14.5t74 -40.5t47.5 -62.5t17 -80.5q0 -31 -9 -56.5t-24.5 -48t-36 -43t-43.5 -40.5l-83 -72h194v-166h-467v124l228 214q11 10 19.5 19t14 17.5t8 17
t2.5 18.5z" />
    <glyph glyph-name="three" unicode="3" 
d="M197 375h32q13 0 24.5 2.5t20 8t13.5 14t5 21.5q0 19 -11.5 31t-32.5 12q-23 0 -36 -15.5t-16 -35.5h-183q4 42 22.5 80.5t49.5 67.5t74 46t98 17q50 0 90.5 -14.5t69 -40.5t44 -62.5t15.5 -80.5q0 -17 -5 -35t-13 -33.5t-18.5 -29t-22.5 -21.5q15 -8 27.5 -20.5
t20.5 -28t12.5 -34t4.5 -39.5q0 -42 -16 -78t-45.5 -62t-72 -40.5t-94.5 -14.5q-56 0 -100.5 15.5t-76 43.5t-49.5 68t-21 88h194q2 -23 14 -38t36 -15q20 0 33 12.5t13 32.5q0 12 -4.5 21t-13 14.5t-20 8t-24.5 2.5h-38v132z" />
    <glyph glyph-name="four" unicode="4" horiz-adv-x="528" 
d="M218 262h58v80h163v-80h74v-156h-74v-106h-163v106h-261v145l160 363h181z" />
    <glyph glyph-name="five" unicode="5" horiz-adv-x="509" 
d="M257 258q-16 0 -29 -6.5t-24 -16.5h-159v379h397v-163h-242v-59q14 6 36.5 11t48.5 5q49 0 87 -15t64.5 -42t40.5 -64t14 -82q0 -49 -16.5 -89t-46.5 -68t-73 -43t-96 -15q-56 0 -100 15.5t-75 43.5t-49 68t-21 88h189q2 -25 17 -39.5t41 -14.5q11 0 20.5 4t16 10.5
t10.5 16.5t4 22q0 11 -3.5 20.5t-10.5 17t-17.5 12t-23.5 4.5z" />
    <glyph glyph-name="six" unicode="6" horiz-adv-x="525" 
d="M321 434q-5 14 -16 23t-31 9q-15 0 -26.5 -5.5t-19 -13.5t-14 -20.5t-10.5 -34.5q-1 -9 -1 -8v-4q6 5 15.5 10t21.5 8.5t27 5.5t33 2q47 0 85 -15t64.5 -41t41 -62t14.5 -78q0 -48 -17 -88.5t-48 -69.5t-75 -45.5t-98 -16.5q-62 0 -110.5 25t-79.5 67q-32 42 -45.5 94.5
t-13.5 116.5q0 72 17 132.5t49 105t79.5 69t108.5 24.5q96 0 155.5 -52t72.5 -138h-179zM203 205q0 -14 5 -25t13.5 -19.5t20.5 -13t26 -4.5q13 0 25 4.5t21 13t14 19.5t5 25t-5 25.5t-14 20t-21 13t-25 4.5q-14 0 -26 -4.5t-20.5 -13t-13.5 -20t-5 -25.5z" />
    <glyph glyph-name="seven" unicode="7" horiz-adv-x="476" 
d="M284 0h-195l160 449h-239v165h446v-125z" />
    <glyph glyph-name="eight" unicode="8" horiz-adv-x="518" 
d="M259 137q12 0 22.5 3.5t18 10.5t12 15.5t4.5 19.5t-4.5 20t-12 15.5t-18 10t-22.5 3.5t-22.5 -3.5t-18 -10t-12 -15.5t-4.5 -20t4.5 -19.5t12 -15.5t18 -10.5t22.5 -3.5zM259 386q12 0 22 3.5t17 10t11 15.5t4 19t-4 19t-11 16t-17 10.5t-22 3.5t-22 -3.5t-17 -10.5
t-11 -16t-4 -19t4 -19t11 -15.5t17 -10t22 -3.5zM259 -10q-50 0 -94.5 12t-77.5 35.5t-52 57t-19 76.5q0 25 7 46.5t19 39t28.5 30.5t36.5 21q-36 20 -53.5 54.5t-17.5 75.5q0 45 18 80t49 58.5t71.5 35.5t84.5 12t84.5 -12t71 -35.5t49 -58.5t18.5 -80q0 -41 -17.5 -75.5
t-53.5 -54.5q20 -8 36.5 -21t28.5 -30.5t19 -39t7 -46.5q0 -43 -19 -76.5t-52 -57t-77.5 -35.5t-94.5 -12z" />
    <glyph glyph-name="nine" unicode="9" horiz-adv-x="525" 
d="M204 180q5 -14 16 -23t31 -9q30 0 49.5 23.5t21.5 62.5q-32 -26 -97 -26q-47 0 -85 15t-64.5 41t-41 62t-14.5 78q0 48 17 88.5t48 69.5t75 45.5t98 16.5q62 0 110.5 -25t79.5 -67q32 -42 45.5 -94.5t13.5 -116.5q0 -72 -17 -132.5t-49 -105t-79.5 -69t-108.5 -24.5
q-96 0 -155.5 52t-72.5 138h179zM322 409q0 13 -5 24.5t-13.5 20t-20.5 13t-26 4.5t-25.5 -4.5t-20.5 -13t-14 -20t-5 -24.5q0 -14 5 -25.5t14 -20t20.5 -13t25.5 -4.5t26 4.5t20.5 13t13.5 20t5 25.5z" />
    <glyph glyph-name="colon" unicode=":" horiz-adv-x="237" 
d="M12 346q0 47 30.5 77.5t75.5 30.5q22 0 42 -8t34 -22.5t22.5 -34.5t8.5 -43t-8.5 -42.5t-22.5 -34t-34 -23t-42 -8.5t-41.5 8.5t-33.5 23t-22.5 34t-8.5 42.5zM12 101q0 47 30.5 77.5t75.5 30.5q22 0 42 -8t34 -22.5t22.5 -34.5t8.5 -43t-8.5 -42.5t-22.5 -34t-34 -23
t-42 -8.5t-41.5 8.5t-33.5 23t-22.5 34t-8.5 42.5z" />
    <glyph glyph-name="semicolon" unicode=";" horiz-adv-x="237" 
d="M86 17q-29 6 -51.5 29.5t-22.5 62.5q0 44 30.5 72t76.5 28q42 0 74 -28.5t32 -82.5q0 -32 -12.5 -61t-30.5 -56l-53 -81h-119zM12 346q0 47 30.5 77.5t75.5 30.5q22 0 42 -8t34 -22.5t22.5 -34.5t8.5 -43t-8.5 -42.5t-22.5 -34t-34 -23t-42 -8.5t-41.5 8.5t-33.5 23
t-22.5 34t-8.5 42.5z" />
    <glyph glyph-name="less" unicode="&#x3c;" horiz-adv-x="426" 
d="M28 380l362 153v-151l-232 -85l232 -85v-151l-362 153v166z" />
    <glyph glyph-name="equal" unicode="=" horiz-adv-x="571" 
d="M48 261h475v-121h-475v121zM48 464h475v-122h-475v122z" />
    <glyph glyph-name="greater" unicode="&#x3e;" horiz-adv-x="426" 
d="M398 214l-362 -153v151l232 85l-232 85v151l362 -153v-166z" />
    <glyph glyph-name="question" unicode="?" horiz-adv-x="495" 
d="M153 93q0 22 8.5 40t23 31.5t34 21t42.5 7.5q47 0 78.5 -27.5t31.5 -72.5q0 -43 -31.5 -71.5t-78.5 -28.5q-23 0 -42.5 7.5t-34 21t-23 32t-8.5 39.5zM475 436q0 -28 -9.5 -51.5t-23.5 -44.5t-31 -40.5t-32 -39.5q-12 -17 -16 -27.5t-5 -19.5h-189q0 10 2 19t6.5 20
t13 24t21.5 30l25.5 32.5t20 26.5t13.5 23.5t5 23.5q0 17 -10 27t-24 10q-18 0 -27.5 -11.5t-10.5 -24.5h-194q4 43 21 81t47 67t73.5 46t100.5 17q49 0 90 -13t70.5 -37t46 -59t16.5 -79z" />
    <glyph glyph-name="at" unicode="@" horiz-adv-x="750" 
d="M542 146q-3 -18 2.5 -27t19.5 -9q21 0 38 10.5t29 31.5t18.5 51.5t6.5 70.5q0 53 -20 94t-54.5 69t-81.5 42.5t-102 14.5q-66 0 -121 -22t-94.5 -62t-61 -96t-21.5 -124q0 -78 28 -130t71.5 -82.5t96.5 -43t103 -12.5q70 0 123 13.5t101 34.5v-77q-38 -19 -96.5 -33
t-127.5 -14q-74 0 -143 20t-122.5 62t-86 107t-32.5 155q0 79 27.5 148t78 121t121 82t156.5 30q75 0 137 -22.5t106.5 -62.5t69 -94.5t24.5 -117.5q0 -62 -16.5 -108t-45.5 -77.5t-68 -47t-85 -15.5q-35 0 -67 12t-53 37q-18 -24 -45.5 -34.5t-56.5 -10.5q-34 0 -59.5 12
t-43 33t-26 49.5t-8.5 61.5q0 43 13 82.5t37.5 69.5t59 47.5t77.5 17.5q26 0 50 -10t35 -26l5 29h148zM411 252q-2 11 -13 18t-25 7q-12 0 -23 -5.5t-19 -15.5t-13 -24t-5 -31q0 -20 10 -33t32 -13q16 0 27 7.5t17 18.5z" />
    <glyph glyph-name="A" unicode="A" horiz-adv-x="666" 
d="M434 614l232 -614h-196l-32 89h-216l-32 -89h-190l232 614h202zM279 246h102l-51 141z" />
    <glyph glyph-name="B" unicode="B" horiz-adv-x="560" 
d="M444 317q22 -7 40 -21t31.5 -33t21 -42.5t7.5 -50.5q0 -82 -52.5 -126t-149.5 -44h-309v614h292q97 0 149.5 -42t52.5 -125q0 -25 -6.5 -46t-18 -37.5t-26.5 -28.5t-32 -18zM297 379q24 0 37 10t13 30t-13 29.5t-37 9.5h-81v-79h81zM216 157h94q23 0 36 11.5t13 29.5
q0 20 -13 31t-36 11h-94v-83z" />
    <glyph glyph-name="C" unicode="C" horiz-adv-x="606" 
d="M14 307q0 69 22.5 127t62.5 100.5t96 66t123 23.5q61 0 108.5 -17.5t81.5 -47.5t55 -70.5t29 -87.5h-194q-8 25 -28.5 39.5t-51.5 14.5q-26 0 -46.5 -11t-34.5 -31t-21 -47t-7 -59t7 -59t21 -46.5t34.5 -31t46.5 -11.5q31 0 51.5 14.5t28.5 40.5h194q-8 -47 -29 -88
t-55 -71t-81.5 -47.5t-108.5 -17.5q-67 0 -123 23.5t-96 66t-62.5 100.5t-22.5 127z" />
    <glyph glyph-name="D" unicode="D" horiz-adv-x="610" 
d="M270 166q32 0 57 10t42.5 28.5t26.5 44.5t9 58q0 33 -9 59t-26.5 44.5t-42.5 28.5t-57 10h-47v-283h47zM33 614h247q75 0 133.5 -21.5t99 -61.5t62 -97t21.5 -127t-21.5 -127t-62 -97t-99 -61.5t-133.5 -21.5h-247v614z" />
    <glyph glyph-name="E" unicode="E" horiz-adv-x="522" 
d="M495 614v-165h-271v-58h248v-160h-248v-65h271v-166h-462v614h462z" />
    <glyph glyph-name="F" unicode="F" horiz-adv-x="516" 
d="M33 0v614h455v-167h-264v-86h240v-162h-240v-199h-191z" />
    <glyph glyph-name="G" unicode="G" horiz-adv-x="625" 
d="M344 197v137h267v-68q0 -64 -20.5 -115t-57.5 -87t-89.5 -55t-116.5 -19q-70 0 -127.5 23.5t-99 65.5t-64 100t-22.5 128t22.5 128t64 100t99 65.5t127.5 23.5q63 0 112 -17t84 -47t57 -71t30 -89h-199q-9 26 -30.5 40.5t-53.5 14.5q-29 0 -51 -11t-37 -31t-22.5 -47
t-7.5 -59q0 -34 8 -61.5t23.5 -46.5t37.5 -29.5t49 -10.5q32 0 59.5 9.5t39.5 28.5h-82z" />
    <glyph glyph-name="H" unicode="H" horiz-adv-x="649" 
d="M616 614v-614h-194v228h-195v-228h-194v614h194v-221h195v221h194z" />
    <glyph glyph-name="I" unicode="I" horiz-adv-x="260" 
d="M227 0h-194v614h194v-614z" />
    <glyph glyph-name="J" unicode="J" horiz-adv-x="573" 
d="M210 240q1 -38 19.5 -58t50.5 -20q19 0 33 6t22 17.5t12 28t4 38.5v362h194v-364q0 -69 -20.5 -118.5t-56.5 -81t-84.5 -46t-103.5 -14.5q-60 0 -108.5 18t-83 51t-53.5 79t-20 102h195z" />
    <glyph glyph-name="K" unicode="K" horiz-adv-x="623" 
d="M227 386l165 228h222l-196 -264l205 -350h-224l-127 220l-45 -61v-159h-194v614h194v-228z" />
    <glyph glyph-name="L" unicode="L" horiz-adv-x="513" 
d="M33 614h194v-448h264v-166h-458v614z" />
    <glyph glyph-name="M" unicode="M" horiz-adv-x="757" 
d="M317 0l-104 329v-329h-180v614h241l104 -329l105 329h241v-614h-180v329l-105 -329h-122z" />
    <glyph glyph-name="N" unicode="N" horiz-adv-x="636" 
d="M603 0h-159l-224 307v-307h-187v614h181l202 -286v286h187v-614z" />
    <glyph glyph-name="O" unicode="O" horiz-adv-x="647" 
d="M633 307q0 -69 -22.5 -127t-63.5 -100t-98 -66t-126 -24t-126 24t-97.5 66t-63 100t-22.5 127t22.5 127t63 100.5t97.5 66t126 23.5t126 -23.5t98 -66t63.5 -100.5t22.5 -127zM438 307q0 34 -8.5 61.5t-23.5 47t-36.5 29.5t-46.5 10q-26 0 -47 -10t-36 -29.5t-23 -47
t-8 -61.5q0 -35 8 -62t23 -46.5t36 -29.5t47 -10q25 0 46.5 10t36.5 29.5t23.5 46.5t8.5 62z" />
    <glyph glyph-name="P" unicode="P" horiz-adv-x="571" 
d="M224 168v-168h-191v614h288q51 0 93.5 -14.5t73 -43t47.5 -70t17 -95.5t-17 -95.5t-47.5 -70t-73 -43t-93.5 -14.5h-97zM365 391q0 29 -16 45.5t-54 16.5h-71v-124h71q38 0 54 16.5t16 45.5z" />
    <glyph glyph-name="Q" unicode="Q" horiz-adv-x="647" 
d="M633 307q0 -68 -25 -126q-20 -48 -54 -86l42 -51l-111 -91l-48 58q-54 -21 -114 -21q-69 0 -126 24t-97.5 66t-63 100t-22.5 127t22.5 127t63 100.5t97.5 66t126 23.5t126 -23.5t98 -66t63.5 -100.5t22.5 -127zM280 205l112 90l40 -60q7 17 7 72q0 34 -8.5 61.5t-24 47
t-37 29.5t-46.5 10q-26 0 -47 -10t-36 -29.5t-23 -47t-8 -61.5q0 -35 8 -64t23 -50t36 -33t47 -12h3z" />
    <glyph glyph-name="R" unicode="R" horiz-adv-x="585" 
d="M224 176v-176h-191v614h299q51 0 93 -15t73 -43.5t48 -70.5t17 -95q0 -51 -17 -90.5t-48 -67.5q-18 -16 -40 -27l127 -205h-213l-103 176h-45zM224 328h82q38 0 53.5 17t15.5 45q0 29 -15.5 46t-53.5 17h-82v-125z" />
    <glyph glyph-name="S" unicode="S" horiz-adv-x="558" 
d="M210 189q7 -23 26.5 -34.5t49.5 -11.5q13 0 24.5 2.5t19.5 7.5t13 12.5t5 17.5q0 16 -11 22t-29 10l-126 26q-35 7 -65 20t-51.5 34t-33.5 50.5t-12 69.5q0 49 19.5 87.5t53.5 65.5t80 41.5t99 14.5q60 0 107 -16t80 -43t52 -63t25 -77h-189q-8 21 -25.5 34t-48.5 13
q-13 0 -23.5 -2t-18 -6.5t-11.5 -11t-4 -15.5q0 -7 2.5 -12t7 -9t11 -6.5t13.5 -3.5l128 -30q83 -20 124 -64.5t41 -116.5q0 -50 -20 -88t-54.5 -64t-80 -39.5t-97.5 -13.5q-118 0 -192.5 52.5t-90.5 146.5h202z" />
    <glyph glyph-name="T" unicode="T" horiz-adv-x="584" 
d="M14 614h556v-165h-181v-449h-194v449h-181v165z" />
    <glyph glyph-name="U" unicode="U" horiz-adv-x="616" 
d="M308 -10q-64 0 -116 17.5t-88.5 51t-56 83t-19.5 112.5v360h193v-343q0 -26 6.5 -46t17.5 -34t27 -21t36 -7q19 0 35.5 7t27.5 21t17.5 34t6.5 46v343h193v-360q0 -63 -19.5 -112.5t-56 -83t-88.5 -51t-116 -17.5z" />
    <glyph glyph-name="V" unicode="V" horiz-adv-x="645" 
d="M227 0l-227 614h208l118 -349l119 349h200l-227 -614h-191z" />
    <glyph glyph-name="W" unicode="W" horiz-adv-x="846" 
d="M497 614l81 -308l71 308h197l-164 -614h-176l-83 314l-84 -314h-176l-163 614h200l72 -308l81 308h144z" />
    <glyph glyph-name="X" unicode="X" horiz-adv-x="622" 
d="M422 314l201 -314h-214l-101 165l-100 -165h-209l201 314l-191 300h214l90 -151l92 151h208z" />
    <glyph glyph-name="Y" unicode="Y" horiz-adv-x="632" 
d="M430 614h202l-220 -412v-202h-195v202l-217 412h210l110 -219z" />
    <glyph glyph-name="Z" unicode="Z" horiz-adv-x="568" 
d="M541 0h-514v146l263 303h-260v165h508v-145l-257 -303h260v-166z" />
    <glyph glyph-name="bracketleft" unicode="[" horiz-adv-x="341" 
d="M210 69h111v-153h-288v734h288v-153h-111v-428z" />
    <glyph glyph-name="backslash" unicode="\" horiz-adv-x="415" 
d="M410 -84h-157l-248 734h157z" />
    <glyph glyph-name="bracketright" unicode="]" horiz-adv-x="341" 
d="M131 497h-111v153h288v-734h-288v153h111v428z" />
    <glyph glyph-name="asciicircum" unicode="^" horiz-adv-x="456" 
d="M300 614l146 -256h-154l-64 124l-64 -124h-154l146 256h144z" />
    <glyph glyph-name="underscore" unicode="_" horiz-adv-x="381" 
d="M20 -42h341v-137h-341v137z" />
    <glyph glyph-name="grave" unicode="`" 
d="M204 493l-85 157h176l85 -157h-176z" />
    <glyph glyph-name="a" unicode="a" horiz-adv-x="489" 
d="M282 0v22q-11 -11 -41.5 -20.5t-65.5 -9.5q-33 0 -62.5 9t-52 27t-35.5 45t-13 64q0 33 13.5 59.5t36.5 45t55 28.5t68 10q27 0 55 -7t42 -17v25q0 14 -8.5 26.5t-29.5 12.5q-17 0 -26 -7t-13 -17h-178q4 35 21.5 65.5t46 53.5t68 36.5t88.5 13.5q103 0 159 -51.5
t56 -145.5v-268h-184zM282 151q-3 5 -8.5 9t-12 7t-14.5 4.5t-17 1.5q-8 0 -16 -2t-14 -6t-10 -10t-4 -14t4 -14t10 -10t14 -6t16 -2q9 0 17 1.5t14.5 4.5t12 7t8.5 9v20z" />
    <glyph glyph-name="b" unicode="b" horiz-adv-x="539" 
d="M221 0h-190v650h190v-231q8 9 20 17t26 14t30.5 10t33.5 4q48 0 85 -18.5t62 -51t37.5 -75.5t12.5 -92t-12.5 -92t-37.5 -75.5t-62 -51t-85 -18.5q-17 0 -33.5 4t-30.5 10t-26 14t-20 17v-35zM221 182q6 -14 19.5 -23t33.5 -9q15 0 27 6t20 16t12.5 24t4.5 31
q0 16 -4.5 30.5t-12.5 24.5t-20 16t-27 6q-18 0 -32.5 -9t-20.5 -23v-90z" />
    <glyph glyph-name="c" unicode="c" horiz-adv-x="482" 
d="M11 227q0 52 17 96t48 75t75 48.5t98 17.5q49 0 88 -14.5t67.5 -40t45 -61t21.5 -78.5h-182q-2 15 -11.5 26.5t-29.5 11.5q-11 0 -20.5 -5.5t-16 -15.5t-10 -25.5t-3.5 -34.5q0 -20 3.5 -35t10 -25t16 -15.5t20.5 -5.5q20 0 29.5 11.5t11.5 26.5h182q-5 -43 -21.5 -78.5
t-45 -61t-67.5 -40t-88 -14.5q-54 0 -98 17.5t-75 48.5t-48 74.5t-17 96.5z" />
    <glyph glyph-name="d" unicode="d" horiz-adv-x="539" 
d="M318 35q-8 -9 -20 -17t-26 -14t-30.5 -10t-33.5 -4q-48 0 -85 18.5t-62 51t-37.5 75.5t-12.5 92t12.5 92t37.5 75.5t62 51t85 18.5q17 0 33.5 -4t30.5 -10t26 -14t20 -17v231h190v-650h-190v35zM318 272q-6 14 -20.5 23t-32.5 9q-15 0 -27 -6t-20 -16t-12.5 -24.5
t-4.5 -30.5q0 -17 4.5 -31t12.5 -24t20 -16t27 -6q20 0 33.5 9t19.5 23v90z" />
    <glyph glyph-name="e" unicode="e" horiz-adv-x="487" 
d="M476 168q-13 -85 -72.5 -131.5t-153.5 -46.5q-55 0 -99 17t-75 48.5t-48 75t-17 96.5q0 54 17.5 97.5t49 74.5t75 48t94.5 17q55 0 97.5 -17t71.5 -47t44.5 -72.5t15.5 -93.5v-42h-284q3 -15 7.5 -25.5t11.5 -18t17 -11t22 -3.5q17 0 30.5 8t18.5 26h177zM247 320
q-10 0 -18 -3.5t-14.5 -9.5t-11 -14.5t-7.5 -19.5h98q-2 10 -5.5 18.5t-9.5 15t-14 10t-18 3.5z" />
    <glyph glyph-name="f" unicode="f" horiz-adv-x="351" 
d="M341 495q-7 3 -14 4.5t-17 1.5q-23 0 -36.5 -11t-13.5 -34v-2h81v-146h-81v-308h-189v308h-61v146h61v12q0 43 12.5 78.5t36.5 60.5t60 39t83 14q23 0 43 -3.5t35 -8.5v-151z" />
    <glyph glyph-name="g" unicode="g" horiz-adv-x="527" 
d="M308 71q-7 -9 -17 -16.5t-23 -13.5t-28.5 -9.5t-33.5 -3.5q-47 0 -83 16t-61 45t-38 69t-13 88t13 88t38 69t61 45t83 16q18 0 33.5 -3.5t28.5 -9.5t23 -13.5t17 -16.5v33h188v-373q0 -61 -18 -106.5t-51 -76t-78.5 -46t-100.5 -15.5q-47 0 -87 11t-71 32.5t-51.5 52.5
t-27.5 72h182q6 -17 20 -25.5t35 -8.5q26 0 43 13.5t17 46.5v40zM308 289q-6 11 -19.5 20t-31.5 9q-14 0 -25 -5t-19 -14.5t-12 -23t-4 -29.5t4 -29.5t12 -23t19 -14.5t25 -5q18 0 31.5 9t19.5 20v86z" />
    <glyph glyph-name="h" unicode="h" horiz-adv-x="533" 
d="M31 650h190v-233q19 21 51 34t70 13q75 0 118 -44.5t43 -120.5v-299h-190v248q0 20 -11 34.5t-33 14.5q-9 0 -16.5 -2.5t-14 -7.5t-11 -11.5t-6.5 -15.5v-260h-190v650z" />
    <glyph glyph-name="i" unicode="i" horiz-adv-x="252" 
d="M221 0h-190v454h190v-454zM231 569q0 -47 -31 -72.5t-74 -25.5t-74 25.5t-31 72.5t31 72.5t74 25.5t74 -25.5t31 -72.5z" />
    <glyph glyph-name="j" unicode="j" horiz-adv-x="252" 
d="M221 40q0 -97 -47.5 -150t-139.5 -53q-23 0 -38.5 2t-28.5 6v139q5 -1 9 -1.5t10 -0.5q11 0 19.5 2t14 7t8.5 13.5t3 21.5v428h190v-414zM231 569q0 -47 -31 -72.5t-74 -25.5t-74 25.5t-31 72.5t31 72.5t74 25.5t74 -25.5t31 -72.5z" />
    <glyph glyph-name="k" unicode="k" horiz-adv-x="548" 
d="M244 154l-23 -31v-123h-190v650h190v-319l98 123h224l-160 -185l164 -269h-215z" />
    <glyph glyph-name="l" unicode="l" horiz-adv-x="252" 
d="M221 0h-190v650h190v-650z" />
    <glyph glyph-name="m" unicode="m" horiz-adv-x="797" 
d="M467 413q10 9 23.5 18t31.5 16.5t40 12t48 4.5q72 0 114.5 -44.5t42.5 -120.5v-299h-190v248q0 20 -9 34.5t-29 14.5q-16 0 -28 -10t-17 -27v-260h-190v248q0 20 -9 34.5t-29 14.5q-16 0 -28 -10t-17 -27v-260h-190v454h190v-37q18 21 49.5 34t69.5 13q45 0 75 -14
t52 -37z" />
    <glyph glyph-name="n" unicode="n" horiz-adv-x="533" 
d="M31 454h190v-37q19 21 51 34t70 13q75 0 118 -44.5t43 -120.5v-299h-190v248q0 20 -11 34.5t-33 14.5q-9 0 -16.5 -2.5t-14 -7.5t-11 -11.5t-6.5 -15.5v-260h-190v454z" />
    <glyph glyph-name="o" unicode="o" horiz-adv-x="504" 
d="M493 227q0 -53 -17.5 -96.5t-49 -75t-76 -48.5t-98.5 -17t-98 17t-76 48.5t-49.5 75t-17.5 96.5t17.5 96.5t49.5 75t76 48.5t98 17t98.5 -17t76 -48.5t49 -75t17.5 -96.5zM307 227q0 18 -3.5 33.5t-10.5 26t-17.5 16.5t-23.5 6t-23 -6t-17 -16.5t-10.5 -26t-3.5 -33.5
t3.5 -33.5t10.5 -26t17 -16.5t23 -6t23.5 6t17.5 16.5t10.5 26t3.5 33.5z" />
    <glyph glyph-name="p" unicode="p" horiz-adv-x="539" 
d="M221 -153h-190v607h190v-35q8 9 20 17t26 14t30.5 10t33.5 4q48 0 85 -18.5t62 -51t37.5 -75.5t12.5 -92t-12.5 -92t-37.5 -75.5t-62 -51t-85 -18.5q-17 0 -33.5 4t-30.5 10t-26 14t-20 17v-188zM221 182q6 -14 20.5 -23t32.5 -9q15 0 27 6t20 16t12.5 24t4.5 31
q0 16 -4.5 30.5t-12.5 24.5t-20 16t-27 6q-20 0 -33.5 -9t-19.5 -23v-90z" />
    <glyph glyph-name="q" unicode="q" horiz-adv-x="539" 
d="M318 35q-8 -9 -20 -17t-26 -14t-30.5 -10t-33.5 -4q-48 0 -85 18.5t-62 51t-37.5 75.5t-12.5 92t12.5 92t37.5 75.5t62 51t85 18.5q17 0 33.5 -4t30.5 -10t26 -14t20 -17v35h190v-607h-190v188zM318 272q-6 14 -19.5 23t-33.5 9q-15 0 -27 -6t-20 -16t-12.5 -24.5
t-4.5 -30.5q0 -17 4.5 -31t12.5 -24t20 -16t27 -6q18 0 32.5 9t20.5 23v90z" />
    <glyph glyph-name="r" unicode="r" horiz-adv-x="380" 
d="M364 276q-17 8 -32.5 11t-36.5 3q-32 0 -50.5 -11.5t-23.5 -28.5v-250h-190v454h190v-37q18 21 43.5 34t60.5 13q14 0 24 -2.5t15 -5.5v-180z" />
    <glyph glyph-name="s" unicode="s" horiz-adv-x="459" 
d="M190 145q3 -14 14 -21t25 -7q6 0 11 1t8.5 3t6 5.5t2.5 8.5q0 9 -7 12t-18 5l-85 16q-62 12 -97 43t-35 93q0 40 16.5 70t44.5 50t65 30t79 10q101 0 155.5 -42.5t63.5 -113.5h-172q-2 11 -9.5 20t-29.5 9q-12 0 -19 -4.5t-7 -12.5t5.5 -11.5t16.5 -5.5l87 -20
q64 -15 98.5 -48.5t34.5 -91.5q0 -38 -16.5 -66.5t-45.5 -47.5t-67.5 -29t-81.5 -10q-45 0 -84 9.5t-68.5 29t-48.5 48.5t-24 68h182z" />
    <glyph glyph-name="t" unicode="t" horiz-adv-x="371" 
d="M69 308h-63v146h63v127h187v-127h91v-146h-91v-102q0 -26 11 -38t34 -12q12 0 23.5 1.5t22.5 4.5v-158q-14 -5 -40 -8.5t-53 -3.5q-93 0 -139 43t-46 140v133z" />
    <glyph glyph-name="u" unicode="u" horiz-adv-x="531" 
d="M500 0h-189v37q-19 -21 -51 -34t-70 -13q-74 0 -117 44.5t-43 120.5v299h190v-251q0 -20 10 -34.5t33 -14.5q16 0 29 10t18 27v263h190v-454z" />
    <glyph glyph-name="v" unicode="v" horiz-adv-x="510" 
d="M173 0l-173 454h192l69 -220l66 220h183l-173 -454h-164z" />
    <glyph glyph-name="w" unicode="w" horiz-adv-x="725" 
d="M480 251l63 203h182l-155 -454h-152l-56 181l-55 -181h-152l-155 454h189l63 -203l61 203h106z" />
    <glyph glyph-name="x" unicode="x" horiz-adv-x="511" 
d="M358 229l153 -229h-202l-58 94l-57 -94h-194l152 229l-149 225h202l54 -90l55 90h194z" />
    <glyph glyph-name="y" unicode="y" horiz-adv-x="518" 
d="M99 -153l68 177l-167 430h196l69 -215l66 215h187l-231 -607h-188z" />
    <glyph glyph-name="z" unicode="z" horiz-adv-x="460" 
d="M436 0h-412v126l181 182h-178v146h407v-126l-169 -182h171v-146z" />
    <glyph glyph-name="braceleft" unicode="{" horiz-adv-x="379" 
d="M258 98q0 -29 29 -29h72v-153h-141q-57 0 -93 36t-36 94v132q0 29 -29 29h-40v152h40q29 0 29 29v132q0 58 36 94t93 36h141v-153h-72q-29 0 -29 -29v-102q0 -32 -13.5 -51.5t-33.5 -31.5q20 -12 33.5 -31.5t13.5 -51.5v-102z" />
    <glyph glyph-name="bar" unicode="|" horiz-adv-x="217" 
d="M33 650h151v-734h-151v734z" />
    <glyph glyph-name="braceright" unicode="}" horiz-adv-x="379" 
d="M121 200q0 32 13.5 51.5t33.5 31.5q-20 12 -33.5 31.5t-13.5 51.5v102q0 29 -29 29h-72v153h141q57 0 93 -36t36 -94v-132q0 -29 29 -29h40v-152h-40q-29 0 -29 -29v-132q0 -58 -36 -94t-93 -36h-141v153h72q29 0 29 29v102z" />
    <glyph glyph-name="asciitilde" unicode="~" horiz-adv-x="425" 
d="M400 363q0 -83 -29.5 -128.5t-84.5 -45.5q-24 0 -40 8t-29 18t-24.5 18t-24.5 8q-17 0 -25.5 -10.5t-8.5 -36.5h-109q0 83 29.5 129t85.5 46q23 0 39.5 -8t29.5 -18t24.5 -18t24.5 -8q17 0 25 10t8 36h109z" />
    <glyph glyph-name="uni00A0" unicode="&#xa0;" horiz-adv-x="187" 
 />
    <glyph glyph-name="exclamdown" unicode="&#xa1;" horiz-adv-x="262" 
d="M56 305h150l41 -401h-232zM23 425q0 21 8.5 39.5t23 32t34 21t42.5 7.5q22 0 42 -7.5t34.5 -21t23 -32t8.5 -39.5t-8.5 -39.5t-23 -32t-34.5 -21t-42 -7.5q-23 0 -42.5 7.5t-34 21t-23 32t-8.5 39.5z" />
    <glyph glyph-name="cent" unicode="&#xa2;" horiz-adv-x="482" 
d="M11 237q0 52 17 96t48 75t75 48l21 8v100h150v-100l15 -5q39 -14 67.5 -39.5t45 -61t21.5 -78.5h-182q-2 15 -11.5 26.5t-29.5 11.5q-11 0 -20.5 -5.5t-16 -15.5t-10 -25.5t-3.5 -34.5q0 -20 3.5 -35t10 -25t16 -15.5t20.5 -5.5q20 0 29.5 11.5t11.5 26.5h182
q-5 -43 -21.5 -78.5t-45 -61t-67.5 -40.5q-8 -2 -15 -5v-91h-150v92q-11 3 -21 7q-44 18 -75 49t-48 74.5t-17 96.5z" />
    <glyph glyph-name="sterling" unicode="&#xa3;" horiz-adv-x="509" 
d="M20 374h57v38q0 46 14 85t40 67.5t64.5 44t88.5 15.5q47 0 84.5 -14t64 -39.5t41 -61.5t15.5 -79h-167q0 16 -7 27t-24 11t-25.5 -12.5t-8.5 -35.5v-46h96v-141h-97q-1 -18 -4 -35q-5 -25 -16 -40h250v-158h-466v158h37q10 17 15 37q3 15 5 38h-57v141z" />
    <glyph glyph-name="yen" unicode="&#xa5;" horiz-adv-x="586" 
d="M60 193h137v39h-137v101h87l-137 281h210l77 -185l77 185h202l-140 -281h87v-101h-137v-39h137v-101h-137v-92h-189v92h-137v101z" />
    <glyph glyph-name="section" unicode="&#xa7;" horiz-adv-x="486" 
d="M395 140q17 -17 28.5 -39t11.5 -51q0 -35 -14.5 -62.5t-40.5 -47t-61 -30t-76 -10.5q-98 0 -149 42.5t-59 113.5h159q2 -15 10.5 -24t25.5 -9q11 0 20 7t9 21q0 11 -7 17t-13 10l-117 58q-26 13 -45 27.5t-32 31t-19 36t-6 42.5q0 38 18.5 66t51.5 45q-17 17 -28 39
t-11 51q0 35 14.5 62.5t40.5 47t61 30t76 10.5q98 0 149 -43t59 -113h-159q-2 15 -10.5 24t-25.5 9q-11 0 -20 -7t-9 -21q0 -6 2 -10t5 -7t6.5 -5.5l6.5 -4.5l117 -58q26 -13 45 -27.5t32 -31t19 -36t6 -42.5q0 -38 -19 -66t-52 -45zM282 214q8 3 12 9t4 13q0 9 -3.5 16.5
t-17.5 15.5l-73 42q-8 -4 -12 -9.5t-4 -12.5q0 -9 3.5 -16.5t17.5 -15.5z" />
    <glyph glyph-name="dieresis" unicode="&#xa8;" 
d="M67 564q0 36 25.5 62t61.5 26q18 0 34 -7t28 -19t19 -28t7 -34q0 -36 -26 -61.5t-62 -25.5t-61.5 25.5t-25.5 61.5zM257 564q0 36 25.5 62t61.5 26q18 0 34 -7t28 -19t19 -28t7 -34q0 -36 -26 -61.5t-62 -25.5t-61.5 25.5t-25.5 61.5z" />
    <glyph glyph-name="copyright" unicode="&#xa9;" horiz-adv-x="704" 
d="M669 307q0 -69 -25 -127t-68 -100.5t-101 -66t-123 -23.5t-123 23.5t-101 66t-68 100.5t-25 127t25 127t68 100.5t101 66t123 23.5t123 -23.5t101 -66t68 -100.5t25 -127zM622 307q0 59 -21.5 108.5t-58 85.5t-86 56.5t-104.5 20.5q-56 0 -105 -20.5t-85.5 -56.5
t-58 -85.5t-21.5 -108.5t21.5 -108.5t58 -85.5t85.5 -56.5t105 -20.5q55 0 104.5 20.5t86 56.5t58 85.5t21.5 108.5zM162 308q0 44 14 81t39.5 63.5t61 41t78.5 14.5q39 0 69 -11t51.5 -30t35 -44.5t18.5 -54.5h-123q-5 16 -18 25t-33 9q-35 0 -52.5 -26.5t-17.5 -67.5
q0 -39 17.5 -66t52.5 -27q20 0 33 9t18 26h123q-5 -30 -18.5 -55.5t-35 -44.5t-51.5 -30t-69 -11q-43 0 -78.5 14.5t-61 41t-39.5 63t-14 80.5z" />
    <glyph glyph-name="ordfeminine" unicode="&#xaa;" horiz-adv-x="332" 
d="M194 305v15q-8 -8 -29 -14.5t-46 -6.5q-22 0 -42.5 6t-36 18.5t-24.5 31.5t-9 44q0 47 34.5 73t84.5 26q19 0 38.5 -5t29.5 -12v18q0 10 -6.5 18.5t-21.5 8.5q-23 0 -28 -19h-116q6 50 44 83.5t105 33.5q71 0 109 -35t38 -99v-185h-124zM194 409q-5 6 -14.5 10t-20.5 4
t-20 -5t-9 -16t9 -16t20 -5t20.5 4t14.5 11v13z" />
    <glyph glyph-name="guillemotleft" unicode="&#xab;" horiz-adv-x="483" 
d="M308 54l-92 168l92 168h150l-92 -168l92 -168h-150zM117 54l-92 168l92 168h150l-92 -168l92 -168h-150z" />
    <glyph glyph-name="uni00AD" unicode="&#xad;" horiz-adv-x="321" 
d="M33 339h241v-155h-241v155z" />
    <glyph glyph-name="registered" unicode="&#xae;" horiz-adv-x="407" 
d="M384 441q0 -40 -14.5 -73.5t-39 -58t-57.5 -38t-70 -13.5t-70 13.5t-57.5 38t-39 58t-14.5 73.5t14.5 73.5t39 58t57.5 38t70 13.5t70 -13.5t57.5 -38t39 -58t14.5 -73.5zM351 441q0 33 -11.5 61t-31.5 48.5t-47 31.5t-58 11t-58 -11t-47 -31.5t-31.5 -48.5t-11.5 -61
t11.5 -61t31.5 -48.5t47 -31.5t58 -11t58 11t47 31.5t31.5 48.5t11.5 61zM189 401v-55h-64v192h94q32 0 52.5 -18.5t20.5 -51.5q0 -21 -9 -36t-25 -23l40 -63h-71l-32 55h-6zM229 468q0 9 -5.5 13t-16.5 4h-18v-33h18q11 0 16.5 3.5t5.5 12.5z" />
    <glyph glyph-name="macron" unicode="&#xaf;" 
d="M115 618h269v-125h-269v125z" />
    <glyph glyph-name="degree" unicode="&#xb0;" horiz-adv-x="366" 
d="M130 478q0 -23 15.5 -39.5t37.5 -16.5t37.5 16.5t15.5 39.5t-15.5 39.5t-37.5 16.5t-37.5 -16.5t-15.5 -39.5zM326 478q0 -30 -11.5 -57t-31 -46.5t-45.5 -31t-55 -11.5t-55 11.5t-45.5 31t-31 46.5t-11.5 57t11.5 57t31 46.5t45.5 31t55 11.5t55 -11.5t45.5 -31
t31 -46.5t11.5 -57z" />
    <glyph glyph-name="plusminus" unicode="&#xb1;" horiz-adv-x="566" 
d="M57 449h165v125h121v-125h166v-120h-166v-125h-121v125h-165v120zM57 154h452v-120h-452v120z" />
    <glyph glyph-name="twosuperior" unicode="&#xb2;" horiz-adv-x="324" 
d="M188 494q0 8 -5 14.5t-16 6.5q-10 0 -16 -6.5t-6 -14.5h-125q3 25 13.5 47.5t29 40t44 27.5t57.5 10q64 0 103 -32.5t39 -84.5q0 -37 -19.5 -61t-45.5 -47l-44 -38h106v-101h-280v76l139 123q11 11 18.5 19.5t7.5 20.5z" />
    <glyph glyph-name="threesuperior" unicode="&#xb3;" horiz-adv-x="308" 
d="M122 474h24q14 0 23.5 6t9.5 21q0 9 -5.5 16.5t-18.5 7.5q-14 0 -21 -10t-9 -21h-113q3 25 13 47.5t27.5 39.5t42.5 27.5t57 10.5q66 0 102 -32t36 -86q0 -19 -10 -38.5t-23 -28.5q17 -9 26.5 -27t9.5 -38q0 -54 -37 -87t-103 -33q-64 0 -102 35t-41 93h120
q1 -13 7.5 -21.5t20.5 -8.5q11 0 17.5 7t6.5 18q0 14 -9 19t-22 5h-29v78z" />
    <glyph glyph-name="acute" unicode="&#xb4;" 
d="M119 493l85 157h176l-85 -157h-176z" />
    <glyph glyph-name="paragraph" unicode="&#xb6;" horiz-adv-x="564" 
d="M412 614h119v-704h-119v704zM250 236q-42 0 -84 11t-75.5 34t-54.5 58.5t-21 85.5t21 85.5t54.5 58.5t75.5 34t84 11h119v-704h-119v326z" />
    <glyph glyph-name="periodcentered" unicode="&#xb7;" horiz-adv-x="253" 
d="M20 260q0 47 30.5 77.5t75.5 30.5q22 0 42 -8t34 -22.5t22.5 -34.5t8.5 -43t-8.5 -42.5t-22.5 -34t-34 -23t-42 -8.5t-41.5 8.5t-33.5 23t-22.5 34t-8.5 42.5z" />
    <glyph glyph-name="cedilla" unicode="&#xb8;" 
d="M127 -175l67 143h156l-67 -143h-156z" />
    <glyph glyph-name="onesuperior" unicode="&#xb9;" horiz-adv-x="246" 
d="M213 255h-117v228l-85 -40v118l115 53h87v-359z" />
    <glyph glyph-name="ordmasculine" unicode="&#xba;" horiz-adv-x="347" 
d="M341 461q0 -36 -12 -66t-34 -51.5t-53 -33.5t-68 -12t-68 12t-53 33.5t-34 51.5t-12 66t12 66t34 51.5t53 33.5t68 12t68 -12t53 -33.5t34 -51.5t12 -66zM209 461q0 24 -9 39t-26 15t-26 -15t-9 -39t9 -38.5t26 -14.5t26 14.5t9 38.5z" />
    <glyph glyph-name="guillemotright" unicode="&#xbb;" horiz-adv-x="483" 
d="M25 54l92 168l-92 168h150l92 -168l-92 -168h-150zM216 54l92 168l-92 168h150l92 -168l-92 -168h-150z" />
    <glyph glyph-name="onequarter" unicode="&#xbc;" horiz-adv-x="737" 
d="M197 0h-96l409 614h96zM221 255h-117v228l-85 -40v118l115 53h87v-359zM532 152h39v46h102v-46h46v-98h-46v-54h-102v54h-165v92l106 213h114z" />
    <glyph glyph-name="onehalf" unicode="&#xbd;" horiz-adv-x="735" 
d="M197 0h-96l409 614h96zM221 255h-117v228l-85 -40v118l115 53h87v-359zM591 239q0 8 -5 14.5t-16 6.5q-10 0 -16 -6.5t-6 -14.5h-125q3 25 13.5 47.5t29 40t44 27.5t57.5 10q64 0 103 -32.5t39 -84.5q0 -37 -19.5 -61t-45.5 -47l-44 -38h106v-101h-280v76l139 123
q11 11 18.5 19.5t7.5 20.5z" />
    <glyph glyph-name="threequarters" unicode="&#xbe;" horiz-adv-x="762" 
d="M222 0h-96l409 614h96zM130 474h24q14 0 23.5 6t9.5 21q0 9 -5.5 16.5t-18.5 7.5q-14 0 -21 -10t-9 -21h-113q3 25 13 47.5t27.5 39.5t42.5 27.5t57 10.5q66 0 102 -32t36 -86q0 -19 -10 -38.5t-23 -28.5q17 -9 26.5 -27t9.5 -38q0 -54 -37 -87t-103 -33q-64 0 -102 35
t-41 93h120q1 -13 7.5 -21.5t20.5 -8.5q11 0 17.5 7t6.5 18q0 14 -9 19t-22 5h-29v78zM557 152h39v46h102v-46h46v-98h-46v-54h-102v54h-165v92l106 213h114z" />
    <glyph glyph-name="questiondown" unicode="&#xbf;" horiz-adv-x="495" 
d="M342 425q0 -22 -8.5 -40t-23 -31.5t-34 -21t-42.5 -7.5q-47 0 -78.5 27.5t-31.5 72.5q0 43 31.5 71.5t78.5 28.5q23 0 42.5 -7.5t34 -21t23 -32t8.5 -39.5zM20 82q0 28 9.5 51.5t23.5 44.5t31 40.5t32 39.5q12 17 16 27.5t5 19.5h189q0 -10 -2 -19t-6.5 -20t-13 -24
t-21.5 -30l-25.5 -32.5t-20 -26.5t-13.5 -23.5t-5 -23.5q0 -17 10 -27t24 -10q18 0 27.5 11.5t10.5 24.5h194q-4 -43 -21 -81t-47 -67t-73.5 -46t-100.5 -17q-49 0 -90 13t-70.5 37t-46 59t-16.5 79z" />
    <glyph glyph-name="Agrave" unicode="&#xc0;" horiz-adv-x="666" 
d="M434 614l232 -614h-196l-32 89h-216l-32 -89h-190l232 614h202zM279 246h102l-51 141zM247 663l-85 137h186l85 -137h-186z" />
    <glyph glyph-name="Aacute" unicode="&#xc1;" horiz-adv-x="666" 
d="M434 614l232 -614h-196l-32 89h-216l-32 -89h-190l232 614h202zM279 246h102l-51 141zM238 663l85 137h186l-85 -137h-186z" />
    <glyph glyph-name="Acircumflex" unicode="&#xc2;" horiz-adv-x="666" 
d="M434 614l232 -614h-196l-32 89h-216l-32 -89h-190l232 614h202zM279 246h102l-51 141zM518 663h-149l-36 37l-36 -37h-149l117 137h136z" />
    <glyph glyph-name="Atilde" unicode="&#xc3;" horiz-adv-x="666" 
d="M434 614l232 -614h-196l-32 89h-216l-32 -89h-190l232 614h202zM279 246h102l-51 141zM498 816q0 -31 -4 -60t-14 -51.5t-28 -36t-45 -13.5q-18 0 -33.5 4t-30 9.5t-28 9.5t-25.5 4q-10 0 -16 -6.5t-6 -16.5h-100q0 31 4 60t14 51.5t28 36t45 13.5q18 0 33.5 -4t30 -9.5
t28 -9.5t25.5 -4q10 0 16 6.5t6 16.5h100z" />
    <glyph glyph-name="Adieresis" unicode="&#xc4;" horiz-adv-x="666" 
d="M434 614l232 -614h-196l-32 89h-216l-32 -89h-190l232 614h202zM279 246h102l-51 141zM144 737q0 38 26 64.5t64 26.5t64.5 -26.5t26.5 -64.5t-26.5 -64t-64.5 -26t-64 26t-26 64zM341 737q0 38 26 64.5t64 26.5t64.5 -26.5t26.5 -64.5t-26.5 -64t-64.5 -26t-64 26
t-26 64z" />
    <glyph glyph-name="Aring" unicode="&#xc5;" horiz-adv-x="666" 
d="M434 614l232 -614h-196l-32 89h-216l-32 -89h-190l232 614h202zM279 246h102l-51 141zM450 751q0 -24 -9 -44.5t-25 -35.5t-37 -24t-46 -9t-46.5 9t-37 24t-24.5 35.5t-9 44.5t9 44.5t24.5 36t37 24.5t46.5 9t46 -9t37 -24.5t25 -36t9 -44.5zM366 751q0 14 -9 23.5
t-24 9.5q-14 0 -23 -9.5t-9 -23.5q0 -13 9 -22.5t23 -9.5q15 0 24 9.5t9 22.5z" />
    <glyph glyph-name="AE" unicode="&#xc6;" horiz-adv-x="917" 
d="M890 614v-165h-251v-58h228v-160h-228v-65h251v-166h-442v89h-196l-47 -89h-205l338 614h552zM448 455l-112 -209h112v209z" />
    <glyph glyph-name="Ccedilla" unicode="&#xc7;" horiz-adv-x="606" 
d="M14 307q0 69 22.5 127t62.5 100.5t96 66t123 23.5q61 0 108.5 -17.5t81.5 -47.5t55 -70.5t29 -87.5h-194q-8 25 -28.5 39.5t-51.5 14.5q-26 0 -46.5 -11t-34.5 -31t-21 -47t-7 -59t7 -59t21 -46.5t34.5 -31t46.5 -11.5q31 0 51.5 14.5t28.5 40.5h194q-8 -47 -29 -88
t-55 -71t-81.5 -47.5t-108.5 -17.5q-67 0 -123 23.5t-96 66t-62.5 100.5t-22.5 127zM175 -175l67 143h156l-67 -143h-156z" />
    <glyph glyph-name="Egrave" unicode="&#xc8;" horiz-adv-x="522" 
d="M495 614v-165h-271v-58h248v-160h-248v-65h271v-166h-462v614h462zM184 663l-85 137h186l85 -137h-186z" />
    <glyph glyph-name="Eacute" unicode="&#xc9;" horiz-adv-x="522" 
d="M495 614v-165h-271v-58h248v-160h-248v-65h271v-166h-462v614h462zM175 663l85 137h186l-85 -137h-186z" />
    <glyph glyph-name="Ecircumflex" unicode="&#xca;" horiz-adv-x="522" 
d="M495 614v-165h-271v-58h248v-160h-248v-65h271v-166h-462v614h462zM455 663h-149l-36 37l-36 -37h-149l117 137h136z" />
    <glyph glyph-name="Edieresis" unicode="&#xcb;" horiz-adv-x="522" 
d="M495 614v-165h-271v-58h248v-160h-248v-65h271v-166h-462v614h462zM81 737q0 38 26 64.5t64 26.5t64.5 -26.5t26.5 -64.5t-26.5 -64t-64.5 -26t-64 26t-26 64zM278 737q0 38 26 64.5t64 26.5t64.5 -26.5t26.5 -64.5t-26.5 -64t-64.5 -26t-64 26t-26 64z" />
    <glyph glyph-name="Igrave" unicode="&#xcc;" horiz-adv-x="260" 
d="M227 0h-194v614h194v-614zM44 663l-85 137h186l85 -137h-186z" />
    <glyph glyph-name="Iacute" unicode="&#xcd;" horiz-adv-x="260" 
d="M227 0h-194v614h194v-614zM35 663l85 137h186l-85 -137h-186z" />
    <glyph glyph-name="Icircumflex" unicode="&#xce;" horiz-adv-x="260" 
d="M227 0h-194v614h194v-614zM315 663h-149l-36 37l-36 -37h-149l117 137h136z" />
    <glyph glyph-name="Idieresis" unicode="&#xcf;" horiz-adv-x="260" 
d="M227 0h-194v614h194v-614zM-59 737q0 38 26 64.5t64 26.5t64.5 -26.5t26.5 -64.5t-26.5 -64t-64.5 -26t-64 26t-26 64zM138 737q0 38 26 64.5t64 26.5t64.5 -26.5t26.5 -64.5t-26.5 -64t-64.5 -26t-64 26t-26 64z" />
    <glyph glyph-name="Eth" unicode="&#xd0;" horiz-adv-x="627" 
d="M10 384h40v230h247q75 0 133.5 -21.5t99 -61.5t62 -97t21.5 -127t-21.5 -127t-62 -97t-99 -61.5t-133.5 -21.5h-247v239h-40v145zM287 166q32 0 57 10t42.5 28.5t26.5 44.5t9 58q0 33 -9 59t-26.5 44.5t-42.5 28.5t-57 10h-47v-65h70v-145h-70v-73h47z" />
    <glyph glyph-name="Ntilde" unicode="&#xd1;" horiz-adv-x="636" 
d="M603 0h-159l-224 307v-307h-187v614h181l202 -286v286h187v-614zM483 816q0 -31 -4 -60t-14 -51.5t-28 -36t-45 -13.5q-18 0 -33.5 4t-30 9.5t-28 9.5t-25.5 4q-10 0 -16 -6.5t-6 -16.5h-100q0 31 4 60t14 51.5t28 36t45 13.5q18 0 33.5 -4t30 -9.5t28 -9.5t25.5 -4
q10 0 16 6.5t6 16.5h100z" />
    <glyph glyph-name="Ograve" unicode="&#xd2;" horiz-adv-x="647" 
d="M633 307q0 -69 -22.5 -127t-63.5 -100t-98 -66t-126 -24t-126 24t-97.5 66t-63 100t-22.5 127t22.5 127t63 100.5t97.5 66t126 23.5t126 -23.5t98 -66t63.5 -100.5t22.5 -127zM438 307q0 34 -8.5 61.5t-23.5 47t-36.5 29.5t-46.5 10q-26 0 -47 -10t-36 -29.5t-23 -47
t-8 -61.5q0 -35 8 -62t23 -46.5t36 -29.5t47 -10q25 0 46.5 10t36.5 29.5t23.5 46.5t8.5 62zM237 663l-85 137h186l85 -137h-186z" />
    <glyph glyph-name="Oacute" unicode="&#xd3;" horiz-adv-x="647" 
d="M633 307q0 -69 -22.5 -127t-63.5 -100t-98 -66t-126 -24t-126 24t-97.5 66t-63 100t-22.5 127t22.5 127t63 100.5t97.5 66t126 23.5t126 -23.5t98 -66t63.5 -100.5t22.5 -127zM438 307q0 34 -8.5 61.5t-23.5 47t-36.5 29.5t-46.5 10q-26 0 -47 -10t-36 -29.5t-23 -47
t-8 -61.5q0 -35 8 -62t23 -46.5t36 -29.5t47 -10q25 0 46.5 10t36.5 29.5t23.5 46.5t8.5 62zM228 663l85 137h186l-85 -137h-186z" />
    <glyph glyph-name="Ocircumflex" unicode="&#xd4;" horiz-adv-x="647" 
d="M633 307q0 -69 -22.5 -127t-63.5 -100t-98 -66t-126 -24t-126 24t-97.5 66t-63 100t-22.5 127t22.5 127t63 100.5t97.5 66t126 23.5t126 -23.5t98 -66t63.5 -100.5t22.5 -127zM438 307q0 34 -8.5 61.5t-23.5 47t-36.5 29.5t-46.5 10q-26 0 -47 -10t-36 -29.5t-23 -47
t-8 -61.5q0 -35 8 -62t23 -46.5t36 -29.5t47 -10q25 0 46.5 10t36.5 29.5t23.5 46.5t8.5 62zM508 663h-149l-36 37l-36 -37h-149l117 137h136z" />
    <glyph glyph-name="Otilde" unicode="&#xd5;" horiz-adv-x="647" 
d="M633 307q0 -69 -22.5 -127t-63.5 -100t-98 -66t-126 -24t-126 24t-97.5 66t-63 100t-22.5 127t22.5 127t63 100.5t97.5 66t126 23.5t126 -23.5t98 -66t63.5 -100.5t22.5 -127zM438 307q0 34 -8.5 61.5t-23.5 47t-36.5 29.5t-46.5 10q-26 0 -47 -10t-36 -29.5t-23 -47
t-8 -61.5q0 -35 8 -62t23 -46.5t36 -29.5t47 -10q25 0 46.5 10t36.5 29.5t23.5 46.5t8.5 62zM488 816q0 -31 -4 -60t-14 -51.5t-28 -36t-45 -13.5q-18 0 -33.5 4t-30 9.5t-28 9.5t-25.5 4q-10 0 -16 -6.5t-6 -16.5h-100q0 31 4 60t14 51.5t28 36t45 13.5q18 0 33.5 -4
t30 -9.5t28 -9.5t25.5 -4q10 0 16 6.5t6 16.5h100z" />
    <glyph glyph-name="Odieresis" unicode="&#xd6;" horiz-adv-x="647" 
d="M633 307q0 -69 -22.5 -127t-63.5 -100t-98 -66t-126 -24t-126 24t-97.5 66t-63 100t-22.5 127t22.5 127t63 100.5t97.5 66t126 23.5t126 -23.5t98 -66t63.5 -100.5t22.5 -127zM438 307q0 34 -8.5 61.5t-23.5 47t-36.5 29.5t-46.5 10q-26 0 -47 -10t-36 -29.5t-23 -47
t-8 -61.5q0 -35 8 -62t23 -46.5t36 -29.5t47 -10q25 0 46.5 10t36.5 29.5t23.5 46.5t8.5 62zM134 737q0 38 26 64.5t64 26.5t64.5 -26.5t26.5 -64.5t-26.5 -64t-64.5 -26t-64 26t-26 64zM331 737q0 38 26 64.5t64 26.5t64.5 -26.5t26.5 -64.5t-26.5 -64t-64.5 -26t-64 26
t-26 64z" />
    <glyph glyph-name="multiply" unicode="&#xd7;" horiz-adv-x="493" 
d="M30 418l97 97l120 -119l119 119l97 -97l-119 -119l119 -120l-97 -96l-119 119l-120 -119l-97 96l120 120z" />
    <glyph glyph-name="Oslash" unicode="&#xd8;" horiz-adv-x="655" 
d="M583 624l54 -51l-63 -65q24 -33 40 -74q23 -58 23 -127t-22.5 -127t-63.5 -100t-98 -66t-126 -24t-126 24q-38 16 -68 39l-61 -63l-54 51l63 65q-25 33 -41 74q-22 58 -22 127t22.5 127t63 100.5t97.5 66t126 23.5t126 -24q38 -15 68 -40zM373 445q-21 10 -46 10
q-26 0 -47 -10t-36 -29.5t-23 -47t-8 -61.5q0 -33 6 -58l176 182q-10 8 -22 14zM442 307q0 31 -7 57l-177 -182q10 -8 22 -13q21 -10 47 -10q25 0 46.5 10t36.5 29.5t23.5 46.5t8.5 62z" />
    <glyph glyph-name="Ugrave" unicode="&#xd9;" horiz-adv-x="616" 
d="M308 -10q-64 0 -116 17.5t-88.5 51t-56 83t-19.5 112.5v360h193v-343q0 -26 6.5 -46t17.5 -34t27 -21t36 -7q19 0 35.5 7t27.5 21t17.5 34t6.5 46v343h193v-360q0 -63 -19.5 -112.5t-56 -83t-88.5 -51t-116 -17.5zM222 663l-85 137h186l85 -137h-186z" />
    <glyph glyph-name="Uacute" unicode="&#xda;" horiz-adv-x="616" 
d="M308 -10q-64 0 -116 17.5t-88.5 51t-56 83t-19.5 112.5v360h193v-343q0 -26 6.5 -46t17.5 -34t27 -21t36 -7q19 0 35.5 7t27.5 21t17.5 34t6.5 46v343h193v-360q0 -63 -19.5 -112.5t-56 -83t-88.5 -51t-116 -17.5zM213 663l85 137h186l-85 -137h-186z" />
    <glyph glyph-name="Ucircumflex" unicode="&#xdb;" horiz-adv-x="616" 
d="M308 -10q-64 0 -116 17.5t-88.5 51t-56 83t-19.5 112.5v360h193v-343q0 -26 6.5 -46t17.5 -34t27 -21t36 -7q19 0 35.5 7t27.5 21t17.5 34t6.5 46v343h193v-360q0 -63 -19.5 -112.5t-56 -83t-88.5 -51t-116 -17.5zM493 663h-149l-36 37l-36 -37h-149l117 137h136z" />
    <glyph glyph-name="Udieresis" unicode="&#xdc;" horiz-adv-x="616" 
d="M308 -10q-64 0 -116 17.5t-88.5 51t-56 83t-19.5 112.5v360h193v-343q0 -26 6.5 -46t17.5 -34t27 -21t36 -7q19 0 35.5 7t27.5 21t17.5 34t6.5 46v343h193v-360q0 -63 -19.5 -112.5t-56 -83t-88.5 -51t-116 -17.5zM119 737q0 38 26 64.5t64 26.5t64.5 -26.5t26.5 -64.5
t-26.5 -64t-64.5 -26t-64 26t-26 64zM316 737q0 38 26 64.5t64 26.5t64.5 -26.5t26.5 -64.5t-26.5 -64t-64.5 -26t-64 26t-26 64z" />
    <glyph glyph-name="Yacute" unicode="&#xdd;" horiz-adv-x="632" 
d="M430 614h202l-220 -412v-202h-195v202l-217 412h210l110 -219zM221 663l85 137h186l-85 -137h-186z" />
    <glyph glyph-name="Thorn" unicode="&#xde;" horiz-adv-x="571" 
d="M224 89v-89h-191v614h191v-79h97q51 0 93.5 -14.5t73 -43t47.5 -70t17 -95.5t-17 -95.5t-47.5 -70t-73 -43t-93.5 -14.5h-97zM365 312q0 29 -16 45.5t-54 16.5h-71v-124h71q38 0 54 16.5t16 45.5z" />
    <glyph glyph-name="germandbls" unicode="&#xdf;" horiz-adv-x="557" 
d="M439 349q22 -8 41.5 -22.5t34 -35t23 -46.5t8.5 -57q0 -46 -15 -82t-41 -60.5t-62.5 -37.5t-79.5 -13q-23 0 -41 2t-38 9v145q7 -2 16.5 -3.5t20.5 -1.5q27 0 43 14t16 43q0 15 -5 25.5t-14.5 17t-22.5 10t-29 3.5h-22v143h4q10 0 19 3t15 9.5t9.5 15.5t3.5 21
q0 21 -12.5 34t-37.5 13q-26 0 -39.5 -18.5t-13.5 -47.5v-432h-189v416q0 57 16.5 101.5t48 76t76.5 48t101 16.5t98.5 -13.5t71.5 -37.5t43.5 -57t14.5 -72q0 -24 -5.5 -44t-14 -36.5t-19.5 -29t-23 -19.5z" />
    <glyph glyph-name="agrave" unicode="&#xe0;" horiz-adv-x="489" 
d="M282 0v22q-11 -11 -41.5 -20.5t-65.5 -9.5q-33 0 -62.5 9t-52 27t-35.5 45t-13 64q0 33 13.5 59.5t36.5 45t55 28.5t68 10q27 0 55 -7t42 -17v25q0 14 -8.5 26.5t-29.5 12.5q-17 0 -26 -7t-13 -17h-178q4 35 21.5 65.5t46 53.5t68 36.5t88.5 13.5q103 0 159 -51.5
t56 -145.5v-268h-184zM282 151q-3 5 -8.5 9t-12 7t-14.5 4.5t-17 1.5q-8 0 -16 -2t-14 -6t-10 -10t-4 -14t4 -14t10 -10t14 -6t16 -2q9 0 17 1.5t14.5 4.5t12 7t8.5 9v20zM172 493l-85 157h176l85 -157h-176z" />
    <glyph glyph-name="aacute" unicode="&#xe1;" horiz-adv-x="489" 
d="M282 0v22q-11 -11 -41.5 -20.5t-65.5 -9.5q-33 0 -62.5 9t-52 27t-35.5 45t-13 64q0 33 13.5 59.5t36.5 45t55 28.5t68 10q27 0 55 -7t42 -17v25q0 14 -8.5 26.5t-29.5 12.5q-17 0 -26 -7t-13 -17h-178q4 35 21.5 65.5t46 53.5t68 36.5t88.5 13.5q103 0 159 -51.5
t56 -145.5v-268h-184zM282 151q-3 5 -8.5 9t-12 7t-14.5 4.5t-17 1.5q-8 0 -16 -2t-14 -6t-10 -10t-4 -14t4 -14t10 -10t14 -6t16 -2q9 0 17 1.5t14.5 4.5t12 7t8.5 9v20zM165 493l85 157h176l-85 -157h-176z" />
    <glyph glyph-name="acircumflex" unicode="&#xe2;" horiz-adv-x="489" 
d="M282 0v22q-11 -11 -41.5 -20.5t-65.5 -9.5q-33 0 -62.5 9t-52 27t-35.5 45t-13 64q0 33 13.5 59.5t36.5 45t55 28.5t68 10q27 0 55 -7t42 -17v25q0 14 -8.5 26.5t-29.5 12.5q-17 0 -26 -7t-13 -17h-178q4 35 21.5 65.5t46 53.5t68 36.5t88.5 13.5q103 0 159 -51.5
t56 -145.5v-268h-184zM282 151q-3 5 -8.5 9t-12 7t-14.5 4.5t-17 1.5q-8 0 -16 -2t-14 -6t-10 -10t-4 -14t4 -14t10 -10t14 -6t16 -2q9 0 17 1.5t14.5 4.5t12 7t8.5 9v20zM419 493h-135l-30 41l-30 -41h-135l97 157h136z" />
    <glyph glyph-name="atilde" unicode="&#xe3;" horiz-adv-x="489" 
d="M282 0v22q-11 -11 -41.5 -20.5t-65.5 -9.5q-33 0 -62.5 9t-52 27t-35.5 45t-13 64q0 33 13.5 59.5t36.5 45t55 28.5t68 10q27 0 55 -7t42 -17v25q0 14 -8.5 26.5t-29.5 12.5q-17 0 -26 -7t-13 -17h-178q4 35 21.5 65.5t46 53.5t68 36.5t88.5 13.5q103 0 159 -51.5
t56 -145.5v-268h-184zM282 151q-3 5 -8.5 9t-12 7t-14.5 4.5t-17 1.5q-8 0 -16 -2t-14 -6t-10 -10t-4 -14t4 -14t10 -10t14 -6t16 -2q9 0 17 1.5t14.5 4.5t12 7t8.5 9v20zM415 650q0 -31 -4 -60t-14 -51.5t-28 -36t-45 -13.5q-18 0 -30.5 4t-23 9.5t-21 9.5t-22.5 4
q-10 0 -16 -6.5t-6 -16.5h-100q0 31 4 60t14 51.5t28 36t45 13.5q18 0 30.5 -4t23 -9.5t21 -9.5t22.5 -4q10 0 16 6.5t6 16.5h100z" />
    <glyph glyph-name="adieresis" unicode="&#xe4;" horiz-adv-x="489" 
d="M282 0v22q-11 -11 -41.5 -20.5t-65.5 -9.5q-33 0 -62.5 9t-52 27t-35.5 45t-13 64q0 33 13.5 59.5t36.5 45t55 28.5t68 10q27 0 55 -7t42 -17v25q0 14 -8.5 26.5t-29.5 12.5q-17 0 -26 -7t-13 -17h-178q4 35 21.5 65.5t46 53.5t68 36.5t88.5 13.5q103 0 159 -51.5
t56 -145.5v-268h-184zM282 151q-3 5 -8.5 9t-12 7t-14.5 4.5t-17 1.5q-8 0 -16 -2t-14 -6t-10 -10t-4 -14t4 -14t10 -10t14 -6t16 -2q9 0 17 1.5t14.5 4.5t12 7t8.5 9v20zM75 564q0 36 25.5 62t61.5 26q18 0 34 -7t28 -19t19 -28t7 -34q0 -36 -26 -61.5t-62 -25.5
t-61.5 25.5t-25.5 61.5zM265 564q0 36 25.5 62t61.5 26q18 0 34 -7t28 -19t19 -28t7 -34q0 -36 -26 -61.5t-62 -25.5t-61.5 25.5t-25.5 61.5z" />
    <glyph glyph-name="aring" unicode="&#xe5;" horiz-adv-x="489" 
d="M282 0v22q-11 -11 -41.5 -20.5t-65.5 -9.5q-33 0 -62.5 9t-52 27t-35.5 45t-13 64q0 33 13.5 59.5t36.5 45t55 28.5t68 10q27 0 55 -7t42 -17v25q0 14 -8.5 26.5t-29.5 12.5q-17 0 -26 -7t-13 -17h-178q4 35 21.5 65.5t46 53.5t68 36.5t88.5 13.5q103 0 159 -51.5
t56 -145.5v-268h-184zM282 151q-3 5 -8.5 9t-12 7t-14.5 4.5t-17 1.5q-8 0 -16 -2t-14 -6t-10 -10t-4 -14t4 -14t10 -10t14 -6t16 -2q9 0 17 1.5t14.5 4.5t12 7t8.5 9v20zM374 595q0 -24 -9 -44.5t-25 -35.5t-37 -24t-46 -9t-46.5 9t-37 24t-24.5 35.5t-9 44.5t9 44.5
t24.5 36t37 24.5t46.5 9t46 -9t37 -24.5t25 -36t9 -44.5zM290 595q0 14 -9 23.5t-24 9.5q-14 0 -23 -9.5t-9 -23.5q0 -13 9 -22.5t23 -9.5q15 0 24 9.5t9 22.5z" />
    <glyph glyph-name="ae" unicode="&#xe6;" horiz-adv-x="732" 
d="M228 117q8 0 15.5 1.5t13.5 4.5t11 7t8 9v46h-48q-9 0 -17 -2.5t-14 -7t-9.5 -11.5t-3.5 -15q0 -17 13.5 -24.5t30.5 -7.5zM720 161q-15 -81 -76.5 -126t-152.5 -45q-48 0 -85 15t-65 35q-13 -9 -29.5 -18t-36.5 -16t-44.5 -11.5t-53.5 -4.5q-32 0 -62 9t-53 27t-37 44
t-14 60q0 36 15.5 63t42.5 44.5t63 26.5t77 9h67v11q0 16 -10 28t-33 12q-17 0 -28 -8t-14 -20h-165q4 35 20.5 66t43 53.5t63.5 35.5t84 13q40 0 71.5 -11.5t57.5 -28.5q26 17 56.5 28.5t72.5 11.5q52 0 94 -17t71 -47t45 -72.5t16 -93.5v-49h-284q3 -15 7.5 -24.5
t11.5 -15.5t17 -8.5t22 -2.5q16 0 28 6.5t18 20.5h179zM492 320q-20 0 -32.5 -12.5t-18.5 -34.5h98q-2 10 -5.5 18.5t-9.5 15t-14 10t-18 3.5z" />
    <glyph glyph-name="ccedilla" unicode="&#xe7;" horiz-adv-x="482" 
d="M11 227q0 52 17 96t48 75t75 48.5t98 17.5q49 0 88 -14.5t67.5 -40t45 -61t21.5 -78.5h-182q-2 15 -11.5 26.5t-29.5 11.5q-11 0 -20.5 -5.5t-16 -15.5t-10 -25.5t-3.5 -34.5q0 -20 3.5 -35t10 -25t16 -15.5t20.5 -5.5q20 0 29.5 11.5t11.5 26.5h182q-5 -43 -21.5 -78.5
t-45 -61t-67.5 -40t-88 -14.5q-54 0 -98 17.5t-75 48.5t-48 74.5t-17 96.5zM100 -175l67 143h156l-67 -143h-156z" />
    <glyph glyph-name="egrave" unicode="&#xe8;" horiz-adv-x="487" 
d="M476 168q-13 -85 -72.5 -131.5t-153.5 -46.5q-55 0 -99 17t-75 48.5t-48 75t-17 96.5q0 54 17.5 97.5t49 74.5t75 48t94.5 17q55 0 97.5 -17t71.5 -47t44.5 -72.5t15.5 -93.5v-42h-284q3 -15 7.5 -25.5t11.5 -18t17 -11t22 -3.5q17 0 30.5 8t18.5 26h177zM247 320
q-10 0 -18 -3.5t-14.5 -9.5t-11 -14.5t-7.5 -19.5h98q-2 10 -5.5 18.5t-9.5 15t-14 10t-18 3.5zM167 493l-85 157h176l85 -157h-176z" />
    <glyph glyph-name="eacute" unicode="&#xe9;" horiz-adv-x="487" 
d="M476 168q-13 -85 -72.5 -131.5t-153.5 -46.5q-55 0 -99 17t-75 48.5t-48 75t-17 96.5q0 54 17.5 97.5t49 74.5t75 48t94.5 17q55 0 97.5 -17t71.5 -47t44.5 -72.5t15.5 -93.5v-42h-284q3 -15 7.5 -25.5t11.5 -18t17 -11t22 -3.5q17 0 30.5 8t18.5 26h177zM247 320
q-10 0 -18 -3.5t-14.5 -9.5t-11 -14.5t-7.5 -19.5h98q-2 10 -5.5 18.5t-9.5 15t-14 10t-18 3.5zM160 493l85 157h176l-85 -157h-176z" />
    <glyph glyph-name="ecircumflex" unicode="&#xea;" horiz-adv-x="487" 
d="M476 168q-13 -85 -72.5 -131.5t-153.5 -46.5q-55 0 -99 17t-75 48.5t-48 75t-17 96.5q0 54 17.5 97.5t49 74.5t75 48t94.5 17q55 0 97.5 -17t71.5 -47t44.5 -72.5t15.5 -93.5v-42h-284q3 -15 7.5 -25.5t11.5 -18t17 -11t22 -3.5q17 0 30.5 8t18.5 26h177zM247 320
q-10 0 -18 -3.5t-14.5 -9.5t-11 -14.5t-7.5 -19.5h98q-2 10 -5.5 18.5t-9.5 15t-14 10t-18 3.5zM417 493h-135l-30 41l-30 -41h-135l97 157h136z" />
    <glyph glyph-name="edieresis" unicode="&#xeb;" horiz-adv-x="487" 
d="M476 168q-13 -85 -72.5 -131.5t-153.5 -46.5q-55 0 -99 17t-75 48.5t-48 75t-17 96.5q0 54 17.5 97.5t49 74.5t75 48t94.5 17q55 0 97.5 -17t71.5 -47t44.5 -72.5t15.5 -93.5v-42h-284q3 -15 7.5 -25.5t11.5 -18t17 -11t22 -3.5q17 0 30.5 8t18.5 26h177zM247 320
q-10 0 -18 -3.5t-14.5 -9.5t-11 -14.5t-7.5 -19.5h98q-2 10 -5.5 18.5t-9.5 15t-14 10t-18 3.5zM70 564q0 36 25.5 62t61.5 26q18 0 34 -7t28 -19t19 -28t7 -34q0 -36 -26 -61.5t-62 -25.5t-61.5 25.5t-25.5 61.5zM260 564q0 36 25.5 62t61.5 26q18 0 34 -7t28 -19t19 -28
t7 -34q0 -36 -26 -61.5t-62 -25.5t-61.5 25.5t-25.5 61.5z" />
    <glyph glyph-name="igrave" unicode="&#xec;" horiz-adv-x="252" 
d="M41 493l-85 157h176l85 -157h-176zM221 0h-190v454h190v-454z" />
    <glyph glyph-name="iacute" unicode="&#xed;" horiz-adv-x="252" 
d="M34 493l85 157h176l-85 -157h-176zM221 0h-190v454h190v-454z" />
    <glyph glyph-name="icircumflex" unicode="&#xee;" horiz-adv-x="252" 
d="M275 493h-129l-20 51l-20 -51h-129l81 157h136zM221 0h-190v454h190v-454z" />
    <glyph glyph-name="idieresis" unicode="&#xef;" horiz-adv-x="252" 
d="M-56 564q0 36 25.5 62t61.5 26q18 0 34 -7t28 -19t19 -28t7 -34q0 -36 -26 -61.5t-62 -25.5t-61.5 25.5t-25.5 61.5zM134 564q0 36 25.5 62t61.5 26q18 0 34 -7t28 -19t19 -28t7 -34q0 -36 -26 -61.5t-62 -25.5t-61.5 25.5t-25.5 61.5zM221 0h-190v454h190v-454z" />
    <glyph glyph-name="eth" unicode="&#xf0;" horiz-adv-x="504" 
d="M102 539l60 18l-44 35l-71 54v4h229q26 -22 49 -44l74 23l26 -70l-42 -13q36 -42 59 -86q26 -49 38.5 -101t12.5 -109q0 -62 -17.5 -110t-49 -81.5t-76 -51t-98.5 -17.5t-98 17t-76 48.5t-49.5 75t-17.5 96.5t17.5 95.5t48.5 72.5t74 46t93 16q5 0 11 -0.5t11 -2.5h2
q-13 17 -35 39l-6 6l-98 -30zM307 226q0 18 -3.5 33t-10.5 25.5t-17.5 16t-23.5 5.5t-23 -5.5t-17 -16t-10.5 -25.5t-3.5 -33t3.5 -33t10.5 -25.5t17 -16.5t23 -6t23.5 6t17.5 16.5t10.5 25.5t3.5 33z" />
    <glyph glyph-name="ntilde" unicode="&#xf1;" horiz-adv-x="533" 
d="M31 454h190v-37q19 21 51 34t70 13q75 0 118 -44.5t43 -120.5v-299h-190v248q0 20 -11 34.5t-33 14.5q-9 0 -16.5 -2.5t-14 -7.5t-11 -11.5t-6.5 -15.5v-260h-190v454zM430 650q0 -31 -4 -60t-14 -51.5t-28 -36t-45 -13.5q-18 0 -30.5 4t-23 9.5t-21 9.5t-22.5 4
q-10 0 -16 -6.5t-6 -16.5h-100q0 31 4 60t14 51.5t28 36t45 13.5q18 0 30.5 -4t23 -9.5t21 -9.5t22.5 -4q10 0 16 6.5t6 16.5h100z" />
    <glyph glyph-name="ograve" unicode="&#xf2;" horiz-adv-x="504" 
d="M493 227q0 -53 -17.5 -96.5t-49 -75t-76 -48.5t-98.5 -17t-98 17t-76 48.5t-49.5 75t-17.5 96.5t17.5 96.5t49.5 75t76 48.5t98 17t98.5 -17t76 -48.5t49 -75t17.5 -96.5zM307 227q0 18 -3.5 33.5t-10.5 26t-17.5 16.5t-23.5 6t-23 -6t-17 -16.5t-10.5 -26t-3.5 -33.5
t3.5 -33.5t10.5 -26t17 -16.5t23 -6t23.5 6t17.5 16.5t10.5 26t3.5 33.5zM167 493l-85 157h176l85 -157h-176z" />
    <glyph glyph-name="oacute" unicode="&#xf3;" horiz-adv-x="504" 
d="M493 227q0 -53 -17.5 -96.5t-49 -75t-76 -48.5t-98.5 -17t-98 17t-76 48.5t-49.5 75t-17.5 96.5t17.5 96.5t49.5 75t76 48.5t98 17t98.5 -17t76 -48.5t49 -75t17.5 -96.5zM307 227q0 18 -3.5 33.5t-10.5 26t-17.5 16.5t-23.5 6t-23 -6t-17 -16.5t-10.5 -26t-3.5 -33.5
t3.5 -33.5t10.5 -26t17 -16.5t23 -6t23.5 6t17.5 16.5t10.5 26t3.5 33.5zM160 493l85 157h176l-85 -157h-176z" />
    <glyph glyph-name="ocircumflex" unicode="&#xf4;" horiz-adv-x="504" 
d="M493 227q0 -53 -17.5 -96.5t-49 -75t-76 -48.5t-98.5 -17t-98 17t-76 48.5t-49.5 75t-17.5 96.5t17.5 96.5t49.5 75t76 48.5t98 17t98.5 -17t76 -48.5t49 -75t17.5 -96.5zM307 227q0 18 -3.5 33.5t-10.5 26t-17.5 16.5t-23.5 6t-23 -6t-17 -16.5t-10.5 -26t-3.5 -33.5
t3.5 -33.5t10.5 -26t17 -16.5t23 -6t23.5 6t17.5 16.5t10.5 26t3.5 33.5zM417 493h-135l-30 41l-30 -41h-135l97 157h136z" />
    <glyph glyph-name="otilde" unicode="&#xf5;" horiz-adv-x="504" 
d="M493 227q0 -53 -17.5 -96.5t-49 -75t-76 -48.5t-98.5 -17t-98 17t-76 48.5t-49.5 75t-17.5 96.5t17.5 96.5t49.5 75t76 48.5t98 17t98.5 -17t76 -48.5t49 -75t17.5 -96.5zM307 227q0 18 -3.5 33.5t-10.5 26t-17.5 16.5t-23.5 6t-23 -6t-17 -16.5t-10.5 -26t-3.5 -33.5
t3.5 -33.5t10.5 -26t17 -16.5t23 -6t23.5 6t17.5 16.5t10.5 26t3.5 33.5zM407 650q0 -31 -4 -60t-14 -51.5t-28 -36t-45 -13.5q-18 0 -30.5 4t-23 9.5t-21 9.5t-22.5 4q-10 0 -16 -6.5t-6 -16.5h-100q0 31 4 60t14 51.5t28 36t45 13.5q18 0 30.5 -4t23 -9.5t21 -9.5t22.5 -4
q10 0 16 6.5t6 16.5h100z" />
    <glyph glyph-name="odieresis" unicode="&#xf6;" horiz-adv-x="504" 
d="M493 227q0 -53 -17.5 -96.5t-49 -75t-76 -48.5t-98.5 -17t-98 17t-76 48.5t-49.5 75t-17.5 96.5t17.5 96.5t49.5 75t76 48.5t98 17t98.5 -17t76 -48.5t49 -75t17.5 -96.5zM307 227q0 18 -3.5 33.5t-10.5 26t-17.5 16.5t-23.5 6t-23 -6t-17 -16.5t-10.5 -26t-3.5 -33.5
t3.5 -33.5t10.5 -26t17 -16.5t23 -6t23.5 6t17.5 16.5t10.5 26t3.5 33.5zM70 564q0 36 25.5 62t61.5 26q18 0 34 -7t28 -19t19 -28t7 -34q0 -36 -26 -61.5t-62 -25.5t-61.5 25.5t-25.5 61.5zM260 564q0 36 25.5 62t61.5 26q18 0 34 -7t28 -19t19 -28t7 -34q0 -36 -26 -61.5
t-62 -25.5t-61.5 25.5t-25.5 61.5z" />
    <glyph glyph-name="divide" unicode="&#xf7;" horiz-adv-x="551" 
d="M38 368h475v-137h-475v137zM185 486q0 37 26.5 62.5t64.5 25.5t64.5 -25.5t26.5 -62.5t-26.5 -62.5t-64.5 -25.5t-64.5 25.5t-26.5 62.5zM185 112q0 37 26.5 62.5t64.5 25.5t64.5 -25.5t26.5 -62.5t-26.5 -62.5t-64.5 -25.5t-64.5 25.5t-26.5 62.5z" />
    <glyph glyph-name="oslash" unicode="&#xf8;" horiz-adv-x="514" 
d="M446 464l42 -37l-43 -44q22 -26 35 -60q18 -43 18 -96t-17.5 -96.5t-49 -75t-76 -48.5t-98.5 -17t-98 17q-27 10 -50 26l-41 -43l-42 37l42 44q-21 26 -35 59q-17 44 -17 97t17.5 96.5t49.5 75t76 48.5t98 17t98 -17q27 -11 49 -26zM316 227q0 10 -2 19l-89 -93
q4 -4 8 -7q11 -6 24 -6t24 6.5t18.5 18.5t12 28t4.5 34zM281 307q-11 7 -24 7t-23.5 -6.5t-18 -18.5t-12 -28t-4.5 -34q0 -10 1 -19l89 93q-4 4 -8 6z" />
    <glyph glyph-name="ugrave" unicode="&#xf9;" horiz-adv-x="531" 
d="M500 0h-189v37q-19 -21 -51 -34t-70 -13q-74 0 -117 44.5t-43 120.5v299h190v-251q0 -20 10 -34.5t33 -14.5q16 0 29 10t18 27v263h190v-454zM180 493l-85 157h176l85 -157h-176z" />
    <glyph glyph-name="uacute" unicode="&#xfa;" horiz-adv-x="531" 
d="M500 0h-189v37q-19 -21 -51 -34t-70 -13q-74 0 -117 44.5t-43 120.5v299h190v-251q0 -20 10 -34.5t33 -14.5q16 0 29 10t18 27v263h190v-454zM173 493l85 157h176l-85 -157h-176z" />
    <glyph glyph-name="ucircumflex" unicode="&#xfb;" horiz-adv-x="531" 
d="M500 0h-189v37q-19 -21 -51 -34t-70 -13q-74 0 -117 44.5t-43 120.5v299h190v-251q0 -20 10 -34.5t33 -14.5q16 0 29 10t18 27v263h190v-454zM430 493h-135l-30 41l-30 -41h-135l97 157h136z" />
    <glyph glyph-name="udieresis" unicode="&#xfc;" horiz-adv-x="531" 
d="M500 0h-189v37q-19 -21 -51 -34t-70 -13q-74 0 -117 44.5t-43 120.5v299h190v-251q0 -20 10 -34.5t33 -14.5q16 0 29 10t18 27v263h190v-454zM83 564q0 36 25.5 62t61.5 26q18 0 34 -7t28 -19t19 -28t7 -34q0 -36 -26 -61.5t-62 -25.5t-61.5 25.5t-25.5 61.5zM273 564
q0 36 25.5 62t61.5 26q18 0 34 -7t28 -19t19 -28t7 -34q0 -36 -26 -61.5t-62 -25.5t-61.5 25.5t-25.5 61.5z" />
    <glyph glyph-name="yacute" unicode="&#xfd;" horiz-adv-x="518" 
d="M99 -153l68 177l-167 430h196l69 -215l66 215h187l-231 -607h-188zM175 493l85 157h176l-85 -157h-176z" />
    <glyph glyph-name="thorn" unicode="&#xfe;" horiz-adv-x="539" 
d="M221 -153h-190v803h190v-231q8 9 20 17t26 14t30.5 10t33.5 4q48 0 85 -18.5t62 -51t37.5 -75.5t12.5 -92t-12.5 -92t-37.5 -75.5t-62 -51t-85 -18.5q-17 0 -33.5 4t-30.5 10t-26 14t-20 17v-188zM221 182q6 -14 20.5 -23t32.5 -9q15 0 27 6t20 16t12.5 24t4.5 31
q0 16 -4.5 30.5t-12.5 24.5t-20 16t-27 6q-20 0 -33.5 -9t-19.5 -23v-90z" />
    <glyph glyph-name="ydieresis" unicode="&#xff;" horiz-adv-x="518" 
d="M99 -153l68 177l-167 430h196l69 -215l66 215h187l-231 -607h-188zM85 564q0 36 25.5 62t61.5 26q18 0 34 -7t28 -19t19 -28t7 -34q0 -36 -26 -61.5t-62 -25.5t-61.5 25.5t-25.5 61.5zM275 564q0 36 25.5 62t61.5 26q18 0 34 -7t28 -19t19 -28t7 -34q0 -36 -26 -61.5
t-62 -25.5t-61.5 25.5t-25.5 61.5z" />
    <glyph glyph-name="Amacron" unicode="&#x100;" horiz-adv-x="666" 
d="M434 614l232 -614h-196l-32 89h-216l-32 -89h-190l232 614h202zM279 246h102l-51 141zM189 788h289v-125h-289v125z" />
    <glyph glyph-name="amacron" unicode="&#x101;" horiz-adv-x="489" 
d="M282 0v22q-11 -11 -41.5 -20.5t-65.5 -9.5q-33 0 -62.5 9t-52 27t-35.5 45t-13 64q0 33 13.5 59.5t36.5 45t55 28.5t68 10q27 0 55 -7t42 -17v25q0 14 -8.5 26.5t-29.5 12.5q-17 0 -26 -7t-13 -17h-178q4 35 21.5 65.5t46 53.5t68 36.5t88.5 13.5q103 0 159 -51.5
t56 -145.5v-268h-184zM282 151q-3 5 -8.5 9t-12 7t-14.5 4.5t-17 1.5q-8 0 -16 -2t-14 -6t-10 -10t-4 -14t4 -14t10 -10t14 -6t16 -2q9 0 17 1.5t14.5 4.5t12 7t8.5 9v20zM123 618h269v-125h-269v125z" />
    <glyph glyph-name="Abreve" unicode="&#x102;" horiz-adv-x="666" 
d="M434 614l232 -614h-196l-32 89h-216l-32 -89h-190l232 614h202zM279 246h102l-51 141zM333 653q-33 0 -61 10t-49 30t-32.5 49.5t-11.5 69.5h129q0 -19 6.5 -28t18.5 -9q13 0 19.5 9t6.5 28h128q0 -40 -11.5 -69.5t-32.5 -49.5t-49 -30t-61 -10z" />
    <glyph glyph-name="abreve" unicode="&#x103;" horiz-adv-x="489" 
d="M282 0v22q-11 -11 -41.5 -20.5t-65.5 -9.5q-33 0 -62.5 9t-52 27t-35.5 45t-13 64q0 33 13.5 59.5t36.5 45t55 28.5t68 10q27 0 55 -7t42 -17v25q0 14 -8.5 26.5t-29.5 12.5q-17 0 -26 -7t-13 -17h-178q4 35 21.5 65.5t46 53.5t68 36.5t88.5 13.5q103 0 159 -51.5
t56 -145.5v-268h-184zM282 151q-3 5 -8.5 9t-12 7t-14.5 4.5t-17 1.5q-8 0 -16 -2t-14 -6t-10 -10t-4 -14t4 -14t10 -10t14 -6t16 -2q9 0 17 1.5t14.5 4.5t12 7t8.5 9v20zM257 484q-33 0 -61 10t-49 30t-32.5 49.5t-11.5 69.5h129q0 -19 6.5 -28t18.5 -9q13 0 19.5 9t6.5 28
h128q0 -40 -11.5 -69.5t-32.5 -49.5t-49 -30t-61 -10z" />
    <glyph glyph-name="Aogonek" unicode="&#x104;" horiz-adv-x="666" 
d="M434 614l232 -614q-16 -16 -26.5 -25.5t-16.5 -16t-8 -11t-2 -9.5q0 -8 5 -12t14 -4q8 0 15 3t19 10v-100q-14 -8 -30 -12.5t-39 -4.5q-20 0 -38.5 5t-32.5 15t-22.5 25.5t-8.5 37.5q0 14 4 26.5t11.5 24.5t18 24t22.5 24h-81l-32 89h-216l-32 -89h-190l232 614h202z
M279 246h102l-51 141z" />
    <glyph glyph-name="aogonek" unicode="&#x105;" horiz-adv-x="489" 
d="M282 151q-3 5 -8.5 9t-12 7t-14.5 4.5t-17 1.5q-8 0 -16 -2t-14 -6t-10 -10t-4 -14t4 -14t10 -10t14 -6t16 -2q9 0 17 1.5t14.5 4.5t12 7t8.5 9v20zM282 0v22q-11 -11 -41.5 -20.5t-65.5 -9.5q-33 0 -62.5 9t-52 27t-35.5 45t-13 64q0 33 13.5 59.5t36.5 45t55 28.5
t68 10q27 0 55 -7t42 -17v25q0 14 -8.5 26.5t-29.5 12.5q-17 0 -26 -7t-13 -17h-178q4 35 21.5 65.5t46 53.5t68 36.5t88.5 13.5q103 0 159 -51.5t56 -145.5v-268q-16 -16 -26.5 -25.5t-16.5 -16t-8 -11t-2 -9.5q0 -8 5 -12t14 -4q8 0 15 3t19 10v-100q-14 -8 -30 -12.5
t-39 -4.5q-20 0 -38.5 5t-32.5 15t-22.5 25.5t-8.5 37.5q0 14 4 26.5t11.5 24.5t18 24t22.5 24h-69z" />
    <glyph glyph-name="Cacute" unicode="&#x106;" horiz-adv-x="606" 
d="M14 307q0 69 22.5 127t62.5 100.5t96 66t123 23.5q61 0 108.5 -17.5t81.5 -47.5t55 -70.5t29 -87.5h-194q-8 25 -28.5 39.5t-51.5 14.5q-26 0 -46.5 -11t-34.5 -31t-21 -47t-7 -59t7 -59t21 -46.5t34.5 -31t46.5 -11.5q31 0 51.5 14.5t28.5 40.5h194q-8 -47 -29 -88
t-55 -71t-81.5 -47.5t-108.5 -17.5q-67 0 -123 23.5t-96 66t-62.5 100.5t-22.5 127zM232 663l85 137h186l-85 -137h-186z" />
    <glyph glyph-name="cacute" unicode="&#x107;" horiz-adv-x="482" 
d="M11 227q0 52 17 96t48 75t75 48.5t98 17.5q49 0 88 -14.5t67.5 -40t45 -61t21.5 -78.5h-182q-2 15 -11.5 26.5t-29.5 11.5q-11 0 -20.5 -5.5t-16 -15.5t-10 -25.5t-3.5 -34.5q0 -20 3.5 -35t10 -25t16 -15.5t20.5 -5.5q20 0 29.5 11.5t11.5 26.5h182q-5 -43 -21.5 -78.5
t-45 -61t-67.5 -40t-88 -14.5q-54 0 -98 17.5t-75 48.5t-48 74.5t-17 96.5zM157 493l85 157h176l-85 -157h-176z" />
    <glyph glyph-name="Ccircumflex" unicode="&#x108;" horiz-adv-x="606" 
d="M14 307q0 69 22.5 127t62.5 100.5t96 66t123 23.5q61 0 108.5 -17.5t81.5 -47.5t55 -70.5t29 -87.5h-194q-8 25 -28.5 39.5t-51.5 14.5q-26 0 -46.5 -11t-34.5 -31t-21 -47t-7 -59t7 -59t21 -46.5t34.5 -31t46.5 -11.5q31 0 51.5 14.5t28.5 40.5h194q-8 -47 -29 -88
t-55 -71t-81.5 -47.5t-108.5 -17.5q-67 0 -123 23.5t-96 66t-62.5 100.5t-22.5 127zM509 663h-149l-36 37l-36 -37h-149l117 137h136z" />
    <glyph glyph-name="ccircumflex" unicode="&#x109;" horiz-adv-x="482" 
d="M11 227q0 52 17 96t48 75t75 48.5t98 17.5q49 0 88 -14.5t67.5 -40t45 -61t21.5 -78.5h-182q-2 15 -11.5 26.5t-29.5 11.5q-11 0 -20.5 -5.5t-16 -15.5t-10 -25.5t-3.5 -34.5q0 -20 3.5 -35t10 -25t16 -15.5t20.5 -5.5q20 0 29.5 11.5t11.5 26.5h182q-5 -43 -21.5 -78.5
t-45 -61t-67.5 -40t-88 -14.5q-54 0 -98 17.5t-75 48.5t-48 74.5t-17 96.5zM414 493h-135l-30 41l-30 -41h-135l97 157h136z" />
    <glyph glyph-name="Cdotaccent" unicode="&#x10a;" horiz-adv-x="606" 
d="M14 307q0 69 22.5 127t62.5 100.5t96 66t123 23.5q61 0 108.5 -17.5t81.5 -47.5t55 -70.5t29 -87.5h-194q-8 25 -28.5 39.5t-51.5 14.5q-26 0 -46.5 -11t-34.5 -31t-21 -47t-7 -59t7 -59t21 -46.5t34.5 -31t46.5 -11.5q31 0 51.5 14.5t28.5 40.5h194q-8 -47 -29 -88
t-55 -71t-81.5 -47.5t-108.5 -17.5q-67 0 -123 23.5t-96 66t-62.5 100.5t-22.5 127zM429 751q0 -47 -31 -72.5t-74 -25.5t-74 25.5t-31 72.5t31 72.5t74 25.5t74 -25.5t31 -72.5z" />
    <glyph glyph-name="cdotaccent" unicode="&#x10b;" horiz-adv-x="482" 
d="M11 227q0 52 17 96t48 75t75 48.5t98 17.5q49 0 88 -14.5t67.5 -40t45 -61t21.5 -78.5h-182q-2 15 -11.5 26.5t-29.5 11.5q-11 0 -20.5 -5.5t-16 -15.5t-10 -25.5t-3.5 -34.5q0 -20 3.5 -35t10 -25t16 -15.5t20.5 -5.5q20 0 29.5 11.5t11.5 26.5h182q-5 -43 -21.5 -78.5
t-45 -61t-67.5 -40t-88 -14.5q-54 0 -98 17.5t-75 48.5t-48 74.5t-17 96.5zM354 580q0 -47 -31 -72.5t-74 -25.5t-74 25.5t-31 72.5t31 72.5t74 25.5t74 -25.5t31 -72.5z" />
    <glyph glyph-name="Ccaron" unicode="&#x10c;" horiz-adv-x="606" 
d="M14 307q0 69 22.5 127t62.5 100.5t96 66t123 23.5q61 0 108.5 -17.5t81.5 -47.5t55 -70.5t29 -87.5h-194q-8 25 -28.5 39.5t-51.5 14.5q-26 0 -46.5 -11t-34.5 -31t-21 -47t-7 -59t7 -59t21 -46.5t34.5 -31t46.5 -11.5q31 0 51.5 14.5t28.5 40.5h194q-8 -47 -29 -88
t-55 -71t-81.5 -47.5t-108.5 -17.5q-67 0 -123 23.5t-96 66t-62.5 100.5t-22.5 127zM140 796h149l36 -37l36 37h149l-117 -137h-136z" />
    <glyph glyph-name="ccaron" unicode="&#x10d;" horiz-adv-x="482" 
d="M11 227q0 52 17 96t48 75t75 48.5t98 17.5q49 0 88 -14.5t67.5 -40t45 -61t21.5 -78.5h-182q-2 15 -11.5 26.5t-29.5 11.5q-11 0 -20.5 -5.5t-16 -15.5t-10 -25.5t-3.5 -34.5q0 -20 3.5 -35t10 -25t16 -15.5t20.5 -5.5q20 0 29.5 11.5t11.5 26.5h182q-5 -43 -21.5 -78.5
t-45 -61t-67.5 -40t-88 -14.5q-54 0 -98 17.5t-75 48.5t-48 74.5t-17 96.5zM317 493h-136l-97 157h135l30 -41l30 41h135z" />
    <glyph glyph-name="Dcaron" unicode="&#x10e;" horiz-adv-x="610" 
d="M270 166q32 0 57 10t42.5 28.5t26.5 44.5t9 58q0 33 -9 59t-26.5 44.5t-42.5 28.5t-57 10h-47v-283h47zM33 614h247q75 0 133.5 -21.5t99 -61.5t62 -97t21.5 -127t-21.5 -127t-62 -97t-99 -61.5t-133.5 -21.5h-247v614zM81 796h149l36 -37l36 37h149l-117 -137h-136z" />
    <glyph glyph-name="dcaron" unicode="&#x10f;" horiz-adv-x="539" 
d="M318 35q-8 -9 -20 -17t-26 -14t-30.5 -10t-33.5 -4q-48 0 -85 18.5t-62 51t-37.5 75.5t-12.5 92t12.5 92t37.5 75.5t62 51t85 18.5q17 0 33.5 -4t30.5 -10t26 -14t20 -17v231h190v-650h-190v35zM318 272q-6 14 -20.5 23t-32.5 9q-15 0 -27 -6t-20 -16t-12.5 -24.5
t-4.5 -30.5q0 -17 4.5 -31t12.5 -24t20 -16t27 -6q20 0 33.5 9t19.5 23v90zM527 483l48 167h148l-50 -167h-146z" />
    <glyph glyph-name="Dcroat" unicode="&#x110;" horiz-adv-x="627" 
d="M10 384h40v230h247q75 0 133.5 -21.5t99 -61.5t62 -97t21.5 -127t-21.5 -127t-62 -97t-99 -61.5t-133.5 -21.5h-247v239h-40v145zM287 166q32 0 57 10t42.5 28.5t26.5 44.5t9 58q0 33 -9 59t-26.5 44.5t-42.5 28.5t-57 10h-47v-65h70v-145h-70v-73h47z" />
    <glyph glyph-name="dcroat" unicode="&#x111;" horiz-adv-x="539" 
d="M318 35q-8 -9 -20 -17t-26 -14t-30.5 -10t-33.5 -4q-48 0 -85 18.5t-62 51t-37.5 75.5t-12.5 92t12.5 92t37.5 75.5t62 51t85 18.5q17 0 33.5 -4t30.5 -10t26 -14t20 -17v64h-71v121h71v46h190v-46h40v-121h-40v-483h-190v35zM318 272q-6 14 -20.5 23t-32.5 9
q-15 0 -27 -6t-20 -16t-12.5 -24.5t-4.5 -30.5q0 -17 4.5 -31t12.5 -24t20 -16t27 -6q20 0 33.5 9t19.5 23v90z" />
    <glyph glyph-name="Emacron" unicode="&#x112;" horiz-adv-x="522" 
d="M495 614v-165h-271v-58h248v-160h-248v-65h271v-166h-462v614h462zM126 788h289v-125h-289v125z" />
    <glyph glyph-name="emacron" unicode="&#x113;" horiz-adv-x="487" 
d="M476 168q-13 -85 -72.5 -131.5t-153.5 -46.5q-55 0 -99 17t-75 48.5t-48 75t-17 96.5q0 54 17.5 97.5t49 74.5t75 48t94.5 17q55 0 97.5 -17t71.5 -47t44.5 -72.5t15.5 -93.5v-42h-284q3 -15 7.5 -25.5t11.5 -18t17 -11t22 -3.5q17 0 30.5 8t18.5 26h177zM247 320
q-10 0 -18 -3.5t-14.5 -9.5t-11 -14.5t-7.5 -19.5h98q-2 10 -5.5 18.5t-9.5 15t-14 10t-18 3.5zM118 618h269v-125h-269v125z" />
    <glyph glyph-name="Ebreve" unicode="&#x114;" horiz-adv-x="522" 
d="M495 614v-165h-271v-58h248v-160h-248v-65h271v-166h-462v614h462zM270 653q-33 0 -61 10t-49 30t-32.5 49.5t-11.5 69.5h129q0 -19 6.5 -28t18.5 -9q13 0 19.5 9t6.5 28h128q0 -40 -11.5 -69.5t-32.5 -49.5t-49 -30t-61 -10z" />
    <glyph glyph-name="ebreve" unicode="&#x115;" horiz-adv-x="487" 
d="M476 168q-13 -85 -72.5 -131.5t-153.5 -46.5q-55 0 -99 17t-75 48.5t-48 75t-17 96.5q0 54 17.5 97.5t49 74.5t75 48t94.5 17q55 0 97.5 -17t71.5 -47t44.5 -72.5t15.5 -93.5v-42h-284q3 -15 7.5 -25.5t11.5 -18t17 -11t22 -3.5q17 0 30.5 8t18.5 26h177zM247 320
q-10 0 -18 -3.5t-14.5 -9.5t-11 -14.5t-7.5 -19.5h98q-2 10 -5.5 18.5t-9.5 15t-14 10t-18 3.5zM252 484q-33 0 -61 10t-49 30t-32.5 49.5t-11.5 69.5h129q0 -19 6.5 -28t18.5 -9q13 0 19.5 9t6.5 28h128q0 -40 -11.5 -69.5t-32.5 -49.5t-49 -30t-61 -10z" />
    <glyph glyph-name="Edotaccent" unicode="&#x116;" horiz-adv-x="522" 
d="M495 614v-165h-271v-58h248v-160h-248v-65h271v-166h-462v614h462zM375 751q0 -47 -31 -72.5t-74 -25.5t-74 25.5t-31 72.5t31 72.5t74 25.5t74 -25.5t31 -72.5z" />
    <glyph glyph-name="edotaccent" unicode="&#x117;" horiz-adv-x="487" 
d="M476 168q-13 -85 -72.5 -131.5t-153.5 -46.5q-55 0 -99 17t-75 48.5t-48 75t-17 96.5q0 54 17.5 97.5t49 74.5t75 48t94.5 17q55 0 97.5 -17t71.5 -47t44.5 -72.5t15.5 -93.5v-42h-284q3 -15 7.5 -25.5t11.5 -18t17 -11t22 -3.5q17 0 30.5 8t18.5 26h177zM247 320
q-10 0 -18 -3.5t-14.5 -9.5t-11 -14.5t-7.5 -19.5h98q-2 10 -5.5 18.5t-9.5 15t-14 10t-18 3.5zM357 580q0 -47 -31 -72.5t-74 -25.5t-74 25.5t-31 72.5t31 72.5t74 25.5t74 -25.5t31 -72.5z" />
    <glyph glyph-name="Eogonek" unicode="&#x118;" horiz-adv-x="522" 
d="M495 614v-165h-271v-58h248v-160h-248v-65h271v-166h-462v614h462zM468 10l-29.5 -30.5l-18.5 -19t-9.5 -12.5t-2.5 -10q0 -8 5 -12t14 -4q8 0 15 3t19 10v-100q-14 -8 -30 -12.5t-39 -4.5q-20 0 -38.5 5t-32.5 15t-22.5 25.5t-8.5 37.5q0 15 5 29t14 27.5t21 26.5l27 26
h111z" />
    <glyph glyph-name="eogonek" unicode="&#x119;" horiz-adv-x="487" 
d="M357 -10q-5 -7 -10 -12q-16 -22 -16 -40q0 -8 5 -12t14 -4q8 0 15 3t19 10v-100q-14 -8 -30 -12.5t-39 -4.5q-20 0 -38.5 5t-32.5 15t-22.5 25.5t-8.5 37.5q0 25 13 46.5t33 42.5h-9q-55 0 -99 17t-75 48.5t-48 75t-17 96.5q0 54 17.5 97.5t49 74.5t75 48t94.5 17
q55 0 97.5 -17t71.5 -47t44.5 -72.5t15.5 -93.5v-42h-284q3 -15 7.5 -25.5t11.5 -18t17 -11t22 -3.5q17 0 30.5 8t18.5 26h177q-5 -43 -23.5 -75t-46.5 -57q-31 -28 -49 -46zM247 320q-10 0 -18 -3.5t-14.5 -9.5t-11 -14.5t-7.5 -19.5h98q-2 10 -5.5 18.5t-9.5 15t-14 10
t-18 3.5z" />
    <glyph glyph-name="Ecaron" unicode="&#x11a;" horiz-adv-x="522" 
d="M495 614v-165h-271v-58h248v-160h-248v-65h271v-166h-462v614h462zM85 796h149l36 -37l36 37h149l-117 -137h-136z" />
    <glyph glyph-name="ecaron" unicode="&#x11b;" horiz-adv-x="487" 
d="M476 168q-13 -85 -72.5 -131.5t-153.5 -46.5q-55 0 -99 17t-75 48.5t-48 75t-17 96.5q0 54 17.5 97.5t49 74.5t75 48t94.5 17q55 0 97.5 -17t71.5 -47t44.5 -72.5t15.5 -93.5v-42h-284q3 -15 7.5 -25.5t11.5 -18t17 -11t22 -3.5q17 0 30.5 8t18.5 26h177zM247 320
q-10 0 -18 -3.5t-14.5 -9.5t-11 -14.5t-7.5 -19.5h98q-2 10 -5.5 18.5t-9.5 15t-14 10t-18 3.5zM320 493h-136l-97 157h135l30 -41l30 41h135z" />
    <glyph glyph-name="Gcircumflex" unicode="&#x11c;" horiz-adv-x="625" 
d="M344 197v137h267v-68q0 -64 -20.5 -115t-57.5 -87t-89.5 -55t-116.5 -19q-70 0 -127.5 23.5t-99 65.5t-64 100t-22.5 128t22.5 128t64 100t99 65.5t127.5 23.5q63 0 112 -17t84 -47t57 -71t30 -89h-199q-9 26 -30.5 40.5t-53.5 14.5q-29 0 -51 -11t-37 -31t-22.5 -47
t-7.5 -59q0 -34 8 -61.5t23.5 -46.5t37.5 -29.5t49 -10.5q32 0 59.5 9.5t39.5 28.5h-82zM515 663h-149l-36 37l-36 -37h-149l117 137h136z" />
    <glyph glyph-name="gcircumflex" unicode="&#x11d;" horiz-adv-x="526" 
d="M308 71q-7 -9 -17 -16.5t-23 -13.5t-28.5 -9.5t-33.5 -3.5q-47 0 -83 16t-61 45t-38 69t-13 88t13 88t38 69t61 45t83 16q18 0 33.5 -3.5t28.5 -9.5t23 -13.5t17 -16.5v33h188v-373q0 -61 -18 -106.5t-51 -76t-78.5 -46t-100.5 -15.5q-47 0 -87 11t-71 32.5t-51.5 52.5
t-27.5 72h182q6 -17 20 -25.5t35 -8.5q26 0 43 13.5t17 46.5v40zM308 289q-6 11 -19.5 20t-31.5 9q-14 0 -25 -5t-19 -14.5t-12 -23t-4 -29.5t4 -29.5t12 -23t19 -14.5t25 -5q18 0 31.5 9t19.5 20v86zM450 493h-135l-30 41l-30 -41h-135l97 157h136z" />
    <glyph glyph-name="Gbreve" unicode="&#x11e;" horiz-adv-x="625" 
d="M344 197v137h267v-68q0 -64 -20.5 -115t-57.5 -87t-89.5 -55t-116.5 -19q-70 0 -127.5 23.5t-99 65.5t-64 100t-22.5 128t22.5 128t64 100t99 65.5t127.5 23.5q63 0 112 -17t84 -47t57 -71t30 -89h-199q-9 26 -30.5 40.5t-53.5 14.5q-29 0 -51 -11t-37 -31t-22.5 -47
t-7.5 -59q0 -34 8 -61.5t23.5 -46.5t37.5 -29.5t49 -10.5q32 0 59.5 9.5t39.5 28.5h-82zM330 653q-33 0 -61 10t-49 30t-32.5 49.5t-11.5 69.5h129q0 -19 6.5 -28t18.5 -9q13 0 19.5 9t6.5 28h128q0 -40 -11.5 -69.5t-32.5 -49.5t-49 -30t-61 -10z" />
    <glyph glyph-name="gbreve" unicode="&#x11f;" horiz-adv-x="526" 
d="M308 71q-7 -9 -17 -16.5t-23 -13.5t-28.5 -9.5t-33.5 -3.5q-47 0 -83 16t-61 45t-38 69t-13 88t13 88t38 69t61 45t83 16q18 0 33.5 -3.5t28.5 -9.5t23 -13.5t17 -16.5v33h188v-373q0 -61 -18 -106.5t-51 -76t-78.5 -46t-100.5 -15.5q-47 0 -87 11t-71 32.5t-51.5 52.5
t-27.5 72h182q6 -17 20 -25.5t35 -8.5q26 0 43 13.5t17 46.5v40zM308 289q-6 11 -19.5 20t-31.5 9q-14 0 -25 -5t-19 -14.5t-12 -23t-4 -29.5t4 -29.5t12 -23t19 -14.5t25 -5q18 0 31.5 9t19.5 20v86zM285 484q-33 0 -61 10t-49 30t-32.5 49.5t-11.5 69.5h129q0 -19 6.5 -28
t18.5 -9q13 0 19.5 9t6.5 28h128q0 -40 -11.5 -69.5t-32.5 -49.5t-49 -30t-61 -10z" />
    <glyph glyph-name="Gdotaccent" unicode="&#x120;" horiz-adv-x="625" 
d="M344 197v137h267v-68q0 -64 -20.5 -115t-57.5 -87t-89.5 -55t-116.5 -19q-70 0 -127.5 23.5t-99 65.5t-64 100t-22.5 128t22.5 128t64 100t99 65.5t127.5 23.5q63 0 112 -17t84 -47t57 -71t30 -89h-199q-9 26 -30.5 40.5t-53.5 14.5q-29 0 -51 -11t-37 -31t-22.5 -47
t-7.5 -59q0 -34 8 -61.5t23.5 -46.5t37.5 -29.5t49 -10.5q32 0 59.5 9.5t39.5 28.5h-82zM435 751q0 -47 -31 -72.5t-74 -25.5t-74 25.5t-31 72.5t31 72.5t74 25.5t74 -25.5t31 -72.5z" />
    <glyph glyph-name="gdotaccent" unicode="&#x121;" horiz-adv-x="526" 
d="M308 71q-7 -9 -17 -16.5t-23 -13.5t-28.5 -9.5t-33.5 -3.5q-47 0 -83 16t-61 45t-38 69t-13 88t13 88t38 69t61 45t83 16q18 0 33.5 -3.5t28.5 -9.5t23 -13.5t17 -16.5v33h188v-373q0 -61 -18 -106.5t-51 -76t-78.5 -46t-100.5 -15.5q-47 0 -87 11t-71 32.5t-51.5 52.5
t-27.5 72h182q6 -17 20 -25.5t35 -8.5q26 0 43 13.5t17 46.5v40zM308 289q-6 11 -19.5 20t-31.5 9q-14 0 -25 -5t-19 -14.5t-12 -23t-4 -29.5t4 -29.5t12 -23t19 -14.5t25 -5q18 0 31.5 9t19.5 20v86zM390 580q0 -47 -31 -72.5t-74 -25.5t-74 25.5t-31 72.5t31 72.5t74 25.5
t74 -25.5t31 -72.5z" />
    <glyph glyph-name="Gcommaaccent" unicode="&#x122;" horiz-adv-x="625" 
d="M344 197v137h267v-68q0 -64 -20.5 -115t-57.5 -87t-89.5 -55t-116.5 -19q-70 0 -127.5 23.5t-99 65.5t-64 100t-22.5 128t22.5 128t64 100t99 65.5t127.5 23.5q63 0 112 -17t84 -47t57 -71t30 -89h-199q-9 26 -30.5 40.5t-53.5 14.5q-29 0 -51 -11t-37 -31t-22.5 -47
t-7.5 -59q0 -34 8 -61.5t23.5 -46.5t37.5 -29.5t49 -10.5q32 0 59.5 9.5t39.5 28.5h-82zM283 -181q-19 8 -33 26.5t-14 47.5q0 35 26 58t66 23q36 0 64 -23t28 -65q0 -29 -12.5 -51.5t-32.5 -45.5l-30 -36h-116z" />
    <glyph glyph-name="gcommaaccent" unicode="&#x123;" horiz-adv-x="526" 
d="M308 71q-7 -9 -17 -16.5t-23 -13.5t-28.5 -9.5t-33.5 -3.5q-47 0 -83 16t-61 45t-38 69t-13 88t13 88t38 69t61 45t83 16q18 0 33.5 -3.5t28.5 -9.5t23 -13.5t17 -16.5v33h188v-373q0 -61 -18 -106.5t-51 -76t-78.5 -46t-100.5 -15.5q-47 0 -87 11t-71 32.5t-51.5 52.5
t-27.5 72h182q6 -17 20 -25.5t35 -8.5q26 0 43 13.5t17 46.5v40zM308 289q-6 11 -19.5 20t-31.5 9q-14 0 -25 -5t-19 -14.5t-12 -23t-4 -29.5t4 -29.5t12 -23t19 -14.5t25 -5q18 0 31.5 9t19.5 20v86zM325 626q19 -8 33 -26.5t14 -47.5q0 -35 -26 -58t-66 -23q-36 0 -64 23
t-28 65q0 29 12.5 51.5t32.5 45.5l34 40h116z" />
    <glyph glyph-name="Hcircumflex" unicode="&#x124;" horiz-adv-x="649" 
d="M616 614v-614h-194v228h-195v-228h-194v614h194v-221h195v221h194zM509 663h-149l-36 37l-36 -37h-149l117 137h136z" />
    <glyph glyph-name="hcircumflex" unicode="&#x125;" horiz-adv-x="533" 
d="M31 650h190v-233q19 21 51 34t70 13q75 0 118 -44.5t43 -120.5v-299h-190v248q0 20 -11 34.5t-33 14.5q-9 0 -16.5 -2.5t-14 -7.5t-11 -11.5t-6.5 -15.5v-260h-190v650zM446 673h-149l-36 37l-36 -37h-149l117 137h136z" />
    <glyph glyph-name="Hbar" unicode="&#x126;" horiz-adv-x="683" 
d="M10 549h40v65h194v-65h195v65h194v-65h40v-145h-40v-404h-194v180h-195v-180h-194v404h-40v145zM439 325v79h-195v-79h195z" />
    <glyph glyph-name="hbar" unicode="&#x127;" horiz-adv-x="533" 
d="M-9 604h40v46h190v-46h71v-121h-71v-66q19 21 51 34t70 13q75 0 118 -44.5t43 -120.5v-299h-190v248q0 20 -11 34.5t-33 14.5q-9 0 -16.5 -2.5t-14 -7.5t-11 -11.5t-6.5 -15.5v-260h-190v483h-40v121z" />
    <glyph glyph-name="Itilde" unicode="&#x128;" horiz-adv-x="260" 
d="M227 0h-194v614h194v-614zM295 816q0 -31 -4 -60t-14 -51.5t-28 -36t-45 -13.5q-18 0 -33.5 4t-30 9.5t-28 9.5t-25.5 4q-10 0 -16 -6.5t-6 -16.5h-100q0 31 4 60t14 51.5t28 36t45 13.5q18 0 33.5 -4t30 -9.5t28 -9.5t25.5 -4q10 0 16 6.5t6 16.5h100z" />
    <glyph glyph-name="itilde" unicode="&#x129;" horiz-adv-x="252" 
d="M260 650q0 -31 -3.5 -60t-12 -51.5t-24 -36t-39.5 -13.5q-15 0 -25 4t-18 9.5t-16 9.5t-18 4q-9 0 -14 -6.5t-5 -16.5h-93q0 31 3.5 60t12 51.5t24 36t39.5 13.5q15 0 25 -4t18 -9.5t15.5 -9.5t18.5 -4q9 0 14 6.5t5 16.5h93zM221 0h-190v454h190v-454z" />
    <glyph glyph-name="Imacron" unicode="&#x12a;" horiz-adv-x="260" 
d="M227 0h-194v614h194v-614zM-14 788h289v-125h-289v125z" />
    <glyph glyph-name="imacron" unicode="&#x12b;" horiz-adv-x="252" 
d="M8 618h236v-125h-236v125zM221 0h-190v454h190v-454z" />
    <glyph glyph-name="Ibreve" unicode="&#x12c;" horiz-adv-x="260" 
d="M227 0h-194v614h194v-614zM130 653q-33 0 -61 10t-49 30t-32.5 49.5t-11.5 69.5h129q0 -19 6.5 -28t18.5 -9q13 0 19.5 9t6.5 28h128q0 -40 -11.5 -69.5t-32.5 -49.5t-49 -30t-61 -10z" />
    <glyph glyph-name="ibreve" unicode="&#x12d;" horiz-adv-x="252" 
d="M125 484q-59 0 -97.5 39.5t-38.5 119.5h114q0 -19 6 -28t17 -9q12 0 17.5 9t5.5 28h114q0 -80 -39.5 -119.5t-98.5 -39.5zM221 0h-190v454h190v-454z" />
    <glyph glyph-name="Iogonek" unicode="&#x12e;" horiz-adv-x="260" 
d="M227 0q-16 -16 -26.5 -25.5t-16.5 -16t-8 -11t-2 -9.5q0 -8 5 -12t14 -4q8 0 15 3t19 10v-100q-14 -8 -30 -12.5t-39 -4.5q-20 0 -38.5 5t-32.5 15t-22.5 25.5t-8.5 37.5q0 14 4 26.5t11.5 24.5t18 24t22.5 24h-79v614h194v-614z" />
    <glyph glyph-name="iogonek" unicode="&#x12f;" horiz-adv-x="252" 
d="M221 0q-16 -16 -26.5 -25.5t-16.5 -16t-8 -11t-2 -9.5q0 -8 5 -12t14 -4q8 0 15 3t19 10v-100q-14 -8 -30 -12.5t-39 -4.5q-20 0 -38.5 5t-32.5 15t-22.5 25.5t-8.5 37.5q0 14 4 26.5t11.5 24.5t18 24t22.5 24h-75v454h190v-454zM231 569q0 -47 -31 -72.5t-74 -25.5
t-74 25.5t-31 72.5t31 72.5t74 25.5t74 -25.5t31 -72.5z" />
    <glyph glyph-name="Idotaccent" unicode="&#x130;" horiz-adv-x="260" 
d="M227 0h-194v614h194v-614zM235 751q0 -47 -31 -72.5t-74 -25.5t-74 25.5t-31 72.5t31 72.5t74 25.5t74 -25.5t31 -72.5z" />
    <glyph glyph-name="dotlessi" unicode="&#x131;" horiz-adv-x="252" 
d="M221 0h-190v454h190v-454z" />
    <glyph glyph-name="Jcircumflex" unicode="&#x134;" horiz-adv-x="573" 
d="M210 240q1 -38 19.5 -58t50.5 -20q19 0 33 6t22 17.5t12 28t4 38.5v362h194v-364q0 -69 -20.5 -118.5t-56.5 -81t-84.5 -46t-103.5 -14.5q-60 0 -108.5 18t-83 51t-53.5 79t-20 102h195zM633 663h-149l-36 37l-36 -37h-149l117 137h136z" />
    <glyph glyph-name="jcircumflex" unicode="&#x135;" horiz-adv-x="252" 
d="M275 493h-129l-20 51l-20 -51h-129l81 157h136zM221 40q0 -97 -47.5 -150t-139.5 -53q-23 0 -38.5 2t-28.5 6v139q5 -1 9 -1.5t10 -0.5q11 0 19.5 2t14 7t8.5 13.5t3 21.5v428h190v-414z" />
    <glyph glyph-name="Kcommaaccent" unicode="&#x136;" horiz-adv-x="623" 
d="M227 386l165 228h222l-196 -264l205 -350h-224l-127 220l-45 -61v-159h-194v614h194v-228zM263 -181q-19 8 -33 26.5t-14 47.5q0 35 26 58t66 23q36 0 64 -23t28 -65q0 -29 -12.5 -51.5t-32.5 -45.5l-30 -36h-116z" />
    <glyph glyph-name="kcommaaccent" unicode="&#x137;" horiz-adv-x="548" 
d="M244 154l-23 -31v-123h-190v650h190v-319l98 123h224l-160 -185l164 -269h-215zM216 -181q-19 8 -33 26.5t-14 47.5q0 35 26 58t66 23q36 0 64 -23t28 -65q0 -29 -12.5 -51.5t-32.5 -45.5l-30 -36h-116z" />
    <glyph glyph-name="kgreenlandic" unicode="&#x138;" horiz-adv-x="548" 
d="M244 154l-23 -31v-123h-190v454h190v-123l98 123h224l-160 -185l164 -269h-215z" />
    <glyph glyph-name="Lacute" unicode="&#x139;" horiz-adv-x="513" 
d="M33 614h194v-448h264v-166h-458v614zM45 663l85 137h186l-85 -137h-186z" />
    <glyph glyph-name="lacute" unicode="&#x13a;" horiz-adv-x="252" 
d="M221 0h-190v650h190v-650zM31 675l85 137h186l-85 -137h-186z" />
    <glyph glyph-name="Lcommaaccent" unicode="&#x13b;" horiz-adv-x="513" 
d="M33 614h194v-448h264v-166h-458v614zM215 -181q-19 8 -33 26.5t-14 47.5q0 35 26 58t66 23q36 0 64 -23t28 -65q0 -29 -12.5 -51.5t-32.5 -45.5l-30 -36h-116z" />
    <glyph glyph-name="lcommaaccent" unicode="&#x13c;" horiz-adv-x="252" 
d="M221 0h-190v650h190v-650zM79 -181q-19 8 -33 26.5t-14 47.5q0 35 26 58t66 23q36 0 64 -23t28 -65q0 -29 -12.5 -51.5t-32.5 -45.5l-30 -36h-116z" />
    <glyph glyph-name="Lcaron" unicode="&#x13d;" horiz-adv-x="513" 
d="M33 614h194v-448h264v-166h-458v614zM268 447l48 167h148l-50 -167h-146z" />
    <glyph glyph-name="lcaron" unicode="&#x13e;" horiz-adv-x="252" 
d="M221 0h-190v650h190v-650zM240 483l48 167h148l-50 -167h-146z" />
    <glyph glyph-name="Ldot" unicode="&#x13f;" horiz-adv-x="513" 
d="M33 614h194v-448h264v-166h-458v614zM483 370q0 -47 -31 -72.5t-74 -25.5t-74 25.5t-31 72.5t31 72.5t74 25.5t74 -25.5t31 -72.5z" />
    <glyph glyph-name="ldot" unicode="&#x140;" horiz-adv-x="462" 
d="M221 0h-190v650h190v-650zM462 336q0 -47 -31 -72.5t-74 -25.5t-74 25.5t-31 72.5t31 72.5t74 25.5t74 -25.5t31 -72.5z" />
    <glyph glyph-name="Lslash" unicode="&#x141;" horiz-adv-x="520" 
d="M0 328l40 16v270h194v-200l104 41v-142l-104 -41v-106h264v-166h-458v201l-40 -15v142z" />
    <glyph glyph-name="lslash" unicode="&#x142;" horiz-adv-x="310" 
d="M250 0h-190v203l-50 -29v132l50 29v315h190v-217l50 29v-132l-50 -29v-301z" />
    <glyph glyph-name="Nacute" unicode="&#x143;" horiz-adv-x="636" 
d="M603 0h-159l-224 307v-307h-187v614h181l202 -286v286h187v-614zM223 663l85 137h186l-85 -137h-186z" />
    <glyph glyph-name="nacute" unicode="&#x144;" horiz-adv-x="533" 
d="M31 454h190v-37q19 21 51 34t70 13q75 0 118 -44.5t43 -120.5v-299h-190v248q0 20 -11 34.5t-33 14.5q-9 0 -16.5 -2.5t-14 -7.5t-11 -11.5t-6.5 -15.5v-260h-190v454zM183 493l85 157h176l-85 -157h-176z" />
    <glyph glyph-name="Ncommaaccent" unicode="&#x145;" horiz-adv-x="636" 
d="M603 0h-159l-224 307v-307h-187v614h181l202 -286v286h187v-614zM271 -181q-19 8 -33 26.5t-14 47.5q0 35 26 58t66 23q36 0 64 -23t28 -65q0 -29 -12.5 -51.5t-32.5 -45.5l-30 -36h-116z" />
    <glyph glyph-name="ncommaaccent" unicode="&#x146;" horiz-adv-x="533" 
d="M31 454h190v-37q19 21 51 34t70 13q75 0 118 -44.5t43 -120.5v-299h-190v248q0 20 -11 34.5t-33 14.5q-9 0 -16.5 -2.5t-14 -7.5t-11 -11.5t-6.5 -15.5v-260h-190v454zM222 -181q-19 8 -33 26.5t-14 47.5q0 35 26 58t66 23q36 0 64 -23t28 -65q0 -29 -12.5 -51.5
t-32.5 -45.5l-30 -36h-116z" />
    <glyph glyph-name="Ncaron" unicode="&#x147;" horiz-adv-x="636" 
d="M603 0h-159l-224 307v-307h-187v614h181l202 -286v286h187v-614zM133 796h149l36 -37l36 37h149l-117 -137h-136z" />
    <glyph glyph-name="ncaron" unicode="&#x148;" horiz-adv-x="533" 
d="M31 454h190v-37q19 21 51 34t70 13q75 0 118 -44.5t43 -120.5v-299h-190v248q0 20 -11 34.5t-33 14.5q-9 0 -16.5 -2.5t-14 -7.5t-11 -11.5t-6.5 -15.5v-260h-190v454zM343 493h-136l-97 157h135l30 -41l30 41h135z" />
    <glyph glyph-name="Eng" unicode="&#x14a;" horiz-adv-x="636" 
d="M286 10q12 -4 25 -6t27 -2q31 0 46.5 12.5t20.5 37.5l-185 255v-307h-187v614h181l202 -286v286h187v-549q0 -60 -17 -103t-47.5 -71t-73 -41t-93.5 -13q-24 0 -45 3.5t-41 8.5v161z" />
    <glyph glyph-name="eng" unicode="&#x14b;" horiz-adv-x="533" 
d="M313 248q0 20 -11 34.5t-33 14.5q-9 0 -16.5 -2.5t-14 -7.5t-11 -11.5t-6.5 -15.5v-260h-190v454h190v-37q19 21 51 34t70 13q75 0 118 -44.5t43 -120.5v-259q0 -97 -47.5 -150t-139.5 -53q-23 0 -38.5 2t-28.5 6v139q5 -1 9 -1.5t10 -0.5q11 0 19.5 2t14 7t8.5 13.5
t3 21.5v222z" />
    <glyph glyph-name="Omacron" unicode="&#x14c;" horiz-adv-x="647" 
d="M633 307q0 -69 -22.5 -127t-63.5 -100t-98 -66t-126 -24t-126 24t-97.5 66t-63 100t-22.5 127t22.5 127t63 100.5t97.5 66t126 23.5t126 -23.5t98 -66t63.5 -100.5t22.5 -127zM438 307q0 34 -8.5 61.5t-23.5 47t-36.5 29.5t-46.5 10q-26 0 -47 -10t-36 -29.5t-23 -47
t-8 -61.5q0 -35 8 -62t23 -46.5t36 -29.5t47 -10q25 0 46.5 10t36.5 29.5t23.5 46.5t8.5 62zM179 788h289v-125h-289v125z" />
    <glyph glyph-name="omacron" unicode="&#x14d;" horiz-adv-x="504" 
d="M493 227q0 -53 -17.5 -96.5t-49 -75t-76 -48.5t-98.5 -17t-98 17t-76 48.5t-49.5 75t-17.5 96.5t17.5 96.5t49.5 75t76 48.5t98 17t98.5 -17t76 -48.5t49 -75t17.5 -96.5zM307 227q0 18 -3.5 33.5t-10.5 26t-17.5 16.5t-23.5 6t-23 -6t-17 -16.5t-10.5 -26t-3.5 -33.5
t3.5 -33.5t10.5 -26t17 -16.5t23 -6t23.5 6t17.5 16.5t10.5 26t3.5 33.5zM118 618h269v-125h-269v125z" />
    <glyph glyph-name="Obreve" unicode="&#x14e;" horiz-adv-x="647" 
d="M633 307q0 -69 -22.5 -127t-63.5 -100t-98 -66t-126 -24t-126 24t-97.5 66t-63 100t-22.5 127t22.5 127t63 100.5t97.5 66t126 23.5t126 -23.5t98 -66t63.5 -100.5t22.5 -127zM438 307q0 34 -8.5 61.5t-23.5 47t-36.5 29.5t-46.5 10q-26 0 -47 -10t-36 -29.5t-23 -47
t-8 -61.5q0 -35 8 -62t23 -46.5t36 -29.5t47 -10q25 0 46.5 10t36.5 29.5t23.5 46.5t8.5 62zM323 653q-33 0 -61 10t-49 30t-32.5 49.5t-11.5 69.5h129q0 -19 6.5 -28t18.5 -9q13 0 19.5 9t6.5 28h128q0 -40 -11.5 -69.5t-32.5 -49.5t-49 -30t-61 -10z" />
    <glyph glyph-name="obreve" unicode="&#x14f;" horiz-adv-x="504" 
d="M493 227q0 -53 -17.5 -96.5t-49 -75t-76 -48.5t-98.5 -17t-98 17t-76 48.5t-49.5 75t-17.5 96.5t17.5 96.5t49.5 75t76 48.5t98 17t98.5 -17t76 -48.5t49 -75t17.5 -96.5zM307 227q0 18 -3.5 33.5t-10.5 26t-17.5 16.5t-23.5 6t-23 -6t-17 -16.5t-10.5 -26t-3.5 -33.5
t3.5 -33.5t10.5 -26t17 -16.5t23 -6t23.5 6t17.5 16.5t10.5 26t3.5 33.5zM252 484q-33 0 -61 10t-49 30t-32.5 49.5t-11.5 69.5h129q0 -19 6.5 -28t18.5 -9q13 0 19.5 9t6.5 28h128q0 -40 -11.5 -69.5t-32.5 -49.5t-49 -30t-61 -10z" />
    <glyph glyph-name="Ohungarumlaut" unicode="&#x150;" horiz-adv-x="647" 
d="M633 307q0 -69 -22.5 -127t-63.5 -100t-98 -66t-126 -24t-126 24t-97.5 66t-63 100t-22.5 127t22.5 127t63 100.5t97.5 66t126 23.5t126 -23.5t98 -66t63.5 -100.5t22.5 -127zM438 307q0 34 -8.5 61.5t-23.5 47t-36.5 29.5t-46.5 10q-26 0 -47 -10t-36 -29.5t-23 -47
t-8 -61.5q0 -35 8 -62t23 -46.5t36 -29.5t47 -10q25 0 46.5 10t36.5 29.5t23.5 46.5t8.5 62zM150 663l85 137h156l-85 -137h-156zM336 663l85 137h156l-85 -137h-156z" />
    <glyph glyph-name="ohungarumlaut" unicode="&#x151;" horiz-adv-x="504" 
d="M493 227q0 -53 -17.5 -96.5t-49 -75t-76 -48.5t-98.5 -17t-98 17t-76 48.5t-49.5 75t-17.5 96.5t17.5 96.5t49.5 75t76 48.5t98 17t98.5 -17t76 -48.5t49 -75t17.5 -96.5zM307 227q0 18 -3.5 33.5t-10.5 26t-17.5 16.5t-23.5 6t-23 -6t-17 -16.5t-10.5 -26t-3.5 -33.5
t3.5 -33.5t10.5 -26t17 -16.5t23 -6t23.5 6t17.5 16.5t10.5 26t3.5 33.5zM89 493l85 157h146l-85 -157h-146zM265 493l85 157h146l-85 -157h-146z" />
    <glyph glyph-name="OE" unicode="&#x152;" horiz-adv-x="861" 
d="M834 449h-251v-58h228v-160h-228v-65h251v-166h-504q-75 0 -133.5 21.5t-99 61.5t-62 97t-21.5 127t21.5 127t62 97t99 61.5t133.5 21.5h504v-165zM392 166v283h-52q-32 0 -57.5 -10t-42.5 -28.5t-26 -44.5t-9 -59q0 -32 9 -58t26 -44.5t42.5 -28.5t57.5 -10h52z" />
    <glyph glyph-name="oe" unicode="&#x153;" horiz-adv-x="769" 
d="M532 -10q-42 0 -77 12.5t-63 33.5q-29 -21 -63.5 -33.5t-76.5 -12.5q-54 0 -98 17t-76 48.5t-49.5 75t-17.5 96.5t17.5 96.5t49.5 75t76 48.5t98 17q42 0 77.5 -12t64.5 -33q27 21 60 33t75 12q55 0 97.5 -17t71.5 -47t44.5 -72.5t15.5 -93.5v-42h-284q3 -15 7.5 -25.5
t11.5 -18t17 -11t22 -3.5q17 0 30.5 8t18.5 26h177q-13 -85 -72.5 -131.5t-153.5 -46.5zM307 227q0 18 -3.5 33.5t-10.5 26t-17.5 16.5t-23.5 6t-23 -6t-17 -16.5t-10.5 -26t-3.5 -33.5t3.5 -33.5t10.5 -26t17 -16.5t23 -6t23.5 6t17.5 16.5t10.5 26t3.5 33.5zM529 320
q-20 0 -32.5 -12.5t-18.5 -34.5h98q-2 10 -5.5 18.5t-9.5 15t-14 10t-18 3.5z" />
    <glyph glyph-name="Racute" unicode="&#x154;" horiz-adv-x="585" 
d="M224 176v-176h-191v614h299q51 0 93 -15t73 -43.5t48 -70.5t17 -95q0 -51 -17 -90.5t-48 -67.5q-18 -16 -40 -27l127 -205h-213l-103 176h-45zM224 328h82q38 0 53.5 17t15.5 45q0 29 -15.5 46t-53.5 17h-82v-125zM192 663l85 137h186l-85 -137h-186z" />
    <glyph glyph-name="racute" unicode="&#x155;" horiz-adv-x="380" 
d="M364 276q-17 8 -32.5 11t-36.5 3q-32 0 -50.5 -11.5t-23.5 -28.5v-250h-190v454h190v-37q18 21 43.5 34t60.5 13q14 0 24 -2.5t15 -5.5v-180zM111 493l85 157h176l-85 -157h-176z" />
    <glyph glyph-name="Rcommaaccent" unicode="&#x156;" horiz-adv-x="585" 
d="M224 176v-176h-191v614h299q51 0 93 -15t73 -43.5t48 -70.5t17 -95q0 -51 -17 -90.5t-48 -67.5q-18 -16 -40 -27l127 -205h-213l-103 176h-45zM224 328h82q38 0 53.5 17t15.5 45q0 29 -15.5 46t-53.5 17h-82v-125zM240 -181q-19 8 -33 26.5t-14 47.5q0 35 26 58t66 23
q36 0 64 -23t28 -65q0 -29 -12.5 -51.5t-32.5 -45.5l-30 -36h-116z" />
    <glyph glyph-name="rcommaaccent" unicode="&#x157;" horiz-adv-x="380" 
d="M364 276q-17 8 -32.5 11t-36.5 3q-32 0 -50.5 -11.5t-23.5 -28.5v-250h-190v454h190v-37q18 21 43.5 34t60.5 13q14 0 24 -2.5t15 -5.5v-180zM77 -181q-19 8 -33 26.5t-14 47.5q0 35 26 58t66 23q36 0 64 -23t28 -65q0 -29 -12.5 -51.5t-32.5 -45.5l-30 -36h-116z" />
    <glyph glyph-name="Rcaron" unicode="&#x158;" horiz-adv-x="585" 
d="M224 176v-176h-191v614h299q51 0 93 -15t73 -43.5t48 -70.5t17 -95q0 -51 -17 -90.5t-48 -67.5q-18 -16 -40 -27l127 -205h-213l-103 176h-45zM224 328h82q38 0 53.5 17t15.5 45q0 29 -15.5 46t-53.5 17h-82v-125zM102 796h149l36 -37l36 37h149l-117 -137h-136z" />
    <glyph glyph-name="rcaron" unicode="&#x159;" horiz-adv-x="380" 
d="M364 276q-17 8 -32.5 11t-36.5 3q-32 0 -50.5 -11.5t-23.5 -28.5v-250h-190v454h190v-37q18 21 43.5 34t60.5 13q14 0 24 -2.5t15 -5.5v-180zM271 493h-136l-97 157h135l30 -41l30 41h135z" />
    <glyph glyph-name="Sacute" unicode="&#x15a;" horiz-adv-x="558" 
d="M210 189q7 -23 26.5 -34.5t49.5 -11.5q13 0 24.5 2.5t19.5 7.5t13 12.5t5 17.5q0 16 -11 22t-29 10l-126 26q-35 7 -65 20t-51.5 34t-33.5 50.5t-12 69.5q0 49 19.5 87.5t53.5 65.5t80 41.5t99 14.5q60 0 107 -16t80 -43t52 -63t25 -77h-189q-8 21 -25.5 34t-48.5 13
q-13 0 -23.5 -2t-18 -6.5t-11.5 -11t-4 -15.5q0 -7 2.5 -12t7 -9t11 -6.5t13.5 -3.5l128 -30q83 -20 124 -64.5t41 -116.5q0 -50 -20 -88t-54.5 -64t-80 -39.5t-97.5 -13.5q-118 0 -192.5 52.5t-90.5 146.5h202zM185 663l85 137h186l-85 -137h-186z" />
    <glyph glyph-name="sacute" unicode="&#x15b;" horiz-adv-x="459" 
d="M190 145q3 -14 14 -21t25 -7q6 0 11 1t8.5 3t6 5.5t2.5 8.5q0 9 -7 12t-18 5l-85 16q-62 12 -97 43t-35 93q0 40 16.5 70t44.5 50t65 30t79 10q101 0 155.5 -42.5t63.5 -113.5h-172q-2 11 -9.5 20t-29.5 9q-12 0 -19 -4.5t-7 -12.5t5.5 -11.5t16.5 -5.5l87 -20
q64 -15 98.5 -48.5t34.5 -91.5q0 -38 -16.5 -66.5t-45.5 -47.5t-67.5 -29t-81.5 -10q-45 0 -84 9.5t-68.5 29t-48.5 48.5t-24 68h182zM136 493l85 157h176l-85 -157h-176z" />
    <glyph glyph-name="Scircumflex" unicode="&#x15c;" horiz-adv-x="558" 
d="M210 189q7 -23 26.5 -34.5t49.5 -11.5q13 0 24.5 2.5t19.5 7.5t13 12.5t5 17.5q0 16 -11 22t-29 10l-126 26q-35 7 -65 20t-51.5 34t-33.5 50.5t-12 69.5q0 49 19.5 87.5t53.5 65.5t80 41.5t99 14.5q60 0 107 -16t80 -43t52 -63t25 -77h-189q-8 21 -25.5 34t-48.5 13
q-13 0 -23.5 -2t-18 -6.5t-11.5 -11t-4 -15.5q0 -7 2.5 -12t7 -9t11 -6.5t13.5 -3.5l128 -30q83 -20 124 -64.5t41 -116.5q0 -50 -20 -88t-54.5 -64t-80 -39.5t-97.5 -13.5q-118 0 -192.5 52.5t-90.5 146.5h202zM468 663h-149l-36 37l-36 -37h-149l117 137h136z" />
    <glyph glyph-name="scircumflex" unicode="&#x15d;" horiz-adv-x="459" 
d="M190 145q3 -14 14 -21t25 -7q6 0 11 1t8.5 3t6 5.5t2.5 8.5q0 9 -7 12t-18 5l-85 16q-62 12 -97 43t-35 93q0 40 16.5 70t44.5 50t65 30t79 10q101 0 155.5 -42.5t63.5 -113.5h-172q-2 11 -9.5 20t-29.5 9q-12 0 -19 -4.5t-7 -12.5t5.5 -11.5t16.5 -5.5l87 -20
q64 -15 98.5 -48.5t34.5 -91.5q0 -38 -16.5 -66.5t-45.5 -47.5t-67.5 -29t-81.5 -10q-45 0 -84 9.5t-68.5 29t-48.5 48.5t-24 68h182zM393 493h-135l-30 41l-30 -41h-135l97 157h136z" />
    <glyph glyph-name="Scedilla" unicode="&#x15e;" horiz-adv-x="558" 
d="M210 189q7 -23 26.5 -34.5t49.5 -11.5q13 0 24.5 2.5t19.5 7.5t13 12.5t5 17.5q0 16 -11 22t-29 10l-126 26q-35 7 -65 20t-51.5 34t-33.5 50.5t-12 69.5q0 49 19.5 87.5t53.5 65.5t80 41.5t99 14.5q60 0 107 -16t80 -43t52 -63t25 -77h-189q-8 21 -25.5 34t-48.5 13
q-13 0 -23.5 -2t-18 -6.5t-11.5 -11t-4 -15.5q0 -7 2.5 -12t7 -9t11 -6.5t13.5 -3.5l128 -30q83 -20 124 -64.5t41 -116.5q0 -50 -20 -88t-54.5 -64t-80 -39.5t-97.5 -13.5q-118 0 -192.5 52.5t-90.5 146.5h202zM137 -175l67 143h156l-67 -143h-156z" />
    <glyph glyph-name="scedilla" unicode="&#x15f;" horiz-adv-x="459" 
d="M190 145q3 -14 14 -21t25 -7q6 0 11 1t8.5 3t6 5.5t2.5 8.5q0 9 -7 12t-18 5l-85 16q-62 12 -97 43t-35 93q0 40 16.5 70t44.5 50t65 30t79 10q101 0 155.5 -42.5t63.5 -113.5h-172q-2 11 -9.5 20t-29.5 9q-12 0 -19 -4.5t-7 -12.5t5.5 -11.5t16.5 -5.5l87 -20
q64 -15 98.5 -48.5t34.5 -91.5q0 -38 -16.5 -66.5t-45.5 -47.5t-67.5 -29t-81.5 -10q-45 0 -84 9.5t-68.5 29t-48.5 48.5t-24 68h182zM79 -175l67 143h156l-67 -143h-156z" />
    <glyph glyph-name="Scaron" unicode="&#x160;" horiz-adv-x="558" 
d="M210 189q7 -23 26.5 -34.5t49.5 -11.5q13 0 24.5 2.5t19.5 7.5t13 12.5t5 17.5q0 16 -11 22t-29 10l-126 26q-35 7 -65 20t-51.5 34t-33.5 50.5t-12 69.5q0 49 19.5 87.5t53.5 65.5t80 41.5t99 14.5q60 0 107 -16t80 -43t52 -63t25 -77h-189q-8 21 -25.5 34t-48.5 13
q-13 0 -23.5 -2t-18 -6.5t-11.5 -11t-4 -15.5q0 -7 2.5 -12t7 -9t11 -6.5t13.5 -3.5l128 -30q83 -20 124 -64.5t41 -116.5q0 -50 -20 -88t-54.5 -64t-80 -39.5t-97.5 -13.5q-118 0 -192.5 52.5t-90.5 146.5h202zM95 796h149l36 -37l36 37h149l-117 -137h-136z" />
    <glyph glyph-name="scaron" unicode="&#x161;" horiz-adv-x="459" 
d="M190 145q3 -14 14 -21t25 -7q6 0 11 1t8.5 3t6 5.5t2.5 8.5q0 9 -7 12t-18 5l-85 16q-62 12 -97 43t-35 93q0 40 16.5 70t44.5 50t65 30t79 10q101 0 155.5 -42.5t63.5 -113.5h-172q-2 11 -9.5 20t-29.5 9q-12 0 -19 -4.5t-7 -12.5t5.5 -11.5t16.5 -5.5l87 -20
q64 -15 98.5 -48.5t34.5 -91.5q0 -38 -16.5 -66.5t-45.5 -47.5t-67.5 -29t-81.5 -10q-45 0 -84 9.5t-68.5 29t-48.5 48.5t-24 68h182zM296 493h-136l-97 157h135l30 -41l30 41h135z" />
    <glyph glyph-name="Tcommaaccent" unicode="&#x162;" horiz-adv-x="584" 
d="M14 614h556v-165h-181v-449h-194v449h-181v165zM245 -181q-19 8 -33 26.5t-14 47.5q0 35 26 58t66 23q36 0 64 -23t28 -65q0 -29 -12.5 -51.5t-32.5 -45.5l-30 -36h-116z" />
    <glyph glyph-name="tcommaaccent" unicode="&#x163;" horiz-adv-x="371" 
d="M67 308h-61v146h61v127h189v-127h91v-146h-91v-97q0 -26 11 -38t34 -12q12 0 23.5 1.5t22.5 4.5v-163q-14 -5 -40 -8.5t-53 -3.5q-93 0 -140 43t-47 140v133zM165 -181q-19 8 -33 26.5t-14 47.5q0 35 26 58t66 23q36 0 64 -23t28 -65q0 -29 -12.5 -51.5t-32.5 -45.5
l-30 -36h-116z" />
    <glyph glyph-name="Tcaron" unicode="&#x164;" horiz-adv-x="584" 
d="M14 614h556v-165h-181v-449h-194v449h-181v165zM107 796h149l36 -37l36 37h149l-117 -137h-136z" />
    <glyph glyph-name="tcaron" unicode="&#x165;" horiz-adv-x="371" 
d="M67 308h-61v146h61v127h189v-127h91v-146h-91v-97q0 -26 11 -38t34 -12q12 0 23.5 1.5t22.5 4.5v-163q-14 -5 -40 -8.5t-53 -3.5q-93 0 -140 43t-47 140v133zM278 483l48 167h148l-50 -167h-146z" />
    <glyph glyph-name="Tbar" unicode="&#x166;" horiz-adv-x="584" 
d="M115 364h80v85h-181v165h556v-165h-181v-85h80v-155h-80v-209h-194v209h-80v155z" />
    <glyph glyph-name="tbar" unicode="&#x167;" horiz-adv-x="371" 
d="M25 304h42v34h-61v116h61v127h189v-127h91v-116h-91v-34h53v-106h-53q3 -16 11 -25q11 -12 34 -12q12 0 23.5 1.5t22.5 4.5v-163q-14 -5 -40 -8.5t-53 -3.5q-93 0 -140 43t-47 140v23h-42v106z" />
    <glyph glyph-name="Utilde" unicode="&#x168;" horiz-adv-x="616" 
d="M308 -10q-64 0 -116 17.5t-88.5 51t-56 83t-19.5 112.5v360h193v-343q0 -26 6.5 -46t17.5 -34t27 -21t36 -7q19 0 35.5 7t27.5 21t17.5 34t6.5 46v343h193v-360q0 -63 -19.5 -112.5t-56 -83t-88.5 -51t-116 -17.5zM473 816q0 -31 -4 -60t-14 -51.5t-28 -36t-45 -13.5
q-18 0 -33.5 4t-30 9.5t-28 9.5t-25.5 4q-10 0 -16 -6.5t-6 -16.5h-100q0 31 4 60t14 51.5t28 36t45 13.5q18 0 33.5 -4t30 -9.5t28 -9.5t25.5 -4q10 0 16 6.5t6 16.5h100z" />
    <glyph glyph-name="utilde" unicode="&#x169;" horiz-adv-x="531" 
d="M500 0h-189v37q-19 -21 -51 -34t-70 -13q-74 0 -117 44.5t-43 120.5v299h190v-251q0 -20 10 -34.5t33 -14.5q16 0 29 10t18 27v263h190v-454zM420 650q0 -31 -4 -60t-14 -51.5t-28 -36t-45 -13.5q-18 0 -30.5 4t-23 9.5t-21 9.5t-22.5 4q-10 0 -16 -6.5t-6 -16.5h-100
q0 31 4 60t14 51.5t28 36t45 13.5q18 0 30.5 -4t23 -9.5t21 -9.5t22.5 -4q10 0 16 6.5t6 16.5h100z" />
    <glyph glyph-name="Umacron" unicode="&#x16a;" horiz-adv-x="616" 
d="M308 -10q-64 0 -116 17.5t-88.5 51t-56 83t-19.5 112.5v360h193v-343q0 -26 6.5 -46t17.5 -34t27 -21t36 -7q19 0 35.5 7t27.5 21t17.5 34t6.5 46v343h193v-360q0 -63 -19.5 -112.5t-56 -83t-88.5 -51t-116 -17.5zM164 788h289v-125h-289v125z" />
    <glyph glyph-name="umacron" unicode="&#x16b;" horiz-adv-x="531" 
d="M500 0h-189v37q-19 -21 -51 -34t-70 -13q-74 0 -117 44.5t-43 120.5v299h190v-251q0 -20 10 -34.5t33 -14.5q16 0 29 10t18 27v263h190v-454zM131 618h269v-125h-269v125z" />
    <glyph glyph-name="Ubreve" unicode="&#x16c;" horiz-adv-x="616" 
d="M308 -10q-64 0 -116 17.5t-88.5 51t-56 83t-19.5 112.5v360h193v-343q0 -26 6.5 -46t17.5 -34t27 -21t36 -7q19 0 35.5 7t27.5 21t17.5 34t6.5 46v343h193v-360q0 -63 -19.5 -112.5t-56 -83t-88.5 -51t-116 -17.5zM308 653q-33 0 -61 10t-49 30t-32.5 49.5t-11.5 69.5
h129q0 -19 6.5 -28t18.5 -9q13 0 19.5 9t6.5 28h128q0 -40 -11.5 -69.5t-32.5 -49.5t-49 -30t-61 -10z" />
    <glyph glyph-name="ubreve" unicode="&#x16d;" horiz-adv-x="531" 
d="M500 0h-189v37q-19 -21 -51 -34t-70 -13q-74 0 -117 44.5t-43 120.5v299h190v-251q0 -20 10 -34.5t33 -14.5q16 0 29 10t18 27v263h190v-454zM265 484q-33 0 -61 10t-49 30t-32.5 49.5t-11.5 69.5h129q0 -19 6.5 -28t18.5 -9q13 0 19.5 9t6.5 28h128q0 -40 -11.5 -69.5
t-32.5 -49.5t-49 -30t-61 -10z" />
    <glyph glyph-name="Uring" unicode="&#x16e;" horiz-adv-x="616" 
d="M308 -10q-64 0 -116 17.5t-88.5 51t-56 83t-19.5 112.5v360h193v-343q0 -26 6.5 -46t17.5 -34t27 -21t36 -7q19 0 35.5 7t27.5 21t17.5 34t6.5 46v343h193v-360q0 -63 -19.5 -112.5t-56 -83t-88.5 -51t-116 -17.5zM425 751q0 -24 -9 -44.5t-25 -35.5t-37 -24t-46 -9
t-46.5 9t-37 24t-24.5 35.5t-9 44.5t9 44.5t24.5 36t37 24.5t46.5 9t46 -9t37 -24.5t25 -36t9 -44.5zM341 751q0 14 -9 23.5t-24 9.5q-14 0 -23 -9.5t-9 -23.5q0 -13 9 -22.5t23 -9.5q15 0 24 9.5t9 22.5z" />
    <glyph glyph-name="uring" unicode="&#x16f;" horiz-adv-x="531" 
d="M500 0h-189v37q-19 -21 -51 -34t-70 -13q-74 0 -117 44.5t-43 120.5v299h190v-251q0 -20 10 -34.5t33 -14.5q16 0 29 10t18 27v263h190v-454zM382 595q0 -24 -9 -44.5t-25 -35.5t-37 -24t-46 -9t-46.5 9t-37 24t-24.5 35.5t-9 44.5t9 44.5t24.5 36t37 24.5t46.5 9t46 -9
t37 -24.5t25 -36t9 -44.5zM298 595q0 14 -9 23.5t-24 9.5q-14 0 -23 -9.5t-9 -23.5q0 -13 9 -22.5t23 -9.5q15 0 24 9.5t9 22.5z" />
    <glyph glyph-name="Uhungarumlaut" unicode="&#x170;" horiz-adv-x="616" 
d="M308 -10q-64 0 -116 17.5t-88.5 51t-56 83t-19.5 112.5v360h193v-343q0 -26 6.5 -46t17.5 -34t27 -21t36 -7q19 0 35.5 7t27.5 21t17.5 34t6.5 46v343h193v-360q0 -63 -19.5 -112.5t-56 -83t-88.5 -51t-116 -17.5zM135 663l85 137h156l-85 -137h-156zM321 663l85 137h156
l-85 -137h-156z" />
    <glyph glyph-name="uhungarumlaut" unicode="&#x171;" horiz-adv-x="531" 
d="M500 0h-189v37q-19 -21 -51 -34t-70 -13q-74 0 -117 44.5t-43 120.5v299h190v-251q0 -20 10 -34.5t33 -14.5q16 0 29 10t18 27v263h190v-454zM102 493l85 157h146l-85 -157h-146zM278 493l85 157h146l-85 -157h-146z" />
    <glyph glyph-name="Uogonek" unicode="&#x172;" horiz-adv-x="616" 
d="M192 7q-52 18 -88.5 51.5t-56.5 82.5q-10 26 -15 56l-2 14q-2 20 -2 43v360h193v-343q0 -26 6.5 -46t17.5 -34t27 -21t36 -7q19 0 35.5 7t27.5 21t17.5 34t6.5 46v343h193v-360q0 -40 -8 -73.5t-23 -61.5t-37 -50.5t-50 -40.5q-48 -31 -67.5 -55t-19.5 -35q0 -8 5 -12
t14 -4q8 0 15 3t19 10v-100q-14 -8 -30 -12.5t-39 -4.5q-20 0 -38.5 5t-32.5 15t-22.5 25.5t-8.5 37.5q0 20 10.5 41.5t35.5 47.5q-62 0 -119 17z" />
    <glyph glyph-name="uogonek" unicode="&#x173;" horiz-adv-x="531" 
d="M500 0q-16 -16 -26.5 -25.5t-16.5 -16t-8 -11t-2 -9.5q0 -8 5 -12t14 -4q8 0 15 3t19 10v-100q-14 -8 -30 -12.5t-39 -4.5q-20 0 -38.5 5t-32.5 15t-22.5 25.5t-8.5 37.5q0 14 4 26.5t11.5 24.5t18 24t22.5 24h-74v37q-19 -21 -51 -34t-70 -13q-74 0 -117 44.5t-43 120.5
v299h190v-251q0 -20 10 -34.5t33 -14.5q16 0 29 10t18 27v263h190v-454z" />
    <glyph glyph-name="Wcircumflex" unicode="&#x174;" horiz-adv-x="846" 
d="M497 614l81 -308l71 308h197l-164 -614h-176l-83 314l-84 -314h-176l-163 614h200l72 -308l81 308h144zM608 663h-149l-36 37l-36 -37h-149l117 137h136z" />
    <glyph glyph-name="wcircumflex" unicode="&#x175;" horiz-adv-x="725" 
d="M480 251l63 203h182l-155 -454h-152l-56 181l-55 -181h-152l-155 454h189l63 -203l61 203h106zM527 493h-135l-30 41l-30 -41h-135l97 157h136z" />
    <glyph glyph-name="Ycircumflex" unicode="&#x176;" horiz-adv-x="632" 
d="M430 614h202l-220 -412v-202h-195v202l-217 412h210l110 -219zM501 663h-149l-36 37l-36 -37h-149l117 137h136z" />
    <glyph glyph-name="ycircumflex" unicode="&#x177;" horiz-adv-x="518" 
d="M99 -153l68 177l-167 430h196l69 -215l66 215h187l-231 -607h-188zM432 493h-135l-30 41l-30 -41h-135l97 157h136z" />
    <glyph glyph-name="Ydieresis" unicode="&#x178;" horiz-adv-x="632" 
d="M430 614h202l-220 -412v-202h-195v202l-217 412h210l110 -219zM127 737q0 38 26 64.5t64 26.5t64.5 -26.5t26.5 -64.5t-26.5 -64t-64.5 -26t-64 26t-26 64zM324 737q0 38 26 64.5t64 26.5t64.5 -26.5t26.5 -64.5t-26.5 -64t-64.5 -26t-64 26t-26 64z" />
    <glyph glyph-name="Zacute" unicode="&#x179;" horiz-adv-x="568" 
d="M541 0h-514v146l263 303h-260v165h508v-145l-257 -303h260v-166zM197 663l85 137h186l-85 -137h-186z" />
    <glyph glyph-name="zacute" unicode="&#x17a;" horiz-adv-x="460" 
d="M436 0h-412v126l181 182h-178v146h407v-126l-169 -182h171v-146zM150 493l85 157h176l-85 -157h-176z" />
    <glyph glyph-name="Zdotaccent" unicode="&#x17b;" horiz-adv-x="568" 
d="M541 0h-514v146l263 303h-260v165h508v-145l-257 -303h260v-166zM397 751q0 -47 -31 -72.5t-74 -25.5t-74 25.5t-31 72.5t31 72.5t74 25.5t74 -25.5t31 -72.5z" />
    <glyph glyph-name="zdotaccent" unicode="&#x17c;" horiz-adv-x="460" 
d="M436 0h-412v126l181 182h-178v146h407v-126l-169 -182h171v-146zM347 580q0 -47 -31 -72.5t-74 -25.5t-74 25.5t-31 72.5t31 72.5t74 25.5t74 -25.5t31 -72.5z" />
    <glyph glyph-name="Zcaron" unicode="&#x17d;" horiz-adv-x="568" 
d="M541 0h-514v146l263 303h-260v165h508v-145l-257 -303h260v-166zM107 796h149l36 -37l36 37h149l-117 -137h-136z" />
    <glyph glyph-name="zcaron" unicode="&#x17e;" horiz-adv-x="460" 
d="M436 0h-412v126l181 182h-178v146h407v-126l-169 -182h171v-146zM310 493h-136l-97 157h135l30 -41l30 41h135z" />
    <glyph glyph-name="florin" unicode="&#x192;" horiz-adv-x="418" 
d="M34 359h76l13 73q17 96 64.5 144t132.5 48q23 0 43 -3.5t35 -8.5v-151q-7 3 -14 4.5t-17 1.5q-23 0 -34.5 -11t-15.5 -34l-11 -63h71v-144h-96l-31 -176q-8 -44 -21 -79.5t-35.5 -60.5t-55.5 -38.5t-80 -13.5q-23 0 -45.5 3.5t-37.5 8.5v129q7 -3 14 -4.5t17 -1.5
q20 0 31 11t15 34l33 188h-51v144z" />
    <glyph glyph-name="Aringacute" unicode="&#x1fa;" horiz-adv-x="666" 
d="M434 614l232 -614h-196l-32 89h-216l-32 -89h-190l232 614h202zM444 721q0 -38 -32.5 -64.5t-81.5 -26.5t-81.5 26.5t-32.5 64.5q0 19 8.5 36t24 29.5t36.5 19.5t45 7t45 -7t36.5 -19.5t24 -29.5t8.5 -36zM239 829l69 111h186l-69 -111h-186zM279 246h102l-51 141z
M363 721q0 11 -9 19.5t-24 8.5t-24 -8.5t-9 -19.5t9 -19t24 -8t24 8t9 19z" />
    <glyph glyph-name="aringacute" unicode="&#x1fb;" horiz-adv-x="489" 
d="M365 571q0 -38 -32.5 -64.5t-81.5 -26.5t-81.5 26.5t-32.5 64.5q0 19 8.5 36t24 29.5t36.5 19.5t45 7t45 -7t36.5 -19.5t24 -29.5t8.5 -36zM284 571q0 11 -9 19.5t-24 8.5t-24 -8.5t-9 -19.5t9 -19t24 -8t24 8t9 19zM160 679l69 111h186l-69 -111h-186zM282 0v22
q-11 -11 -41.5 -20.5t-65.5 -9.5q-33 0 -62.5 9t-52 27t-35.5 45t-13 64q0 33 13.5 59.5t36.5 45t55 28.5t68 10q27 0 55 -7t42 -17v25q0 14 -8.5 26.5t-29.5 12.5q-17 0 -26 -7t-13 -17h-178q4 35 21.5 65.5t46 53.5t68 36.5t88.5 13.5q103 0 159 -51.5t56 -145.5v-268
h-184zM282 151q-3 5 -8.5 9t-12 7t-14.5 4.5t-17 1.5q-8 0 -16 -2t-14 -6t-10 -10t-4 -14t4 -14t10 -10t14 -6t16 -2q9 0 17 1.5t14.5 4.5t12 7t8.5 9v20z" />
    <glyph glyph-name="AEacute" unicode="&#x1fc;" horiz-adv-x="917" 
d="M890 614v-165h-251v-58h228v-160h-228v-65h251v-166h-442v89h-196l-47 -89h-205l338 614h552zM448 455l-112 -209h112v209zM514 663l85 137h186l-85 -137h-186z" />
    <glyph glyph-name="aeacute" unicode="&#x1fd;" horiz-adv-x="732" 
d="M228 117q8 0 15.5 1.5t13.5 4.5t11 7t8 9v46h-48q-9 0 -17 -2.5t-14 -7t-9.5 -11.5t-3.5 -15q0 -17 13.5 -24.5t30.5 -7.5zM720 161q-15 -81 -76.5 -126t-152.5 -45q-48 0 -85 15t-65 35q-13 -9 -29.5 -18t-36.5 -16t-44.5 -11.5t-53.5 -4.5q-32 0 -62 9t-53 27t-37 44
t-14 60q0 36 15.5 63t42.5 44.5t63 26.5t77 9h67v11q0 16 -10 28t-33 12q-17 0 -28 -8t-14 -20h-165q4 35 20.5 66t43 53.5t63.5 35.5t84 13q40 0 71.5 -11.5t57.5 -28.5q26 17 56.5 28.5t72.5 11.5q52 0 94 -17t71 -47t45 -72.5t16 -93.5v-49h-284q3 -15 7.5 -24.5
t11.5 -15.5t17 -8.5t22 -2.5q16 0 28 6.5t18 20.5h179zM492 320q-20 0 -32.5 -12.5t-18.5 -34.5h98q-2 10 -5.5 18.5t-9.5 15t-14 10t-18 3.5zM279 493l85 157h176l-85 -157h-176z" />
    <glyph glyph-name="Oslashacute" unicode="&#x1fe;" horiz-adv-x="655" 
d="M583 624l54 -51l-63 -65q24 -33 40 -74q23 -58 23 -127t-22.5 -127t-63.5 -100t-98 -66t-126 -24t-126 24q-38 16 -68 39l-61 -63l-54 51l63 65q-25 33 -41 74q-22 58 -22 127t22.5 127t63 100.5t97.5 66t126 23.5t126 -24q38 -15 68 -40zM373 445q-21 10 -46 10
q-26 0 -47 -10t-36 -29.5t-23 -47t-8 -61.5q0 -33 6 -58l176 182q-10 8 -22 14zM442 307q0 31 -7 57l-177 -182q10 -8 22 -13q21 -10 47 -10q25 0 46.5 10t36.5 29.5t23.5 46.5t8.5 62zM232 663l85 137h186l-85 -137h-186z" />
    <glyph glyph-name="oslashacute" unicode="&#x1ff;" horiz-adv-x="514" 
d="M165 493l85 157h176l-85 -157h-176zM446 464l42 -37l-43 -44q22 -26 35 -60q18 -43 18 -96t-17.5 -96.5t-49 -75t-76 -48.5t-98.5 -17t-98 17q-27 10 -50 26l-41 -43l-42 37l42 44q-21 26 -35 59q-17 44 -17 97t17.5 96.5t49.5 75t76 48.5t98 17t98 -17q27 -11 49 -26z
M316 227q0 10 -2 19l-89 -93q4 -4 8 -7q11 -6 24 -6t24 6.5t18.5 18.5t12 28t4.5 34zM281 307q-11 7 -24 7t-23.5 -6.5t-18 -18.5t-12 -28t-4.5 -34q0 -10 1 -19l89 93q-4 4 -8 6z" />
    <glyph glyph-name="Scommaaccent" unicode="&#x218;" horiz-adv-x="558" 
d="M210 189q7 -23 26.5 -34.5t49.5 -11.5q13 0 24.5 2.5t19.5 7.5t13 12.5t5 17.5q0 16 -11 22t-29 10l-126 26q-35 7 -65 20t-51.5 34t-33.5 50.5t-12 69.5q0 49 19.5 87.5t53.5 65.5t80 41.5t99 14.5q60 0 107 -16t80 -43t52 -63t25 -77h-189q-8 21 -25.5 34t-48.5 13
q-13 0 -23.5 -2t-18 -6.5t-11.5 -11t-4 -15.5q0 -7 2.5 -12t7 -9t11 -6.5t13.5 -3.5l128 -30q83 -20 124 -64.5t41 -116.5q0 -50 -20 -88t-54.5 -64t-80 -39.5t-97.5 -13.5q-118 0 -192.5 52.5t-90.5 146.5h202zM233 -181q-19 8 -33 26.5t-14 47.5q0 35 26 58t66 23
q36 0 64 -23t28 -65q0 -29 -12.5 -51.5t-32.5 -45.5l-30 -36h-116z" />
    <glyph glyph-name="scommaaccent" unicode="&#x219;" horiz-adv-x="459" 
d="M190 145q3 -14 14 -21t25 -7q6 0 11 1t8.5 3t6 5.5t2.5 8.5q0 9 -7 12t-18 5l-85 16q-62 12 -97 43t-35 93q0 40 16.5 70t44.5 50t65 30t79 10q101 0 155.5 -42.5t63.5 -113.5h-172q-2 11 -9.5 20t-29.5 9q-12 0 -19 -4.5t-7 -12.5t5.5 -11.5t16.5 -5.5l87 -20
q64 -15 98.5 -48.5t34.5 -91.5q0 -38 -16.5 -66.5t-45.5 -47.5t-67.5 -29t-81.5 -10q-45 0 -84 9.5t-68.5 29t-48.5 48.5t-24 68h182zM181 -181q-19 8 -33 26.5t-14 47.5q0 35 26 58t66 23q36 0 64 -23t28 -65q0 -29 -12.5 -51.5t-32.5 -45.5l-30 -36h-116z" />
    <glyph glyph-name="dotlessj" unicode="&#x237;" horiz-adv-x="252" 
d="M221 40q0 -97 -47.5 -150t-139.5 -53q-23 0 -38.5 2t-28.5 6v139q5 -1 9 -1.5t10 -0.5q11 0 19.5 2t14 7t8.5 13.5t3 21.5v428h190v-414z" />
    <glyph glyph-name="circumflex" unicode="&#x2c6;" 
d="M415 493h-135l-30 41l-30 -41h-135l97 157h136z" />
    <glyph glyph-name="caron" unicode="&#x2c7;" 
d="M318 493h-136l-97 157h135l30 -41l30 41h135z" />
    <glyph glyph-name="breve" unicode="&#x2d8;" 
d="M250 484q-33 0 -61 10t-49 30t-32.5 49.5t-11.5 69.5h129q0 -19 6.5 -28t18.5 -9q13 0 19.5 9t6.5 28h128q0 -40 -11.5 -69.5t-32.5 -49.5t-49 -30t-61 -10z" />
    <glyph glyph-name="dotaccent" unicode="&#x2d9;" 
d="M355 580q0 -47 -31 -72.5t-74 -25.5t-74 25.5t-31 72.5t31 72.5t74 25.5t74 -25.5t31 -72.5z" />
    <glyph glyph-name="ring" unicode="&#x2da;" 
d="M367 595q0 -24 -9 -44.5t-25 -35.5t-37 -24t-46 -9t-46.5 9t-37 24t-24.5 35.5t-9 44.5t9 44.5t24.5 36t37 24.5t46.5 9t46 -9t37 -24.5t25 -36t9 -44.5zM283 595q0 14 -9 23.5t-24 9.5q-14 0 -23 -9.5t-9 -23.5q0 -13 9 -22.5t23 -9.5q15 0 24 9.5t9 22.5z" />
    <glyph glyph-name="ogonek" unicode="&#x2db;" 
d="M337 10l-29.5 -30.5l-18.5 -19t-9.5 -12.5t-2.5 -10q0 -8 5 -12t14 -4q8 0 15 3t19 10v-100q-14 -8 -30 -12.5t-39 -4.5q-20 0 -38.5 5t-32.5 15t-22.5 25.5t-8.5 37.5q0 15 5 29t14 27.5t21 26.5l27 26h111z" />
    <glyph glyph-name="tilde" unicode="&#x2dc;" 
d="M405 650q0 -31 -4 -60t-14 -51.5t-28 -36t-45 -13.5q-18 0 -30.5 4t-23 9.5t-21 9.5t-22.5 4q-10 0 -16 -6.5t-6 -16.5h-100q0 31 4 60t14 51.5t28 36t45 13.5q18 0 30.5 -4t23 -9.5t21 -9.5t22.5 -4q10 0 16 6.5t6 16.5h100z" />
    <glyph glyph-name="hungarumlaut" unicode="&#x2dd;" 
d="M46 493l85 157h146l-85 -157h-146zM222 493l85 157h146l-85 -157h-146z" />
    <glyph glyph-name="Wgrave" unicode="&#x1e80;" horiz-adv-x="846" 
d="M497 614l81 -308l71 308h197l-164 -614h-176l-83 314l-84 -314h-176l-163 614h200l72 -308l81 308h144zM337 663l-85 137h186l85 -137h-186z" />
    <glyph glyph-name="wgrave" unicode="&#x1e81;" horiz-adv-x="725" 
d="M480 251l63 203h182l-155 -454h-152l-56 181l-55 -181h-152l-155 454h189l63 -203l61 203h106zM277 493l-85 157h176l85 -157h-176z" />
    <glyph glyph-name="Wacute" unicode="&#x1e82;" horiz-adv-x="846" 
d="M497 614l81 -308l71 308h197l-164 -614h-176l-83 314l-84 -314h-176l-163 614h200l72 -308l81 308h144zM328 663l85 137h186l-85 -137h-186z" />
    <glyph glyph-name="wacute" unicode="&#x1e83;" horiz-adv-x="725" 
d="M480 251l63 203h182l-155 -454h-152l-56 181l-55 -181h-152l-155 454h189l63 -203l61 203h106zM270 493l85 157h176l-85 -157h-176z" />
    <glyph glyph-name="Wdieresis" unicode="&#x1e84;" horiz-adv-x="846" 
d="M497 614l81 -308l71 308h197l-164 -614h-176l-83 314l-84 -314h-176l-163 614h200l72 -308l81 308h144zM234 737q0 38 26 64.5t64 26.5t64.5 -26.5t26.5 -64.5t-26.5 -64t-64.5 -26t-64 26t-26 64zM431 737q0 38 26 64.5t64 26.5t64.5 -26.5t26.5 -64.5t-26.5 -64
t-64.5 -26t-64 26t-26 64z" />
    <glyph glyph-name="wdieresis" unicode="&#x1e85;" horiz-adv-x="725" 
d="M480 251l63 203h182l-155 -454h-152l-56 181l-55 -181h-152l-155 454h189l63 -203l61 203h106zM180 564q0 36 25.5 62t61.5 26q18 0 34 -7t28 -19t19 -28t7 -34q0 -36 -26 -61.5t-62 -25.5t-61.5 25.5t-25.5 61.5zM370 564q0 36 25.5 62t61.5 26q18 0 34 -7t28 -19
t19 -28t7 -34q0 -36 -26 -61.5t-62 -25.5t-61.5 25.5t-25.5 61.5z" />
    <glyph glyph-name="Ygrave" unicode="&#x1ef2;" horiz-adv-x="632" 
d="M430 614h202l-220 -412v-202h-195v202l-217 412h210l110 -219zM230 663l-85 137h186l85 -137h-186z" />
    <glyph glyph-name="ygrave" unicode="&#x1ef3;" horiz-adv-x="518" 
d="M99 -153l68 177l-167 430h196l69 -215l66 215h187l-231 -607h-188zM182 493l-85 157h176l85 -157h-176z" />
    <glyph glyph-name="endash" unicode="&#x2013;" horiz-adv-x="461" 
d="M33 322h395v-122h-395v122z" />
    <glyph glyph-name="emdash" unicode="&#x2014;" horiz-adv-x="832" 
d="M33 322h766v-122h-766v122z" />
    <glyph glyph-name="quoteleft" unicode="&#x2018;" horiz-adv-x="239" 
d="M151 497q29 -6 51.5 -29.5t22.5 -62.5q0 -44 -30.5 -72t-76.5 -28q-42 0 -74 28.5t-32 82.5q0 32 12.5 61t30.5 56l53 81h119z" />
    <glyph glyph-name="quoteright" unicode="&#x2019;" horiz-adv-x="239" 
d="M88 432q-29 6 -51.5 29.5t-22.5 62.5q0 44 30.5 72t76.5 28q42 0 74 -28.5t32 -82.5q0 -32 -12.5 -61t-30.5 -56l-53 -81h-119z" />
    <glyph glyph-name="quotesinglbase" unicode="&#x201a;" horiz-adv-x="239" 
d="M88 1q-29 6 -51.5 29.5t-22.5 62.5q0 44 30.5 72t76.5 28q42 0 74 -28.5t32 -82.5q0 -32 -12.5 -61t-30.5 -56l-53 -81h-119z" />
    <glyph glyph-name="quotedblleft" unicode="&#x201c;" horiz-adv-x="470" 
d="M151 497q29 -6 51.5 -29.5t22.5 -62.5q0 -44 -30.5 -72t-76.5 -28q-42 0 -74 28.5t-32 82.5q0 32 12.5 61t30.5 56l53 81h119zM382 497q29 -6 51.5 -29.5t22.5 -62.5q0 -44 -30.5 -72t-76.5 -28q-42 0 -74 28.5t-32 82.5q0 32 12.5 61t30.5 56l53 81h119z" />
    <glyph glyph-name="quotedblright" unicode="&#x201d;" horiz-adv-x="470" 
d="M319 432q-29 6 -51.5 29.5t-22.5 62.5q0 44 30.5 72t76.5 28q42 0 74 -28.5t32 -82.5q0 -32 -12.5 -61t-30.5 -56l-53 -81h-119zM88 432q-29 6 -51.5 29.5t-22.5 62.5q0 44 30.5 72t76.5 28q42 0 74 -28.5t32 -82.5q0 -32 -12.5 -61t-30.5 -56l-53 -81h-119z" />
    <glyph glyph-name="quotedblbase" unicode="&#x201e;" horiz-adv-x="470" 
d="M88 1q-29 6 -51.5 29.5t-22.5 62.5q0 44 30.5 72t76.5 28q42 0 74 -28.5t32 -82.5q0 -32 -12.5 -61t-30.5 -56l-53 -81h-119zM319 1q-29 6 -51.5 29.5t-22.5 62.5q0 44 30.5 72t76.5 28q42 0 74 -28.5t32 -82.5q0 -32 -12.5 -61t-30.5 -56l-53 -81h-119z" />
    <glyph glyph-name="dagger" unicode="&#x2020;" horiz-adv-x="352" 
d="M20 558h99v92h114v-92h99v-112h-99v-170h-114v170h-99v112z" />
    <glyph glyph-name="daggerdbl" unicode="&#x2021;" horiz-adv-x="352" 
d="M20 433h102v59h-102v98h102v60h108v-60h102v-98h-102v-59h102v-97h-102v-60h-108v60h-102v97z" />
    <glyph glyph-name="bullet" unicode="&#x2022;" horiz-adv-x="398" 
d="M378 261q0 -39 -14 -71.5t-38 -56t-56.5 -36.5t-69.5 -13q-38 0 -70.5 13t-57 36.5t-38.5 56t-14 71.5q0 40 14 73t38.5 57t57 37t70.5 13q37 0 69.5 -13t56.5 -37t38 -57t14 -73z" />
    <glyph glyph-name="ellipsis" unicode="&#x2026;" horiz-adv-x="751" 
d="M12 101q0 47 30.5 77.5t75.5 30.5q22 0 42 -8t34 -22.5t22.5 -34.5t8.5 -43t-8.5 -42.5t-22.5 -34t-34 -23t-42 -8.5t-41.5 8.5t-33.5 23t-22.5 34t-8.5 42.5zM269 101q0 47 30.5 77.5t75.5 30.5q22 0 42 -8t34 -22.5t22.5 -34.5t8.5 -43t-8.5 -42.5t-22.5 -34t-34 -23
t-42 -8.5t-41.5 8.5t-33.5 23t-22.5 34t-8.5 42.5zM526 101q0 47 30.5 77.5t75.5 30.5q22 0 42 -8t34 -22.5t22.5 -34.5t8.5 -43t-8.5 -42.5t-22.5 -34t-34 -23t-42 -8.5t-41.5 8.5t-33.5 23t-22.5 34t-8.5 42.5z" />
    <glyph glyph-name="perthousand" unicode="&#x2030;" horiz-adv-x="1018" 
d="M671 143q0 -32 -12 -60t-32 -48.5t-47.5 -32.5t-58.5 -12q-32 0 -60 12t-48.5 32.5t-32.5 48.5t-12 60q0 31 12 58.5t32.5 47.5t48.5 32t60 12q31 0 58.5 -12t47.5 -32t32 -47.5t12 -58.5zM998 143q0 -32 -12 -60t-32 -48.5t-47.5 -32.5t-58.5 -12q-32 0 -60 12
t-48.5 32.5t-32.5 48.5t-12 60q0 31 12 58.5t32.5 47.5t48.5 32t60 12q31 0 58.5 -12t47.5 -32t32 -47.5t12 -58.5zM20 471q0 32 12 60t32 48.5t47.5 32.5t58.5 12q32 0 60 -12t48.5 -32.5t32.5 -48.5t12 -60q0 -31 -12 -58.5t-32.5 -47.5t-48.5 -32t-60 -12q-31 0 -58.5 12
t-47.5 32t-32 47.5t-12 58.5zM502 614h96l-409 -614h-96zM124 471q0 -9 3.5 -17.5t10 -15t15 -10t17.5 -3.5q10 0 19 3.5t15.5 10t10.5 15t4 17.5q0 20 -14.5 34.5t-34.5 14.5q-9 0 -17.5 -4t-15 -10.5t-10 -15.5t-3.5 -19zM894 143q0 9 -3.5 17.5t-10 15t-15 10t-17.5 3.5
q-10 0 -19 -3.5t-15.5 -10t-10.5 -15t-4 -17.5q0 -20 14.5 -34.5t34.5 -14.5q9 0 17.5 4t15 10.5t10 15.5t3.5 19zM567 143q0 9 -3.5 17.5t-10 15t-15 10t-17.5 3.5q-10 0 -19 -3.5t-15.5 -10t-10.5 -15t-4 -17.5q0 -20 14.5 -34.5t34.5 -14.5q9 0 17.5 4t15 10.5t10 15.5
t3.5 19z" />
    <glyph glyph-name="second" unicode="&#x2033;" horiz-adv-x="0" 
 />
    <glyph glyph-name="guilsinglleft" unicode="&#x2039;" horiz-adv-x="302" 
d="M117 54l-92 168l92 168h160l-92 -168l92 -168h-160z" />
    <glyph glyph-name="guilsinglright" unicode="&#x203a;" horiz-adv-x="302" 
d="M25 54l92 168l-92 168h160l92 -168l-92 -168h-160z" />
    <glyph glyph-name="fraction" unicode="&#x2044;" horiz-adv-x="216" 
d="M-33 0h-87l369 614h87z" />
    <glyph glyph-name="Euro" unicode="&#x20ac;" horiz-adv-x="581" 
d="M20 293h41v14v19h-41v77h51q4 16 9 32q20 58 55 100t83.5 65.5t107.5 23.5q53 0 93.5 -17.5t70 -47.5t47 -70.5t24.5 -87.5h-168q-5 22 -20.5 39t-46.5 17q-23 0 -39 -11.5t-26 -31.5q-3 -5 -5 -11h103l-15 -77h-101v-19v-14h93l-15 -77h-67q3 -9 7 -16q10 -20 26 -31.5
t39 -11.5q31 0 46.5 17t20.5 39h168q-7 -47 -24.5 -87.5t-47 -70.5t-70 -47.5t-93.5 -17.5q-59 0 -107.5 23.5t-83.5 65.5t-55 100q-6 18 -10 37h-50v77z" />
    <glyph glyph-name="trademark" unicode="&#x2122;" horiz-adv-x="617" 
d="M20 614h242v-83h-76v-171h-91v171h-75v83zM414 360l-43 136v-136h-78v254h104l43 -136l43 136h104v-254h-79v136l-43 -136h-51z" />
    <glyph glyph-name="uni2153" unicode="&#x2153;" horiz-adv-x="746" 
d="M197 0h-96l409 614h96zM552 221h23q12 0 22 5.5t10 19.5q0 8 -5.5 14t-16.5 6t-18 -8t-9 -19h-116q3 25 13 47.5t27.5 39.5t42.5 27.5t57 10.5q66 0 102 -32t36 -86q0 -19 -10 -38.5t-23 -28.5q17 -9 26.5 -27t9.5 -38q0 -54 -37 -87t-103 -33q-64 0 -102 35t-41 93h124
q1 -11 6.5 -17.5t16.5 -6.5q10 0 15.5 5.5t5.5 13.5q0 13 -8.5 17.5t-19.5 4.5h-28v82zM221 255h-117v228l-85 -40v118l115 53h87v-359z" />
    <glyph glyph-name="uni2154" unicode="&#x2154;" horiz-adv-x="816" 
d="M267 0h-96l409 614h96zM196 494q0 8 -5 14.5t-16 6.5q-10 0 -16 -6.5t-6 -14.5h-125q3 25 13.5 47.5t29 40t44 27.5t57.5 10q64 0 103 -32.5t39 -84.5q0 -37 -19.5 -61t-45.5 -47l-44 -38h106v-101h-280v76l139 123q11 11 18.5 19.5t7.5 20.5zM622 219h24q14 0 23.5 6
t9.5 21q0 9 -5.5 16.5t-18.5 7.5q-14 0 -21 -10t-9 -21h-113q3 25 13 47.5t27.5 39.5t42.5 27.5t57 10.5q66 0 102 -32t36 -86q0 -19 -10 -38.5t-23 -28.5q17 -9 26.5 -27t9.5 -38q0 -54 -37 -87t-103 -33q-64 0 -102 35t-41 93h120q1 -13 7.5 -21.5t20.5 -8.5q11 0 17.5 7
t6.5 18q0 14 -9 19t-22 5h-29v78z" />
    <glyph glyph-name="uni215B" unicode="&#x215b;" horiz-adv-x="753" 
d="M197 0h-96l409 614h96zM574 83q14 0 22.5 8t8.5 19t-8.5 19t-22.5 8t-23.5 -8t-9.5 -19t9.5 -19t23.5 -8zM574 225q14 0 22 8t8 19t-8 18.5t-22 7.5t-22.5 -7.5t-8.5 -18.5t8.5 -19t22.5 -8zM574 -6q-30 0 -56.5 7t-46.5 20.5t-31.5 33.5t-11.5 45q0 29 14 49t37 30
q-20 12 -29.5 32t-9.5 43q0 27 11 47.5t29.5 34.5t42.5 21t51 7q26 0 50 -7t42.5 -21t29.5 -34.5t11 -47.5q0 -23 -9 -43t-30 -32q23 -10 37 -30t14 -49q0 -25 -11.5 -45t-31 -33.5t-46 -20.5t-56.5 -7zM221 255h-117v228l-85 -40v118l115 53h87v-359z" />
    <glyph glyph-name="uni215C" unicode="&#x215c;" horiz-adv-x="778" 
d="M599 83q14 0 22.5 8t8.5 19t-8.5 19t-22.5 8t-23.5 -8t-9.5 -19t9.5 -19t23.5 -8zM599 225q14 0 22 8t8 19t-8 18.5t-22 7.5t-22.5 -7.5t-8.5 -18.5t8.5 -19t22.5 -8zM599 -6q-30 0 -56.5 7t-46.5 20.5t-31.5 33.5t-11.5 45q0 29 14 49t37 30q-20 12 -29.5 32t-9.5 43
q0 27 11 47.5t29.5 34.5t42.5 21t51 7q26 0 50 -7t42.5 -21t29.5 -34.5t11 -47.5q0 -23 -9 -43t-30 -32q23 -10 37 -30t14 -49q0 -25 -11.5 -45t-31 -33.5t-46 -20.5t-56.5 -7zM222 0h-96l409 614h96zM130 474h24q14 0 23.5 6t9.5 21q0 9 -5.5 16.5t-18.5 7.5q-14 0 -21 -10
t-9 -21h-113q3 25 13 47.5t27.5 39.5t42.5 27.5t57 10.5q66 0 102 -32t36 -86q0 -19 -10 -38.5t-23 -28.5q17 -9 26.5 -27t9.5 -38q0 -54 -37 -87t-103 -33q-64 0 -102 35t-41 93h120q1 -13 7.5 -21.5t20.5 -8.5q11 0 17.5 7t6.5 18q0 14 -9 19t-22 5h-29v78z" />
    <glyph glyph-name="uni215D" unicode="&#x215d;" horiz-adv-x="787" 
d="M608 83q14 0 22.5 8t8.5 19t-8.5 19t-22.5 8t-23.5 -8t-9.5 -19t9.5 -19t23.5 -8zM608 225q14 0 22 8t8 19t-8 18.5t-22 7.5t-22.5 -7.5t-8.5 -18.5t8.5 -19t22.5 -8zM608 -6q-30 0 -56.5 7t-46.5 20.5t-31.5 33.5t-11.5 45q0 29 14 49t37 30q-20 12 -29.5 32t-9.5 43
q0 27 11 47.5t29.5 34.5t42.5 21t51 7q26 0 50 -7t42.5 -21t29.5 -34.5t11 -47.5q0 -23 -9 -43t-30 -32q23 -10 37 -30t14 -49q0 -25 -11.5 -45t-31 -33.5t-46 -20.5t-56.5 -7zM231 0h-96l409 614h96zM163 404q-9 0 -15 -2.5t-14 -7.5h-99v220h241v-94h-145v-38q8 5 23 7.5
t26 2.5q59 0 92 -32t33 -85q0 -57 -37.5 -91.5t-100.5 -34.5q-67 0 -105.5 30.5t-42.5 88.5h117q2 -10 10 -16t19 -6q13 0 21 8t8 21q0 11 -8 20t-23 9z" />
    <glyph glyph-name="uni215E" unicode="&#x215e;" horiz-adv-x="723" 
d="M544 83q14 0 22.5 8t8.5 19t-8.5 19t-22.5 8t-23.5 -8t-9.5 -19t9.5 -19t23.5 -8zM544 225q14 0 22 8t8 19t-8 18.5t-22 7.5t-22.5 -7.5t-8.5 -18.5t8.5 -19t22.5 -8zM544 -6q-30 0 -56.5 7t-46.5 20.5t-31.5 33.5t-11.5 45q0 29 14 49t37 30q-20 12 -29.5 32t-9.5 43
q0 27 11 47.5t29.5 34.5t42.5 21t51 7q26 0 50 -7t42.5 -21t29.5 -34.5t11 -47.5q0 -23 -9 -43t-30 -32q23 -10 37 -30t14 -49q0 -25 -11.5 -45t-31 -33.5t-46 -20.5t-56.5 -7zM167 0h-96l409 614h96zM168 255h-124l108 258h-133v101h265v-78z" />
    <glyph glyph-name="minus" unicode="&#x2212;" horiz-adv-x="551" 
d="M38 368h475v-137h-475v137z" />
    <glyph glyph-name="approxequal" unicode="&#x2248;" horiz-adv-x="571" 
d="M48 245q35 23 66.5 32.5t60.5 9.5q30 0 56.5 -6.5t52 -14t52 -14t56.5 -6.5q29 0 62 9.5t69 33.5v-128q-36 -23 -69 -32.5t-62 -9.5q-30 0 -56.5 6.5t-52 14t-52 14t-56.5 6.5q-29 0 -60.5 -9.5t-66.5 -32.5v127zM48 438q35 23 66.5 33t60.5 10q30 0 56.5 -6.5t52 -14.5
t52 -14.5t56.5 -6.5q29 0 62 10t69 33v-128q-36 -23 -69 -32.5t-62 -9.5q-30 0 -56.5 6.5t-52 14.5t-52 14.5t-56.5 6.5q-29 0 -60.5 -10t-66.5 -33v127z" />
    <glyph glyph-name="notequal" unicode="&#x2260;" horiz-adv-x="571" 
d="M48 261h157l50 81h-207v122h282l56 91h110l-56 -91h83v-122h-158l-50 -81h208v-121h-282l-56 -92h-110l56 92h-83v121z" />
    <glyph glyph-name="lessequal" unicode="&#x2264;" horiz-adv-x="436" 
d="M37 454l362 119v-143l-232 -56l232 -58v-142l-362 119v161zM37 155h362v-131h-362v131z" />
    <glyph glyph-name="greaterequal" unicode="&#x2265;" horiz-adv-x="436" 
d="M399 293l-362 -119v142l232 58l-232 56v143l362 -119v-161zM399 24h-362v131h362v-131z" />
    <glyph glyph-name="acute.cap" 
d="M114 663l85 137h186l-85 -137h-186z" />
    <glyph glyph-name="breve.cap" 
d="M250 653q-33 0 -61 10t-49 30t-32.5 49.5t-11.5 69.5h129q0 -19 6.5 -28t18.5 -9q13 0 19.5 9t6.5 28h128q0 -40 -11.5 -69.5t-32.5 -49.5t-49 -30t-61 -10z" />
    <glyph glyph-name="circumflex.cap" 
d="M435 663h-149l-36 37l-36 -37h-149l117 137h136z" />
    <glyph glyph-name="dieresis.cap" 
d="M61 737q0 38 26 64.5t64 26.5t64.5 -26.5t26.5 -64.5t-26.5 -64t-64.5 -26t-64 26t-26 64zM258 737q0 38 26 64.5t64 26.5t64.5 -26.5t26.5 -64.5t-26.5 -64t-64.5 -26t-64 26t-26 64z" />
    <glyph glyph-name="grave.cap" 
d="M199 663l-85 137h186l85 -137h-186z" />
    <glyph glyph-name="macron.cap" 
d="M105 788h289v-125h-289v125z" />
    <glyph glyph-name="ring.cap" 
d="M367 751q0 -24 -9 -44.5t-25 -35.5t-37 -24t-46 -9t-46.5 9t-37 24t-24.5 35.5t-9 44.5t9 44.5t24.5 36t37 24.5t46.5 9t46 -9t37 -24.5t25 -36t9 -44.5zM283 751q0 14 -9 23.5t-24 9.5q-14 0 -23 -9.5t-9 -23.5q0 -13 9 -22.5t23 -9.5q15 0 24 9.5t9 22.5z" />
    <glyph glyph-name="tilde.cap" 
d="M415 816q0 -31 -4 -60t-14 -51.5t-28 -36t-45 -13.5q-18 0 -33.5 4t-30 9.5t-28 9.5t-25.5 4q-10 0 -16 -6.5t-6 -16.5h-100q0 31 4 60t14 51.5t28 36t45 13.5q18 0 33.5 -4t30 -9.5t28 -9.5t25.5 -4q10 0 16 6.5t6 16.5h100z" />
    <glyph glyph-name="caron.cap" 
d="M65 796h149l36 -37l36 37h149l-117 -137h-136z" />
    <glyph glyph-name="dotaccent.cap" 
d="M355 751q0 -47 -31 -72.5t-74 -25.5t-74 25.5t-31 72.5t31 72.5t74 25.5t74 -25.5t31 -72.5z" />
    <glyph glyph-name="commaaccent" 
d="M208 -181q-19 8 -33 26.5t-14 47.5q0 35 26 58t66 23q36 0 64 -23t28 -65q0 -29 -12.5 -51.5t-32.5 -45.5l-30 -36h-116z" />
    <glyph glyph-name="caron.Slovak" 
d="M146 483l48 167h148l-50 -167h-146z" />
    <glyph glyph-name="hungarumlaut.cap" 
d="M36 663l85 137h156l-85 -137h-156zM222 663l85 137h156l-85 -137h-156z" />
    <glyph glyph-name="commaturn" 
d="M289 626q19 -8 33 -26.5t14 -47.5q0 -35 -26 -58t-66 -23q-36 0 -64 23t-28 65q0 29 12.5 51.5t32.5 45.5l34 40h116z" />
    <glyph glyph-name="dotbelow" 
d="M351 -120q0 -45 -29.5 -70t-71.5 -25t-71.5 25t-29.5 70t29.5 69.5t71.5 24.5t71.5 -24.5t29.5 -69.5z" />
    <glyph glyph-name="cedilla.alt" 
d="M127 -175l67 143h156l-67 -143h-156z" />
    <glyph glyph-name="exclamdown.cap" horiz-adv-x="262" 
d="M56 401h150l41 -401h-232zM23 521q0 21 8.5 39.5t23 32t34 21t42.5 7.5q22 0 42 -7.5t34.5 -21t23 -32t8.5 -39.5t-8.5 -39.5t-23 -32t-34.5 -21t-42 -7.5q-23 0 -42.5 7.5t-34 21t-23 32t-8.5 39.5z" />
    <glyph glyph-name="questiondown.cap" horiz-adv-x="495" 
d="M342 521q0 -22 -8.5 -40t-23 -31.5t-34.5 -21t-42 -7.5q-47 0 -78.5 27.5t-31.5 72.5q0 43 31.5 71.5t78.5 28.5q22 0 42 -7.5t34.5 -21t23 -32t8.5 -39.5zM20 178q0 28 9.5 51.5t23.5 44.5t31 40.5t32 39.5q12 17 16 27.5t5 19.5h189q0 -10 -2 -19t-6.5 -20t-13 -24
t-21.5 -30l-25.5 -32.5t-20 -26.5t-13.5 -23.5t-5 -23.5q0 -17 10 -27t24 -10q18 0 27.5 11.5t10.5 24.5h194q-5 -43 -22 -81t-47 -67t-73 -46t-100 -17q-49 0 -90 13t-70.5 37t-46 59t-16.5 79z" />
    <glyph glyph-name="guilsinglleft.cap" horiz-adv-x="302" 
d="M117 134l-92 168l92 168h160l-92 -168l92 -168h-160z" />
    <glyph glyph-name="guilsinglright.cap" horiz-adv-x="302" 
d="M25 134l92 168l-92 168h160l92 -168l-92 -168h-160z" />
    <glyph glyph-name="guillemotleft.cap" horiz-adv-x="483" 
d="M308 134l-92 168l92 168h150l-92 -168l92 -168h-150zM117 134l-92 168l92 168h150l-92 -168l92 -168h-150z" />
    <glyph glyph-name="guillemotright.cap" horiz-adv-x="483" 
d="M25 134l92 168l-92 168h150l92 -168l-92 -168h-150zM216 134l92 168l-92 168h150l92 -168l-92 -168h-150z" />
    <glyph glyph-name="slash.cap" horiz-adv-x="415" 
d="M253 670h157l-248 -734h-157z" />
    <glyph glyph-name="backslash.cap" horiz-adv-x="415" 
d="M410 -64h-157l-248 734h157z" />
    <glyph glyph-name="bar.cap" horiz-adv-x="217" 
d="M33 670h151v-734h-151v734z" />
    <glyph glyph-name="periodcentered.cap" horiz-adv-x="253" 
d="M20 290q0 47 30.5 77.5t75.5 30.5q22 0 42 -8t34 -22.5t22.5 -34.5t8.5 -43t-8.5 -42.5t-22.5 -34t-34 -23t-42 -8.5t-41.5 8.5t-33.5 23t-22.5 34t-8.5 42.5z" />
    <glyph glyph-name="bullet.cap" horiz-adv-x="398" 
d="M378 291q0 -39 -14 -71.5t-38 -56t-56.5 -36.5t-69.5 -13q-38 0 -70.5 13t-57 36.5t-38.5 56t-14 71.5q0 40 14 73t38.5 57t57 37t70.5 13q37 0 69.5 -13t56.5 -37t38 -57t14 -73z" />
    <glyph glyph-name="hyphen.cap" horiz-adv-x="307" 
d="M33 369h241v-155h-241v155z" />
    <glyph glyph-name="endash.cap" horiz-adv-x="461" 
d="M33 352h395v-122h-395v122z" />
    <glyph glyph-name="emdash.cap" horiz-adv-x="832" 
d="M33 352h766v-122h-766v122z" />
    <glyph glyph-name="parenleft.cap" horiz-adv-x="343" 
d="M30 303q0 72 20.5 133.5t58.5 108.5t92 79t122 46v-170q-28 -11 -50.5 -27.5t-39 -40t-25.5 -55.5t-9 -74t9 -74t25.5 -55.5t39 -40t50.5 -27.5v-170q-68 14 -122 46t-92 79t-58.5 108.5t-20.5 133.5z" />
    <glyph glyph-name="parenright.cap" horiz-adv-x="343" 
d="M313 303q0 -72 -20.5 -133.5t-58.5 -108.5t-92 -79t-122 -46v170q28 11 50.5 27.5t39 40t25.5 55.5t9 74t-9 74t-25.5 55.5t-39 40t-50.5 27.5v170q68 -14 122 -46t92 -79t58.5 -108.5t20.5 -133.5z" />
    <glyph glyph-name="bracketleft.cap" horiz-adv-x="341" 
d="M210 89h111v-153h-288v734h288v-153h-111v-428z" />
    <glyph glyph-name="bracketright.cap" horiz-adv-x="341" 
d="M131 517h-111v153h288v-734h-288v153h111v428z" />
    <glyph glyph-name="braceleft.cap" horiz-adv-x="379" 
d="M258 118q0 -29 29 -29h72v-153h-141q-57 0 -93 36t-36 94v132q0 29 -29 29h-40v152h40q29 0 29 29v132q0 58 36 94t93 36h141v-153h-72q-29 0 -29 -29v-102q0 -32 -13.5 -51.5t-33.5 -31.5q20 -12 33.5 -31.5t13.5 -51.5v-102z" />
    <glyph glyph-name="braceright.cap" horiz-adv-x="379" 
d="M121 220q0 32 13.5 51.5t33.5 31.5q-20 12 -33.5 31.5t-13.5 51.5v102q0 29 -29 29h-72v153h141q57 0 93 -36t36 -94v-132q0 -29 29 -29h40v-152h-40q-29 0 -29 -29v-132q0 -58 -36 -94t-93 -36h-141v153h72q29 0 29 29v102z" />
    <glyph glyph-name="at.cap" horiz-adv-x="750" 
d="M542 238q-3 -18 2.5 -27t19.5 -9q21 0 38 10.5t29 31.5t18.5 51.5t6.5 70.5q0 53 -20 94t-54.5 69t-81.5 42.5t-102 14.5q-66 0 -121 -22t-94.5 -62t-61 -96t-21.5 -124q0 -78 28 -130t71.5 -82.5t96.5 -43t103 -12.5q70 0 123 13.5t101 34.5v-77q-38 -19 -96.5 -33
t-127.5 -14q-74 0 -143 20t-122.5 62t-86 107t-32.5 155q0 79 27.5 148t78 121t121 82t156.5 30q75 0 137 -22.5t106.5 -62.5t69 -94.5t24.5 -117.5q0 -62 -16.5 -108t-45.5 -77.5t-68 -47t-85 -15.5q-35 0 -67 12t-53 37q-18 -24 -45.5 -34.5t-56.5 -10.5q-34 0 -59.5 12
t-43 33t-26 49.5t-8.5 61.5q0 43 13 82.5t37.5 69.5t59 47.5t77.5 17.5q26 0 50 -10t35 -26l5 29h148zM411 344q-2 11 -13 18t-25 7q-12 0 -23 -5.5t-19 -15.5t-13 -24t-5 -31q0 -20 10 -33t32 -13q16 0 27 7.5t17 18.5z" />
    <glyph glyph-name="published" horiz-adv-x="704" 
d="M669 307q0 -69 -25 -127t-68 -100.5t-101 -66t-123 -23.5t-123 23.5t-101 66t-68 100.5t-25 127t25 127t68 100.5t101 66t123 23.5t123 -23.5t101 -66t68 -100.5t25 -127zM622 307q0 59 -21.5 108.5t-58 85.5t-86 56.5t-104.5 20.5q-56 0 -105 -20.5t-85.5 -56.5
t-58 -85.5t-21.5 -108.5t21.5 -108.5t58 -85.5t85.5 -56.5t105 -20.5q55 0 104.5 20.5t86 56.5t58 85.5t21.5 108.5zM333 224v-100h-115v369h174q62 0 100.5 -34.5t38.5 -99.5q0 -66 -38.5 -100.5t-100.5 -34.5h-59zM418 359q0 17 -9.5 27t-32.5 10h-43v-75h43
q23 0 32.5 10.5t9.5 27.5z" />
    <glyph glyph-name="Euro.lt" horiz-adv-x="520" 
d="M23 293h28v14v19h-28v77h37l8 32q18 58 50 100t76.5 65.5t98.5 23.5q49 0 86.5 -17.5t64 -47.5t43 -70.5t22.5 -87.5h-158q-4 22 -16.5 39t-37.5 17q-18 0 -30.5 -11.5t-20.5 -32.5q-2 -5 -3 -10h81l-14 -77h-78v-20v-13h71l-14 -77h-49q3 -10 6 -18q8 -20 20.5 -31.5
t30.5 -11.5q25 0 37.5 17t16.5 39l158 2q-6 -47 -22.5 -87.5t-43 -70.5t-64 -47.5t-86.5 -17.5q-54 0 -98.5 23.5t-76.5 65.5t-50 100q-5 18 -9 37h-36v77z" />
    <glyph glyph-name="dollar.lt" horiz-adv-x="520" 
d="M320 428q-8 17 -23.5 26.5t-38.5 9.5q-11 0 -20.5 -2.5t-16 -6.5t-10 -10t-3.5 -13t2.5 -12t6.5 -8.5t10 -5.5t13 -4l114 -29q78 -20 115.5 -62.5t37.5 -114.5q0 -46 -18.5 -82t-50.5 -60.5t-76 -37.5q-11 -4 -23 -7v-91h-150v92q-54 12 -94 41q-68 49 -83 137h189
q7 -19 24.5 -29t43.5 -10q10 0 19 2.5t15.5 7t10.5 10.5t4 14q0 19 -12 25.5t-35 11.5l-99 23q-32 7 -59.5 20t-48 33t-32 49t-11.5 69q0 45 18 81t49.5 61.5t74.5 39.5q13 4 26 7v91h150v-93q7 -2 15 -5q42 -13 72 -37t48 -57.5t25 -73.5h-179z" />
    <glyph glyph-name="cent.lt" horiz-adv-x="520" 
d="M30 237q0 52 17 96t48 75t75 48l21 8v100h150v-100l15 -5q39 -14 67.5 -39.5t45 -61t21.5 -78.5h-182q-2 15 -11.5 26.5t-29.5 11.5q-11 0 -20.5 -5.5t-16 -15.5t-10 -25.5t-3.5 -34.5q0 -20 3.5 -35t10 -25t16 -15.5t20.5 -5.5q20 0 29.5 11.5t11.5 26.5h182
q-5 -43 -21.5 -78.5t-45 -61t-67.5 -40.5q-8 -2 -15 -5v-91h-150v92q-11 3 -21 7q-44 18 -75 49t-48 74.5t-17 96.5z" />
    <glyph glyph-name="sterling.lt" horiz-adv-x="520" 
d="M25 374h57v38q0 46 14 85t40 67.5t64.5 44t88.5 15.5q47 0 84.5 -14t64 -39.5t41 -61.5t15.5 -79h-167q0 16 -7 27t-24 11t-25.5 -12.5t-8.5 -35.5v-46h96v-141h-97q-1 -18 -4 -35q-5 -25 -16 -40h250v-158h-466v158h37q10 17 15 37q3 15 5 38h-57v141z" />
    <glyph glyph-name="yen.lt" horiz-adv-x="520" 
d="M37 193h127v39h-127v101h85l-115 281h202l55 -168l55 168h194l-118 -281h85v-101h-127v-39h127v-101h-127v-92h-189v92h-127v101z" />
    <glyph glyph-name="florin.lt" horiz-adv-x="520" 
d="M107 359h76l13 73q17 96 64.5 144t132.5 48q23 0 43 -3.5t35 -8.5v-151q-7 3 -14 4.5t-17 1.5q-23 0 -34.5 -11t-15.5 -34l-11 -63h71v-144h-96l-31 -176q-8 -44 -21 -79.5t-35.5 -60.5t-55.5 -38.5t-80 -13.5q-23 0 -45.5 3.5t-37.5 8.5v129q7 -3 14 -4.5t17 -1.5
q20 0 31 11t15 34l33 188h-51v144z" />
    <glyph glyph-name="zero.lt" horiz-adv-x="520" 
d="M260 -10q-59 0 -104.5 23t-76.5 65t-47 100.5t-16 128.5t16 128.5t47 100.5t76.5 65t104.5 23t104.5 -23t76.5 -65t47 -100.5t16 -128.5t-16 -128.5t-47 -100.5t-76.5 -65t-104.5 -23zM260 456q-18 0 -29.5 -12.5t-17.5 -33.5t-8 -48t-2 -55t2 -55t8 -48t17.5 -33.5
t29.5 -12.5t29.5 12.5t17.5 33.5t8 48t2 55t-2 55t-8 48t-17.5 33.5t-29.5 12.5z" />
    <glyph glyph-name="one.lt" horiz-adv-x="520" 
d="M48 166h140v246l-132 -64v180l185 86h135v-448h113v-166h-441v166z" />
    <glyph glyph-name="two.lt" horiz-adv-x="520" 
d="M296 410q0 17 -10 28.5t-27 11.5q-19 0 -28.5 -11.5t-10.5 -25.5h-200q4 43 22.5 81t48.5 67t72 46t95 17t96.5 -14.5t74 -40.5t47.5 -62.5t17 -80.5q0 -31 -9 -56.5t-24.5 -48t-36 -43t-43.5 -40.5l-83 -72h194v-166h-467v124l228 214q11 10 19.5 19t14 17.5t8 17
t2.5 18.5z" />
    <glyph glyph-name="three.lt" horiz-adv-x="520" 
d="M209 375h32q13 0 24.5 2.5t20 8t13.5 14t5 21.5q0 19 -11.5 31t-32.5 12q-23 0 -36 -15.5t-16 -35.5h-183q4 42 22.5 80.5t49.5 67.5t74 46t98 17q50 0 90.5 -14.5t69 -40.5t44 -62.5t15.5 -80.5q0 -17 -5 -35t-13 -33.5t-18.5 -29t-22.5 -21.5q15 -8 27.5 -20.5
t20.5 -28t12.5 -34t4.5 -39.5q0 -42 -16 -78t-45.5 -62t-72 -40.5t-94.5 -14.5q-56 0 -100.5 15.5t-76 43.5t-49.5 68t-21 88h194q2 -23 14 -38t36 -15q20 0 33 12.5t13 32.5q0 12 -4.5 21t-13 14.5t-20 8t-24.5 2.5h-38v132z" />
    <glyph glyph-name="four.lt" horiz-adv-x="520" 
d="M210 262h58v80h167v-80h68v-156h-68v-106h-162v106h-261v145l160 363h176z" />
    <glyph glyph-name="five.lt" horiz-adv-x="520" 
d="M266 256q-15 0 -27.5 -6t-23.5 -15h-167v379h401v-163h-242v-58q14 5 36 10t43 5q51 0 90.5 -15t66.5 -42t41 -64t14 -82q0 -49 -16.5 -89t-46.5 -68t-73 -43t-96 -15q-56 0 -100 15.5t-75 43.5t-49 68t-21 88h193q2 -21 16.5 -36.5t39.5 -15.5q10 0 18.5 3.5t15.5 10.5
t11 16t4 21q0 10 -3.5 19.5t-10 17t-16.5 11.5t-23 4z" />
    <glyph glyph-name="six.lt" horiz-adv-x="520" 
d="M320 434q-5 14 -16 23t-31 9q-15 0 -29 -7t-26.5 -25t-15.5 -53q37 25 97 25q47 0 85 -15t64.5 -41t41 -62t14.5 -78q0 -48 -17 -88.5t-48 -69.5t-75 -45.5t-98 -16.5q-62 0 -110.5 25t-79.5 67q-32 42 -45.5 94.5t-13.5 116.5q0 72 17 132.5t49 105t79.5 69t108.5 24.5
q96 0 155.5 -52t72.5 -138h-179zM202 205q0 -14 5 -25t13.5 -19.5t20.5 -13t26 -4.5q13 0 25 4.5t21 13t14 19.5t5 25t-5 25.5t-14 20t-21 13t-25 4.5q-14 0 -26 -4.5t-20.5 -13t-13.5 -20t-5 -25.5z" />
    <glyph glyph-name="seven.lt" horiz-adv-x="520" 
d="M321 0h-195l160 449h-259v165h466v-125z" />
    <glyph glyph-name="eight.lt" horiz-adv-x="520" 
d="M260 137q12 0 22.5 3.5t18 10.5t12 15.5t4.5 19.5t-4.5 20t-12 15.5t-18 10t-22.5 3.5t-22.5 -3.5t-18 -10t-12 -15.5t-4.5 -20t4.5 -19.5t12 -15.5t18 -10.5t22.5 -3.5zM260 386q12 0 22 3.5t17 10t11 15.5t4 19t-4 19t-11 16t-17 10.5t-22 3.5t-22 -3.5t-17 -10.5
t-11 -16t-4 -19t4 -19t11 -15.5t17 -10t22 -3.5zM260 -10q-50 0 -94.5 12t-77.5 35.5t-52 57t-19 76.5q0 25 7 46.5t19 39t28.5 30.5t36.5 21q-36 20 -53.5 54.5t-17.5 75.5q0 45 18 80t49 58.5t71.5 35.5t84.5 12t84.5 -12t71 -35.5t49 -58.5t18.5 -80q0 -41 -17.5 -75.5
t-53.5 -54.5q20 -8 36.5 -21t28.5 -30.5t19 -39t7 -46.5q0 -43 -19 -76.5t-52 -57t-77.5 -35.5t-94.5 -12z" />
    <glyph glyph-name="nine.lt" horiz-adv-x="520" 
d="M200 180q5 -14 16 -23t31 -9q29 0 48.5 22t22.5 63q-36 -25 -97 -25q-47 0 -85 15t-64.5 41t-41 62t-14.5 78q0 48 17 88.5t48 69.5t75 45.5t98 16.5q62 0 110.5 -25t79.5 -67q32 -42 45.5 -94.5t13.5 -116.5q0 -72 -17 -132.5t-49 -105t-79.5 -69t-108.5 -24.5
q-96 0 -155.5 52t-72.5 138h179zM318 409q0 13 -5 24.5t-13.5 20t-20.5 13t-26 4.5t-25.5 -4.5t-20.5 -13t-14 -20t-5 -24.5q0 -14 5 -25.5t14 -20t20.5 -13t25.5 -4.5t26 4.5t20.5 13t13.5 20t5 25.5z" />
    <glyph glyph-name="period.tab" horiz-adv-x="260" 
d="M23 101q0 47 30.5 77.5t75.5 30.5q22 0 42 -8t34 -22.5t22.5 -34.5t8.5 -43t-8.5 -42.5t-22.5 -34t-34 -23t-42 -8.5t-41.5 8.5t-33.5 23t-22.5 34t-8.5 42.5z" />
    <glyph glyph-name="comma.tab" horiz-adv-x="260" 
d="M97 17q-29 6 -51.5 29.5t-22.5 62.5q0 44 30.5 72t76.5 28q42 0 74 -28.5t32 -82.5q0 -32 -12.5 -61t-30.5 -56l-53 -81h-119z" />
    <glyph glyph-name="colon.tab" horiz-adv-x="260" 
d="M23 346q0 47 30.5 77.5t75.5 30.5q22 0 42 -8t34 -22.5t22.5 -34.5t8.5 -43t-8.5 -42.5t-22.5 -34t-34 -23t-42 -8.5t-41.5 8.5t-33.5 23t-22.5 34t-8.5 42.5zM23 101q0 47 30.5 77.5t75.5 30.5q22 0 42 -8t34 -22.5t22.5 -34.5t8.5 -43t-8.5 -42.5t-22.5 -34t-34 -23
t-42 -8.5t-41.5 8.5t-33.5 23t-22.5 34t-8.5 42.5z" />
    <glyph glyph-name="semicolon.tab" horiz-adv-x="260" 
d="M97 17q-29 6 -51.5 29.5t-22.5 62.5q0 44 30.5 72t76.5 28q42 0 74 -28.5t32 -82.5q0 -32 -12.5 -61t-30.5 -56l-53 -81h-119zM23 346q0 47 30.5 77.5t75.5 30.5q22 0 42 -8t34 -22.5t22.5 -34.5t8.5 -43t-8.5 -42.5t-22.5 -34t-34 -23t-42 -8.5t-41.5 8.5t-33.5 23
t-22.5 34t-8.5 42.5z" />
    <glyph glyph-name="space.tab" horiz-adv-x="260" 
 />
    <glyph glyph-name="percent.lt" horiz-adv-x="520" 
d="M19 499q0 26 9.5 48.5t26.5 39.5t39 27t48 10t48.5 -10t39.5 -27t27 -39.5t10 -48.5t-10 -48t-27 -39t-39.5 -26.5t-48.5 -9.5t-48 9.5t-39 26.5t-26.5 39t-9.5 48zM104 499q0 -8 3 -15t8 -12t12 -8t15 -3t15.5 3t13 8t8.5 12t3 15q0 17 -11.5 28.5t-28.5 11.5
q-8 0 -15 -3t-12 -8.5t-8 -13t-3 -15.5zM501 115q0 -26 -9.5 -48.5t-26.5 -39.5t-39.5 -27t-47.5 -10q-26 0 -48.5 10t-39.5 27t-27 39.5t-10 48.5q0 25 10 47.5t27 39.5t39.5 26.5t48.5 9.5q25 0 47.5 -9.5t39.5 -26.5t26.5 -39.5t9.5 -47.5zM416 115q0 8 -3 15t-8 12
t-12 8t-15 3t-15.5 -3t-13 -8t-8.5 -12t-3 -15q0 -17 11.5 -28.5t28.5 -11.5q8 0 15 3t12 8.5t8 13t3 15.5zM408 614h93l-389 -614h-93z" />
    <glyph glyph-name="perthousand.lt" horiz-adv-x="800" 
d="M446 614h93l-429 -614h-93zM122 499q0 -8 3 -15t8 -12t12 -8t15 -3t15.5 3t13 8t8.5 12t3 15q0 17 -11.5 28.5t-28.5 11.5q-8 0 -15 -3t-12 -8.5t-8 -13t-3 -15.5zM519 115q0 -26 -9.5 -48.5t-26.5 -39.5t-39.5 -27t-47.5 -10q-26 0 -48.5 10t-39.5 27t-27 39.5t-10 48.5
q0 25 10 47.5t27 39.5t39.5 26.5t48.5 9.5q25 0 47.5 -9.5t39.5 -26.5t26.5 -39.5t9.5 -47.5zM434 115q0 8 -3 15t-8 12t-12 8t-15 3t-15.5 -3t-13 -8t-8.5 -12t-3 -15q0 -17 11.5 -28.5t28.5 -11.5q8 0 15 3t12 8.5t8 13t3 15.5zM37 499q0 26 9.5 48.5t26.5 39.5t39 27
t48 10t48.5 -10t39.5 -27t27 -39.5t10 -48.5t-10 -48t-27 -39t-39.5 -26.5t-48.5 -9.5t-48 9.5t-39 26.5t-26.5 39t-9.5 48zM783 115q0 -26 -9.5 -48.5t-26.5 -39.5t-39.5 -27t-47.5 -10q-26 0 -48.5 10t-39.5 27t-27 39.5t-10 48.5q0 25 10 47.5t27 39.5t39.5 26.5
t48.5 9.5q25 0 47.5 -9.5t39.5 -26.5t26.5 -39.5t9.5 -47.5zM698 115q0 8 -3 15t-8.5 12t-12.5 8t-14 3q-8 0 -15.5 -3t-13 -8t-8.5 -12t-3 -15q0 -17 11.5 -28.5t28.5 -11.5q7 0 14 3t12.5 8.5t8.5 13t3 15.5z" />
    <glyph glyph-name="plus.lt" horiz-adv-x="520" 
d="M22 368h169v169h137v-169h169v-137h-169v-169h-137v169h-169v137z" />
    <glyph glyph-name="minus.lt" horiz-adv-x="520" 
d="M22 368h475v-137h-475v137z" />
    <glyph glyph-name="multiply.lt" horiz-adv-x="520" 
d="M43 418l97 97l120 -119l119 119l97 -97l-119 -119l119 -120l-97 -96l-119 119l-120 -119l-97 96l120 120z" />
    <glyph glyph-name="divide.lt" horiz-adv-x="520" 
d="M22 368h475v-137h-475v137zM169 486q0 37 26.5 62.5t64.5 25.5t64.5 -25.5t26.5 -62.5t-26.5 -62.5t-64.5 -25.5t-64.5 25.5t-26.5 62.5zM169 112q0 37 26.5 62.5t64.5 25.5t64.5 -25.5t26.5 -62.5t-26.5 -62.5t-64.5 -25.5t-64.5 25.5t-26.5 62.5z" />
    <glyph glyph-name="equal.lt" horiz-adv-x="520" 
d="M22 261h475v-121h-475v121zM22 464h475v-122h-475v122z" />
    <glyph glyph-name="less.lt" horiz-adv-x="520" 
d="M79 380l362 153v-151l-232 -85l232 -85v-151l-362 153v166z" />
    <glyph glyph-name="greater.lt" horiz-adv-x="520" 
d="M441 214l-362 -153v151l232 85l-232 85v151l362 -153v-166z" />
    <glyph glyph-name="plusminus.lt" horiz-adv-x="520" 
d="M34 449h165v125h121v-125h166v-120h-166v-125h-121v125h-165v120zM34 154h452v-120h-452v120z" />
    <glyph glyph-name="lessequal.lt" horiz-adv-x="520" 
d="M79 454l362 119v-143l-232 -56l232 -58v-142l-362 119v161zM79 155h362v-131h-362v131z" />
    <glyph glyph-name="greaterequal.lt" horiz-adv-x="520" 
d="M441 293l-362 -119v142l232 58l-232 56v143l362 -119v-161zM441 24h-362v131h362v-131z" />
    <glyph glyph-name="notequal.lt" horiz-adv-x="520" 
d="M22 261h157l50 81h-207v122h282l56 91h110l-56 -91h83v-122h-158l-50 -81h208v-121h-282l-56 -92h-110l56 92h-83v121z" />
    <glyph glyph-name="approxequal.lt" horiz-adv-x="520" 
d="M22 245q35 23 66.5 32.5t60.5 9.5q30 0 56.5 -6.5t52 -14t52 -14t56.5 -6.5q29 0 62 9.5t69 33.5v-128q-36 -23 -69 -32.5t-62 -9.5q-30 0 -56.5 6.5t-52 14t-52 14t-56.5 6.5q-29 0 -60.5 -9.5t-66.5 -32.5v127zM22 438q35 23 66.5 33t60.5 10q30 0 56.5 -6.5t52 -14.5
t52 -14.5t56.5 -6.5q29 0 62 10t69 33v-128q-36 -23 -69 -32.5t-62 -9.5q-30 0 -56.5 6.5t-52 14.5t-52 14.5t-56.5 6.5q-29 0 -60.5 -10t-66.5 -33v127z" />
    <glyph glyph-name="idotaccent" horiz-adv-x="252" 
d="M221 0h-190v454h190v-454zM231 580q0 -47 -31 -72.5t-74 -25.5t-74 25.5t-31 72.5t31 72.5t74 25.5t74 -25.5t31 -72.5z" />
    </font>
</defs>
</svg>
