<?xml version="1.0" standalone="no"?>
<!DOCTYPE svg PUBLIC "-//W3C//DTD SVG 20010904//EN"
 "http://www.w3.org/TR/2001/REC-SVG-20010904/DTD/svg10.dtd">
<svg version="1.0" xmlns="http://www.w3.org/2000/svg"
 width="260.000000pt" height="260.000000pt" viewBox="0 0 260.000000 260.000000"
 preserveAspectRatio="xMidYMid meet">
<metadata>
Created by potrace 1.11, written by Peter Selinger 2001-2013
</metadata>
<g transform="translate(0.000000,260.000000) scale(0.100000,-0.100000)"
fill="#000000" stroke="none">
<path d="M1440 2549 c0 -6 9 -13 20 -16 17 -5 21 -24 10 -53 -2 -3 -2 -8 -1
-12 0 -5 -6 -8 -15 -8 -14 0 -14 -2 -3 -16 8 -10 15 -12 17 -5 7 21 20 11 18
-14 -1 -17 -6 -23 -15 -20 -10 4 -9 -2 4 -21 15 -23 15 -26 2 -21 -9 3 -18 -1
-21 -9 -3 -8 1 -14 9 -14 8 0 15 -9 15 -20 0 -11 -4 -20 -9 -20 -5 0 -11 -13
-13 -29 -4 -27 -2 -29 30 -29 24 0 32 4 28 14 -3 8 1 14 10 14 8 0 17 -7 20
-15 4 -8 16 -15 28 -14 21 0 21 0 -1 9 -13 5 -23 15 -23 21 0 9 3 9 14 0 10
-8 21 -9 41 -1 20 7 31 8 39 0 7 -7 6 -10 -2 -10 -7 0 -12 -4 -12 -10 0 -5 9
-10 19 -10 11 0 23 5 26 10 3 6 1 10 -4 10 -6 0 -11 5 -11 10 0 14 27 12 33
-2 3 -7 11 2 18 20 12 28 39 45 39 25 0 -5 11 -13 24 -19 20 -9 25 -9 29 5 3
12 17 17 57 19 59 2 80 11 59 23 -8 4 -33 2 -56 -4 -44 -11 -73 0 -73 29 0 11
18 14 75 14 l75 0 0 28 c0 37 -34 90 -66 102 -25 10 -100 13 -76 3 24 -9 12
-22 -16 -17 -35 7 -61 -18 -42 -41 16 -19 5 -34 -21 -28 -19 5 -20 7 -6 18 14
10 13 15 -9 43 -25 32 -27 32 -111 32 -80 0 -85 1 -80 20 4 17 0 20 -34 20
-22 0 -39 -5 -39 -11z m210 -59 c0 -5 -5 -10 -11 -10 -5 0 -7 5 -4 10 3 6 8
10 11 10 2 0 4 -4 4 -10z m50 -15 c0 -8 -4 -15 -10 -15 -5 0 -10 7 -10 15 0 8
5 15 10 15 6 0 10 -7 10 -15z m158 -32 c14 -23 14 -23 -27 -23 -42 0 -53 14
-29 38 17 17 38 11 56 -15z m-217 7 c15 -9 19 -22 19 -69 0 -50 -4 -60 -26
-80 -21 -19 -28 -20 -35 -10 -8 12 -10 12 -18 1 -6 -11 -9 -9 -13 5 -8 30 3
84 18 90 8 3 14 11 14 19 0 8 4 14 9 14 5 0 7 9 4 20 -6 23 0 25 28 10z m139
-44 c0 -3 -4 -8 -10 -11 -5 -3 -10 -1 -10 4 0 6 5 11 10 11 6 0 10 -2 10 -4z
m-230 -93 c0 -15 -2 -16 -10 -3 -8 13 -10 12 -10 -4 0 -11 -3 -17 -6 -13 -9 9
3 37 16 37 5 0 10 -8 10 -17z m150 -15 c0 -13 -23 -5 -28 10 -2 7 2 10 12 6 9
-3 16 -11 16 -16z"/>
<path d="M1215 2530 c3 -6 -3 -10 -14 -10 -27 0 -27 -26 0 -33 12 -3 18 -10
14 -17 -6 -10 -34 -8 -102 6 -22 4 -23 2 -23 -83 0 -49 4 -95 10 -103 5 -9 5
-17 -1 -21 -15 -9 1 -41 17 -35 8 3 20 9 28 12 11 4 13 -1 10 -18 -2 -13 -2
-17 2 -10 3 6 11 12 17 12 8 0 12 25 11 80 -1 46 3 80 9 80 5 0 7 -9 4 -20 -3
-11 -1 -20 4 -20 5 0 9 -6 9 -14 0 -8 3 -16 8 -19 4 -2 1 -2 -5 -1 -7 2 -13
-6 -13 -17 0 -11 5 -17 10 -14 6 3 10 -3 10 -14 0 -10 -5 -21 -11 -23 -5 -2
-12 -16 -13 -31 -3 -25 -1 -27 35 -27 22 0 39 5 39 10 0 6 -4 10 -10 10 -5 0
-7 7 -4 15 4 10 25 15 67 17 58 3 62 5 59 26 -2 12 1 22 6 22 5 0 7 12 4 28
-5 27 -28 52 -47 51 -5 0 0 -7 13 -16 31 -22 28 -43 -7 -43 -29 0 -47 22 -35
42 9 14 7 160 -3 168 -13 12 -105 21 -98 10z m-9 -100 c0 -20 -7 -25 -19 -13
-4 3 -2 12 4 20 15 17 15 17 15 -7z m80 -102 c-3 -13 -5 -25 -5 -27 -2 -7 -31
21 -31 30 0 5 7 6 15 3 8 -4 15 -1 15 5 0 6 2 11 5 11 3 0 3 -10 1 -22z"/>
<path d="M528 2522 l-108 -3 0 -34 c0 -32 2 -35 31 -35 l30 0 -2 -66 c-2 -55
1 -69 16 -80 10 -8 25 -14 33 -14 7 0 10 -4 7 -10 -3 -5 -15 -10 -25 -10 -10
0 -21 -4 -24 -8 -6 -10 71 -9 80 1 4 4 3 7 -3 7 -11 0 -9 40 4 85 5 17 8 44 7
62 -2 30 0 32 33 35 37 3 45 15 34 53 -6 19 -13 20 -113 17z"/>
<path d="M676 2493 c-3 -10 -9 -24 -12 -30 -3 -8 1 -13 10 -13 20 0 21 -29 1
-36 -11 -5 -15 -22 -15 -70 0 -35 4 -64 10 -64 5 0 7 8 4 18 -4 13 -1 12 14
-5 23 -27 42 -30 42 -7 0 9 -5 12 -12 8 -9 -5 -9 -2 1 9 7 9 19 17 26 17 7 0
15 20 19 49 7 54 25 76 54 67 14 -5 22 2 35 28 14 30 14 35 1 40 -28 11 -62 6
-78 -10 -15 -14 -17 -14 -32 0 -21 21 -60 20 -68 -1z"/>
<path d="M915 2489 c4 -5 -1 -9 -9 -9 -20 0 -56 -35 -56 -54 0 -21 67 -31 85
-12 14 14 55 11 55 -4 0 -11 -57 -30 -87 -30 -14 0 -21 -4 -18 -10 3 -5 0 -10
-8 -10 -24 0 -40 -27 -33 -56 5 -18 13 -25 29 -24 56 5 69 1 62 -20 -4 -11 -2
-20 4 -20 6 0 26 9 46 20 20 11 49 20 65 20 l30 0 0 65 c0 98 -23 132 -95 141
-11 1 -20 3 -20 4 0 1 -12 3 -28 5 -15 2 -25 0 -22 -6z m75 -157 c0 -10 -6
-24 -12 -30 -10 -10 -10 -15 2 -22 12 -8 10 -10 -8 -10 -12 0 -25 7 -28 15 -4
8 -13 15 -20 15 -28 0 27 46 59 49 4 1 7 -7 7 -17z"/>
<path d="M740 2295 c0 -8 5 -15 10 -15 6 0 10 7 10 15 0 8 -4 15 -10 15 -5 0
-10 -7 -10 -15z"/>
<path d="M860 2260 c0 -5 6 -10 14 -10 8 0 18 5 21 10 3 6 -3 10 -14 10 -12 0
-21 -4 -21 -10z"/>
<path d="M754 2198 c-3 -5 -1 -15 6 -22 8 -11 8 -15 -2 -19 -10 -4 -10 -8 2
-16 12 -9 11 -11 -7 -11 -13 0 -23 4 -23 9 0 19 -62 31 -101 21 -31 -9 -42
-18 -54 -47 -18 -43 -19 -70 -2 -87 15 -15 87 -20 87 -6 0 5 -4 10 -9 10 -14
0 -23 37 -16 60 3 11 15 20 25 20 24 0 36 -40 22 -67 -9 -17 -7 -19 25 -20 30
-1 37 3 49 30 14 30 15 30 9 5 -3 -16 -1 -28 5 -28 5 0 10 -7 10 -15 0 -8 -4
-15 -10 -15 -5 0 -10 -9 -10 -20 0 -14 7 -20 24 -20 13 0 26 6 29 13 3 8 10 6
22 -8 14 -17 16 -18 11 -2 -4 13 -2 16 7 10 51 -32 112 -9 120 46 4 23 4 22 6
-6 1 -35 17 -45 24 -15 4 16 5 16 6 0 1 -12 9 -18 26 -18 22 0 25 4 25 38 0
60 10 82 35 82 18 0 45 33 45 55 0 2 -30 3 -67 3 -45 0 -71 -5 -82 -15 -13
-14 -13 -16 3 -25 13 -7 15 -13 6 -24 -10 -11 -14 -11 -27 2 -9 8 -13 18 -9
21 3 4 0 16 -8 28 -16 24 -11 37 19 50 20 8 20 8 0 13 -12 3 -24 -3 -33 -17
-12 -17 -24 -21 -74 -21 -54 0 -59 2 -53 19 5 17 1 20 -25 19 -17 -1 -33 -5
-36 -10z m-124 -73 c0 -8 -4 -15 -10 -15 -5 0 -10 7 -10 15 0 8 5 15 10 15 6
0 10 -7 10 -15z m278 -17 c20 -20 14 -75 -9 -97 -18 -17 -24 -18 -35 -6 -20
19 -17 42 7 66 11 11 18 27 15 35 -7 17 6 18 22 2z"/>
<path d="M1400 2191 c0 -5 5 -11 12 -13 16 -6 25 -158 9 -158 -6 0 -12 10 -12
23 -1 12 -2 35 -3 51 -1 15 -10 35 -21 42 -23 17 -62 18 -68 2 -4 -10 -8 -10
-15 1 -9 12 -14 12 -37 -3 -52 -34 -59 -103 -16 -147 23 -22 39 -29 70 -29 47
0 91 18 91 37 0 19 18 16 24 -5 4 -13 17 -18 43 -19 21 -1 42 2 48 5 14 9 45
10 45 1 0 -4 -6 -10 -12 -12 -9 -4 -10 -6 -1 -6 6 -1 19 6 27 15 15 14 16 13
16 -15 0 -17 4 -31 9 -31 6 0 9 25 7 55 -2 30 -1 55 1 55 3 0 14 -11 24 -24
21 -27 69 -41 69 -20 0 8 1 14 3 14 69 11 77 11 83 -3 5 -13 49 -16 61 -3 12
12 -10 25 -36 20 -16 -4 -32 -1 -35 5 -9 15 -53 14 -58 0 -3 -9 -10 -9 -26 0
-37 20 -25 31 33 31 35 0 55 4 55 12 0 7 7 5 18 -5 9 -8 37 -21 62 -27 39 -11
42 -13 27 -25 -23 -17 -22 -22 8 -27 33 -7 60 23 51 56 -4 18 -16 28 -44 35
-20 6 -43 11 -50 11 -8 0 -12 6 -9 13 4 12 11 12 70 0 31 -6 35 7 9 30 -25 23
-84 21 -113 -2 -24 -19 -24 -19 -44 5 -23 28 -98 47 -92 23 2 -8 2 -11 0 -6
-8 12 -30 8 -44 -10 -11 -13 -11 -17 -1 -20 18 -7 15 -21 -7 -32 -17 -9 -18
-7 -15 28 2 21 5 43 6 47 4 12 -5 14 -46 14 -34 0 -35 -1 -38 -47 -3 -40 -6
-48 -23 -48 -17 0 -20 7 -20 45 0 40 -3 45 -25 48 -14 2 -29 8 -34 13 -13 12
-36 12 -36 0z m330 -81 c10 -18 8 -20 -20 -20 -18 0 -30 5 -30 13 0 32 34 37
50 7z m-386 -21 c18 -22 18 -22 -14 -15 -28 5 -31 4 -20 -9 15 -18 7 -30 -15
-22 -19 8 -19 31 1 51 20 21 26 20 48 -5z m271 -29 c3 -5 1 -10 -4 -10 -6 0
-11 5 -11 10 0 6 2 10 4 10 3 0 8 -4 11 -10z m-94 -23 c-10 -9 -11 -8 -5 6 3
10 9 15 12 12 3 -3 0 -11 -7 -18z m-171 -27 c-18 -12 -30 -13 -30 -2 0 4 10 9
22 9 18 2 20 0 8 -7z m160 -10 c0 -5 -2 -10 -4 -10 -3 0 -8 5 -11 10 -3 6 -1
10 4 10 6 0 11 -4 11 -10z"/>
<path d="M422 2140 c-10 -17 -10 -20 3 -20 20 0 19 -20 -1 -35 -12 -8 -15 -20
-9 -43 3 -18 10 -30 15 -27 5 3 12 -4 15 -15 5 -14 14 -20 28 -18 17 2 21 12
25 53 4 54 18 79 38 71 13 -5 34 22 34 43 0 15 -53 14 -68 -1 -9 -9 -12 -9
-12 0 0 20 -54 14 -68 -8z"/>
<path d="M1144 2125 c-3 -8 -4 -49 -2 -92 l3 -77 33 -2 32 -2 0 94 0 94 -30 0
c-18 0 -33 -6 -36 -15z"/>
<path d="M630 1989 c0 -5 5 -7 10 -4 6 3 10 8 10 11 0 2 -4 4 -10 4 -5 0 -10
-5 -10 -11z"/>
<path d="M1410 1966 c0 -4 7 -14 15 -22 8 -9 15 -11 15 -6 0 5 -7 15 -15 22
-8 7 -15 9 -15 6z"/>
<path d="M1570 1940 c0 -5 5 -10 10 -10 6 0 10 5 10 10 0 6 -4 10 -10 10 -5 0
-10 -4 -10 -10z"/>
<path d="M906 1841 c-34 -37 -29 -124 10 -218 3 -7 -1 -13 -9 -13 -16 0 -54
-55 -72 -102 -15 -41 -11 -392 5 -455 15 -58 40 -73 70 -43 18 18 18 19 -7 35
-23 15 -24 18 -8 35 15 16 14 18 -5 23 -18 4 -20 10 -14 29 4 13 10 59 13 103
l6 80 14 -45 c7 -25 19 -61 27 -80 8 -22 12 -66 11 -118 -2 -70 0 -85 14 -93
11 -5 20 -28 24 -61 18 -134 81 -312 114 -323 12 -4 22 -36 39 -136 12 -72 19
-135 16 -140 -9 -14 23 -10 38 5 11 11 14 48 13 167 -1 85 -7 179 -12 209 -12
63 10 198 35 216 10 7 13 23 10 47 -2 20 0 37 4 37 4 0 8 8 8 18 0 10 7 28 16
40 12 18 13 26 4 38 -10 12 -5 23 32 62 25 26 53 69 63 95 10 26 22 47 28 47
17 0 1 -198 -22 -268 -24 -74 -27 -154 -7 -249 19 -92 21 -135 12 -217 -12
-101 9 -232 41 -253 29 -19 36 -14 25 18 -6 14 -4 49 5 93 8 40 11 93 8 121
l-6 50 21 -33 c11 -18 25 -30 30 -27 20 12 41 67 72 187 28 110 31 139 32 275
1 83 4 155 8 159 4 4 25 -5 46 -20 75 -52 91 -30 58 81 -13 43 -27 98 -31 123
-6 34 -18 55 -51 89 -43 43 -43 44 -33 85 21 79 21 103 4 140 -29 62 -97 59
-130 -5 -16 -31 -16 -43 1 -140 l6 -36 -61 -17 c-50 -14 -62 -21 -66 -41 -3
-14 -7 -36 -10 -50 -3 -14 -28 -68 -56 -121 -54 -101 -64 -105 -89 -44 -7 17
-17 30 -22 30 -5 0 -4 10 3 21 15 28 2 165 -18 196 -8 13 -11 23 -6 23 10 0
51 -79 64 -122 4 -16 4 -28 -1 -28 -4 0 -10 -12 -13 -27 -3 -19 2 -33 20 -51
34 -34 49 -16 57 68 6 63 4 70 -36 151 -24 47 -49 100 -57 118 -7 18 -18 34
-25 36 -153 44 -147 39 -139 132 4 49 2 62 -17 86 -26 33 -78 37 -104 8z m748
-607 c9 -24 7 -28 -9 -14 -17 14 -20 30 -6 30 5 0 12 -7 15 -16z"/>
<path d="M1790 1155 c-7 -9 -14 -40 -15 -70 -2 -63 -16 -85 -56 -85 -31 0 -53
-28 -43 -54 3 -9 -10 -41 -30 -74 -39 -65 -44 -87 -21 -96 10 -4 20 3 27 19 6
14 17 25 25 25 21 0 16 -81 -9 -136 -17 -39 -23 -71 -25 -154 -2 -58 -8 -118
-13 -134 -6 -16 -10 -58 -10 -93 0 -64 0 -64 27 -61 31 3 40 26 42 104 1 54
27 144 42 144 5 0 9 -26 9 -59 0 -50 15 -121 25 -121 2 0 16 5 30 10 22 8 26
15 21 34 -3 14 1 54 9 91 9 39 16 115 16 188 1 103 7 145 25 166 2 2 19 -13
38 -34 19 -20 41 -35 48 -33 24 8 28 60 8 105 -11 24 -22 59 -26 78 -6 32 -33
63 -78 90 -16 9 -16 12 -2 40 19 36 21 96 4 113 -17 17 -53 15 -68 -3z"/>
</g>
</svg>
